G04 #@! TF.GenerationSoftware,KiCad,Pcbnew,6.0.11-2627ca5db0~126~ubuntu20.04.1*
G04 #@! TF.CreationDate,2023-02-16T11:57:51+01:00*
G04 #@! TF.ProjectId,C3-27-epaper-touch,43332d32-372d-4657-9061-7065722d746f,rev?*
G04 #@! TF.SameCoordinates,Original*
G04 #@! TF.FileFunction,Legend,Bot*
G04 #@! TF.FilePolarity,Positive*
%FSLAX46Y46*%
G04 Gerber Fmt 4.6, Leading zero omitted, Abs format (unit mm)*
G04 Created by KiCad (PCBNEW 6.0.11-2627ca5db0~126~ubuntu20.04.1) date 2023-02-16 11:57:51*
%MOMM*%
%LPD*%
G01*
G04 APERTURE LIST*
%ADD10C,0.150000*%
%ADD11C,0.158749*%
%ADD12C,0.000000*%
%ADD13C,0.160000*%
%ADD14C,0.130000*%
%ADD15C,0.120000*%
%ADD16C,0.650000*%
%ADD17O,1.000000X2.100000*%
%ADD18O,1.000000X1.600000*%
%ADD19C,3.200000*%
%ADD20C,0.889000*%
%ADD21R,1.150000X1.150000*%
%ADD22C,1.150000*%
%ADD23R,1.700000X1.700000*%
%ADD24O,1.700000X1.700000*%
G04 APERTURE END LIST*
D10*
X115000000Y-55400000D02*
X115000000Y-56000000D01*
X160000000Y-55400000D02*
X160000000Y-56000000D01*
X118300000Y-116000000D02*
X118300000Y-102750000D01*
X152300000Y-102750000D02*
X152300000Y-116000000D01*
D11*
X156929274Y-86796587D02*
X120754807Y-86796587D01*
D10*
X152300000Y-116000000D02*
X118300000Y-116000000D01*
X118300000Y-102650000D02*
X139950000Y-102650000D01*
D11*
X120754807Y-86796587D02*
X118289271Y-84301940D01*
X118289271Y-84301940D02*
X118289271Y-84301940D01*
D12*
G36*
X134190715Y-81713735D02*
G01*
X134203480Y-81576955D01*
X134221352Y-81444255D01*
X134244331Y-81315635D01*
X134272415Y-81191095D01*
X134305606Y-81070635D01*
X134343903Y-80954255D01*
X134387307Y-80841955D01*
X134435816Y-80733734D01*
X134489432Y-80629594D01*
X134548154Y-80529534D01*
X134611983Y-80433553D01*
X134680918Y-80341653D01*
X134754959Y-80253833D01*
X134834106Y-80170092D01*
X134917759Y-80090945D01*
X135005317Y-80016904D01*
X135096779Y-79947970D01*
X135192147Y-79884142D01*
X135291419Y-79825420D01*
X135394596Y-79771805D01*
X135501678Y-79723296D01*
X135612664Y-79679893D01*
X135727555Y-79641597D01*
X135846351Y-79608407D01*
X135969052Y-79580323D01*
X136095658Y-79557346D01*
X136226168Y-79539474D01*
X136360584Y-79526709D01*
X136498904Y-79519050D01*
X136641128Y-79516497D01*
X136782978Y-79519063D01*
X136920972Y-79526760D01*
X137055112Y-79539588D01*
X137185397Y-79557548D01*
X137311828Y-79580639D01*
X137434404Y-79608861D01*
X137553125Y-79642215D01*
X137667991Y-79680699D01*
X137779002Y-79724315D01*
X137886159Y-79773062D01*
X137989461Y-79826940D01*
X138088909Y-79885949D01*
X138184501Y-79950089D01*
X138276239Y-80019361D01*
X138364122Y-80093763D01*
X138448150Y-80173296D01*
X138527298Y-80257024D01*
X138601339Y-80344807D01*
X138670274Y-80436644D01*
X138734102Y-80532536D01*
X138792824Y-80632483D01*
X138846440Y-80736485D01*
X138894950Y-80844542D01*
X138938353Y-80956654D01*
X138976651Y-81072821D01*
X139009841Y-81193043D01*
X139037926Y-81317320D01*
X139060904Y-81445652D01*
X139078776Y-81578040D01*
X139091542Y-81714483D01*
X139099201Y-81854981D01*
X139101755Y-81999535D01*
X139099201Y-82144089D01*
X139091542Y-82284588D01*
X139078776Y-82421031D01*
X139060904Y-82553419D01*
X139037926Y-82681751D01*
X139009841Y-82806028D01*
X138976651Y-82926250D01*
X138938353Y-83042417D01*
X138894950Y-83154529D01*
X138846440Y-83262586D01*
X138792824Y-83366588D01*
X138734102Y-83466535D01*
X138670274Y-83562427D01*
X138601339Y-83654264D01*
X138527298Y-83742047D01*
X138448150Y-83825774D01*
X138364122Y-83904922D01*
X138276239Y-83978962D01*
X138184501Y-84047897D01*
X138088909Y-84111725D01*
X137989461Y-84170446D01*
X137886159Y-84224062D01*
X137779002Y-84272570D01*
X137667991Y-84315973D01*
X137553125Y-84354269D01*
X137434404Y-84387459D01*
X137311828Y-84415543D01*
X137185397Y-84438521D01*
X137055112Y-84456392D01*
X136920972Y-84469157D01*
X136782978Y-84476816D01*
X136641128Y-84479369D01*
X136499291Y-84476816D01*
X136361334Y-84469157D01*
X136227257Y-84456392D01*
X136097060Y-84438521D01*
X135970742Y-84415543D01*
X135848304Y-84387459D01*
X135729746Y-84354269D01*
X135615067Y-84315973D01*
X135504268Y-84272570D01*
X135397349Y-84224062D01*
X135294310Y-84170446D01*
X135195151Y-84111725D01*
X135099871Y-84047897D01*
X135008471Y-83978962D01*
X134920951Y-83904922D01*
X134837311Y-83825774D01*
X134757775Y-83742047D01*
X134683371Y-83654264D01*
X134614099Y-83562427D01*
X134549957Y-83466535D01*
X134490947Y-83366588D01*
X134437068Y-83262586D01*
X134388321Y-83154529D01*
X134344704Y-83042417D01*
X134306220Y-82926250D01*
X134272866Y-82806028D01*
X134244644Y-82681751D01*
X134221553Y-82553419D01*
X134203593Y-82421031D01*
X134190765Y-82284588D01*
X134183068Y-82144089D01*
X134180502Y-81999535D01*
X134180502Y-81999517D01*
X135452467Y-81999517D01*
X135453568Y-82085823D01*
X135456872Y-82170128D01*
X135462379Y-82252430D01*
X135470088Y-82332730D01*
X135480001Y-82411028D01*
X135492115Y-82487323D01*
X135506433Y-82561615D01*
X135522954Y-82633904D01*
X135522951Y-82633886D01*
X135532038Y-82668878D01*
X135541674Y-82703369D01*
X135551862Y-82737360D01*
X135562600Y-82770851D01*
X135573889Y-82803841D01*
X135585729Y-82836331D01*
X135598119Y-82868321D01*
X135611060Y-82899810D01*
X135624551Y-82930799D01*
X135638594Y-82961287D01*
X135653187Y-82991275D01*
X135668330Y-83020763D01*
X135684024Y-83049750D01*
X135700269Y-83078237D01*
X135717064Y-83106223D01*
X135734411Y-83133709D01*
X135752383Y-83160168D01*
X135771055Y-83185875D01*
X135790429Y-83210832D01*
X135810504Y-83235037D01*
X135831279Y-83258492D01*
X135852756Y-83281195D01*
X135874933Y-83303148D01*
X135897811Y-83324349D01*
X135921390Y-83344800D01*
X135945670Y-83364499D01*
X135970651Y-83383448D01*
X135996332Y-83401645D01*
X136022715Y-83419091D01*
X136049798Y-83435787D01*
X136077582Y-83451731D01*
X136106067Y-83466924D01*
X136135190Y-83481279D01*
X136164889Y-83494708D01*
X136195163Y-83507210D01*
X136226014Y-83518787D01*
X136257440Y-83529437D01*
X136289442Y-83539161D01*
X136322019Y-83547959D01*
X136355172Y-83555831D01*
X136388901Y-83562777D01*
X136423206Y-83568797D01*
X136458087Y-83573890D01*
X136493543Y-83578058D01*
X136529574Y-83581299D01*
X136566182Y-83583615D01*
X136603365Y-83585004D01*
X136641124Y-83585467D01*
X136714063Y-83583777D01*
X136784700Y-83578708D01*
X136853035Y-83570261D01*
X136919066Y-83558434D01*
X136982794Y-83543227D01*
X137044220Y-83524642D01*
X137074069Y-83514082D01*
X137103343Y-83502678D01*
X137132040Y-83490428D01*
X137160162Y-83477334D01*
X137187709Y-83463395D01*
X137214680Y-83448611D01*
X137241075Y-83432982D01*
X137266894Y-83416509D01*
X137292137Y-83399191D01*
X137316805Y-83381028D01*
X137340897Y-83362020D01*
X137364414Y-83342168D01*
X137387355Y-83321470D01*
X137409720Y-83299928D01*
X137431509Y-83277541D01*
X137452722Y-83254310D01*
X137493422Y-83205312D01*
X137531820Y-83152935D01*
X137567514Y-83097742D01*
X137600905Y-83040297D01*
X137631993Y-82980599D01*
X137660779Y-82918648D01*
X137687261Y-82854444D01*
X137711441Y-82787988D01*
X137733318Y-82719279D01*
X137752892Y-82648317D01*
X137770163Y-82575102D01*
X137785132Y-82499635D01*
X137797797Y-82421914D01*
X137808160Y-82341941D01*
X137816220Y-82259714D01*
X137821977Y-82175235D01*
X137825431Y-82088502D01*
X137826583Y-81999517D01*
X137824681Y-81883679D01*
X137818974Y-81771644D01*
X137814693Y-81717053D01*
X137809462Y-81663412D01*
X137803279Y-81610722D01*
X137796146Y-81558984D01*
X137788061Y-81508196D01*
X137779025Y-81458359D01*
X137769037Y-81409474D01*
X137758099Y-81361539D01*
X137746209Y-81314556D01*
X137733369Y-81268524D01*
X137719577Y-81223444D01*
X137704834Y-81179314D01*
X137689039Y-81136212D01*
X137672094Y-81094210D01*
X137653996Y-81053310D01*
X137634748Y-81013510D01*
X137614348Y-80974813D01*
X137592796Y-80937216D01*
X137570094Y-80900721D01*
X137546239Y-80865327D01*
X137521234Y-80831035D01*
X137495076Y-80797844D01*
X137467768Y-80765755D01*
X137439308Y-80734767D01*
X137409697Y-80704881D01*
X137378934Y-80676096D01*
X137347020Y-80648413D01*
X137313954Y-80621832D01*
X137279412Y-80596225D01*
X137243868Y-80572270D01*
X137207323Y-80549968D01*
X137169777Y-80529317D01*
X137131229Y-80510318D01*
X137091681Y-80492971D01*
X137051131Y-80477275D01*
X137009580Y-80463232D01*
X136967027Y-80450841D01*
X136923474Y-80440102D01*
X136878919Y-80431015D01*
X136833363Y-80423581D01*
X136786805Y-80417798D01*
X136739247Y-80413667D01*
X136690687Y-80411189D01*
X136641126Y-80410363D01*
X136603367Y-80410826D01*
X136566184Y-80412215D01*
X136529577Y-80414531D01*
X136493545Y-80417772D01*
X136458089Y-80421939D01*
X136423208Y-80427033D01*
X136388904Y-80433053D01*
X136355175Y-80439999D01*
X136322021Y-80447871D01*
X136289444Y-80456669D01*
X136257442Y-80466393D01*
X136226016Y-80477043D01*
X136195166Y-80488620D01*
X136164891Y-80501122D01*
X136135192Y-80514551D01*
X136106069Y-80528906D01*
X136077584Y-80544114D01*
X136049800Y-80560099D01*
X136022717Y-80576859D01*
X135996334Y-80594395D01*
X135970653Y-80612706D01*
X135945672Y-80631793D01*
X135921392Y-80651655D01*
X135897813Y-80672293D01*
X135874935Y-80693707D01*
X135852758Y-80715896D01*
X135831282Y-80738862D01*
X135810506Y-80762603D01*
X135790431Y-80787120D01*
X135771058Y-80812412D01*
X135752385Y-80838481D01*
X135734413Y-80865325D01*
X135717067Y-80892431D01*
X135700271Y-80920089D01*
X135684026Y-80948297D01*
X135668332Y-80977056D01*
X135653189Y-81006366D01*
X135638596Y-81036227D01*
X135624554Y-81066639D01*
X135611062Y-81097601D01*
X135598121Y-81129115D01*
X135585731Y-81161179D01*
X135562603Y-81226960D01*
X135541677Y-81294944D01*
X135522954Y-81365130D01*
X135506433Y-81437419D01*
X135492115Y-81511711D01*
X135480001Y-81588006D01*
X135470088Y-81666304D01*
X135462379Y-81746604D01*
X135456872Y-81828907D01*
X135453568Y-81913211D01*
X135452467Y-81999517D01*
X134180502Y-81999517D01*
X134183055Y-81854595D01*
X134190715Y-81713735D01*
G37*
D11*
X156929274Y-65598377D02*
X156929274Y-86796587D01*
D12*
G36*
X123382022Y-80974726D02*
G01*
X123391846Y-80884976D01*
X123405601Y-80798256D01*
X123423285Y-80714565D01*
X123444899Y-80633902D01*
X123470443Y-80556269D01*
X123499917Y-80481664D01*
X123533320Y-80410089D01*
X123570653Y-80341542D01*
X123611917Y-80276025D01*
X123657110Y-80213536D01*
X123706233Y-80154076D01*
X123759285Y-80097646D01*
X123816268Y-80044244D01*
X123877180Y-79993871D01*
X123941171Y-79946540D01*
X124008191Y-79902262D01*
X124078240Y-79861037D01*
X124151317Y-79822866D01*
X124227423Y-79787748D01*
X124306558Y-79755684D01*
X124388722Y-79726674D01*
X124473914Y-79700717D01*
X124562135Y-79677814D01*
X124653384Y-79657965D01*
X124747663Y-79641169D01*
X124844970Y-79627427D01*
X124945306Y-79616738D01*
X125048670Y-79609104D01*
X125155064Y-79604523D01*
X125264486Y-79602996D01*
X127311803Y-79602996D01*
X127311803Y-84386480D01*
X126078287Y-84386480D01*
X126078287Y-82726830D01*
X125264486Y-82726830D01*
X125155439Y-82725303D01*
X125049371Y-82720723D01*
X124946282Y-82713088D01*
X124846171Y-82702400D01*
X124749039Y-82688658D01*
X124654886Y-82671862D01*
X124563711Y-82652012D01*
X124475515Y-82629109D01*
X124390298Y-82603152D01*
X124308060Y-82574142D01*
X124228800Y-82542078D01*
X124152518Y-82506960D01*
X124079216Y-82468789D01*
X124008892Y-82427565D01*
X123941547Y-82383287D01*
X123877180Y-82335955D01*
X123816268Y-82285190D01*
X123759285Y-82231422D01*
X123706233Y-82174650D01*
X123657110Y-82114876D01*
X123611917Y-82052097D01*
X123570653Y-81986316D01*
X123533320Y-81917531D01*
X123499917Y-81845743D01*
X123470443Y-81770951D01*
X123444899Y-81693156D01*
X123423285Y-81612357D01*
X123405601Y-81528555D01*
X123391846Y-81441750D01*
X123382022Y-81351940D01*
X123376127Y-81259127D01*
X123374162Y-81163311D01*
X124646125Y-81163311D01*
X124646901Y-81203559D01*
X124649229Y-81242606D01*
X124653108Y-81280451D01*
X124658540Y-81317095D01*
X124665524Y-81352538D01*
X124674059Y-81386780D01*
X124684146Y-81419820D01*
X124695786Y-81451659D01*
X124708977Y-81482296D01*
X124723720Y-81511732D01*
X124740015Y-81539966D01*
X124757862Y-81566999D01*
X124777261Y-81592831D01*
X124798212Y-81617461D01*
X124820714Y-81640889D01*
X124844769Y-81663116D01*
X124869825Y-81683680D01*
X124896132Y-81702917D01*
X124923691Y-81720828D01*
X124952501Y-81737411D01*
X124982563Y-81752668D01*
X125013877Y-81766598D01*
X125046442Y-81779201D01*
X125080258Y-81790477D01*
X125115327Y-81800427D01*
X125151646Y-81809050D01*
X125189217Y-81816346D01*
X125228040Y-81822315D01*
X125268115Y-81826958D01*
X125309440Y-81830275D01*
X125352018Y-81832264D01*
X125395847Y-81832928D01*
X126078285Y-81832928D01*
X126078285Y-80496880D01*
X125395847Y-80496880D01*
X125352018Y-80497544D01*
X125309440Y-80499533D01*
X125268115Y-80502850D01*
X125228040Y-80507493D01*
X125189217Y-80513462D01*
X125151646Y-80520759D01*
X125115327Y-80529381D01*
X125080258Y-80539331D01*
X125046442Y-80550607D01*
X125013877Y-80563210D01*
X124982563Y-80577140D01*
X124952501Y-80592397D01*
X124923691Y-80608981D01*
X124896132Y-80626891D01*
X124869825Y-80646128D01*
X124844769Y-80666692D01*
X124820714Y-80688533D01*
X124798212Y-80711600D01*
X124777261Y-80735893D01*
X124757862Y-80761412D01*
X124740015Y-80788158D01*
X124723720Y-80816130D01*
X124708977Y-80845328D01*
X124695786Y-80875753D01*
X124684146Y-80907404D01*
X124674059Y-80940282D01*
X124665524Y-80974387D01*
X124658540Y-81009718D01*
X124653108Y-81046276D01*
X124649229Y-81084061D01*
X124646901Y-81123073D01*
X124646125Y-81163311D01*
X123374162Y-81163311D01*
X123376127Y-81067504D01*
X123382022Y-80974726D01*
G37*
D11*
X120754807Y-86796587D02*
X120754807Y-86796587D01*
X156929274Y-65598377D02*
X156929274Y-65598377D01*
D12*
G36*
X153775607Y-78150000D02*
G01*
X152509831Y-78150000D01*
X152509831Y-76068860D01*
X150487873Y-76068860D01*
X150487873Y-75112134D01*
X152509831Y-75112134D01*
X152509831Y-74198145D01*
X150359651Y-74198145D01*
X150359651Y-73241419D01*
X153775607Y-73241419D01*
X153775607Y-78150000D01*
G37*
G36*
X148031881Y-73241419D02*
G01*
X149850000Y-78150000D01*
X148577646Y-78150000D01*
X148265311Y-77255732D01*
X146286094Y-77255732D01*
X145977047Y-78150000D01*
X144704693Y-78150000D01*
X145373250Y-76345020D01*
X146605005Y-76345020D01*
X147949688Y-76345020D01*
X147275702Y-74392109D01*
X146605005Y-76345020D01*
X145373250Y-76345020D01*
X146522811Y-73241419D01*
X148031881Y-73241419D01*
G37*
D10*
X150250000Y-102650000D02*
X152300000Y-102650000D01*
D12*
G36*
X127226880Y-78150000D02*
G01*
X125961101Y-78150000D01*
X125961101Y-73241419D01*
X127226880Y-73241419D01*
X127226880Y-78150000D01*
G37*
G36*
X129945888Y-76608069D02*
G01*
X131731129Y-73241419D01*
X133144855Y-73241419D01*
X133144855Y-78150000D01*
X131944832Y-78150000D01*
X131944832Y-74783350D01*
X130159592Y-78150000D01*
X128745865Y-78150000D01*
X128745865Y-73241419D01*
X129945888Y-73241419D01*
X129945888Y-76608069D01*
G37*
G36*
X121688471Y-82252936D02*
G01*
X121760982Y-82258591D01*
X121832439Y-82267904D01*
X121902752Y-82280783D01*
X121971832Y-82297135D01*
X122039588Y-82316869D01*
X122105931Y-82339892D01*
X122170771Y-82366113D01*
X122234018Y-82395439D01*
X122295583Y-82427779D01*
X122355377Y-82463041D01*
X122413308Y-82501132D01*
X122469288Y-82541961D01*
X122523227Y-82585436D01*
X122575036Y-82631464D01*
X122624623Y-82679953D01*
X122671901Y-82730812D01*
X122716778Y-82783948D01*
X122759166Y-82839270D01*
X122798974Y-82896686D01*
X122836113Y-82956103D01*
X122870493Y-83017429D01*
X122902025Y-83080573D01*
X122930619Y-83145442D01*
X122956184Y-83211945D01*
X122978632Y-83279989D01*
X122997873Y-83349483D01*
X123013816Y-83420334D01*
X123026373Y-83492450D01*
X123035453Y-83565740D01*
X123040967Y-83640111D01*
X123042825Y-83715472D01*
X123040967Y-83790832D01*
X123035453Y-83865203D01*
X123026372Y-83938493D01*
X123013815Y-84010610D01*
X122997872Y-84081461D01*
X122978631Y-84150954D01*
X122956183Y-84218998D01*
X122930617Y-84285501D01*
X122902023Y-84350370D01*
X122870491Y-84413514D01*
X122836111Y-84474841D01*
X122798971Y-84534257D01*
X122759163Y-84591673D01*
X122716775Y-84646995D01*
X122671897Y-84700131D01*
X122624619Y-84750990D01*
X122575031Y-84799480D01*
X122523223Y-84845508D01*
X122469284Y-84888982D01*
X122413303Y-84929811D01*
X122355371Y-84967902D01*
X122295578Y-85003164D01*
X122234012Y-85035504D01*
X122170764Y-85064831D01*
X122105924Y-85091051D01*
X122039581Y-85114075D01*
X121971824Y-85133809D01*
X121902744Y-85150161D01*
X121832431Y-85163039D01*
X121760973Y-85172352D01*
X121688461Y-85178007D01*
X121614985Y-85179913D01*
X121541509Y-85178007D01*
X121468997Y-85172352D01*
X121397540Y-85163039D01*
X121327227Y-85150161D01*
X121258148Y-85133809D01*
X121190392Y-85114075D01*
X121124049Y-85091051D01*
X121059209Y-85064831D01*
X120995961Y-85035504D01*
X120934396Y-85003164D01*
X120874603Y-84967902D01*
X120816671Y-84929811D01*
X120760691Y-84888982D01*
X120706752Y-84845508D01*
X120654944Y-84799480D01*
X120605356Y-84750990D01*
X120558079Y-84700131D01*
X120513201Y-84646995D01*
X120470814Y-84591673D01*
X120431005Y-84534257D01*
X120393866Y-84474841D01*
X120359486Y-84413514D01*
X120327954Y-84350370D01*
X120299360Y-84285501D01*
X120273795Y-84218998D01*
X120251347Y-84150954D01*
X120232106Y-84081461D01*
X120216163Y-84010610D01*
X120203606Y-83938493D01*
X120194526Y-83865203D01*
X120189013Y-83790832D01*
X120187155Y-83715472D01*
X120189013Y-83640111D01*
X120194527Y-83565740D01*
X120203608Y-83492450D01*
X120216165Y-83420334D01*
X120232108Y-83349483D01*
X120251349Y-83279989D01*
X120273797Y-83211945D01*
X120299363Y-83145442D01*
X120327957Y-83080573D01*
X120359489Y-83017429D01*
X120393869Y-82956103D01*
X120431009Y-82896686D01*
X120470817Y-82839270D01*
X120513205Y-82783948D01*
X120558083Y-82730812D01*
X120605361Y-82679953D01*
X120654948Y-82631464D01*
X120706757Y-82585436D01*
X120760696Y-82541961D01*
X120816677Y-82501132D01*
X120874608Y-82463041D01*
X120934402Y-82427779D01*
X120995968Y-82395439D01*
X121059215Y-82366113D01*
X121124056Y-82339892D01*
X121190399Y-82316869D01*
X121258155Y-82297135D01*
X121327235Y-82280783D01*
X121397549Y-82267904D01*
X121469006Y-82258591D01*
X121541518Y-82252936D01*
X121614995Y-82251031D01*
X121688471Y-82252936D01*
G37*
D11*
X118289271Y-84301940D02*
X118289271Y-65598377D01*
D12*
G36*
X141915750Y-79519100D02*
G01*
X142060365Y-79526910D01*
X142201001Y-79539926D01*
X142337656Y-79558149D01*
X142470332Y-79581578D01*
X142599028Y-79610213D01*
X142723744Y-79644055D01*
X142844480Y-79683102D01*
X142961236Y-79727357D01*
X143074012Y-79776817D01*
X143182809Y-79831484D01*
X143287625Y-79891357D01*
X143388462Y-79956436D01*
X143485318Y-80026721D01*
X143578195Y-80102212D01*
X143667091Y-80182909D01*
X143750894Y-80268100D01*
X143829291Y-80357070D01*
X143902281Y-80449820D01*
X143969864Y-80546351D01*
X144032041Y-80646661D01*
X144088810Y-80750751D01*
X144140174Y-80858620D01*
X144186130Y-80970270D01*
X144226680Y-81085699D01*
X144261823Y-81204908D01*
X144291560Y-81327897D01*
X144315890Y-81454665D01*
X144334813Y-81585213D01*
X144348330Y-81719541D01*
X144356440Y-81857648D01*
X144359143Y-81999535D01*
X144356427Y-82141422D01*
X144348279Y-82279530D01*
X144334700Y-82413857D01*
X144315689Y-82544405D01*
X144291247Y-82671174D01*
X144261373Y-82794163D01*
X144226067Y-82913372D01*
X144185329Y-83028801D01*
X144139160Y-83140451D01*
X144087559Y-83248320D01*
X144030526Y-83352410D01*
X143968062Y-83452720D01*
X143900166Y-83549250D01*
X143826839Y-83642001D01*
X143748080Y-83730971D01*
X143663889Y-83816161D01*
X143575005Y-83896473D01*
X143482165Y-83971602D01*
X143385371Y-84041551D01*
X143284622Y-84106317D01*
X143179918Y-84165903D01*
X143071260Y-84220306D01*
X142958646Y-84269529D01*
X142842078Y-84313570D01*
X142721554Y-84352429D01*
X142597076Y-84386107D01*
X142468644Y-84414604D01*
X142336256Y-84437920D01*
X142199913Y-84456054D01*
X142059616Y-84469007D01*
X141915364Y-84476779D01*
X141767157Y-84479369D01*
X141668273Y-84477980D01*
X141570265Y-84473813D01*
X141473133Y-84466867D01*
X141376877Y-84457142D01*
X141281498Y-84444640D01*
X141186994Y-84429358D01*
X141093366Y-84411299D01*
X141000615Y-84390460D01*
X140908739Y-84366843D01*
X140817740Y-84340448D01*
X140727617Y-84311274D01*
X140638369Y-84279321D01*
X140549998Y-84244590D01*
X140462503Y-84207080D01*
X140375884Y-84166791D01*
X140290141Y-84123724D01*
X140290141Y-83133709D01*
X140372868Y-83188414D01*
X140456046Y-83239590D01*
X140539674Y-83287236D01*
X140623752Y-83331353D01*
X140708281Y-83371941D01*
X140793261Y-83408999D01*
X140878691Y-83442528D01*
X140964571Y-83472527D01*
X141050903Y-83498997D01*
X141137684Y-83521938D01*
X141224916Y-83541350D01*
X141312599Y-83557232D01*
X141400733Y-83569585D01*
X141489316Y-83578408D01*
X141578351Y-83583702D01*
X141667836Y-83585467D01*
X141667831Y-83585503D01*
X141750758Y-83583839D01*
X141831332Y-83578845D01*
X141909553Y-83570523D01*
X141985421Y-83558872D01*
X142058937Y-83543891D01*
X142130099Y-83525581D01*
X142198909Y-83503943D01*
X142265366Y-83478975D01*
X142329469Y-83450678D01*
X142391220Y-83419052D01*
X142450618Y-83384096D01*
X142507663Y-83345812D01*
X142562356Y-83304198D01*
X142614695Y-83259255D01*
X142664682Y-83210982D01*
X142712315Y-83159380D01*
X142757320Y-83104912D01*
X142799422Y-83048042D01*
X142838620Y-82988768D01*
X142874915Y-82927092D01*
X142908306Y-82863012D01*
X142938793Y-82796530D01*
X142966377Y-82727645D01*
X142991057Y-82656358D01*
X143012834Y-82582667D01*
X143031707Y-82506574D01*
X143047677Y-82428077D01*
X143060743Y-82347178D01*
X143070905Y-82263876D01*
X143078164Y-82178172D01*
X143082519Y-82090064D01*
X143083971Y-81999554D01*
X143082519Y-81909043D01*
X143078164Y-81820936D01*
X143070905Y-81735231D01*
X143060743Y-81651929D01*
X143047677Y-81571030D01*
X143031707Y-81492534D01*
X143012834Y-81416440D01*
X142991057Y-81342750D01*
X142966377Y-81271462D01*
X142938793Y-81202577D01*
X142908306Y-81136095D01*
X142874915Y-81072016D01*
X142838620Y-81010339D01*
X142799422Y-80951066D01*
X142757320Y-80894195D01*
X142712315Y-80839727D01*
X142664682Y-80787739D01*
X142614695Y-80739105D01*
X142562356Y-80693825D01*
X142507663Y-80651899D01*
X142450618Y-80613327D01*
X142391220Y-80578108D01*
X142329469Y-80546244D01*
X142265366Y-80517734D01*
X142198909Y-80492578D01*
X142130099Y-80470775D01*
X142058937Y-80452327D01*
X141985421Y-80437233D01*
X141909553Y-80425494D01*
X141831332Y-80417108D01*
X141750758Y-80412077D01*
X141667831Y-80410400D01*
X141579097Y-80412164D01*
X141490714Y-80417458D01*
X141402681Y-80426282D01*
X141314998Y-80438634D01*
X141227666Y-80454517D01*
X141140684Y-80473928D01*
X141054053Y-80496869D01*
X140967772Y-80523339D01*
X140881841Y-80553339D01*
X140796261Y-80586868D01*
X140711032Y-80623926D01*
X140626152Y-80664513D01*
X140541623Y-80708630D01*
X140457445Y-80756277D01*
X140373617Y-80807452D01*
X140290139Y-80862157D01*
X140290139Y-79872143D01*
X140375882Y-79829075D01*
X140462501Y-79788787D01*
X140549996Y-79751277D01*
X140638367Y-79716545D01*
X140727614Y-79684593D01*
X140817738Y-79655418D01*
X140908737Y-79629023D01*
X141000613Y-79605406D01*
X141093364Y-79584568D01*
X141186992Y-79566508D01*
X141281495Y-79551227D01*
X141376875Y-79538724D01*
X141473131Y-79529000D01*
X141570263Y-79522054D01*
X141668271Y-79517886D01*
X141767154Y-79516497D01*
X141915750Y-79519100D01*
G37*
G36*
X132806289Y-84386462D02*
G01*
X131572772Y-84386462D01*
X131572772Y-82576226D01*
X131223543Y-82576226D01*
X131184821Y-82576789D01*
X131147149Y-82578479D01*
X131110529Y-82581295D01*
X131074960Y-82585238D01*
X131040443Y-82590307D01*
X131006976Y-82596503D01*
X130974561Y-82603824D01*
X130943198Y-82612273D01*
X130912886Y-82621847D01*
X130883625Y-82632548D01*
X130855415Y-82644375D01*
X130828256Y-82657328D01*
X130802149Y-82671408D01*
X130777094Y-82686614D01*
X130753089Y-82702945D01*
X130730136Y-82720403D01*
X130707383Y-82738790D01*
X130684780Y-82758703D01*
X130662327Y-82780143D01*
X130640025Y-82803109D01*
X130617873Y-82827603D01*
X130595870Y-82853624D01*
X130574019Y-82881171D01*
X130552317Y-82910245D01*
X130530765Y-82940845D01*
X130509364Y-82972973D01*
X130488113Y-83006627D01*
X130467012Y-83041807D01*
X130446061Y-83078515D01*
X130425261Y-83116749D01*
X130404610Y-83156509D01*
X130384110Y-83197796D01*
X129800994Y-84386462D01*
X128487379Y-84386462D01*
X129157001Y-83027984D01*
X129203659Y-82937420D01*
X129250716Y-82851564D01*
X129298175Y-82770414D01*
X129322054Y-82731603D01*
X129346033Y-82693970D01*
X129370113Y-82657513D01*
X129394293Y-82622232D01*
X129418572Y-82588128D01*
X129442952Y-82555200D01*
X129467432Y-82523449D01*
X129492013Y-82492874D01*
X129516693Y-82463475D01*
X129541474Y-82435253D01*
X129566229Y-82408232D01*
X129591635Y-82382438D01*
X129617692Y-82357870D01*
X129644400Y-82334529D01*
X129671759Y-82312414D01*
X129699768Y-82291526D01*
X129728428Y-82271865D01*
X129757739Y-82253429D01*
X129787701Y-82236221D01*
X129818314Y-82220239D01*
X129849577Y-82205483D01*
X129881491Y-82191954D01*
X129914056Y-82179652D01*
X129947272Y-82168575D01*
X129981139Y-82158726D01*
X130015656Y-82150103D01*
X129904307Y-82111517D01*
X129800141Y-82067851D01*
X129703159Y-82019103D01*
X129613362Y-81965275D01*
X129571157Y-81936455D01*
X129530748Y-81906365D01*
X129492134Y-81875005D01*
X129455317Y-81842375D01*
X129420296Y-81808474D01*
X129387071Y-81773303D01*
X129355642Y-81736862D01*
X129326008Y-81699151D01*
X129298171Y-81660169D01*
X129272130Y-81619917D01*
X129247884Y-81578395D01*
X129225435Y-81535602D01*
X129204781Y-81491539D01*
X129185924Y-81446206D01*
X129168862Y-81399602D01*
X129153596Y-81351728D01*
X129128453Y-81252169D01*
X129110493Y-81147529D01*
X129106377Y-81105614D01*
X130329641Y-81105614D01*
X130330279Y-81144614D01*
X130332194Y-81182311D01*
X130335385Y-81218707D01*
X130339853Y-81253800D01*
X130345598Y-81287592D01*
X130352619Y-81320082D01*
X130360917Y-81351270D01*
X130370491Y-81381156D01*
X130381342Y-81409741D01*
X130393469Y-81437024D01*
X130406873Y-81463006D01*
X130421554Y-81487686D01*
X130437511Y-81511065D01*
X130454745Y-81533143D01*
X130473255Y-81553919D01*
X130493042Y-81573394D01*
X130514005Y-81591630D01*
X130536846Y-81608689D01*
X130561564Y-81624572D01*
X130588159Y-81639278D01*
X130616632Y-81652807D01*
X130646982Y-81665160D01*
X130679209Y-81676336D01*
X130713313Y-81686336D01*
X130749295Y-81695159D01*
X130787154Y-81702805D01*
X130826890Y-81709276D01*
X130868504Y-81714569D01*
X130911995Y-81718686D01*
X130957363Y-81721627D01*
X131004609Y-81723392D01*
X131053731Y-81723980D01*
X131572770Y-81723980D01*
X131572770Y-80496880D01*
X131053731Y-80496880D01*
X131008038Y-80497419D01*
X130963871Y-80499033D01*
X130921231Y-80501724D01*
X130880118Y-80505491D01*
X130840532Y-80510334D01*
X130802473Y-80516254D01*
X130765941Y-80523250D01*
X130730935Y-80531323D01*
X130697456Y-80540471D01*
X130665505Y-80550696D01*
X130635080Y-80561998D01*
X130606182Y-80574375D01*
X130578810Y-80587829D01*
X130552966Y-80602359D01*
X130528649Y-80617966D01*
X130505858Y-80634649D01*
X130484519Y-80652257D01*
X130464557Y-80671442D01*
X130445972Y-80692204D01*
X130428764Y-80714544D01*
X130412932Y-80738460D01*
X130398476Y-80763954D01*
X130385398Y-80791024D01*
X130373696Y-80819672D01*
X130363371Y-80849897D01*
X130354422Y-80881700D01*
X130346851Y-80915079D01*
X130340655Y-80950035D01*
X130335837Y-80986569D01*
X130332395Y-81024680D01*
X130330330Y-81064368D01*
X130329642Y-81105633D01*
X130329641Y-81105614D01*
X129106377Y-81105614D01*
X129099717Y-81037807D01*
X129096126Y-80923003D01*
X129096127Y-80922985D01*
X129096477Y-80884451D01*
X129097528Y-80846543D01*
X129099281Y-80809260D01*
X129101734Y-80772603D01*
X129104887Y-80736572D01*
X129108742Y-80701166D01*
X129113298Y-80666386D01*
X129118554Y-80632232D01*
X129124512Y-80598703D01*
X129131170Y-80565801D01*
X129138529Y-80533524D01*
X129146589Y-80501872D01*
X129155349Y-80470847D01*
X129164811Y-80440447D01*
X129174974Y-80410672D01*
X129185837Y-80381524D01*
X129197113Y-80352503D01*
X129209316Y-80323907D01*
X129222445Y-80295736D01*
X129236500Y-80267991D01*
X129251481Y-80240670D01*
X129267388Y-80213776D01*
X129284221Y-80187306D01*
X129301980Y-80161262D01*
X129320666Y-80135643D01*
X129340277Y-80110449D01*
X129360815Y-80085681D01*
X129382279Y-80061338D01*
X129404669Y-80037420D01*
X129427985Y-80013927D01*
X129452227Y-79990860D01*
X129477396Y-79968218D01*
X129503640Y-79946127D01*
X129531112Y-79924712D01*
X129559809Y-79903974D01*
X129589734Y-79883911D01*
X129620884Y-79864525D01*
X129653262Y-79845815D01*
X129686865Y-79827781D01*
X129721696Y-79810423D01*
X129757753Y-79793740D01*
X129795036Y-79777734D01*
X129833546Y-79762403D01*
X129873282Y-79747748D01*
X129914245Y-79733769D01*
X129956434Y-79720466D01*
X129999850Y-79707838D01*
X130044493Y-79695885D01*
X130137407Y-79674108D01*
X130235128Y-79655236D01*
X130337654Y-79639267D01*
X130444986Y-79626202D01*
X130557124Y-79616041D01*
X130674067Y-79608784D01*
X130795817Y-79604429D01*
X130922373Y-79602978D01*
X132806289Y-79602978D01*
X132806289Y-84386462D01*
G37*
G36*
X142177376Y-73154139D02*
G01*
X142280657Y-73158609D01*
X142381010Y-73166057D01*
X142478435Y-73176486D01*
X142572932Y-73189894D01*
X142664500Y-73206281D01*
X142753141Y-73225648D01*
X142838853Y-73247995D01*
X142921638Y-73273320D01*
X143001494Y-73301625D01*
X143078422Y-73332910D01*
X143152421Y-73367174D01*
X143223493Y-73404417D01*
X143291636Y-73444639D01*
X143356852Y-73487841D01*
X143419139Y-73534021D01*
X143478061Y-73583169D01*
X143533182Y-73635271D01*
X143584502Y-73690327D01*
X143632020Y-73748337D01*
X143675736Y-73809301D01*
X143715651Y-73873219D01*
X143751765Y-73940091D01*
X143784077Y-74009917D01*
X143812588Y-74082697D01*
X143837297Y-74158431D01*
X143858205Y-74237118D01*
X143875312Y-74318759D01*
X143888617Y-74403354D01*
X143898120Y-74490903D01*
X143903823Y-74581405D01*
X143905723Y-74674860D01*
X143904323Y-74750608D01*
X143900124Y-74824147D01*
X143893125Y-74895477D01*
X143883326Y-74964597D01*
X143870727Y-75031509D01*
X143855329Y-75096211D01*
X143837131Y-75158704D01*
X143816133Y-75218988D01*
X143792335Y-75277063D01*
X143765738Y-75332928D01*
X143736341Y-75386585D01*
X143704145Y-75438033D01*
X143669148Y-75487272D01*
X143631352Y-75534302D01*
X143590756Y-75579123D01*
X143547361Y-75621735D01*
X143501230Y-75662549D01*
X143452427Y-75701976D01*
X143400954Y-75740017D01*
X143346809Y-75776670D01*
X143289993Y-75811936D01*
X143230505Y-75845815D01*
X143168346Y-75878307D01*
X143103516Y-75909412D01*
X143036015Y-75939130D01*
X142965842Y-75967461D01*
X142892998Y-75994405D01*
X142817483Y-76019962D01*
X142739297Y-76044132D01*
X142658439Y-76066915D01*
X142574909Y-76088311D01*
X142488709Y-76108319D01*
X141998836Y-76216809D01*
X141948813Y-76228034D01*
X141900666Y-76239515D01*
X141854394Y-76251253D01*
X141809996Y-76263248D01*
X141767474Y-76275499D01*
X141726827Y-76288007D01*
X141688055Y-76300772D01*
X141651158Y-76313794D01*
X141616136Y-76327072D01*
X141582989Y-76340608D01*
X141551716Y-76354400D01*
X141522319Y-76368449D01*
X141494797Y-76382755D01*
X141469150Y-76397319D01*
X141445378Y-76412139D01*
X141423482Y-76427216D01*
X141402779Y-76442910D01*
X141383412Y-76459580D01*
X141365380Y-76477226D01*
X141348685Y-76495849D01*
X141333325Y-76515448D01*
X141319300Y-76536022D01*
X141306612Y-76557573D01*
X141295259Y-76580100D01*
X141285241Y-76603602D01*
X141276560Y-76628081D01*
X141269214Y-76653535D01*
X141263203Y-76679965D01*
X141258529Y-76707371D01*
X141255190Y-76735752D01*
X141253186Y-76765109D01*
X141252518Y-76795441D01*
X141252647Y-76806907D01*
X141253032Y-76818297D01*
X141253674Y-76829610D01*
X141254573Y-76840846D01*
X141255729Y-76852005D01*
X141257142Y-76863087D01*
X141258811Y-76874092D01*
X141260738Y-76885021D01*
X141262921Y-76895873D01*
X141265361Y-76906648D01*
X141268058Y-76917346D01*
X141271012Y-76927967D01*
X141274223Y-76938512D01*
X141277691Y-76948979D01*
X141281416Y-76959370D01*
X141285397Y-76969684D01*
X141289713Y-76979985D01*
X141294439Y-76990338D01*
X141299576Y-77000741D01*
X141305124Y-77011196D01*
X141311084Y-77021701D01*
X141317454Y-77032258D01*
X141324235Y-77042867D01*
X141331427Y-77053526D01*
X141339030Y-77064237D01*
X141347043Y-77074999D01*
X141355468Y-77085812D01*
X141364304Y-77096677D01*
X141373551Y-77107593D01*
X141383208Y-77118560D01*
X141393277Y-77129579D01*
X141403756Y-77140650D01*
X141414814Y-77151202D01*
X141426616Y-77161499D01*
X141439164Y-77171539D01*
X141452456Y-77181323D01*
X141466493Y-77190851D01*
X141481275Y-77200122D01*
X141496802Y-77209137D01*
X141513074Y-77217895D01*
X141530090Y-77226397D01*
X141547852Y-77234643D01*
X141566358Y-77242632D01*
X141585609Y-77250365D01*
X141605605Y-77257841D01*
X141626346Y-77265060D01*
X141647832Y-77272023D01*
X141670063Y-77278730D01*
X141715732Y-77290291D01*
X141763969Y-77300311D01*
X141814775Y-77308789D01*
X141868150Y-77315726D01*
X141924093Y-77321121D01*
X141982604Y-77324975D01*
X142043684Y-77327287D01*
X142107332Y-77328058D01*
X142208199Y-77326093D01*
X142310247Y-77320199D01*
X142413476Y-77310374D01*
X142517887Y-77296620D01*
X142623480Y-77278936D01*
X142730254Y-77257322D01*
X142838210Y-77231778D01*
X142947347Y-77202304D01*
X143057666Y-77168900D01*
X143169166Y-77131566D01*
X143281848Y-77090302D01*
X143395712Y-77045108D01*
X143510757Y-76995984D01*
X143626984Y-76942930D01*
X143744392Y-76885945D01*
X143862982Y-76825031D01*
X143862982Y-77893543D01*
X143744688Y-77936142D01*
X143626522Y-77975992D01*
X143508485Y-78013094D01*
X143390575Y-78047447D01*
X143272795Y-78079053D01*
X143155143Y-78107910D01*
X143037619Y-78134019D01*
X142920223Y-78157379D01*
X142802956Y-78177991D01*
X142685818Y-78195855D01*
X142568808Y-78210970D01*
X142451926Y-78223338D01*
X142335173Y-78232957D01*
X142218548Y-78239827D01*
X142102052Y-78243950D01*
X141985684Y-78245324D01*
X141868276Y-78243834D01*
X141754412Y-78239365D01*
X141644093Y-78231916D01*
X141537319Y-78221488D01*
X141434089Y-78208080D01*
X141334404Y-78191692D01*
X141238263Y-78172325D01*
X141145667Y-78149979D01*
X141056616Y-78124654D01*
X140971109Y-78096349D01*
X140889147Y-78065064D01*
X140810729Y-78030801D01*
X140735856Y-77993558D01*
X140664527Y-77953335D01*
X140596743Y-77910134D01*
X140532504Y-77863953D01*
X140471989Y-77814485D01*
X140415378Y-77761420D01*
X140362672Y-77704759D01*
X140313869Y-77644501D01*
X140268971Y-77580648D01*
X140227977Y-77513198D01*
X140190887Y-77442153D01*
X140157702Y-77367511D01*
X140128420Y-77289273D01*
X140103043Y-77207439D01*
X140081570Y-77122008D01*
X140064001Y-77032982D01*
X140050337Y-76940360D01*
X140040576Y-76844142D01*
X140034720Y-76744328D01*
X140032768Y-76640918D01*
X140034181Y-76562798D01*
X140038419Y-76487067D01*
X140045482Y-76413724D01*
X140055371Y-76342770D01*
X140068085Y-76274204D01*
X140083625Y-76208027D01*
X140101990Y-76144238D01*
X140123181Y-76082838D01*
X140147197Y-76023826D01*
X140174038Y-75967203D01*
X140203705Y-75912968D01*
X140236197Y-75861122D01*
X140271514Y-75811663D01*
X140309657Y-75764594D01*
X140350626Y-75719912D01*
X140394420Y-75677619D01*
X140440897Y-75636795D01*
X140490740Y-75597332D01*
X140543948Y-75559230D01*
X140600520Y-75522489D01*
X140660457Y-75487108D01*
X140723758Y-75453089D01*
X140790425Y-75420431D01*
X140860456Y-75389134D01*
X140933852Y-75359198D01*
X141010613Y-75330623D01*
X141090739Y-75303409D01*
X141174229Y-75277556D01*
X141261084Y-75253064D01*
X141351304Y-75229934D01*
X141444889Y-75208165D01*
X141541839Y-75187757D01*
X142081027Y-75079267D01*
X142125437Y-75069700D01*
X142168254Y-75059902D01*
X142209479Y-75049872D01*
X142249112Y-75039612D01*
X142287152Y-75029121D01*
X142323599Y-75018399D01*
X142358454Y-75007445D01*
X142391717Y-74996260D01*
X142423387Y-74984844D01*
X142453465Y-74973197D01*
X142481950Y-74961318D01*
X142508842Y-74949207D01*
X142534142Y-74936866D01*
X142557850Y-74924292D01*
X142579965Y-74911487D01*
X142600488Y-74898450D01*
X142619598Y-74884503D01*
X142637475Y-74869786D01*
X142654119Y-74854298D01*
X142669531Y-74838039D01*
X142683709Y-74821010D01*
X142696655Y-74803210D01*
X142708367Y-74784639D01*
X142718847Y-74765298D01*
X142728094Y-74745186D01*
X142736107Y-74724304D01*
X142742888Y-74702651D01*
X142748437Y-74680228D01*
X142752752Y-74657035D01*
X142755834Y-74633070D01*
X142757683Y-74608336D01*
X142758300Y-74582831D01*
X142757504Y-74552457D01*
X142755115Y-74522982D01*
X142751134Y-74494406D01*
X142748546Y-74480456D01*
X142745560Y-74466730D01*
X142742176Y-74453229D01*
X142738394Y-74439952D01*
X142734213Y-74426900D01*
X142729635Y-74414073D01*
X142724658Y-74401471D01*
X142719284Y-74389094D01*
X142713511Y-74376941D01*
X142707340Y-74365014D01*
X142700771Y-74353310D01*
X142693804Y-74341832D01*
X142686439Y-74330579D01*
X142678675Y-74319550D01*
X142670514Y-74308746D01*
X142661954Y-74298167D01*
X142652996Y-74287812D01*
X142643640Y-74277683D01*
X142633886Y-74267778D01*
X142623734Y-74258097D01*
X142613184Y-74248642D01*
X142602235Y-74239411D01*
X142579144Y-74221625D01*
X142554460Y-74204737D01*
X142527901Y-74188413D01*
X142499185Y-74173142D01*
X142468311Y-74158925D01*
X142435279Y-74145761D01*
X142400090Y-74133650D01*
X142362744Y-74122592D01*
X142323240Y-74112587D01*
X142281578Y-74103635D01*
X142237759Y-74095736D01*
X142191782Y-74088891D01*
X142143647Y-74083099D01*
X142093355Y-74078360D01*
X142040906Y-74074674D01*
X141986299Y-74072041D01*
X141870611Y-74069934D01*
X141782626Y-74071360D01*
X141693742Y-74075636D01*
X141603959Y-74082764D01*
X141513276Y-74092742D01*
X141421695Y-74105571D01*
X141329215Y-74121251D01*
X141235835Y-74139782D01*
X141141557Y-74161164D01*
X141046379Y-74185398D01*
X140950303Y-74212482D01*
X140853328Y-74242418D01*
X140755453Y-74275205D01*
X140656680Y-74310843D01*
X140557007Y-74349332D01*
X140456436Y-74390672D01*
X140354965Y-74434864D01*
X140354965Y-73395942D01*
X140578840Y-73338920D01*
X140800043Y-73289501D01*
X141018574Y-73247685D01*
X141234435Y-73213472D01*
X141447623Y-73186862D01*
X141658141Y-73167855D01*
X141865987Y-73156451D01*
X142071162Y-73152649D01*
X142071167Y-73152649D01*
X142177376Y-73154139D01*
G37*
D11*
X118289271Y-65598377D02*
X156929274Y-65598377D01*
X156929274Y-86796587D02*
X156929274Y-86796587D01*
D12*
G36*
X137405813Y-73241419D02*
G01*
X139223932Y-78150000D01*
X137951578Y-78150000D01*
X137639243Y-77255732D01*
X135660026Y-77255732D01*
X135350979Y-78150000D01*
X134078624Y-78150000D01*
X134747182Y-76345020D01*
X135978937Y-76345020D01*
X137323620Y-76345020D01*
X136649634Y-74392109D01*
X135978937Y-76345020D01*
X134747182Y-76345020D01*
X135896743Y-73241419D01*
X137405813Y-73241419D01*
G37*
D10*
X155561904Y-101900000D02*
X155657142Y-101852380D01*
X155800000Y-101852380D01*
X155942857Y-101900000D01*
X156038095Y-101995238D01*
X156085714Y-102090476D01*
X156133333Y-102280952D01*
X156133333Y-102423809D01*
X156085714Y-102614285D01*
X156038095Y-102709523D01*
X155942857Y-102804761D01*
X155800000Y-102852380D01*
X155704761Y-102852380D01*
X155561904Y-102804761D01*
X155514285Y-102757142D01*
X155514285Y-102423809D01*
X155704761Y-102423809D01*
X155085714Y-102852380D02*
X155085714Y-101852380D01*
X154514285Y-102852380D01*
X154514285Y-101852380D01*
X154038095Y-102852380D02*
X154038095Y-101852380D01*
X153800000Y-101852380D01*
X153657142Y-101900000D01*
X153561904Y-101995238D01*
X153514285Y-102090476D01*
X153466666Y-102280952D01*
X153466666Y-102423809D01*
X153514285Y-102614285D01*
X153561904Y-102709523D01*
X153657142Y-102804761D01*
X153800000Y-102852380D01*
X154038095Y-102852380D01*
X156085715Y-112972380D02*
X156085715Y-111972380D01*
X155419048Y-111972380D02*
X155228572Y-111972380D01*
X155133334Y-112020000D01*
X155038095Y-112115238D01*
X154990476Y-112305714D01*
X154990476Y-112639047D01*
X155038095Y-112829523D01*
X155133334Y-112924761D01*
X155228572Y-112972380D01*
X155419048Y-112972380D01*
X155514286Y-112924761D01*
X155609524Y-112829523D01*
X155657143Y-112639047D01*
X155657143Y-112305714D01*
X155609524Y-112115238D01*
X155514286Y-112020000D01*
X155419048Y-111972380D01*
X154038095Y-112972380D02*
X154609524Y-112972380D01*
X154323810Y-112972380D02*
X154323810Y-111972380D01*
X154419048Y-112115238D01*
X154514286Y-112210476D01*
X154609524Y-112258095D01*
X149988095Y-102052380D02*
X149416666Y-102052380D01*
X149702380Y-103052380D02*
X149702380Y-102052380D01*
X149083333Y-102528571D02*
X148750000Y-102528571D01*
X148607142Y-103052380D02*
X149083333Y-103052380D01*
X149083333Y-102052380D01*
X148607142Y-102052380D01*
X147607142Y-102957142D02*
X147654761Y-103004761D01*
X147797619Y-103052380D01*
X147892857Y-103052380D01*
X148035714Y-103004761D01*
X148130952Y-102909523D01*
X148178571Y-102814285D01*
X148226190Y-102623809D01*
X148226190Y-102480952D01*
X148178571Y-102290476D01*
X148130952Y-102195238D01*
X148035714Y-102100000D01*
X147892857Y-102052380D01*
X147797619Y-102052380D01*
X147654761Y-102100000D01*
X147607142Y-102147619D01*
X147178571Y-103052380D02*
X147178571Y-102052380D01*
X147178571Y-102528571D02*
X146607142Y-102528571D01*
X146607142Y-103052380D02*
X146607142Y-102052380D01*
X145369047Y-103052380D02*
X145369047Y-102052380D01*
X144797619Y-103052380D01*
X144797619Y-102052380D01*
X144130952Y-102052380D02*
X143940476Y-102052380D01*
X143845238Y-102100000D01*
X143750000Y-102195238D01*
X143702380Y-102385714D01*
X143702380Y-102719047D01*
X143750000Y-102909523D01*
X143845238Y-103004761D01*
X143940476Y-103052380D01*
X144130952Y-103052380D01*
X144226190Y-103004761D01*
X144321428Y-102909523D01*
X144369047Y-102719047D01*
X144369047Y-102385714D01*
X144321428Y-102195238D01*
X144226190Y-102100000D01*
X144130952Y-102052380D01*
X143416666Y-102052380D02*
X142845238Y-102052380D01*
X143130952Y-103052380D02*
X143130952Y-102052380D01*
X142511904Y-102528571D02*
X142178571Y-102528571D01*
X142035714Y-103052380D02*
X142511904Y-103052380D01*
X142511904Y-102052380D01*
X142035714Y-102052380D01*
X141654761Y-103004761D02*
X141511904Y-103052380D01*
X141273809Y-103052380D01*
X141178571Y-103004761D01*
X141130952Y-102957142D01*
X141083333Y-102861904D01*
X141083333Y-102766666D01*
X141130952Y-102671428D01*
X141178571Y-102623809D01*
X141273809Y-102576190D01*
X141464285Y-102528571D01*
X141559523Y-102480952D01*
X141607142Y-102433333D01*
X141654761Y-102338095D01*
X141654761Y-102242857D01*
X141607142Y-102147619D01*
X141559523Y-102100000D01*
X141464285Y-102052380D01*
X141226190Y-102052380D01*
X141083333Y-102100000D01*
X140654761Y-102957142D02*
X140607142Y-103004761D01*
X140654761Y-103052380D01*
X140702380Y-103004761D01*
X140654761Y-102957142D01*
X140654761Y-103052380D01*
X140654761Y-102433333D02*
X140607142Y-102480952D01*
X140654761Y-102528571D01*
X140702380Y-102480952D01*
X140654761Y-102433333D01*
X140654761Y-102528571D01*
X156085715Y-110442380D02*
X156085715Y-109442380D01*
X155419048Y-109442380D02*
X155228572Y-109442380D01*
X155133334Y-109490000D01*
X155038095Y-109585238D01*
X154990476Y-109775714D01*
X154990476Y-110109047D01*
X155038095Y-110299523D01*
X155133334Y-110394761D01*
X155228572Y-110442380D01*
X155419048Y-110442380D01*
X155514286Y-110394761D01*
X155609524Y-110299523D01*
X155657143Y-110109047D01*
X155657143Y-109775714D01*
X155609524Y-109585238D01*
X155514286Y-109490000D01*
X155419048Y-109442380D01*
X154609524Y-109537619D02*
X154561905Y-109490000D01*
X154466667Y-109442380D01*
X154228572Y-109442380D01*
X154133334Y-109490000D01*
X154085715Y-109537619D01*
X154038095Y-109632857D01*
X154038095Y-109728095D01*
X154085715Y-109870952D01*
X154657143Y-110442380D01*
X154038095Y-110442380D01*
X155609524Y-114502380D02*
X156085714Y-114502380D01*
X156133333Y-114978571D01*
X156085714Y-114930952D01*
X155990476Y-114883333D01*
X155752381Y-114883333D01*
X155657143Y-114930952D01*
X155609524Y-114978571D01*
X155561905Y-115073809D01*
X155561905Y-115311904D01*
X155609524Y-115407142D01*
X155657143Y-115454761D01*
X155752381Y-115502380D01*
X155990476Y-115502380D01*
X156085714Y-115454761D01*
X156133333Y-115407142D01*
X155276190Y-114502380D02*
X154942857Y-115502380D01*
X154609524Y-114502380D01*
X156180952Y-104382380D02*
X155561904Y-104382380D01*
X155895237Y-104763333D01*
X155752380Y-104763333D01*
X155657142Y-104810952D01*
X155609523Y-104858571D01*
X155561904Y-104953809D01*
X155561904Y-105191904D01*
X155609523Y-105287142D01*
X155657142Y-105334761D01*
X155752380Y-105382380D01*
X156038095Y-105382380D01*
X156133333Y-105334761D01*
X156180952Y-105287142D01*
X155276190Y-104382380D02*
X154942857Y-105382380D01*
X154609523Y-104382380D01*
X154371428Y-104382380D02*
X153752380Y-104382380D01*
X154085714Y-104763333D01*
X153942857Y-104763333D01*
X153847618Y-104810952D01*
X153799999Y-104858571D01*
X153752380Y-104953809D01*
X153752380Y-105191904D01*
X153799999Y-105287142D01*
X153847618Y-105334761D01*
X153942857Y-105382380D01*
X154228571Y-105382380D01*
X154323809Y-105334761D01*
X154371428Y-105287142D01*
D13*
X156940552Y-89704320D02*
X156940552Y-88704320D01*
X156464362Y-89037654D02*
X156464362Y-89704320D01*
X156464362Y-89132892D02*
X156416743Y-89085273D01*
X156321505Y-89037654D01*
X156178648Y-89037654D01*
X156083410Y-89085273D01*
X156035790Y-89180511D01*
X156035790Y-89704320D01*
X154369124Y-89656701D02*
X154464362Y-89704320D01*
X154654838Y-89704320D01*
X154750076Y-89656701D01*
X154797695Y-89609082D01*
X154845314Y-89513844D01*
X154845314Y-89228130D01*
X154797695Y-89132892D01*
X154750076Y-89085273D01*
X154654838Y-89037654D01*
X154464362Y-89037654D01*
X154369124Y-89085273D01*
X153797695Y-89704320D02*
X153892933Y-89656701D01*
X153940552Y-89609082D01*
X153988171Y-89513844D01*
X153988171Y-89228130D01*
X153940552Y-89132892D01*
X153892933Y-89085273D01*
X153797695Y-89037654D01*
X153654838Y-89037654D01*
X153559600Y-89085273D01*
X153511981Y-89132892D01*
X153464362Y-89228130D01*
X153464362Y-89513844D01*
X153511981Y-89609082D01*
X153559600Y-89656701D01*
X153654838Y-89704320D01*
X153797695Y-89704320D01*
X152892933Y-89704320D02*
X152988171Y-89656701D01*
X153035790Y-89561463D01*
X153035790Y-88704320D01*
X152369124Y-89704320D02*
X152464362Y-89656701D01*
X152511981Y-89561463D01*
X152511981Y-88704320D01*
X151559600Y-89704320D02*
X151559600Y-89180511D01*
X151607219Y-89085273D01*
X151702457Y-89037654D01*
X151892933Y-89037654D01*
X151988171Y-89085273D01*
X151559600Y-89656701D02*
X151654838Y-89704320D01*
X151892933Y-89704320D01*
X151988171Y-89656701D01*
X152035790Y-89561463D01*
X152035790Y-89466225D01*
X151988171Y-89370987D01*
X151892933Y-89323368D01*
X151654838Y-89323368D01*
X151559600Y-89275749D01*
X151083410Y-89704320D02*
X151083410Y-88704320D01*
X151083410Y-89085273D02*
X150988171Y-89037654D01*
X150797695Y-89037654D01*
X150702457Y-89085273D01*
X150654838Y-89132892D01*
X150607219Y-89228130D01*
X150607219Y-89513844D01*
X150654838Y-89609082D01*
X150702457Y-89656701D01*
X150797695Y-89704320D01*
X150988171Y-89704320D01*
X151083410Y-89656701D01*
X150035790Y-89704320D02*
X150131029Y-89656701D01*
X150178648Y-89609082D01*
X150226267Y-89513844D01*
X150226267Y-89228130D01*
X150178648Y-89132892D01*
X150131029Y-89085273D01*
X150035790Y-89037654D01*
X149892933Y-89037654D01*
X149797695Y-89085273D01*
X149750076Y-89132892D01*
X149702457Y-89228130D01*
X149702457Y-89513844D01*
X149750076Y-89609082D01*
X149797695Y-89656701D01*
X149892933Y-89704320D01*
X150035790Y-89704320D01*
X149273886Y-89704320D02*
X149273886Y-89037654D01*
X149273886Y-89228130D02*
X149226267Y-89132892D01*
X149178648Y-89085273D01*
X149083410Y-89037654D01*
X148988171Y-89037654D01*
X148226267Y-89704320D02*
X148226267Y-89180511D01*
X148273886Y-89085273D01*
X148369124Y-89037654D01*
X148559600Y-89037654D01*
X148654838Y-89085273D01*
X148226267Y-89656701D02*
X148321505Y-89704320D01*
X148559600Y-89704320D01*
X148654838Y-89656701D01*
X148702457Y-89561463D01*
X148702457Y-89466225D01*
X148654838Y-89370987D01*
X148559600Y-89323368D01*
X148321505Y-89323368D01*
X148226267Y-89275749D01*
X147892933Y-89037654D02*
X147511981Y-89037654D01*
X147750076Y-88704320D02*
X147750076Y-89561463D01*
X147702457Y-89656701D01*
X147607219Y-89704320D01*
X147511981Y-89704320D01*
X147178648Y-89704320D02*
X147178648Y-89037654D01*
X147178648Y-88704320D02*
X147226267Y-88751940D01*
X147178648Y-88799559D01*
X147131029Y-88751940D01*
X147178648Y-88704320D01*
X147178648Y-88799559D01*
X146559600Y-89704320D02*
X146654838Y-89656701D01*
X146702457Y-89609082D01*
X146750076Y-89513844D01*
X146750076Y-89228130D01*
X146702457Y-89132892D01*
X146654838Y-89085273D01*
X146559600Y-89037654D01*
X146416743Y-89037654D01*
X146321505Y-89085273D01*
X146273886Y-89132892D01*
X146226267Y-89228130D01*
X146226267Y-89513844D01*
X146273886Y-89609082D01*
X146321505Y-89656701D01*
X146416743Y-89704320D01*
X146559600Y-89704320D01*
X145797695Y-89037654D02*
X145797695Y-89704320D01*
X145797695Y-89132892D02*
X145750076Y-89085273D01*
X145654838Y-89037654D01*
X145511981Y-89037654D01*
X145416743Y-89085273D01*
X145369124Y-89180511D01*
X145369124Y-89704320D01*
X144226267Y-89037654D02*
X144035790Y-89704320D01*
X143845314Y-89228130D01*
X143654838Y-89704320D01*
X143464362Y-89037654D01*
X143083410Y-89704320D02*
X143083410Y-89037654D01*
X143083410Y-88704320D02*
X143131029Y-88751940D01*
X143083410Y-88799559D01*
X143035790Y-88751940D01*
X143083410Y-88704320D01*
X143083410Y-88799559D01*
X142750076Y-89037654D02*
X142369124Y-89037654D01*
X142607219Y-88704320D02*
X142607219Y-89561463D01*
X142559600Y-89656701D01*
X142464362Y-89704320D01*
X142369124Y-89704320D01*
X142035790Y-89704320D02*
X142035790Y-88704320D01*
X141607219Y-89704320D02*
X141607219Y-89180511D01*
X141654838Y-89085273D01*
X141750076Y-89037654D01*
X141892933Y-89037654D01*
X141988171Y-89085273D01*
X142035790Y-89132892D01*
X140369124Y-89704320D02*
X140369124Y-88704320D01*
X140131029Y-88704320D01*
X139988171Y-88751940D01*
X139892933Y-88847178D01*
X139845314Y-88942416D01*
X139797695Y-89132892D01*
X139797695Y-89275749D01*
X139845314Y-89466225D01*
X139892933Y-89561463D01*
X139988171Y-89656701D01*
X140131029Y-89704320D01*
X140369124Y-89704320D01*
X139416743Y-89418606D02*
X138940552Y-89418606D01*
X139511981Y-89704320D02*
X139178648Y-88704320D01*
X138845314Y-89704320D01*
X138035790Y-89704320D02*
X138511981Y-89704320D01*
X138511981Y-88704320D01*
X137702457Y-89704320D02*
X137702457Y-88704320D01*
X137273886Y-89418606D02*
X136797695Y-89418606D01*
X137369124Y-89704320D02*
X137035790Y-88704320D01*
X136702457Y-89704320D01*
X136369124Y-89704320D02*
X136369124Y-88704320D01*
X135797695Y-89704320D01*
X135797695Y-88704320D01*
X134035790Y-88751940D02*
X134131029Y-88704320D01*
X134273886Y-88704320D01*
X134416743Y-88751940D01*
X134511981Y-88847178D01*
X134559600Y-88942416D01*
X134607219Y-89132892D01*
X134607219Y-89275749D01*
X134559600Y-89466225D01*
X134511981Y-89561463D01*
X134416743Y-89656701D01*
X134273886Y-89704320D01*
X134178648Y-89704320D01*
X134035790Y-89656701D01*
X133988171Y-89609082D01*
X133988171Y-89275749D01*
X134178648Y-89275749D01*
X133369124Y-88704320D02*
X133178648Y-88704320D01*
X133083410Y-88751940D01*
X132988171Y-88847178D01*
X132940552Y-89037654D01*
X132940552Y-89370987D01*
X132988171Y-89561463D01*
X133083410Y-89656701D01*
X133178648Y-89704320D01*
X133369124Y-89704320D01*
X133464362Y-89656701D01*
X133559600Y-89561463D01*
X133607219Y-89370987D01*
X133607219Y-89037654D01*
X133559600Y-88847178D01*
X133464362Y-88751940D01*
X133369124Y-88704320D01*
X132321505Y-88704320D02*
X132131029Y-88704320D01*
X132035790Y-88751940D01*
X131940552Y-88847178D01*
X131892933Y-89037654D01*
X131892933Y-89370987D01*
X131940552Y-89561463D01*
X132035790Y-89656701D01*
X132131029Y-89704320D01*
X132321505Y-89704320D01*
X132416743Y-89656701D01*
X132511981Y-89561463D01*
X132559600Y-89370987D01*
X132559600Y-89037654D01*
X132511981Y-88847178D01*
X132416743Y-88751940D01*
X132321505Y-88704320D01*
X131464362Y-89704320D02*
X131464362Y-88704320D01*
X131226267Y-88704320D01*
X131083410Y-88751940D01*
X130988171Y-88847178D01*
X130940552Y-88942416D01*
X130892933Y-89132892D01*
X130892933Y-89275749D01*
X130940552Y-89466225D01*
X130988171Y-89561463D01*
X131083410Y-89656701D01*
X131226267Y-89704320D01*
X131464362Y-89704320D01*
X129702457Y-89704320D02*
X129702457Y-88704320D01*
X129464362Y-88704320D01*
X129321505Y-88751940D01*
X129226267Y-88847178D01*
X129178648Y-88942416D01*
X129131029Y-89132892D01*
X129131029Y-89275749D01*
X129178648Y-89466225D01*
X129226267Y-89561463D01*
X129321505Y-89656701D01*
X129464362Y-89704320D01*
X129702457Y-89704320D01*
X128702457Y-89704320D02*
X128702457Y-88704320D01*
X128273886Y-89656701D02*
X128131029Y-89704320D01*
X127892933Y-89704320D01*
X127797695Y-89656701D01*
X127750076Y-89609082D01*
X127702457Y-89513844D01*
X127702457Y-89418606D01*
X127750076Y-89323368D01*
X127797695Y-89275749D01*
X127892933Y-89228130D01*
X128083410Y-89180511D01*
X128178648Y-89132892D01*
X128226267Y-89085273D01*
X128273886Y-88990035D01*
X128273886Y-88894797D01*
X128226267Y-88799559D01*
X128178648Y-88751940D01*
X128083410Y-88704320D01*
X127845314Y-88704320D01*
X127702457Y-88751940D01*
X127273886Y-89704320D02*
X127273886Y-88704320D01*
X126892933Y-88704320D01*
X126797695Y-88751940D01*
X126750076Y-88799559D01*
X126702457Y-88894797D01*
X126702457Y-89037654D01*
X126750076Y-89132892D01*
X126797695Y-89180511D01*
X126892933Y-89228130D01*
X127273886Y-89228130D01*
X125797695Y-89704320D02*
X126273886Y-89704320D01*
X126273886Y-88704320D01*
X125511981Y-89418606D02*
X125035790Y-89418606D01*
X125607219Y-89704320D02*
X125273886Y-88704320D01*
X124940552Y-89704320D01*
X124416743Y-89228130D02*
X124416743Y-89704320D01*
X124750076Y-88704320D02*
X124416743Y-89228130D01*
X124083410Y-88704320D01*
D14*
X160516666Y-115366666D02*
X160516666Y-114666666D01*
X160183333Y-115366666D02*
X160183333Y-114666666D01*
X159783333Y-115366666D01*
X159783333Y-114666666D01*
D10*
X156085715Y-107912380D02*
X156085715Y-106912380D01*
X155419048Y-106912380D02*
X155228572Y-106912380D01*
X155133334Y-106960000D01*
X155038095Y-107055238D01*
X154990476Y-107245714D01*
X154990476Y-107579047D01*
X155038095Y-107769523D01*
X155133334Y-107864761D01*
X155228572Y-107912380D01*
X155419048Y-107912380D01*
X155514286Y-107864761D01*
X155609524Y-107769523D01*
X155657143Y-107579047D01*
X155657143Y-107245714D01*
X155609524Y-107055238D01*
X155514286Y-106960000D01*
X155419048Y-106912380D01*
X154657143Y-106912380D02*
X154038095Y-106912380D01*
X154371429Y-107293333D01*
X154228572Y-107293333D01*
X154133334Y-107340952D01*
X154085715Y-107388571D01*
X154038095Y-107483809D01*
X154038095Y-107721904D01*
X154085715Y-107817142D01*
X154133334Y-107864761D01*
X154228572Y-107912380D01*
X154514286Y-107912380D01*
X154609524Y-107864761D01*
X154657143Y-107817142D01*
D14*
X156133333Y-115891666D02*
X155900000Y-116591666D01*
X155666666Y-115891666D01*
X155200000Y-116225000D02*
X155100000Y-116258333D01*
X155066666Y-116291666D01*
X155033333Y-116358333D01*
X155033333Y-116458333D01*
X155066666Y-116525000D01*
X155100000Y-116558333D01*
X155166666Y-116591666D01*
X155433333Y-116591666D01*
X155433333Y-115891666D01*
X155200000Y-115891666D01*
X155133333Y-115925000D01*
X155100000Y-115958333D01*
X155066666Y-116025000D01*
X155066666Y-116091666D01*
X155100000Y-116158333D01*
X155133333Y-116191666D01*
X155200000Y-116225000D01*
X155433333Y-116225000D01*
X154733333Y-115891666D02*
X154733333Y-116458333D01*
X154700000Y-116525000D01*
X154666666Y-116558333D01*
X154600000Y-116591666D01*
X154466666Y-116591666D01*
X154400000Y-116558333D01*
X154366666Y-116525000D01*
X154333333Y-116458333D01*
X154333333Y-115891666D01*
X154033333Y-116558333D02*
X153933333Y-116591666D01*
X153766666Y-116591666D01*
X153700000Y-116558333D01*
X153666666Y-116525000D01*
X153633333Y-116458333D01*
X153633333Y-116391666D01*
X153666666Y-116325000D01*
X153700000Y-116291666D01*
X153766666Y-116258333D01*
X153900000Y-116225000D01*
X153966666Y-116191666D01*
X154000000Y-116158333D01*
X154033333Y-116091666D01*
X154033333Y-116025000D01*
X154000000Y-115958333D01*
X153966666Y-115925000D01*
X153900000Y-115891666D01*
X153733333Y-115891666D01*
X153633333Y-115925000D01*
D10*
X150041785Y-104755476D02*
X150041785Y-105517380D01*
X149994166Y-105517380D02*
X149994166Y-104755476D01*
X149946547Y-104755476D02*
X149946547Y-105517380D01*
X149898928Y-105517380D02*
X149898928Y-104755476D01*
X149851309Y-104755476D02*
X149851309Y-105517380D01*
X149803690Y-105517380D02*
X149803690Y-104755476D01*
X149756071Y-104755476D02*
X149756071Y-105517380D01*
X149708452Y-105517380D02*
X149708452Y-104755476D01*
X149660833Y-104755476D02*
X149660833Y-105517380D01*
X149613214Y-105517380D02*
X149613214Y-104755476D01*
X149565595Y-104755476D02*
X149565595Y-105517380D01*
X149517976Y-105517380D02*
X149517976Y-104755476D01*
X149470357Y-104755476D02*
X149470357Y-105517380D01*
X149422738Y-105517380D02*
X149422738Y-104755476D01*
X149375119Y-104755476D02*
X149375119Y-105517380D01*
X150089404Y-104755476D02*
X149327500Y-104755476D01*
X149327500Y-105517380D01*
X150089404Y-105517380D01*
X150089404Y-104755476D01*
X148089404Y-105517380D02*
X148089404Y-104517380D01*
X147422738Y-104517380D02*
X147232261Y-104517380D01*
X147137023Y-104565000D01*
X147041785Y-104660238D01*
X146994166Y-104850714D01*
X146994166Y-105184047D01*
X147041785Y-105374523D01*
X147137023Y-105469761D01*
X147232261Y-105517380D01*
X147422738Y-105517380D01*
X147517976Y-105469761D01*
X147613214Y-105374523D01*
X147660833Y-105184047D01*
X147660833Y-104850714D01*
X147613214Y-104660238D01*
X147517976Y-104565000D01*
X147422738Y-104517380D01*
X146613214Y-104612619D02*
X146565595Y-104565000D01*
X146470357Y-104517380D01*
X146232261Y-104517380D01*
X146137023Y-104565000D01*
X146089404Y-104612619D01*
X146041785Y-104707857D01*
X146041785Y-104803095D01*
X146089404Y-104945952D01*
X146660833Y-105517380D01*
X146041785Y-105517380D01*
X144851309Y-105517380D02*
X144851309Y-104517380D01*
X144422738Y-105517380D02*
X144422738Y-104993571D01*
X144470357Y-104898333D01*
X144565595Y-104850714D01*
X144708452Y-104850714D01*
X144803690Y-104898333D01*
X144851309Y-104945952D01*
X143517976Y-105517380D02*
X143517976Y-104993571D01*
X143565595Y-104898333D01*
X143660833Y-104850714D01*
X143851309Y-104850714D01*
X143946547Y-104898333D01*
X143517976Y-105469761D02*
X143613214Y-105517380D01*
X143851309Y-105517380D01*
X143946547Y-105469761D01*
X143994166Y-105374523D01*
X143994166Y-105279285D01*
X143946547Y-105184047D01*
X143851309Y-105136428D01*
X143613214Y-105136428D01*
X143517976Y-105088809D01*
X143089404Y-105469761D02*
X142994166Y-105517380D01*
X142803690Y-105517380D01*
X142708452Y-105469761D01*
X142660833Y-105374523D01*
X142660833Y-105326904D01*
X142708452Y-105231666D01*
X142803690Y-105184047D01*
X142946547Y-105184047D01*
X143041785Y-105136428D01*
X143089404Y-105041190D01*
X143089404Y-104993571D01*
X143041785Y-104898333D01*
X142946547Y-104850714D01*
X142803690Y-104850714D01*
X142708452Y-104898333D01*
X141041785Y-105517380D02*
X141041785Y-104993571D01*
X141089404Y-104898333D01*
X141184642Y-104850714D01*
X141375119Y-104850714D01*
X141470357Y-104898333D01*
X141041785Y-105469761D02*
X141137023Y-105517380D01*
X141375119Y-105517380D01*
X141470357Y-105469761D01*
X141517976Y-105374523D01*
X141517976Y-105279285D01*
X141470357Y-105184047D01*
X141375119Y-105136428D01*
X141137023Y-105136428D01*
X141041785Y-105088809D01*
X139279880Y-105517380D02*
X139851309Y-105517380D01*
X139565595Y-105517380D02*
X139565595Y-104517380D01*
X139660833Y-104660238D01*
X139756071Y-104755476D01*
X139851309Y-104803095D01*
X138660833Y-104517380D02*
X138565595Y-104517380D01*
X138470357Y-104565000D01*
X138422738Y-104612619D01*
X138375119Y-104707857D01*
X138327500Y-104898333D01*
X138327500Y-105136428D01*
X138375119Y-105326904D01*
X138422738Y-105422142D01*
X138470357Y-105469761D01*
X138565595Y-105517380D01*
X138660833Y-105517380D01*
X138756071Y-105469761D01*
X138803690Y-105422142D01*
X138851309Y-105326904D01*
X138898928Y-105136428D01*
X138898928Y-104898333D01*
X138851309Y-104707857D01*
X138803690Y-104612619D01*
X138756071Y-104565000D01*
X138660833Y-104517380D01*
X137898928Y-105517380D02*
X137898928Y-104517380D01*
X137327500Y-105517380D02*
X137756071Y-104945952D01*
X137327500Y-104517380D02*
X137898928Y-105088809D01*
X136137023Y-104850714D02*
X136137023Y-105850714D01*
X136137023Y-104898333D02*
X136041785Y-104850714D01*
X135851309Y-104850714D01*
X135756071Y-104898333D01*
X135708452Y-104945952D01*
X135660833Y-105041190D01*
X135660833Y-105326904D01*
X135708452Y-105422142D01*
X135756071Y-105469761D01*
X135851309Y-105517380D01*
X136041785Y-105517380D01*
X136137023Y-105469761D01*
X134803690Y-104850714D02*
X134803690Y-105517380D01*
X135232261Y-104850714D02*
X135232261Y-105374523D01*
X135184642Y-105469761D01*
X135089404Y-105517380D01*
X134946547Y-105517380D01*
X134851309Y-105469761D01*
X134803690Y-105422142D01*
X134184642Y-105517380D02*
X134279880Y-105469761D01*
X134327500Y-105374523D01*
X134327500Y-104517380D01*
X133660833Y-105517380D02*
X133756071Y-105469761D01*
X133803690Y-105374523D01*
X133803690Y-104517380D01*
X132851309Y-104850714D02*
X132851309Y-105517380D01*
X133279880Y-104850714D02*
X133279880Y-105374523D01*
X133232261Y-105469761D01*
X133137023Y-105517380D01*
X132994166Y-105517380D01*
X132898928Y-105469761D01*
X132851309Y-105422142D01*
X132375119Y-104850714D02*
X132375119Y-105850714D01*
X132375119Y-104898333D02*
X132279880Y-104850714D01*
X132089404Y-104850714D01*
X131994166Y-104898333D01*
X131946547Y-104945952D01*
X131898928Y-105041190D01*
X131898928Y-105326904D01*
X131946547Y-105422142D01*
X131994166Y-105469761D01*
X132089404Y-105517380D01*
X132279880Y-105517380D01*
X132375119Y-105469761D01*
X130137023Y-105517380D02*
X130470357Y-105041190D01*
X130708452Y-105517380D02*
X130708452Y-104517380D01*
X130327500Y-104517380D01*
X130232261Y-104565000D01*
X130184642Y-104612619D01*
X130137023Y-104707857D01*
X130137023Y-104850714D01*
X130184642Y-104945952D01*
X130232261Y-104993571D01*
X130327500Y-105041190D01*
X130708452Y-105041190D01*
X129184642Y-105517380D02*
X129756071Y-105517380D01*
X129470357Y-105517380D02*
X129470357Y-104517380D01*
X129565595Y-104660238D01*
X129660833Y-104755476D01*
X129756071Y-104803095D01*
X128803690Y-104612619D02*
X128756071Y-104565000D01*
X128660833Y-104517380D01*
X128422738Y-104517380D01*
X128327500Y-104565000D01*
X128279880Y-104612619D01*
X128232261Y-104707857D01*
X128232261Y-104803095D01*
X128279880Y-104945952D01*
X128851309Y-105517380D01*
X128232261Y-105517380D01*
X126613214Y-105517380D02*
X126613214Y-104993571D01*
X126660833Y-104898333D01*
X126756071Y-104850714D01*
X126946547Y-104850714D01*
X127041785Y-104898333D01*
X126613214Y-105469761D02*
X126708452Y-105517380D01*
X126946547Y-105517380D01*
X127041785Y-105469761D01*
X127089404Y-105374523D01*
X127089404Y-105279285D01*
X127041785Y-105184047D01*
X126946547Y-105136428D01*
X126708452Y-105136428D01*
X126613214Y-105088809D01*
X126137023Y-104850714D02*
X126137023Y-105517380D01*
X126137023Y-104945952D02*
X126089404Y-104898333D01*
X125994166Y-104850714D01*
X125851309Y-104850714D01*
X125756071Y-104898333D01*
X125708452Y-104993571D01*
X125708452Y-105517380D01*
X124803690Y-105517380D02*
X124803690Y-104517380D01*
X124803690Y-105469761D02*
X124898928Y-105517380D01*
X125089404Y-105517380D01*
X125184642Y-105469761D01*
X125232261Y-105422142D01*
X125279880Y-105326904D01*
X125279880Y-105041190D01*
X125232261Y-104945952D01*
X125184642Y-104898333D01*
X125089404Y-104850714D01*
X124898928Y-104850714D01*
X124803690Y-104898333D01*
X123565595Y-105517380D02*
X123565595Y-104850714D01*
X123565595Y-104517380D02*
X123613214Y-104565000D01*
X123565595Y-104612619D01*
X123517976Y-104565000D01*
X123565595Y-104517380D01*
X123565595Y-104612619D01*
X123137023Y-105469761D02*
X123041785Y-105517380D01*
X122851309Y-105517380D01*
X122756071Y-105469761D01*
X122708452Y-105374523D01*
X122708452Y-105326904D01*
X122756071Y-105231666D01*
X122851309Y-105184047D01*
X122994166Y-105184047D01*
X123089404Y-105136428D01*
X123137023Y-105041190D01*
X123137023Y-104993571D01*
X123089404Y-104898333D01*
X122994166Y-104850714D01*
X122851309Y-104850714D01*
X122756071Y-104898333D01*
X147851309Y-107079761D02*
X147756071Y-107127380D01*
X147565595Y-107127380D01*
X147470357Y-107079761D01*
X147422738Y-106984523D01*
X147422738Y-106936904D01*
X147470357Y-106841666D01*
X147565595Y-106794047D01*
X147708452Y-106794047D01*
X147803690Y-106746428D01*
X147851309Y-106651190D01*
X147851309Y-106603571D01*
X147803690Y-106508333D01*
X147708452Y-106460714D01*
X147565595Y-106460714D01*
X147470357Y-106508333D01*
X146994166Y-107127380D02*
X146994166Y-106127380D01*
X146565595Y-107127380D02*
X146565595Y-106603571D01*
X146613214Y-106508333D01*
X146708452Y-106460714D01*
X146851309Y-106460714D01*
X146946547Y-106508333D01*
X146994166Y-106555952D01*
X145660833Y-107127380D02*
X145660833Y-106603571D01*
X145708452Y-106508333D01*
X145803690Y-106460714D01*
X145994166Y-106460714D01*
X146089404Y-106508333D01*
X145660833Y-107079761D02*
X145756071Y-107127380D01*
X145994166Y-107127380D01*
X146089404Y-107079761D01*
X146137023Y-106984523D01*
X146137023Y-106889285D01*
X146089404Y-106794047D01*
X145994166Y-106746428D01*
X145756071Y-106746428D01*
X145660833Y-106698809D01*
X145184642Y-107127380D02*
X145184642Y-106460714D01*
X145184642Y-106651190D02*
X145137023Y-106555952D01*
X145089404Y-106508333D01*
X144994166Y-106460714D01*
X144898928Y-106460714D01*
X144184642Y-107079761D02*
X144279880Y-107127380D01*
X144470357Y-107127380D01*
X144565595Y-107079761D01*
X144613214Y-106984523D01*
X144613214Y-106603571D01*
X144565595Y-106508333D01*
X144470357Y-106460714D01*
X144279880Y-106460714D01*
X144184642Y-106508333D01*
X144137023Y-106603571D01*
X144137023Y-106698809D01*
X144613214Y-106794047D01*
X143279880Y-107127380D02*
X143279880Y-106127380D01*
X143279880Y-107079761D02*
X143375119Y-107127380D01*
X143565595Y-107127380D01*
X143660833Y-107079761D01*
X143708452Y-107032142D01*
X143756071Y-106936904D01*
X143756071Y-106651190D01*
X143708452Y-106555952D01*
X143660833Y-106508333D01*
X143565595Y-106460714D01*
X143375119Y-106460714D01*
X143279880Y-106508333D01*
X142137023Y-106460714D02*
X141946547Y-107127380D01*
X141756071Y-106651190D01*
X141565595Y-107127380D01*
X141375119Y-106460714D01*
X140994166Y-107127380D02*
X140994166Y-106460714D01*
X140994166Y-106127380D02*
X141041785Y-106175000D01*
X140994166Y-106222619D01*
X140946547Y-106175000D01*
X140994166Y-106127380D01*
X140994166Y-106222619D01*
X140660833Y-106460714D02*
X140279880Y-106460714D01*
X140517976Y-106127380D02*
X140517976Y-106984523D01*
X140470357Y-107079761D01*
X140375119Y-107127380D01*
X140279880Y-107127380D01*
X139946547Y-107127380D02*
X139946547Y-106127380D01*
X139517976Y-107127380D02*
X139517976Y-106603571D01*
X139565595Y-106508333D01*
X139660833Y-106460714D01*
X139803690Y-106460714D01*
X139898928Y-106508333D01*
X139946547Y-106555952D01*
X137708452Y-107127380D02*
X138041785Y-106651190D01*
X138279880Y-107127380D02*
X138279880Y-106127380D01*
X137898928Y-106127380D01*
X137803690Y-106175000D01*
X137756071Y-106222619D01*
X137708452Y-106317857D01*
X137708452Y-106460714D01*
X137756071Y-106555952D01*
X137803690Y-106603571D01*
X137898928Y-106651190D01*
X138279880Y-106651190D01*
X137422738Y-106127380D02*
X136851309Y-106127380D01*
X137137023Y-107127380D02*
X137137023Y-106127380D01*
X135946547Y-107032142D02*
X135994166Y-107079761D01*
X136137023Y-107127380D01*
X136232261Y-107127380D01*
X136375119Y-107079761D01*
X136470357Y-106984523D01*
X136517976Y-106889285D01*
X136565595Y-106698809D01*
X136565595Y-106555952D01*
X136517976Y-106365476D01*
X136470357Y-106270238D01*
X136375119Y-106175000D01*
X136232261Y-106127380D01*
X136137023Y-106127380D01*
X135994166Y-106175000D01*
X135946547Y-106222619D01*
X134756071Y-107127380D02*
X134756071Y-106127380D01*
X134279880Y-107127380D02*
X134279880Y-106127380D01*
X133708452Y-107127380D01*
X133708452Y-106127380D01*
X133375119Y-106127380D02*
X132803690Y-106127380D01*
X133089404Y-107127380D02*
X133089404Y-106127380D01*
X131756071Y-107079761D02*
X131660833Y-107127380D01*
X131470357Y-107127380D01*
X131375119Y-107079761D01*
X131327500Y-106984523D01*
X131327500Y-106936904D01*
X131375119Y-106841666D01*
X131470357Y-106794047D01*
X131613214Y-106794047D01*
X131708452Y-106746428D01*
X131756071Y-106651190D01*
X131756071Y-106603571D01*
X131708452Y-106508333D01*
X131613214Y-106460714D01*
X131470357Y-106460714D01*
X131375119Y-106508333D01*
X130898928Y-107127380D02*
X130898928Y-106460714D01*
X130898928Y-106127380D02*
X130946547Y-106175000D01*
X130898928Y-106222619D01*
X130851309Y-106175000D01*
X130898928Y-106127380D01*
X130898928Y-106222619D01*
X129994166Y-106460714D02*
X129994166Y-107270238D01*
X130041785Y-107365476D01*
X130089404Y-107413095D01*
X130184642Y-107460714D01*
X130327500Y-107460714D01*
X130422738Y-107413095D01*
X129994166Y-107079761D02*
X130089404Y-107127380D01*
X130279880Y-107127380D01*
X130375119Y-107079761D01*
X130422738Y-107032142D01*
X130470357Y-106936904D01*
X130470357Y-106651190D01*
X130422738Y-106555952D01*
X130375119Y-106508333D01*
X130279880Y-106460714D01*
X130089404Y-106460714D01*
X129994166Y-106508333D01*
X129517976Y-106460714D02*
X129517976Y-107127380D01*
X129517976Y-106555952D02*
X129470357Y-106508333D01*
X129375119Y-106460714D01*
X129232261Y-106460714D01*
X129137023Y-106508333D01*
X129089404Y-106603571D01*
X129089404Y-107127380D01*
X128184642Y-107127380D02*
X128184642Y-106603571D01*
X128232261Y-106508333D01*
X128327500Y-106460714D01*
X128517976Y-106460714D01*
X128613214Y-106508333D01*
X128184642Y-107079761D02*
X128279880Y-107127380D01*
X128517976Y-107127380D01*
X128613214Y-107079761D01*
X128660833Y-106984523D01*
X128660833Y-106889285D01*
X128613214Y-106794047D01*
X128517976Y-106746428D01*
X128279880Y-106746428D01*
X128184642Y-106698809D01*
X127565595Y-107127380D02*
X127660833Y-107079761D01*
X127708452Y-106984523D01*
X127708452Y-106127380D01*
X126137023Y-107508333D02*
X126184642Y-107460714D01*
X126279880Y-107317857D01*
X126327500Y-107222619D01*
X126375119Y-107079761D01*
X126422738Y-106841666D01*
X126422738Y-106651190D01*
X126375119Y-106413095D01*
X126327500Y-106270238D01*
X126279880Y-106175000D01*
X126184642Y-106032142D01*
X126137023Y-105984523D01*
X125327500Y-107127380D02*
X125327500Y-106603571D01*
X125375119Y-106508333D01*
X125470357Y-106460714D01*
X125660833Y-106460714D01*
X125756071Y-106508333D01*
X125327500Y-107079761D02*
X125422738Y-107127380D01*
X125660833Y-107127380D01*
X125756071Y-107079761D01*
X125803690Y-106984523D01*
X125803690Y-106889285D01*
X125756071Y-106794047D01*
X125660833Y-106746428D01*
X125422738Y-106746428D01*
X125327500Y-106698809D01*
X124708452Y-107127380D02*
X124803690Y-107079761D01*
X124851309Y-106984523D01*
X124851309Y-106127380D01*
X123898928Y-107127380D02*
X123898928Y-106603571D01*
X123946547Y-106508333D01*
X124041785Y-106460714D01*
X124232261Y-106460714D01*
X124327500Y-106508333D01*
X123898928Y-107079761D02*
X123994166Y-107127380D01*
X124232261Y-107127380D01*
X124327500Y-107079761D01*
X124375119Y-106984523D01*
X124375119Y-106889285D01*
X124327500Y-106794047D01*
X124232261Y-106746428D01*
X123994166Y-106746428D01*
X123898928Y-106698809D01*
X123422738Y-107127380D02*
X123422738Y-106460714D01*
X123422738Y-106651190D02*
X123375119Y-106555952D01*
X123327500Y-106508333D01*
X123232261Y-106460714D01*
X123137023Y-106460714D01*
X122803690Y-107127380D02*
X122803690Y-106460714D01*
X122803690Y-106555952D02*
X122756071Y-106508333D01*
X122660833Y-106460714D01*
X122517976Y-106460714D01*
X122422738Y-106508333D01*
X122375119Y-106603571D01*
X122375119Y-107127380D01*
X122375119Y-106603571D02*
X122327500Y-106508333D01*
X122232261Y-106460714D01*
X122089404Y-106460714D01*
X121994166Y-106508333D01*
X121946547Y-106603571D01*
X121946547Y-107127380D01*
X121565595Y-107508333D02*
X121517976Y-107460714D01*
X121422738Y-107317857D01*
X121375119Y-107222619D01*
X121327500Y-107079761D01*
X121279880Y-106841666D01*
X121279880Y-106651190D01*
X121327500Y-106413095D01*
X121375119Y-106270238D01*
X121422738Y-106175000D01*
X121517976Y-106032142D01*
X121565595Y-105984523D01*
X150041785Y-109585476D02*
X150041785Y-110347380D01*
X149994166Y-110347380D02*
X149994166Y-109585476D01*
X149946547Y-109585476D02*
X149946547Y-110347380D01*
X149898928Y-110347380D02*
X149898928Y-109585476D01*
X149851309Y-109585476D02*
X149851309Y-110347380D01*
X149803690Y-110347380D02*
X149803690Y-109585476D01*
X149756071Y-109585476D02*
X149756071Y-110347380D01*
X149708452Y-110347380D02*
X149708452Y-109585476D01*
X149660833Y-109585476D02*
X149660833Y-110347380D01*
X149613214Y-110347380D02*
X149613214Y-109585476D01*
X149565595Y-109585476D02*
X149565595Y-110347380D01*
X149517976Y-110347380D02*
X149517976Y-109585476D01*
X149470357Y-109585476D02*
X149470357Y-110347380D01*
X149422738Y-110347380D02*
X149422738Y-109585476D01*
X149375119Y-109585476D02*
X149375119Y-110347380D01*
X150089404Y-109585476D02*
X149327500Y-109585476D01*
X149327500Y-110347380D01*
X150089404Y-110347380D01*
X150089404Y-109585476D01*
X148089404Y-110347380D02*
X148089404Y-109347380D01*
X147422738Y-109347380D02*
X147232261Y-109347380D01*
X147137023Y-109395000D01*
X147041785Y-109490238D01*
X146994166Y-109680714D01*
X146994166Y-110014047D01*
X147041785Y-110204523D01*
X147137023Y-110299761D01*
X147232261Y-110347380D01*
X147422738Y-110347380D01*
X147517976Y-110299761D01*
X147613214Y-110204523D01*
X147660833Y-110014047D01*
X147660833Y-109680714D01*
X147613214Y-109490238D01*
X147517976Y-109395000D01*
X147422738Y-109347380D01*
X146041785Y-110347380D02*
X146613214Y-110347380D01*
X146327500Y-110347380D02*
X146327500Y-109347380D01*
X146422738Y-109490238D01*
X146517976Y-109585476D01*
X146613214Y-109633095D01*
X144041785Y-110347380D02*
X144089404Y-110347380D01*
X144184642Y-110299761D01*
X144327500Y-110156904D01*
X144565595Y-109871190D01*
X144660833Y-109728333D01*
X144708452Y-109585476D01*
X144708452Y-109490238D01*
X144660833Y-109395000D01*
X144565595Y-109347380D01*
X144517976Y-109347380D01*
X144422738Y-109395000D01*
X144375119Y-109490238D01*
X144375119Y-109537857D01*
X144422738Y-109633095D01*
X144470357Y-109680714D01*
X144756071Y-109871190D01*
X144803690Y-109918809D01*
X144851309Y-110014047D01*
X144851309Y-110156904D01*
X144803690Y-110252142D01*
X144756071Y-110299761D01*
X144660833Y-110347380D01*
X144517976Y-110347380D01*
X144422738Y-110299761D01*
X144375119Y-110252142D01*
X144232261Y-110061666D01*
X144184642Y-109918809D01*
X144184642Y-109823571D01*
X142851309Y-110347380D02*
X142851309Y-109347380D01*
X142184642Y-109347380D02*
X141994166Y-109347380D01*
X141898928Y-109395000D01*
X141803690Y-109490238D01*
X141756071Y-109680714D01*
X141756071Y-110014047D01*
X141803690Y-110204523D01*
X141898928Y-110299761D01*
X141994166Y-110347380D01*
X142184642Y-110347380D01*
X142279880Y-110299761D01*
X142375119Y-110204523D01*
X142422738Y-110014047D01*
X142422738Y-109680714D01*
X142375119Y-109490238D01*
X142279880Y-109395000D01*
X142184642Y-109347380D01*
X141422738Y-109347380D02*
X140803690Y-109347380D01*
X141137023Y-109728333D01*
X140994166Y-109728333D01*
X140898928Y-109775952D01*
X140851309Y-109823571D01*
X140803690Y-109918809D01*
X140803690Y-110156904D01*
X140851309Y-110252142D01*
X140898928Y-110299761D01*
X140994166Y-110347380D01*
X141279880Y-110347380D01*
X141375119Y-110299761D01*
X141422738Y-110252142D01*
X139184642Y-109680714D02*
X139184642Y-110490238D01*
X139232261Y-110585476D01*
X139279880Y-110633095D01*
X139375119Y-110680714D01*
X139517976Y-110680714D01*
X139613214Y-110633095D01*
X139184642Y-110299761D02*
X139279880Y-110347380D01*
X139470357Y-110347380D01*
X139565595Y-110299761D01*
X139613214Y-110252142D01*
X139660833Y-110156904D01*
X139660833Y-109871190D01*
X139613214Y-109775952D01*
X139565595Y-109728333D01*
X139470357Y-109680714D01*
X139279880Y-109680714D01*
X139184642Y-109728333D01*
X138565595Y-110347380D02*
X138660833Y-110299761D01*
X138708452Y-110252142D01*
X138756071Y-110156904D01*
X138756071Y-109871190D01*
X138708452Y-109775952D01*
X138660833Y-109728333D01*
X138565595Y-109680714D01*
X138422738Y-109680714D01*
X138327500Y-109728333D01*
X138279880Y-109775952D01*
X138232261Y-109871190D01*
X138232261Y-110156904D01*
X138279880Y-110252142D01*
X138327500Y-110299761D01*
X138422738Y-110347380D01*
X138565595Y-110347380D01*
X136613214Y-110347380D02*
X136613214Y-109347380D01*
X136613214Y-110299761D02*
X136708452Y-110347380D01*
X136898928Y-110347380D01*
X136994166Y-110299761D01*
X137041785Y-110252142D01*
X137089404Y-110156904D01*
X137089404Y-109871190D01*
X137041785Y-109775952D01*
X136994166Y-109728333D01*
X136898928Y-109680714D01*
X136708452Y-109680714D01*
X136613214Y-109728333D01*
X136137023Y-110347380D02*
X136137023Y-109680714D01*
X136137023Y-109347380D02*
X136184642Y-109395000D01*
X136137023Y-109442619D01*
X136089404Y-109395000D01*
X136137023Y-109347380D01*
X136137023Y-109442619D01*
X135660833Y-110347380D02*
X135660833Y-109680714D01*
X135660833Y-109871190D02*
X135613214Y-109775952D01*
X135565595Y-109728333D01*
X135470357Y-109680714D01*
X135375119Y-109680714D01*
X134660833Y-110299761D02*
X134756071Y-110347380D01*
X134946547Y-110347380D01*
X135041785Y-110299761D01*
X135089404Y-110204523D01*
X135089404Y-109823571D01*
X135041785Y-109728333D01*
X134946547Y-109680714D01*
X134756071Y-109680714D01*
X134660833Y-109728333D01*
X134613214Y-109823571D01*
X134613214Y-109918809D01*
X135089404Y-110014047D01*
X133756071Y-110299761D02*
X133851309Y-110347380D01*
X134041785Y-110347380D01*
X134137023Y-110299761D01*
X134184642Y-110252142D01*
X134232261Y-110156904D01*
X134232261Y-109871190D01*
X134184642Y-109775952D01*
X134137023Y-109728333D01*
X134041785Y-109680714D01*
X133851309Y-109680714D01*
X133756071Y-109728333D01*
X133470357Y-109680714D02*
X133089404Y-109680714D01*
X133327500Y-109347380D02*
X133327500Y-110204523D01*
X133279880Y-110299761D01*
X133184642Y-110347380D01*
X133089404Y-110347380D01*
X132613214Y-110347380D02*
X132708452Y-110299761D01*
X132756071Y-110204523D01*
X132756071Y-109347380D01*
X132327500Y-109680714D02*
X132089404Y-110347380D01*
X131851309Y-109680714D02*
X132089404Y-110347380D01*
X132184642Y-110585476D01*
X132232261Y-110633095D01*
X132327500Y-110680714D01*
X130851309Y-109680714D02*
X130470357Y-109680714D01*
X130708452Y-109347380D02*
X130708452Y-110204523D01*
X130660833Y-110299761D01*
X130565595Y-110347380D01*
X130470357Y-110347380D01*
X129994166Y-110347380D02*
X130089404Y-110299761D01*
X130137023Y-110252142D01*
X130184642Y-110156904D01*
X130184642Y-109871190D01*
X130137023Y-109775952D01*
X130089404Y-109728333D01*
X129994166Y-109680714D01*
X129851309Y-109680714D01*
X129756071Y-109728333D01*
X129708452Y-109775952D01*
X129660833Y-109871190D01*
X129660833Y-110156904D01*
X129708452Y-110252142D01*
X129756071Y-110299761D01*
X129851309Y-110347380D01*
X129994166Y-110347380D01*
X128470357Y-110347380D02*
X128470357Y-109347380D01*
X128137023Y-110061666D01*
X127803690Y-109347380D01*
X127803690Y-110347380D01*
X126756071Y-110252142D02*
X126803690Y-110299761D01*
X126946547Y-110347380D01*
X127041785Y-110347380D01*
X127184642Y-110299761D01*
X127279880Y-110204523D01*
X127327500Y-110109285D01*
X127375119Y-109918809D01*
X127375119Y-109775952D01*
X127327500Y-109585476D01*
X127279880Y-109490238D01*
X127184642Y-109395000D01*
X127041785Y-109347380D01*
X126946547Y-109347380D01*
X126803690Y-109395000D01*
X126756071Y-109442619D01*
X126327500Y-109347380D02*
X126327500Y-110156904D01*
X126279880Y-110252142D01*
X126232261Y-110299761D01*
X126137023Y-110347380D01*
X125946547Y-110347380D01*
X125851309Y-110299761D01*
X125803690Y-110252142D01*
X125756071Y-110156904D01*
X125756071Y-109347380D01*
X150041785Y-112805476D02*
X150041785Y-113567380D01*
X149994166Y-113567380D02*
X149994166Y-112805476D01*
X149946547Y-112805476D02*
X149946547Y-113567380D01*
X149898928Y-113567380D02*
X149898928Y-112805476D01*
X149851309Y-112805476D02*
X149851309Y-113567380D01*
X149803690Y-113567380D02*
X149803690Y-112805476D01*
X149756071Y-112805476D02*
X149756071Y-113567380D01*
X149708452Y-113567380D02*
X149708452Y-112805476D01*
X149660833Y-112805476D02*
X149660833Y-113567380D01*
X149613214Y-113567380D02*
X149613214Y-112805476D01*
X149565595Y-112805476D02*
X149565595Y-113567380D01*
X149517976Y-113567380D02*
X149517976Y-112805476D01*
X149470357Y-112805476D02*
X149470357Y-113567380D01*
X149422738Y-113567380D02*
X149422738Y-112805476D01*
X149375119Y-112805476D02*
X149375119Y-113567380D01*
X150089404Y-112805476D02*
X149327500Y-112805476D01*
X149327500Y-113567380D01*
X150089404Y-113567380D01*
X150089404Y-112805476D01*
X147613214Y-112567380D02*
X148089404Y-112567380D01*
X148137023Y-113043571D01*
X148089404Y-112995952D01*
X147994166Y-112948333D01*
X147756071Y-112948333D01*
X147660833Y-112995952D01*
X147613214Y-113043571D01*
X147565595Y-113138809D01*
X147565595Y-113376904D01*
X147613214Y-113472142D01*
X147660833Y-113519761D01*
X147756071Y-113567380D01*
X147994166Y-113567380D01*
X148089404Y-113519761D01*
X148137023Y-113472142D01*
X147279880Y-112567380D02*
X146946547Y-113567380D01*
X146613214Y-112567380D01*
X144803690Y-112519761D02*
X145660833Y-113805476D01*
X143803690Y-112567380D02*
X143184642Y-112567380D01*
X143517976Y-112948333D01*
X143375119Y-112948333D01*
X143279880Y-112995952D01*
X143232261Y-113043571D01*
X143184642Y-113138809D01*
X143184642Y-113376904D01*
X143232261Y-113472142D01*
X143279880Y-113519761D01*
X143375119Y-113567380D01*
X143660833Y-113567380D01*
X143756071Y-113519761D01*
X143803690Y-113472142D01*
X142898928Y-112567380D02*
X142565595Y-113567380D01*
X142232261Y-112567380D01*
X141994166Y-112567380D02*
X141375119Y-112567380D01*
X141708452Y-112948333D01*
X141565595Y-112948333D01*
X141470357Y-112995952D01*
X141422738Y-113043571D01*
X141375119Y-113138809D01*
X141375119Y-113376904D01*
X141422738Y-113472142D01*
X141470357Y-113519761D01*
X141565595Y-113567380D01*
X141851309Y-113567380D01*
X141946547Y-113519761D01*
X141994166Y-113472142D01*
X139756071Y-113567380D02*
X139756071Y-113043571D01*
X139803690Y-112948333D01*
X139898928Y-112900714D01*
X140089404Y-112900714D01*
X140184642Y-112948333D01*
X139756071Y-113519761D02*
X139851309Y-113567380D01*
X140089404Y-113567380D01*
X140184642Y-113519761D01*
X140232261Y-113424523D01*
X140232261Y-113329285D01*
X140184642Y-113234047D01*
X140089404Y-113186428D01*
X139851309Y-113186428D01*
X139756071Y-113138809D01*
X139279880Y-113567380D02*
X139279880Y-112900714D01*
X139279880Y-113091190D02*
X139232261Y-112995952D01*
X139184642Y-112948333D01*
X139089404Y-112900714D01*
X138994166Y-112900714D01*
X138279880Y-113519761D02*
X138375119Y-113567380D01*
X138565595Y-113567380D01*
X138660833Y-113519761D01*
X138708452Y-113424523D01*
X138708452Y-113043571D01*
X138660833Y-112948333D01*
X138565595Y-112900714D01*
X138375119Y-112900714D01*
X138279880Y-112948333D01*
X138232261Y-113043571D01*
X138232261Y-113138809D01*
X138708452Y-113234047D01*
X137041785Y-112900714D02*
X137041785Y-113900714D01*
X137041785Y-112948333D02*
X136946547Y-112900714D01*
X136756071Y-112900714D01*
X136660833Y-112948333D01*
X136613214Y-112995952D01*
X136565595Y-113091190D01*
X136565595Y-113376904D01*
X136613214Y-113472142D01*
X136660833Y-113519761D01*
X136756071Y-113567380D01*
X136946547Y-113567380D01*
X137041785Y-113519761D01*
X135994166Y-113567380D02*
X136089404Y-113519761D01*
X136137023Y-113472142D01*
X136184642Y-113376904D01*
X136184642Y-113091190D01*
X136137023Y-112995952D01*
X136089404Y-112948333D01*
X135994166Y-112900714D01*
X135851309Y-112900714D01*
X135756071Y-112948333D01*
X135708452Y-112995952D01*
X135660833Y-113091190D01*
X135660833Y-113376904D01*
X135708452Y-113472142D01*
X135756071Y-113519761D01*
X135851309Y-113567380D01*
X135994166Y-113567380D01*
X135327500Y-112900714D02*
X135137023Y-113567380D01*
X134946547Y-113091190D01*
X134756071Y-113567380D01*
X134565595Y-112900714D01*
X133803690Y-113519761D02*
X133898928Y-113567380D01*
X134089404Y-113567380D01*
X134184642Y-113519761D01*
X134232261Y-113424523D01*
X134232261Y-113043571D01*
X134184642Y-112948333D01*
X134089404Y-112900714D01*
X133898928Y-112900714D01*
X133803690Y-112948333D01*
X133756071Y-113043571D01*
X133756071Y-113138809D01*
X134232261Y-113234047D01*
X133327500Y-113567380D02*
X133327500Y-112900714D01*
X133327500Y-113091190D02*
X133279880Y-112995952D01*
X133232261Y-112948333D01*
X133137023Y-112900714D01*
X133041785Y-112900714D01*
X131946547Y-113567380D02*
X131946547Y-112900714D01*
X131946547Y-112567380D02*
X131994166Y-112615000D01*
X131946547Y-112662619D01*
X131898928Y-112615000D01*
X131946547Y-112567380D01*
X131946547Y-112662619D01*
X131470357Y-112900714D02*
X131470357Y-113567380D01*
X131470357Y-112995952D02*
X131422738Y-112948333D01*
X131327500Y-112900714D01*
X131184642Y-112900714D01*
X131089404Y-112948333D01*
X131041785Y-113043571D01*
X131041785Y-113567380D01*
X129803690Y-112900714D02*
X129803690Y-113900714D01*
X129803690Y-112948333D02*
X129708452Y-112900714D01*
X129517976Y-112900714D01*
X129422738Y-112948333D01*
X129375119Y-112995952D01*
X129327500Y-113091190D01*
X129327500Y-113376904D01*
X129375119Y-113472142D01*
X129422738Y-113519761D01*
X129517976Y-113567380D01*
X129708452Y-113567380D01*
X129803690Y-113519761D01*
X128898928Y-113567380D02*
X128898928Y-112900714D01*
X128898928Y-112567380D02*
X128946547Y-112615000D01*
X128898928Y-112662619D01*
X128851309Y-112615000D01*
X128898928Y-112567380D01*
X128898928Y-112662619D01*
X128422738Y-112900714D02*
X128422738Y-113567380D01*
X128422738Y-112995952D02*
X128375119Y-112948333D01*
X128279880Y-112900714D01*
X128137023Y-112900714D01*
X128041785Y-112948333D01*
X127994166Y-113043571D01*
X127994166Y-113567380D01*
X127565595Y-113519761D02*
X127470357Y-113567380D01*
X127279880Y-113567380D01*
X127184642Y-113519761D01*
X127137023Y-113424523D01*
X127137023Y-113376904D01*
X127184642Y-113281666D01*
X127279880Y-113234047D01*
X127422738Y-113234047D01*
X127517976Y-113186428D01*
X127565595Y-113091190D01*
X127565595Y-113043571D01*
X127517976Y-112948333D01*
X127422738Y-112900714D01*
X127279880Y-112900714D01*
X127184642Y-112948333D01*
X126708452Y-113472142D02*
X126660833Y-113519761D01*
X126708452Y-113567380D01*
X126756071Y-113519761D01*
X126708452Y-113472142D01*
X126708452Y-113567380D01*
X147327500Y-114177380D02*
X147803690Y-114177380D01*
X147851309Y-114653571D01*
X147803690Y-114605952D01*
X147708452Y-114558333D01*
X147470357Y-114558333D01*
X147375119Y-114605952D01*
X147327500Y-114653571D01*
X147279880Y-114748809D01*
X147279880Y-114986904D01*
X147327500Y-115082142D01*
X147375119Y-115129761D01*
X147470357Y-115177380D01*
X147708452Y-115177380D01*
X147803690Y-115129761D01*
X147851309Y-115082142D01*
X146994166Y-114177380D02*
X146660833Y-115177380D01*
X146327500Y-114177380D01*
X145232261Y-115177380D02*
X145232261Y-114510714D01*
X145232261Y-114177380D02*
X145279880Y-114225000D01*
X145232261Y-114272619D01*
X145184642Y-114225000D01*
X145232261Y-114177380D01*
X145232261Y-114272619D01*
X144756071Y-114510714D02*
X144756071Y-115177380D01*
X144756071Y-114605952D02*
X144708452Y-114558333D01*
X144613214Y-114510714D01*
X144470357Y-114510714D01*
X144375119Y-114558333D01*
X144327500Y-114653571D01*
X144327500Y-115177380D01*
X143851309Y-114510714D02*
X143851309Y-115510714D01*
X143851309Y-114558333D02*
X143756071Y-114510714D01*
X143565595Y-114510714D01*
X143470357Y-114558333D01*
X143422738Y-114605952D01*
X143375119Y-114701190D01*
X143375119Y-114986904D01*
X143422738Y-115082142D01*
X143470357Y-115129761D01*
X143565595Y-115177380D01*
X143756071Y-115177380D01*
X143851309Y-115129761D01*
X142517976Y-114510714D02*
X142517976Y-115177380D01*
X142946547Y-114510714D02*
X142946547Y-115034523D01*
X142898928Y-115129761D01*
X142803690Y-115177380D01*
X142660833Y-115177380D01*
X142565595Y-115129761D01*
X142517976Y-115082142D01*
X142184642Y-114510714D02*
X141803690Y-114510714D01*
X142041785Y-114177380D02*
X142041785Y-115034523D01*
X141994166Y-115129761D01*
X141898928Y-115177380D01*
X141803690Y-115177380D01*
X140708452Y-115177380D02*
X140708452Y-114510714D01*
X140708452Y-114177380D02*
X140756071Y-114225000D01*
X140708452Y-114272619D01*
X140660833Y-114225000D01*
X140708452Y-114177380D01*
X140708452Y-114272619D01*
X140279880Y-115129761D02*
X140184642Y-115177380D01*
X139994166Y-115177380D01*
X139898928Y-115129761D01*
X139851309Y-115034523D01*
X139851309Y-114986904D01*
X139898928Y-114891666D01*
X139994166Y-114844047D01*
X140137023Y-114844047D01*
X140232261Y-114796428D01*
X140279880Y-114701190D01*
X140279880Y-114653571D01*
X140232261Y-114558333D01*
X140137023Y-114510714D01*
X139994166Y-114510714D01*
X139898928Y-114558333D01*
X138803690Y-114177380D02*
X138470357Y-115177380D01*
X138137023Y-114177380D01*
X137470357Y-114653571D02*
X137327500Y-114701190D01*
X137279880Y-114748809D01*
X137232261Y-114844047D01*
X137232261Y-114986904D01*
X137279880Y-115082142D01*
X137327500Y-115129761D01*
X137422738Y-115177380D01*
X137803690Y-115177380D01*
X137803690Y-114177380D01*
X137470357Y-114177380D01*
X137375119Y-114225000D01*
X137327500Y-114272619D01*
X137279880Y-114367857D01*
X137279880Y-114463095D01*
X137327500Y-114558333D01*
X137375119Y-114605952D01*
X137470357Y-114653571D01*
X137803690Y-114653571D01*
X136803690Y-114177380D02*
X136803690Y-114986904D01*
X136756071Y-115082142D01*
X136708452Y-115129761D01*
X136613214Y-115177380D01*
X136422738Y-115177380D01*
X136327500Y-115129761D01*
X136279880Y-115082142D01*
X136232261Y-114986904D01*
X136232261Y-114177380D01*
X135803690Y-115129761D02*
X135660833Y-115177380D01*
X135422738Y-115177380D01*
X135327500Y-115129761D01*
X135279880Y-115082142D01*
X135232261Y-114986904D01*
X135232261Y-114891666D01*
X135279880Y-114796428D01*
X135327500Y-114748809D01*
X135422738Y-114701190D01*
X135613214Y-114653571D01*
X135708452Y-114605952D01*
X135756071Y-114558333D01*
X135803690Y-114463095D01*
X135803690Y-114367857D01*
X135756071Y-114272619D01*
X135708452Y-114225000D01*
X135613214Y-114177380D01*
X135375119Y-114177380D01*
X135232261Y-114225000D01*
X133994166Y-114558333D02*
X133994166Y-115034523D01*
X133946547Y-114558333D02*
X133946547Y-115034523D01*
X133898928Y-114605952D02*
X133898928Y-114986904D01*
X133851309Y-114605952D02*
X133851309Y-114986904D01*
X133803690Y-114605952D02*
X133803690Y-114986904D01*
X133756071Y-114653571D02*
X133756071Y-114939285D01*
X133708452Y-114653571D02*
X133708452Y-114939285D01*
X133660833Y-114653571D02*
X133660833Y-114939285D01*
X133613214Y-114701190D02*
X133613214Y-114891666D01*
X133565595Y-114701190D02*
X133565595Y-114891666D01*
X133517976Y-114748809D02*
X133517976Y-114844047D01*
X133470357Y-114748809D02*
X133470357Y-114844047D01*
X133422738Y-114748809D02*
X133422738Y-114844047D01*
X133375119Y-114796428D02*
X133422738Y-114796428D01*
X134041785Y-114558333D02*
X133327500Y-114796428D01*
X134041785Y-115034523D01*
X133279880Y-114796428D02*
X134041785Y-115082142D01*
X134041785Y-114510714D01*
X133279880Y-114796428D01*
X132041785Y-114177380D02*
X132041785Y-114986904D01*
X131994166Y-115082142D01*
X131946547Y-115129761D01*
X131851309Y-115177380D01*
X131660833Y-115177380D01*
X131565595Y-115129761D01*
X131517976Y-115082142D01*
X131470357Y-114986904D01*
X131470357Y-114177380D01*
X131089404Y-114177380D02*
X130470357Y-114177380D01*
X130803690Y-114558333D01*
X130660833Y-114558333D01*
X130565595Y-114605952D01*
X130517976Y-114653571D01*
X130470357Y-114748809D01*
X130470357Y-114986904D01*
X130517976Y-115082142D01*
X130565595Y-115129761D01*
X130660833Y-115177380D01*
X130946547Y-115177380D01*
X131041785Y-115129761D01*
X131089404Y-115082142D01*
X128803690Y-115177380D02*
X129279880Y-115177380D01*
X129279880Y-114177380D01*
X128470357Y-115177380D02*
X128470357Y-114177380D01*
X128232261Y-114177380D01*
X128089404Y-114225000D01*
X127994166Y-114320238D01*
X127946547Y-114415476D01*
X127898928Y-114605952D01*
X127898928Y-114748809D01*
X127946547Y-114939285D01*
X127994166Y-115034523D01*
X128089404Y-115129761D01*
X128232261Y-115177380D01*
X128470357Y-115177380D01*
X127279880Y-114177380D02*
X127089404Y-114177380D01*
X126994166Y-114225000D01*
X126898928Y-114320238D01*
X126851309Y-114510714D01*
X126851309Y-114844047D01*
X126898928Y-115034523D01*
X126994166Y-115129761D01*
X127089404Y-115177380D01*
X127279880Y-115177380D01*
X127375119Y-115129761D01*
X127470357Y-115034523D01*
X127517976Y-114844047D01*
X127517976Y-114510714D01*
X127470357Y-114320238D01*
X127375119Y-114225000D01*
X127279880Y-114177380D01*
X125613214Y-114558333D02*
X125613214Y-115034523D01*
X125565595Y-114558333D02*
X125565595Y-115034523D01*
X125517976Y-114605952D02*
X125517976Y-114986904D01*
X125470357Y-114605952D02*
X125470357Y-114986904D01*
X125422738Y-114605952D02*
X125422738Y-114986904D01*
X125375119Y-114653571D02*
X125375119Y-114939285D01*
X125327500Y-114653571D02*
X125327500Y-114939285D01*
X125279880Y-114653571D02*
X125279880Y-114939285D01*
X125232261Y-114701190D02*
X125232261Y-114891666D01*
X125184642Y-114701190D02*
X125184642Y-114891666D01*
X125137023Y-114748809D02*
X125137023Y-114844047D01*
X125089404Y-114748809D02*
X125089404Y-114844047D01*
X125041785Y-114748809D02*
X125041785Y-114844047D01*
X124994166Y-114796428D02*
X125041785Y-114796428D01*
X125660833Y-114558333D02*
X124946547Y-114796428D01*
X125660833Y-115034523D01*
X124898928Y-114796428D02*
X125660833Y-115082142D01*
X125660833Y-114510714D01*
X124898928Y-114796428D01*
X123756071Y-114177380D02*
X123137023Y-114177380D01*
X123470357Y-114558333D01*
X123327500Y-114558333D01*
X123232261Y-114605952D01*
X123184642Y-114653571D01*
X123137023Y-114748809D01*
X123137023Y-114986904D01*
X123184642Y-115082142D01*
X123232261Y-115129761D01*
X123327500Y-115177380D01*
X123613214Y-115177380D01*
X123708452Y-115129761D01*
X123756071Y-115082142D01*
X122708452Y-115082142D02*
X122660833Y-115129761D01*
X122708452Y-115177380D01*
X122756071Y-115129761D01*
X122708452Y-115082142D01*
X122708452Y-115177380D01*
X122327500Y-114177380D02*
X121708452Y-114177380D01*
X122041785Y-114558333D01*
X121898928Y-114558333D01*
X121803690Y-114605952D01*
X121756071Y-114653571D01*
X121708452Y-114748809D01*
X121708452Y-114986904D01*
X121756071Y-115082142D01*
X121803690Y-115129761D01*
X121898928Y-115177380D01*
X122184642Y-115177380D01*
X122279880Y-115129761D01*
X122327500Y-115082142D01*
X121422738Y-114177380D02*
X121089404Y-115177380D01*
X120756071Y-114177380D01*
X148749166Y-60596333D02*
X149215833Y-59929666D01*
X149549166Y-60596333D02*
X149549166Y-59196333D01*
X149015833Y-59196333D01*
X148882500Y-59263000D01*
X148815833Y-59329666D01*
X148749166Y-59463000D01*
X148749166Y-59663000D01*
X148815833Y-59796333D01*
X148882500Y-59863000D01*
X149015833Y-59929666D01*
X149549166Y-59929666D01*
X148149166Y-59863000D02*
X147682500Y-59863000D01*
X147482500Y-60596333D02*
X148149166Y-60596333D01*
X148149166Y-59196333D01*
X147482500Y-59196333D01*
X146949166Y-60529666D02*
X146749166Y-60596333D01*
X146415833Y-60596333D01*
X146282500Y-60529666D01*
X146215833Y-60463000D01*
X146149166Y-60329666D01*
X146149166Y-60196333D01*
X146215833Y-60063000D01*
X146282500Y-59996333D01*
X146415833Y-59929666D01*
X146682500Y-59863000D01*
X146815833Y-59796333D01*
X146882500Y-59729666D01*
X146949166Y-59596333D01*
X146949166Y-59463000D01*
X146882500Y-59329666D01*
X146815833Y-59263000D01*
X146682500Y-59196333D01*
X146349166Y-59196333D01*
X146149166Y-59263000D01*
X145549166Y-60463000D02*
X145482500Y-60529666D01*
X145549166Y-60596333D01*
X145615833Y-60529666D01*
X145549166Y-60463000D01*
X145549166Y-60596333D01*
X145549166Y-59729666D02*
X145482500Y-59796333D01*
X145549166Y-59863000D01*
X145615833Y-59796333D01*
X145549166Y-59729666D01*
X145549166Y-59863000D01*
X143949166Y-59196333D02*
X143082500Y-59196333D01*
X143549166Y-59729666D01*
X143349166Y-59729666D01*
X143215833Y-59796333D01*
X143149166Y-59863000D01*
X143082500Y-59996333D01*
X143082500Y-60329666D01*
X143149166Y-60463000D01*
X143215833Y-60529666D01*
X143349166Y-60596333D01*
X143749166Y-60596333D01*
X143882500Y-60529666D01*
X143949166Y-60463000D01*
X142549166Y-60596333D02*
X142215833Y-60596333D01*
X142215833Y-60329666D01*
X142349166Y-60263000D01*
X142482500Y-60129666D01*
X142549166Y-59929666D01*
X142549166Y-59596333D01*
X142482500Y-59396333D01*
X142349166Y-59263000D01*
X142149166Y-59196333D01*
X141882500Y-59196333D01*
X141682500Y-59263000D01*
X141549166Y-59396333D01*
X141482500Y-59596333D01*
X141482500Y-59929666D01*
X141549166Y-60129666D01*
X141682500Y-60263000D01*
X141815833Y-60329666D01*
X141815833Y-60596333D01*
X141482500Y-60596333D01*
X135882500Y-59263000D02*
X136015833Y-59196333D01*
X136215833Y-59196333D01*
X136415833Y-59263000D01*
X136549166Y-59396333D01*
X136615833Y-59529666D01*
X136682500Y-59796333D01*
X136682500Y-59996333D01*
X136615833Y-60263000D01*
X136549166Y-60396333D01*
X136415833Y-60529666D01*
X136215833Y-60596333D01*
X136082500Y-60596333D01*
X135882500Y-60529666D01*
X135815833Y-60463000D01*
X135815833Y-59996333D01*
X136082500Y-59996333D01*
X135215833Y-60596333D02*
X135215833Y-59196333D01*
X134882500Y-59196333D01*
X134682500Y-59263000D01*
X134549166Y-59396333D01*
X134482500Y-59529666D01*
X134415833Y-59796333D01*
X134415833Y-59996333D01*
X134482500Y-60263000D01*
X134549166Y-60396333D01*
X134682500Y-60529666D01*
X134882500Y-60596333D01*
X135215833Y-60596333D01*
X133815833Y-59863000D02*
X133349166Y-59863000D01*
X133149166Y-60596333D02*
X133815833Y-60596333D01*
X133815833Y-59196333D01*
X133149166Y-59196333D01*
X132282500Y-59929666D02*
X132282500Y-60596333D01*
X132749166Y-59196333D02*
X132282500Y-59929666D01*
X131815833Y-59196333D01*
X131082500Y-59196333D02*
X130949166Y-59196333D01*
X130815833Y-59263000D01*
X130749166Y-59329666D01*
X130682500Y-59463000D01*
X130615833Y-59729666D01*
X130615833Y-60063000D01*
X130682500Y-60329666D01*
X130749166Y-60463000D01*
X130815833Y-60529666D01*
X130949166Y-60596333D01*
X131082500Y-60596333D01*
X131215833Y-60529666D01*
X131282500Y-60463000D01*
X131349166Y-60329666D01*
X131415833Y-60063000D01*
X131415833Y-59729666D01*
X131349166Y-59463000D01*
X131282500Y-59329666D01*
X131215833Y-59263000D01*
X131082500Y-59196333D01*
X130082500Y-59329666D02*
X130015833Y-59263000D01*
X129882500Y-59196333D01*
X129549166Y-59196333D01*
X129415833Y-59263000D01*
X129349166Y-59329666D01*
X129282500Y-59463000D01*
X129282500Y-59596333D01*
X129349166Y-59796333D01*
X130149166Y-60596333D01*
X129282500Y-60596333D01*
X128815833Y-59196333D02*
X127882500Y-59196333D01*
X128482500Y-60596333D01*
X127549166Y-59196333D02*
X126749166Y-59196333D01*
X127149166Y-60596333D02*
X127149166Y-59196333D01*
X126215833Y-60596333D02*
X125949166Y-60596333D01*
X125815833Y-60529666D01*
X125749166Y-60463000D01*
X125615833Y-60263000D01*
X125549166Y-59996333D01*
X125549166Y-59463000D01*
X125615833Y-59329666D01*
X125682500Y-59263000D01*
X125815833Y-59196333D01*
X126082500Y-59196333D01*
X126215833Y-59263000D01*
X126282500Y-59329666D01*
X126349166Y-59463000D01*
X126349166Y-59796333D01*
X126282500Y-59929666D01*
X126215833Y-59996333D01*
X126082500Y-60063000D01*
X125815833Y-60063000D01*
X125682500Y-59996333D01*
X125615833Y-59929666D01*
X125549166Y-59796333D01*
X124215833Y-60596333D02*
X125015833Y-60596333D01*
X124615833Y-60596333D02*
X124615833Y-59196333D01*
X124749166Y-59396333D01*
X124882500Y-59529666D01*
X125015833Y-59596333D01*
X148749166Y-62850333D02*
X149215833Y-62183666D01*
X149549166Y-62850333D02*
X149549166Y-61450333D01*
X149015833Y-61450333D01*
X148882500Y-61517000D01*
X148815833Y-61583666D01*
X148749166Y-61717000D01*
X148749166Y-61917000D01*
X148815833Y-62050333D01*
X148882500Y-62117000D01*
X149015833Y-62183666D01*
X149549166Y-62183666D01*
X148149166Y-62117000D02*
X147682500Y-62117000D01*
X147482500Y-62850333D02*
X148149166Y-62850333D01*
X148149166Y-61450333D01*
X147482500Y-61450333D01*
X146949166Y-62783666D02*
X146749166Y-62850333D01*
X146415833Y-62850333D01*
X146282500Y-62783666D01*
X146215833Y-62717000D01*
X146149166Y-62583666D01*
X146149166Y-62450333D01*
X146215833Y-62317000D01*
X146282500Y-62250333D01*
X146415833Y-62183666D01*
X146682500Y-62117000D01*
X146815833Y-62050333D01*
X146882500Y-61983666D01*
X146949166Y-61850333D01*
X146949166Y-61717000D01*
X146882500Y-61583666D01*
X146815833Y-61517000D01*
X146682500Y-61450333D01*
X146349166Y-61450333D01*
X146149166Y-61517000D01*
X145549166Y-62717000D02*
X145482500Y-62783666D01*
X145549166Y-62850333D01*
X145615833Y-62783666D01*
X145549166Y-62717000D01*
X145549166Y-62850333D01*
X145549166Y-61983666D02*
X145482500Y-62050333D01*
X145549166Y-62117000D01*
X145615833Y-62050333D01*
X145549166Y-61983666D01*
X145549166Y-62117000D01*
X143215833Y-61917000D02*
X143215833Y-62850333D01*
X143549166Y-61383666D02*
X143882500Y-62383666D01*
X143015833Y-62383666D01*
X142482500Y-62717000D02*
X142415833Y-62783666D01*
X142482500Y-62850333D01*
X142549166Y-62783666D01*
X142482500Y-62717000D01*
X142482500Y-62850333D01*
X141949166Y-61450333D02*
X141015833Y-61450333D01*
X141615833Y-62850333D01*
X140549166Y-62850333D02*
X140215833Y-62850333D01*
X140215833Y-62583666D01*
X140349166Y-62517000D01*
X140482500Y-62383666D01*
X140549166Y-62183666D01*
X140549166Y-61850333D01*
X140482500Y-61650333D01*
X140349166Y-61517000D01*
X140149166Y-61450333D01*
X139882500Y-61450333D01*
X139682500Y-61517000D01*
X139549166Y-61650333D01*
X139482500Y-61850333D01*
X139482500Y-62183666D01*
X139549166Y-62383666D01*
X139682500Y-62517000D01*
X139815833Y-62583666D01*
X139815833Y-62850333D01*
X139482500Y-62850333D01*
X136015833Y-61517000D02*
X136149166Y-61450333D01*
X136349166Y-61450333D01*
X136549166Y-61517000D01*
X136682500Y-61650333D01*
X136749166Y-61783666D01*
X136815833Y-62050333D01*
X136815833Y-62250333D01*
X136749166Y-62517000D01*
X136682500Y-62650333D01*
X136549166Y-62783666D01*
X136349166Y-62850333D01*
X136215833Y-62850333D01*
X136015833Y-62783666D01*
X135949166Y-62717000D01*
X135949166Y-62250333D01*
X136215833Y-62250333D01*
X135349166Y-62850333D02*
X135349166Y-61450333D01*
X135015833Y-61450333D01*
X134815833Y-61517000D01*
X134682500Y-61650333D01*
X134615833Y-61783666D01*
X134549166Y-62050333D01*
X134549166Y-62250333D01*
X134615833Y-62517000D01*
X134682500Y-62650333D01*
X134815833Y-62783666D01*
X135015833Y-62850333D01*
X135349166Y-62850333D01*
X133949166Y-62117000D02*
X133482500Y-62117000D01*
X133282500Y-62850333D02*
X133949166Y-62850333D01*
X133949166Y-61450333D01*
X133282500Y-61450333D01*
X132815833Y-61450333D02*
X132482500Y-62850333D01*
X132215833Y-61850333D01*
X131949166Y-62850333D01*
X131615833Y-61450333D01*
X130815833Y-61450333D02*
X130682500Y-61450333D01*
X130549166Y-61517000D01*
X130482500Y-61583666D01*
X130415833Y-61717000D01*
X130349166Y-61983666D01*
X130349166Y-62317000D01*
X130415833Y-62583666D01*
X130482500Y-62717000D01*
X130549166Y-62783666D01*
X130682500Y-62850333D01*
X130815833Y-62850333D01*
X130949166Y-62783666D01*
X131015833Y-62717000D01*
X131082500Y-62583666D01*
X131149166Y-62317000D01*
X131149166Y-61983666D01*
X131082500Y-61717000D01*
X131015833Y-61583666D01*
X130949166Y-61517000D01*
X130815833Y-61450333D01*
X129815833Y-61583666D02*
X129749166Y-61517000D01*
X129615833Y-61450333D01*
X129282500Y-61450333D01*
X129149166Y-61517000D01*
X129082500Y-61583666D01*
X129015833Y-61717000D01*
X129015833Y-61850333D01*
X129082500Y-62050333D01*
X129882500Y-62850333D01*
X129015833Y-62850333D01*
X128549166Y-61450333D02*
X127615833Y-61450333D01*
X128215833Y-62850333D01*
X127215833Y-61450333D02*
X126882500Y-62850333D01*
X126615833Y-61850333D01*
X126349166Y-62850333D01*
X126015833Y-61450333D01*
X125615833Y-61450333D02*
X124749166Y-61450333D01*
X125215833Y-61983666D01*
X125015833Y-61983666D01*
X124882500Y-62050333D01*
X124815833Y-62117000D01*
X124749166Y-62250333D01*
X124749166Y-62583666D01*
X124815833Y-62717000D01*
X124882500Y-62783666D01*
X125015833Y-62850333D01*
X125415833Y-62850333D01*
X125549166Y-62783666D01*
X125615833Y-62717000D01*
X149291666Y-57950000D02*
X150358333Y-57950000D01*
X150091666Y-58216666D02*
X150358333Y-57950000D01*
X150091666Y-57683333D01*
X143291666Y-57750000D02*
X142825000Y-57750000D01*
X142625000Y-58483333D02*
X143291666Y-58483333D01*
X143291666Y-57083333D01*
X142625000Y-57083333D01*
X142025000Y-58483333D02*
X142025000Y-57083333D01*
X141491666Y-57083333D01*
X141358333Y-57150000D01*
X141291666Y-57216666D01*
X141225000Y-57350000D01*
X141225000Y-57550000D01*
X141291666Y-57683333D01*
X141358333Y-57750000D01*
X141491666Y-57816666D01*
X142025000Y-57816666D01*
X140691666Y-58083333D02*
X140025000Y-58083333D01*
X140825000Y-58483333D02*
X140358333Y-57083333D01*
X139891666Y-58483333D01*
X139425000Y-58483333D02*
X139425000Y-57083333D01*
X138891666Y-57083333D01*
X138758333Y-57150000D01*
X138691666Y-57216666D01*
X138625000Y-57350000D01*
X138625000Y-57550000D01*
X138691666Y-57683333D01*
X138758333Y-57750000D01*
X138891666Y-57816666D01*
X139425000Y-57816666D01*
X138025000Y-57750000D02*
X137558333Y-57750000D01*
X137358333Y-58483333D02*
X138025000Y-58483333D01*
X138025000Y-57083333D01*
X137358333Y-57083333D01*
X135958333Y-58483333D02*
X136425000Y-57816666D01*
X136758333Y-58483333D02*
X136758333Y-57083333D01*
X136225000Y-57083333D01*
X136091666Y-57150000D01*
X136025000Y-57216666D01*
X135958333Y-57350000D01*
X135958333Y-57550000D01*
X136025000Y-57683333D01*
X136091666Y-57750000D01*
X136225000Y-57816666D01*
X136758333Y-57816666D01*
X134358333Y-57216666D02*
X134291666Y-57150000D01*
X134158333Y-57083333D01*
X133825000Y-57083333D01*
X133691666Y-57150000D01*
X133625000Y-57216666D01*
X133558333Y-57350000D01*
X133558333Y-57483333D01*
X133625000Y-57683333D01*
X134425000Y-58483333D01*
X133558333Y-58483333D01*
X132958333Y-58350000D02*
X132891666Y-58416666D01*
X132958333Y-58483333D01*
X133025000Y-58416666D01*
X132958333Y-58350000D01*
X132958333Y-58483333D01*
X132425000Y-57083333D02*
X131491666Y-57083333D01*
X132091666Y-58483333D01*
X131025000Y-57083333D02*
X131025000Y-57350000D01*
X130491666Y-57083333D02*
X130491666Y-57350000D01*
X124558333Y-57950000D02*
X123491666Y-57950000D01*
X123758333Y-58216666D02*
X123491666Y-57950000D01*
X123758333Y-57683333D01*
D15*
X153804300Y-117655087D02*
G75*
G03*
X153804300Y-117655087I-381000J0D01*
G01*
X123044900Y-89005000D02*
G75*
G03*
X123044900Y-89005000I-381000J0D01*
G01*
%LPC*%
D16*
X127690000Y-118150000D03*
X121910000Y-118150000D03*
D17*
X129120000Y-117620000D03*
D18*
X129120000Y-121800000D03*
X120480000Y-121800000D03*
D17*
X120480000Y-117620000D03*
D19*
X107450000Y-90100000D03*
D20*
X128851400Y-94530000D03*
X131848600Y-94530000D03*
D21*
X126971501Y-72200000D03*
D22*
X128971502Y-72200000D03*
X130971501Y-72200000D03*
X132971502Y-72200000D03*
D23*
X157650000Y-102350000D03*
D24*
X157650000Y-104890000D03*
X157650000Y-107430000D03*
X157650000Y-109970000D03*
X157650000Y-112510000D03*
X157650000Y-115050000D03*
D19*
X167500000Y-90100000D03*
M02*
