G04 #@! TF.GenerationSoftware,KiCad,Pcbnew,6.0.11-2627ca5db0~126~ubuntu20.04.1*
G04 #@! TF.CreationDate,2023-02-16T11:57:51+01:00*
G04 #@! TF.ProjectId,C3-27-epaper-touch,43332d32-372d-4657-9061-7065722d746f,rev?*
G04 #@! TF.SameCoordinates,Original*
G04 #@! TF.FileFunction,Copper,L1,Top*
G04 #@! TF.FilePolarity,Positive*
%FSLAX46Y46*%
G04 Gerber Fmt 4.6, Leading zero omitted, Abs format (unit mm)*
G04 Created by KiCad (PCBNEW 6.0.11-2627ca5db0~126~ubuntu20.04.1) date 2023-02-16 11:57:51*
%MOMM*%
%LPD*%
G01*
G04 APERTURE LIST*
G04 Aperture macros list*
%AMRoundRect*
0 Rectangle with rounded corners*
0 $1 Rounding radius*
0 $2 $3 $4 $5 $6 $7 $8 $9 X,Y pos of 4 corners*
0 Add a 4 corners polygon primitive as box body*
4,1,4,$2,$3,$4,$5,$6,$7,$8,$9,$2,$3,0*
0 Add four circle primitives for the rounded corners*
1,1,$1+$1,$2,$3*
1,1,$1+$1,$4,$5*
1,1,$1+$1,$6,$7*
1,1,$1+$1,$8,$9*
0 Add four rect primitives between the rounded corners*
20,1,$1+$1,$2,$3,$4,$5,0*
20,1,$1+$1,$4,$5,$6,$7,0*
20,1,$1+$1,$6,$7,$8,$9,0*
20,1,$1+$1,$8,$9,$2,$3,0*%
G04 Aperture macros list end*
G04 #@! TA.AperFunction,SMDPad,CuDef*
%ADD10C,1.500000*%
G04 #@! TD*
G04 #@! TA.AperFunction,SMDPad,CuDef*
%ADD11R,0.450000X0.600000*%
G04 #@! TD*
G04 #@! TA.AperFunction,SMDPad,CuDef*
%ADD12RoundRect,0.250000X-0.337500X-0.475000X0.337500X-0.475000X0.337500X0.475000X-0.337500X0.475000X0*%
G04 #@! TD*
G04 #@! TA.AperFunction,SMDPad,CuDef*
%ADD13R,1.498600X0.889000*%
G04 #@! TD*
G04 #@! TA.AperFunction,SMDPad,CuDef*
%ADD14R,0.711200X0.711200*%
G04 #@! TD*
G04 #@! TA.AperFunction,SMDPad,CuDef*
%ADD15RoundRect,0.150000X0.587500X0.150000X-0.587500X0.150000X-0.587500X-0.150000X0.587500X-0.150000X0*%
G04 #@! TD*
G04 #@! TA.AperFunction,SMDPad,CuDef*
%ADD16RoundRect,0.250000X0.475000X-0.337500X0.475000X0.337500X-0.475000X0.337500X-0.475000X-0.337500X0*%
G04 #@! TD*
G04 #@! TA.AperFunction,SMDPad,CuDef*
%ADD17RoundRect,0.250000X0.337500X0.475000X-0.337500X0.475000X-0.337500X-0.475000X0.337500X-0.475000X0*%
G04 #@! TD*
G04 #@! TA.AperFunction,SMDPad,CuDef*
%ADD18R,0.600000X1.450000*%
G04 #@! TD*
G04 #@! TA.AperFunction,SMDPad,CuDef*
%ADD19R,0.300000X1.450000*%
G04 #@! TD*
G04 #@! TA.AperFunction,ComponentPad*
%ADD20O,1.000000X2.100000*%
G04 #@! TD*
G04 #@! TA.AperFunction,ComponentPad*
%ADD21O,1.000000X1.600000*%
G04 #@! TD*
G04 #@! TA.AperFunction,SMDPad,CuDef*
%ADD22RoundRect,0.150000X-0.150000X0.587500X-0.150000X-0.587500X0.150000X-0.587500X0.150000X0.587500X0*%
G04 #@! TD*
G04 #@! TA.AperFunction,SMDPad,CuDef*
%ADD23RoundRect,0.200000X0.275000X-0.200000X0.275000X0.200000X-0.275000X0.200000X-0.275000X-0.200000X0*%
G04 #@! TD*
G04 #@! TA.AperFunction,SMDPad,CuDef*
%ADD24RoundRect,0.200000X-0.200000X-0.275000X0.200000X-0.275000X0.200000X0.275000X-0.200000X0.275000X0*%
G04 #@! TD*
G04 #@! TA.AperFunction,SMDPad,CuDef*
%ADD25RoundRect,0.250000X0.412500X0.925000X-0.412500X0.925000X-0.412500X-0.925000X0.412500X-0.925000X0*%
G04 #@! TD*
G04 #@! TA.AperFunction,SMDPad,CuDef*
%ADD26RoundRect,0.150000X-0.825000X-0.150000X0.825000X-0.150000X0.825000X0.150000X-0.825000X0.150000X0*%
G04 #@! TD*
G04 #@! TA.AperFunction,SMDPad,CuDef*
%ADD27RoundRect,0.250000X-0.475000X0.337500X-0.475000X-0.337500X0.475000X-0.337500X0.475000X0.337500X0*%
G04 #@! TD*
G04 #@! TA.AperFunction,SMDPad,CuDef*
%ADD28RoundRect,0.200000X0.200000X0.275000X-0.200000X0.275000X-0.200000X-0.275000X0.200000X-0.275000X0*%
G04 #@! TD*
G04 #@! TA.AperFunction,SMDPad,CuDef*
%ADD29R,0.889000X1.244600*%
G04 #@! TD*
G04 #@! TA.AperFunction,SMDPad,CuDef*
%ADD30R,0.812800X0.939800*%
G04 #@! TD*
G04 #@! TA.AperFunction,SMDPad,CuDef*
%ADD31RoundRect,0.250000X-0.475000X0.250000X-0.475000X-0.250000X0.475000X-0.250000X0.475000X0.250000X0*%
G04 #@! TD*
G04 #@! TA.AperFunction,SMDPad,CuDef*
%ADD32R,0.304800X1.193800*%
G04 #@! TD*
G04 #@! TA.AperFunction,SMDPad,CuDef*
%ADD33R,1.803400X2.006600*%
G04 #@! TD*
G04 #@! TA.AperFunction,SMDPad,CuDef*
%ADD34R,0.900000X1.200000*%
G04 #@! TD*
G04 #@! TA.AperFunction,SMDPad,CuDef*
%ADD35RoundRect,0.250000X-0.250000X-0.475000X0.250000X-0.475000X0.250000X0.475000X-0.250000X0.475000X0*%
G04 #@! TD*
G04 #@! TA.AperFunction,SMDPad,CuDef*
%ADD36RoundRect,0.200000X-0.275000X0.200000X-0.275000X-0.200000X0.275000X-0.200000X0.275000X0.200000X0*%
G04 #@! TD*
G04 #@! TA.AperFunction,SMDPad,CuDef*
%ADD37RoundRect,0.250000X0.250000X0.475000X-0.250000X0.475000X-0.250000X-0.475000X0.250000X-0.475000X0*%
G04 #@! TD*
G04 #@! TA.AperFunction,SMDPad,CuDef*
%ADD38RoundRect,0.250000X-0.412500X-0.925000X0.412500X-0.925000X0.412500X0.925000X-0.412500X0.925000X0*%
G04 #@! TD*
G04 #@! TA.AperFunction,SMDPad,CuDef*
%ADD39R,0.304800X0.812800*%
G04 #@! TD*
G04 #@! TA.AperFunction,SMDPad,CuDef*
%ADD40R,0.406400X0.812800*%
G04 #@! TD*
G04 #@! TA.AperFunction,SMDPad,CuDef*
%ADD41R,0.300000X1.000000*%
G04 #@! TD*
G04 #@! TA.AperFunction,SMDPad,CuDef*
%ADD42R,1.000000X0.300000*%
G04 #@! TD*
G04 #@! TA.AperFunction,SMDPad,CuDef*
%ADD43R,3.350000X3.350000*%
G04 #@! TD*
G04 #@! TA.AperFunction,SMDPad,CuDef*
%ADD44RoundRect,0.135000X-0.185000X0.135000X-0.185000X-0.135000X0.185000X-0.135000X0.185000X0.135000X0*%
G04 #@! TD*
G04 #@! TA.AperFunction,ComponentPad*
%ADD45R,1.150000X1.150000*%
G04 #@! TD*
G04 #@! TA.AperFunction,ComponentPad*
%ADD46C,1.150000*%
G04 #@! TD*
G04 #@! TA.AperFunction,ComponentPad*
%ADD47R,1.700000X1.700000*%
G04 #@! TD*
G04 #@! TA.AperFunction,ComponentPad*
%ADD48O,1.700000X1.700000*%
G04 #@! TD*
G04 #@! TA.AperFunction,SMDPad,CuDef*
%ADD49R,0.700000X0.450000*%
G04 #@! TD*
G04 #@! TA.AperFunction,SMDPad,CuDef*
%ADD50RoundRect,0.225000X-0.225000X-0.250000X0.225000X-0.250000X0.225000X0.250000X-0.225000X0.250000X0*%
G04 #@! TD*
G04 #@! TA.AperFunction,SMDPad,CuDef*
%ADD51R,3.708400X1.092200*%
G04 #@! TD*
G04 #@! TA.AperFunction,SMDPad,CuDef*
%ADD52RoundRect,0.100000X-0.130000X-0.100000X0.130000X-0.100000X0.130000X0.100000X-0.130000X0.100000X0*%
G04 #@! TD*
G04 #@! TA.AperFunction,ViaPad*
%ADD53C,0.500000*%
G04 #@! TD*
G04 #@! TA.AperFunction,ViaPad*
%ADD54C,1.000000*%
G04 #@! TD*
G04 #@! TA.AperFunction,ViaPad*
%ADD55C,0.800000*%
G04 #@! TD*
G04 #@! TA.AperFunction,Conductor*
%ADD56C,0.250000*%
G04 #@! TD*
G04 #@! TA.AperFunction,Conductor*
%ADD57C,0.500000*%
G04 #@! TD*
G04 #@! TA.AperFunction,Conductor*
%ADD58C,0.400000*%
G04 #@! TD*
G04 #@! TA.AperFunction,Conductor*
%ADD59C,1.000000*%
G04 #@! TD*
G04 #@! TA.AperFunction,Conductor*
%ADD60C,0.300000*%
G04 #@! TD*
G04 APERTURE END LIST*
D10*
X156550000Y-82300000D03*
D11*
X137471501Y-73420000D03*
X137471501Y-71320000D03*
D12*
X133475000Y-83050000D03*
X135550000Y-83050000D03*
D10*
X122900000Y-82250000D03*
D13*
X151264000Y-117655087D03*
X151264000Y-116155087D03*
X151264000Y-114655085D03*
X151264000Y-113155086D03*
X151264000Y-111655086D03*
X151264000Y-110155087D03*
X151264000Y-108655087D03*
X151264000Y-107155085D03*
X151264000Y-105655085D03*
X133764000Y-105655085D03*
X133764000Y-107155085D03*
X133764000Y-108655087D03*
X133764000Y-110155087D03*
X133764000Y-111655086D03*
X133764000Y-113155086D03*
X133764000Y-114655085D03*
X133764000Y-116155087D03*
X133764000Y-117655087D03*
D14*
X142658198Y-112555110D03*
X141558198Y-112555110D03*
X140458198Y-112555110D03*
X142658300Y-111455112D03*
X141558300Y-111455112D03*
X140458299Y-111455112D03*
X142658198Y-110355114D03*
X141558198Y-110355114D03*
X140458198Y-110355114D03*
D15*
X155587500Y-120800000D03*
X155587500Y-118900000D03*
X153712500Y-119850000D03*
D16*
X149300000Y-87137500D03*
X149300000Y-85062500D03*
D17*
X152137500Y-96000000D03*
X150062500Y-96000000D03*
D18*
X121550000Y-116705000D03*
X122350000Y-116705000D03*
D19*
X123550000Y-116705000D03*
X124550000Y-116705000D03*
X125050000Y-116705000D03*
X126050000Y-116705000D03*
D18*
X127250000Y-116705000D03*
X128050000Y-116705000D03*
X128050000Y-116705000D03*
X127250000Y-116705000D03*
D19*
X126550000Y-116705000D03*
X125550000Y-116705000D03*
X124050000Y-116705000D03*
X123050000Y-116705000D03*
D18*
X122350000Y-116705000D03*
X121550000Y-116705000D03*
D20*
X129120000Y-117620000D03*
D21*
X129120000Y-121800000D03*
X120480000Y-121800000D03*
D20*
X120480000Y-117620000D03*
D22*
X122650000Y-112125000D03*
X120750000Y-112125000D03*
X121700000Y-114000000D03*
D23*
X129510000Y-108125000D03*
X129510000Y-106475000D03*
D12*
X155550000Y-88500000D03*
X157625000Y-88500000D03*
D24*
X128125000Y-90550000D03*
X129775000Y-90550000D03*
D25*
X131137500Y-78800000D03*
X128062500Y-78800000D03*
D17*
X155787500Y-85650000D03*
X153712500Y-85650000D03*
D26*
X125375000Y-83595000D03*
X125375000Y-84865000D03*
X125375000Y-86135000D03*
X125375000Y-87405000D03*
X130325000Y-87405000D03*
X130325000Y-86135000D03*
X130325000Y-84865000D03*
X130325000Y-83595000D03*
D27*
X158400000Y-69962500D03*
X158400000Y-72037500D03*
D24*
X134475000Y-89530000D03*
X136125000Y-89530000D03*
D28*
X158980000Y-120820000D03*
X157330000Y-120820000D03*
D10*
X156550000Y-74750000D03*
D16*
X156100000Y-71000000D03*
X156100000Y-68925000D03*
D28*
X153745000Y-103210000D03*
X152095000Y-103210000D03*
D29*
X128102100Y-92454820D03*
X131099300Y-92454820D03*
X132597900Y-92454820D03*
D30*
X126550160Y-93399700D03*
X134149840Y-93399700D03*
X126550160Y-95660300D03*
X134149840Y-95660300D03*
D31*
X131400000Y-119450000D03*
X131400000Y-121350000D03*
D32*
X152100001Y-79895600D03*
X151600000Y-79895600D03*
X151100001Y-79895600D03*
X150599999Y-79895600D03*
X150100000Y-79895600D03*
X149600001Y-79895600D03*
X149100000Y-79895600D03*
X148600001Y-79895600D03*
X148099999Y-79895600D03*
X147600000Y-79895600D03*
X147100001Y-79895600D03*
X146600000Y-79895600D03*
X146100000Y-79895600D03*
X145599999Y-79895600D03*
X145100000Y-79895600D03*
X144600001Y-79895600D03*
X144099999Y-79895600D03*
X143600000Y-79895600D03*
X143099999Y-79895600D03*
X142600000Y-79895600D03*
X142100001Y-79895600D03*
X141599999Y-79895600D03*
X141100000Y-79895600D03*
X140600001Y-79895600D03*
D33*
X153750000Y-76745601D03*
X138950000Y-76745601D03*
D17*
X153737500Y-88500000D03*
X151662500Y-88500000D03*
D24*
X126675000Y-114100000D03*
X128325000Y-114100000D03*
D15*
X150237500Y-103190000D03*
X150237500Y-101290000D03*
X148362500Y-102240000D03*
D34*
X155800000Y-90850000D03*
X152500000Y-90850000D03*
D35*
X126750000Y-112300000D03*
X128650000Y-112300000D03*
D36*
X123150000Y-87525000D03*
X123150000Y-89175000D03*
D28*
X119650000Y-94200000D03*
X118000000Y-94200000D03*
D37*
X118800000Y-110200000D03*
X116900000Y-110200000D03*
D38*
X155625000Y-123270000D03*
X158700000Y-123270000D03*
D17*
X129157500Y-110180000D03*
X127082500Y-110180000D03*
D28*
X135725000Y-85850000D03*
X134075000Y-85850000D03*
D39*
X118150000Y-90139000D03*
X118649999Y-90139000D03*
X119150001Y-90139000D03*
X119650000Y-90139000D03*
X120150001Y-90139000D03*
X120650000Y-90139000D03*
D40*
X121650001Y-87625878D03*
X117149999Y-87625878D03*
D24*
X120200000Y-95820000D03*
X121850000Y-95820000D03*
D36*
X117650000Y-119925000D03*
X117650000Y-121575000D03*
D16*
X142600000Y-86237500D03*
X142600000Y-84162500D03*
D41*
X123650000Y-108075000D03*
X124150000Y-108075000D03*
X124650000Y-108075000D03*
X125150000Y-108075000D03*
X125650000Y-108075000D03*
X126150000Y-108075000D03*
X126650000Y-108075000D03*
D42*
X127500000Y-107225000D03*
X127500000Y-106725000D03*
X127500000Y-106225000D03*
X127500000Y-105725000D03*
X127500000Y-105225000D03*
X127500000Y-104725000D03*
X127500000Y-104225000D03*
D41*
X126650000Y-103375000D03*
X126150000Y-103375000D03*
X125650000Y-103375000D03*
X125150000Y-103375000D03*
X124650000Y-103375000D03*
X124150000Y-103375000D03*
X123650000Y-103375000D03*
D42*
X122800000Y-104225000D03*
X122800000Y-104725000D03*
X122800000Y-105225000D03*
X122800000Y-105725000D03*
X122800000Y-106225000D03*
X122800000Y-106725000D03*
X122800000Y-107225000D03*
D43*
X125150000Y-105725000D03*
D44*
X129260000Y-103410000D03*
X129260000Y-104430000D03*
D45*
X126971501Y-72200000D03*
D46*
X128971502Y-72200000D03*
X130971501Y-72200000D03*
X132971502Y-72200000D03*
D34*
X150000000Y-93450000D03*
X153300000Y-93450000D03*
D17*
X150137500Y-90800000D03*
X148062500Y-90800000D03*
D47*
X157650000Y-102350000D03*
D48*
X157650000Y-104890000D03*
X157650000Y-107430000D03*
X157650000Y-109970000D03*
X157650000Y-112510000D03*
X157650000Y-115050000D03*
D38*
X133162500Y-78800000D03*
X136237500Y-78800000D03*
D10*
X156550000Y-78650000D03*
D49*
X137650000Y-85850000D03*
X137650000Y-87150000D03*
X139650000Y-86500000D03*
D50*
X151850000Y-99050000D03*
X153400000Y-99050000D03*
D23*
X155000000Y-116675000D03*
X155000000Y-115025000D03*
D51*
X156650000Y-96551400D03*
X156650000Y-99548600D03*
D34*
X158200000Y-93950000D03*
X154900000Y-93950000D03*
D52*
X129160000Y-105220000D03*
X129800000Y-105220000D03*
D16*
X151550000Y-86037500D03*
X151550000Y-83962500D03*
D36*
X158910000Y-117665000D03*
X158910000Y-119315000D03*
D53*
X151350000Y-92025000D03*
D54*
X160270000Y-123250000D03*
D55*
X159750000Y-69950000D03*
D53*
X148050000Y-78275000D03*
X123900000Y-112100000D03*
D54*
X153810000Y-106130000D03*
X131930000Y-87340000D03*
D53*
X149300000Y-88300000D03*
X151000000Y-87150000D03*
X129330000Y-108990000D03*
X117900000Y-92100000D03*
D54*
X144740000Y-105900000D03*
D53*
X155000000Y-87050000D03*
D54*
X141024888Y-111455112D03*
X142154888Y-111455112D03*
X134090000Y-84520000D03*
D53*
X142600000Y-87250000D03*
D54*
X136360000Y-88140000D03*
D53*
X124575000Y-109300000D03*
D54*
X160570000Y-111110000D03*
X115450000Y-110220000D03*
D53*
X129960000Y-104020000D03*
X126850000Y-78800000D03*
X152150000Y-97400000D03*
X126275000Y-105275000D03*
D54*
X116100000Y-117800000D03*
X160570000Y-119050000D03*
X144730000Y-111430000D03*
D53*
X144725000Y-78250000D03*
D54*
X118800000Y-115075000D03*
D53*
X125525000Y-104325000D03*
X119350000Y-84900000D03*
X121350000Y-84500000D03*
D54*
X117500000Y-123800000D03*
X153800000Y-122410000D03*
D53*
X155100000Y-117950000D03*
X131600000Y-110830000D03*
X123900000Y-114750000D03*
X128550000Y-108970000D03*
D54*
X130200000Y-112950000D03*
D53*
X131000000Y-106730000D03*
X148080000Y-97990000D03*
X143590000Y-95750000D03*
X121040000Y-100060000D03*
X148150000Y-117300000D03*
X125900000Y-115200000D03*
X125000000Y-114225000D03*
X154770000Y-113720000D03*
X139090000Y-115780000D03*
X131080000Y-113950000D03*
X122650000Y-98750000D03*
X154770000Y-112100000D03*
X139080000Y-114900000D03*
X154630000Y-111030000D03*
X139130000Y-113880000D03*
X143650000Y-94400000D03*
X153800000Y-96650000D03*
X148270000Y-108960000D03*
X139040000Y-116780000D03*
X143550000Y-98500000D03*
X147440000Y-106650000D03*
X123450000Y-117850000D03*
X119150000Y-118900000D03*
X153730000Y-104360000D03*
X153325000Y-118925000D03*
X121200000Y-105200000D03*
X142200000Y-97200000D03*
X153030000Y-101310000D03*
X119800000Y-101425000D03*
X148040000Y-99110000D03*
X121900000Y-108500000D03*
D55*
X159170000Y-100680000D03*
D53*
X121925000Y-99875000D03*
X147350000Y-116900000D03*
D56*
X142154888Y-111455112D02*
X141024888Y-111455112D01*
D57*
X128650000Y-113800000D02*
X128650000Y-112300000D01*
D56*
X125650000Y-114400000D02*
X125162500Y-114887500D01*
D57*
X158387500Y-69950000D02*
X157150000Y-69950000D01*
D56*
X129960000Y-103800000D02*
X129960000Y-104020000D01*
X125162500Y-114887500D02*
X125687500Y-114362500D01*
D58*
X155787500Y-86262500D02*
X155787500Y-85650000D01*
D57*
X116900000Y-110200000D02*
X115470000Y-110200000D01*
D59*
X130950000Y-121800000D02*
X129120000Y-121800000D01*
D56*
X124800000Y-118600000D02*
X125050000Y-118350000D01*
D57*
X144740000Y-111420000D02*
X144730000Y-111430000D01*
D58*
X151850000Y-99050000D02*
X151850000Y-97700000D01*
D57*
X128050000Y-116705000D02*
X128945000Y-116705000D01*
X133475000Y-83905000D02*
X134090000Y-84520000D01*
X128325000Y-115175000D02*
X128325000Y-114100000D01*
D56*
X118150000Y-90439000D02*
X118150000Y-91850000D01*
X142600000Y-86237500D02*
X142600000Y-87250000D01*
X125650000Y-108075000D02*
X125650000Y-114400000D01*
D58*
X152150000Y-96012500D02*
X152137500Y-96000000D01*
D57*
X136125000Y-89530000D02*
X136125000Y-88375000D01*
D56*
X158412500Y-69950000D02*
X158400000Y-69962500D01*
D59*
X118800000Y-115075000D02*
X116100000Y-117775000D01*
D56*
X129570000Y-103410000D02*
X129930000Y-103770000D01*
D58*
X130325000Y-87405000D02*
X131865000Y-87405000D01*
D56*
X124050000Y-116705000D02*
X124050000Y-118350000D01*
X124050000Y-118350000D02*
X124300000Y-118600000D01*
D58*
X131930000Y-87340000D02*
X129775000Y-89495000D01*
D57*
X129120000Y-116880000D02*
X129120000Y-117620000D01*
D56*
X123900000Y-112100000D02*
X122675000Y-112100000D01*
X140500000Y-110350000D02*
X140500000Y-112550000D01*
X124300000Y-118600000D02*
X124800000Y-118600000D01*
X144099999Y-79895600D02*
X144099999Y-78875001D01*
D57*
X128945000Y-116705000D02*
X129120000Y-116880000D01*
D56*
X151550000Y-86037500D02*
X151550000Y-86600000D01*
X129260000Y-103410000D02*
X129570000Y-103410000D01*
X122675000Y-112100000D02*
X122650000Y-112125000D01*
X148600001Y-78825001D02*
X148050000Y-78275000D01*
X140500000Y-112550000D02*
X142653088Y-112550000D01*
D57*
X128350000Y-114100000D02*
X128650000Y-113800000D01*
D58*
X153737500Y-88312500D02*
X154850000Y-87200000D01*
D56*
X125050000Y-118350000D02*
X125050000Y-116705000D01*
D58*
X154850000Y-87200000D02*
X155787500Y-86262500D01*
D56*
X148600001Y-79895600D02*
X148600001Y-78825001D01*
X124650000Y-109225000D02*
X124575000Y-109300000D01*
D58*
X152137500Y-96000000D02*
X152137500Y-94887500D01*
X131865000Y-87405000D02*
X131930000Y-87340000D01*
X152150000Y-97400000D02*
X152150000Y-96012500D01*
D57*
X128050000Y-115450000D02*
X128325000Y-115175000D01*
X121550000Y-116705000D02*
X120655000Y-116705000D01*
X120655000Y-116705000D02*
X120480000Y-116880000D01*
X158400000Y-69962500D02*
X158387500Y-69950000D01*
D56*
X144099999Y-78875001D02*
X144725000Y-78250000D01*
D59*
X131400000Y-121350000D02*
X130950000Y-121800000D01*
D56*
X125050000Y-115000000D02*
X125162500Y-114887500D01*
X151550000Y-86600000D02*
X151000000Y-87150000D01*
X125050000Y-116705000D02*
X125050000Y-115000000D01*
D57*
X136125000Y-88375000D02*
X136360000Y-88140000D01*
X133475000Y-83050000D02*
X133475000Y-83905000D01*
X157150000Y-69950000D02*
X156100000Y-71000000D01*
X128062500Y-78800000D02*
X126850000Y-78800000D01*
D58*
X150000000Y-93450000D02*
X151350000Y-92100000D01*
D56*
X142653084Y-112550000D02*
X140458198Y-110355114D01*
D57*
X133420000Y-85850000D02*
X134075000Y-85850000D01*
X134075000Y-85850000D02*
X134075000Y-84535000D01*
D58*
X129775000Y-89495000D02*
X129775000Y-90550000D01*
D56*
X124650000Y-108075000D02*
X124650000Y-109225000D01*
X142653088Y-112550000D02*
X142658198Y-112555110D01*
D58*
X153737500Y-88500000D02*
X153737500Y-88312500D01*
D57*
X160250000Y-123270000D02*
X160270000Y-123250000D01*
D56*
X129157500Y-109162500D02*
X129330000Y-108990000D01*
D57*
X120480000Y-116880000D02*
X120480000Y-117620000D01*
D56*
X142700000Y-110350000D02*
X140500000Y-110350000D01*
X118150000Y-91850000D02*
X117900000Y-92100000D01*
D57*
X134075000Y-84535000D02*
X134090000Y-84520000D01*
X133500000Y-83050000D02*
X136237500Y-80312500D01*
D56*
X141024888Y-111455112D02*
X140458299Y-111455112D01*
D57*
X128325000Y-114100000D02*
X128350000Y-114100000D01*
X151264000Y-105655085D02*
X153335085Y-105655085D01*
D59*
X117875000Y-121800000D02*
X117650000Y-121575000D01*
D58*
X151350000Y-92025000D02*
X151350000Y-92012500D01*
X150000000Y-93450000D02*
X150525000Y-93450000D01*
D57*
X153335085Y-105655085D02*
X153810000Y-106130000D01*
X131930000Y-87340000D02*
X133420000Y-85850000D01*
D56*
X149300000Y-87137500D02*
X149300000Y-88300000D01*
D58*
X151350000Y-92100000D02*
X151350000Y-92025000D01*
X151850000Y-97700000D02*
X152150000Y-97400000D01*
D59*
X116100000Y-117775000D02*
X116100000Y-117800000D01*
D56*
X124650000Y-108075000D02*
X124650000Y-106225000D01*
D57*
X136237500Y-80312500D02*
X136237500Y-78800000D01*
X144740000Y-105900000D02*
X144740000Y-111420000D01*
D58*
X152137500Y-94887500D02*
X150700000Y-93450000D01*
D57*
X128050000Y-116705000D02*
X128050000Y-115450000D01*
D56*
X142658300Y-111455112D02*
X142154888Y-111455112D01*
D58*
X150700000Y-93450000D02*
X150000000Y-93450000D01*
D56*
X125650000Y-108075000D02*
X125650000Y-106225000D01*
D57*
X133475000Y-83050000D02*
X133500000Y-83050000D01*
X159750000Y-69950000D02*
X158412500Y-69950000D01*
D58*
X151350000Y-92012500D02*
X150137500Y-90800000D01*
D56*
X129930000Y-103770000D02*
X129960000Y-103800000D01*
X129157500Y-110180000D02*
X129157500Y-109162500D01*
D59*
X160570000Y-111110000D02*
X160570000Y-119050000D01*
D56*
X142658198Y-112555110D02*
X142658198Y-110355114D01*
D59*
X120480000Y-121800000D02*
X117875000Y-121800000D01*
D57*
X158700000Y-123270000D02*
X160250000Y-123270000D01*
X115470000Y-110200000D02*
X115450000Y-110220000D01*
D58*
X119350000Y-84900000D02*
X119350000Y-75250000D01*
D56*
X148099999Y-80195600D02*
X148099999Y-81750001D01*
D57*
X118510000Y-113550000D02*
X120250000Y-113550000D01*
D58*
X116050000Y-101200000D02*
X116050000Y-89800000D01*
D56*
X148099999Y-81750001D02*
X147874999Y-81975001D01*
D58*
X130325000Y-70400000D02*
X136900000Y-70400000D01*
D57*
X155860000Y-100880000D02*
X155860000Y-103760000D01*
D58*
X116900000Y-102050000D02*
X119500000Y-104650000D01*
D57*
X114860000Y-121160000D02*
X114860000Y-117200000D01*
X151370000Y-100020000D02*
X153650000Y-100020000D01*
D58*
X154019913Y-117655087D02*
X155000000Y-116675000D01*
D57*
X114860000Y-117200000D02*
X118510000Y-113550000D01*
D58*
X130325000Y-70400000D02*
X130971501Y-71046501D01*
X118350000Y-89050000D02*
X119350000Y-88050000D01*
D57*
X117500000Y-123800000D02*
X114860000Y-121160000D01*
X155100000Y-117950000D02*
X155000000Y-117850000D01*
X155000000Y-117850000D02*
X155000000Y-116675000D01*
X159300000Y-106650000D02*
X159300000Y-117870000D01*
X155000000Y-100020000D02*
X155860000Y-100880000D01*
X153960000Y-100020000D02*
X155000000Y-100020000D01*
X147874999Y-81975001D02*
X147790000Y-82060000D01*
X147790000Y-96520000D02*
X147870000Y-96520000D01*
D58*
X119350000Y-88050000D02*
X119350000Y-84900000D01*
X137471501Y-70971501D02*
X137471501Y-71320000D01*
D57*
X120750000Y-113050000D02*
X120750000Y-112125000D01*
D58*
X124200000Y-70400000D02*
X130325000Y-70400000D01*
D57*
X158000000Y-105350000D02*
X159300000Y-106650000D01*
D58*
X130971501Y-71046501D02*
X130971501Y-72200000D01*
D57*
X153650000Y-100020000D02*
X153960000Y-100020000D01*
D60*
X123620000Y-84500000D02*
X123985000Y-84865000D01*
D57*
X153650000Y-100020000D02*
X153650000Y-99300000D01*
X147790000Y-82060000D02*
X147790000Y-96520000D01*
D58*
X125375000Y-84865000D02*
X123985000Y-84865000D01*
D60*
X118350000Y-89050000D02*
X119175000Y-89050000D01*
D57*
X147870000Y-96520000D02*
X151370000Y-100020000D01*
D58*
X123150000Y-85700000D02*
X123150000Y-87525000D01*
X116800000Y-89050000D02*
X118350000Y-89050000D01*
D60*
X121350000Y-84500000D02*
X123620000Y-84500000D01*
D57*
X153960000Y-100020000D02*
X156178600Y-100020000D01*
X120250000Y-113550000D02*
X120750000Y-113050000D01*
X118800000Y-110200000D02*
X119870000Y-110200000D01*
D58*
X158375000Y-116675000D02*
X159300000Y-117600000D01*
X119500000Y-104650000D02*
X119500000Y-107250000D01*
X116050000Y-89800000D02*
X116800000Y-89050000D01*
X120750000Y-108500000D02*
X120750000Y-111080000D01*
D57*
X120750000Y-111080000D02*
X120750000Y-112125000D01*
D58*
X123985000Y-84865000D02*
X123150000Y-85700000D01*
D56*
X147600000Y-81700002D02*
X147874999Y-81975001D01*
X119650000Y-95270000D02*
X120200000Y-95820000D01*
X119650000Y-94200000D02*
X119650000Y-95270000D01*
D58*
X116900000Y-102050000D02*
X116050000Y-101200000D01*
X119500000Y-107250000D02*
X120750000Y-108500000D01*
D57*
X156178600Y-100020000D02*
X156650000Y-99548600D01*
D60*
X119175000Y-89050000D02*
X119650000Y-89525000D01*
D57*
X158000000Y-104700000D02*
X158000000Y-105350000D01*
D56*
X147600000Y-80195600D02*
X147600000Y-81700002D01*
D57*
X156990000Y-104890000D02*
X157650000Y-104890000D01*
D58*
X155000000Y-116675000D02*
X158375000Y-116675000D01*
D57*
X153800000Y-122410000D02*
X154660000Y-123270000D01*
D58*
X136900000Y-70400000D02*
X137471501Y-70971501D01*
D57*
X153650000Y-99300000D02*
X153400000Y-99050000D01*
X155860000Y-103760000D02*
X156990000Y-104890000D01*
D58*
X151264000Y-117655087D02*
X152244913Y-117655087D01*
D56*
X119650000Y-89525000D02*
X119650000Y-90139000D01*
D57*
X154660000Y-123270000D02*
X155625000Y-123270000D01*
D56*
X119650000Y-90139000D02*
X119650000Y-94200000D01*
D58*
X119350000Y-75250000D02*
X124200000Y-70400000D01*
D57*
X119870000Y-110200000D02*
X120750000Y-111080000D01*
D58*
X152244913Y-117655087D02*
X154019913Y-117655087D01*
D56*
X125775000Y-119025000D02*
X125700000Y-119100000D01*
D57*
X131600000Y-110830000D02*
X131600000Y-108970000D01*
D58*
X123450000Y-119250000D02*
X122700000Y-118500000D01*
D57*
X123550000Y-114400000D02*
X123900000Y-114750000D01*
D56*
X127250000Y-117550000D02*
X126025000Y-118775000D01*
X127082500Y-109132500D02*
X128387500Y-109132500D01*
D57*
X131600000Y-111550000D02*
X131600000Y-110830000D01*
D56*
X126650000Y-108075000D02*
X126650000Y-108700000D01*
D57*
X122350000Y-116705000D02*
X122350000Y-114400000D01*
D56*
X127082500Y-109132500D02*
X127082500Y-110180000D01*
X130450000Y-105220000D02*
X131000000Y-105770000D01*
D57*
X122350000Y-114400000D02*
X121950000Y-114000000D01*
X131000000Y-108370000D02*
X131000000Y-106730000D01*
X131400000Y-119450000D02*
X126150000Y-119450000D01*
D56*
X122350000Y-117600000D02*
X122700000Y-117950000D01*
X122350000Y-116705000D02*
X122350000Y-117600000D01*
D57*
X126150000Y-119450000D02*
X125775000Y-119075000D01*
D56*
X122700000Y-117950000D02*
X122700000Y-118050000D01*
D58*
X122700000Y-118500000D02*
X122700000Y-118050000D01*
X126025000Y-118775000D02*
X125775000Y-119025000D01*
D57*
X121950000Y-114000000D02*
X121700000Y-114000000D01*
D56*
X128387500Y-109132500D02*
X128550000Y-108970000D01*
D58*
X125550000Y-119250000D02*
X123450000Y-119250000D01*
D56*
X127250000Y-116705000D02*
X127250000Y-117550000D01*
D57*
X131600000Y-108970000D02*
X131000000Y-108370000D01*
X125775000Y-119075000D02*
X125775000Y-119025000D01*
D58*
X126025000Y-118775000D02*
X125550000Y-119250000D01*
D56*
X129800000Y-105220000D02*
X130450000Y-105220000D01*
X131000000Y-105770000D02*
X131000000Y-106730000D01*
D57*
X130200000Y-112950000D02*
X131600000Y-111550000D01*
D56*
X126650000Y-108700000D02*
X127082500Y-109132500D01*
D57*
X122350000Y-114400000D02*
X123550000Y-114400000D01*
D56*
X154310000Y-100620000D02*
X155290000Y-101600000D01*
X155290000Y-107330000D02*
X153964913Y-108655087D01*
X150680000Y-100620000D02*
X154310000Y-100620000D01*
X118050000Y-102125000D02*
X116700000Y-100775000D01*
X155290000Y-101600000D02*
X155290000Y-107330000D01*
X121375000Y-101350000D02*
X140900000Y-101350000D01*
X120600000Y-102125000D02*
X121375000Y-101350000D01*
X118050000Y-102125000D02*
X120600000Y-102125000D01*
X118649999Y-93550001D02*
X118000000Y-94200000D01*
X117350000Y-94200000D02*
X118000000Y-94200000D01*
X118649999Y-90439000D02*
X118649999Y-93550001D01*
X142870000Y-99380000D02*
X142870000Y-96470000D01*
X153964913Y-108655087D02*
X151264000Y-108655087D01*
X142870000Y-96470000D02*
X143590000Y-95750000D01*
X116700000Y-100775000D02*
X116700000Y-94850000D01*
X148080000Y-98020000D02*
X150680000Y-100620000D01*
X148080000Y-97990000D02*
X148080000Y-98020000D01*
X140900000Y-101350000D02*
X142870000Y-99380000D01*
X116700000Y-94850000D02*
X117350000Y-94200000D01*
X142600000Y-80195600D02*
X142600000Y-84162500D01*
X136900000Y-83050000D02*
X137750000Y-82200000D01*
X142100001Y-78700001D02*
X142100001Y-79895600D01*
X135550000Y-83050000D02*
X136900000Y-83050000D01*
X137750000Y-82200000D02*
X137750000Y-79275000D01*
X137750000Y-79275000D02*
X138850000Y-78175000D01*
X138850000Y-78175000D02*
X141575000Y-78175000D01*
X141575000Y-78175000D02*
X142100001Y-78700001D01*
X126600000Y-79850000D02*
X127900000Y-81150000D01*
X130325000Y-83595000D02*
X130955000Y-83595000D01*
X120150001Y-90439000D02*
X120150001Y-93150001D01*
X122350000Y-79950000D02*
X122450000Y-79850000D01*
X120150001Y-90139000D02*
X120150001Y-82149999D01*
X122350000Y-79950000D02*
X122350000Y-76000000D01*
X121050000Y-94050000D02*
X121050000Y-100050000D01*
X126150000Y-72200000D02*
X126971501Y-72200000D01*
X121050000Y-100050000D02*
X121040000Y-100060000D01*
X127900000Y-81150000D02*
X130750000Y-81150000D01*
X151264000Y-114655085D02*
X154630085Y-114655085D01*
X149694915Y-114655085D02*
X148150000Y-116200000D01*
X131600000Y-82000000D02*
X131600000Y-82950000D01*
X122450000Y-79850000D02*
X124550000Y-79850000D01*
X122350000Y-76000000D02*
X126150000Y-72200000D01*
X120150001Y-82149999D02*
X122350000Y-79950000D01*
X151264000Y-114655085D02*
X149694915Y-114655085D01*
X130750000Y-81150000D02*
X131600000Y-82000000D01*
X154630085Y-114655085D02*
X155000000Y-115025000D01*
X124550000Y-79850000D02*
X126600000Y-79850000D01*
X130955000Y-83595000D02*
X131600000Y-82950000D01*
X148150000Y-116200000D02*
X148150000Y-117300000D01*
X121050000Y-94050000D02*
X120150001Y-93150001D01*
X151100001Y-83512501D02*
X151550000Y-83962500D01*
X151100001Y-80195600D02*
X151100001Y-83512501D01*
D57*
X154450000Y-82300000D02*
X153712500Y-83037500D01*
X153712500Y-81212500D02*
X152550000Y-80050000D01*
X152550000Y-80050000D02*
X152300000Y-80050000D01*
X153712500Y-83037500D02*
X153712500Y-81212500D01*
X153712500Y-85650000D02*
X153712500Y-83037500D01*
X156550000Y-82300000D02*
X154450000Y-82300000D01*
D56*
X125150000Y-108075000D02*
X125150000Y-114075000D01*
X124550000Y-114675000D02*
X124550000Y-116705000D01*
X125900000Y-115500000D02*
X125900000Y-115200000D01*
X125850000Y-115550000D02*
X125900000Y-115500000D01*
X125000000Y-114225000D02*
X124550000Y-114675000D01*
X125550000Y-115850000D02*
X125850000Y-115550000D01*
X125550000Y-116705000D02*
X125550000Y-115850000D01*
X125150000Y-114075000D02*
X125000000Y-114225000D01*
X126550000Y-116705000D02*
X126550000Y-114225000D01*
X126550000Y-114225000D02*
X126675000Y-114100000D01*
X149100000Y-75925000D02*
X156100000Y-68925000D01*
X149100000Y-79895600D02*
X149100000Y-75925000D01*
X150100000Y-83750000D02*
X150400000Y-84050000D01*
X149168750Y-95106250D02*
X150062500Y-96000000D01*
X150400000Y-88425000D02*
X149075000Y-89750000D01*
X150100000Y-80195600D02*
X150100000Y-83750000D01*
X149075000Y-95012500D02*
X149168750Y-95106250D01*
X149075000Y-89750000D02*
X149075000Y-95012500D01*
X150400000Y-84050000D02*
X150400000Y-88425000D01*
X154750000Y-102540000D02*
X154750000Y-106480000D01*
X154450000Y-102240000D02*
X154750000Y-102540000D01*
X148362500Y-102240000D02*
X154450000Y-102240000D01*
X154074915Y-107155085D02*
X151264000Y-107155085D01*
X154750000Y-106480000D02*
X154074915Y-107155085D01*
D58*
X154770000Y-113720000D02*
X154770000Y-113210000D01*
X133764000Y-116155087D02*
X138714913Y-116155087D01*
X154770000Y-113210000D02*
X155470000Y-112510000D01*
X155470000Y-112510000D02*
X157650000Y-112510000D01*
X138714913Y-116155087D02*
X139090000Y-115780000D01*
D56*
X126900000Y-86450000D02*
X126900000Y-88350000D01*
X126585000Y-86135000D02*
X126900000Y-86450000D01*
X126900000Y-88350000D02*
X126075000Y-89175000D01*
X131805085Y-114655085D02*
X133005085Y-114655085D01*
X123150000Y-89175000D02*
X123150000Y-98250000D01*
X123150000Y-98250000D02*
X122650000Y-98750000D01*
X133005085Y-114655085D02*
X133764000Y-114655085D01*
X125375000Y-86135000D02*
X126585000Y-86135000D01*
D58*
X154770000Y-112100000D02*
X156900000Y-109970000D01*
X156900000Y-109970000D02*
X157650000Y-109970000D01*
D56*
X126075000Y-89175000D02*
X123150000Y-89175000D01*
D58*
X134325085Y-114655085D02*
X138835085Y-114655085D01*
X138835085Y-114655085D02*
X139080000Y-114900000D01*
X133764000Y-114655085D02*
X134325085Y-114655085D01*
D56*
X131150000Y-114000000D02*
X131805085Y-114655085D01*
D57*
X135860000Y-113880000D02*
X135130000Y-113150000D01*
X154630000Y-110450000D02*
X154630000Y-111030000D01*
X135130000Y-113150000D02*
X133769086Y-113150000D01*
X139130000Y-113880000D02*
X135860000Y-113880000D01*
X133769086Y-113150000D02*
X133764000Y-113155086D01*
X157650000Y-107430000D02*
X154630000Y-110450000D01*
D56*
X149300000Y-83600000D02*
X149300000Y-85062500D01*
X149600001Y-83299999D02*
X149300000Y-83600000D01*
X149600001Y-80195600D02*
X149600001Y-83299999D01*
D58*
X156880000Y-72950000D02*
X158800000Y-74870000D01*
X150599999Y-79050001D02*
X150599999Y-76049999D01*
X158800000Y-74870000D02*
X158800000Y-81100000D01*
D56*
X150599999Y-79895600D02*
X150599999Y-79050001D01*
D58*
X158800000Y-81100000D02*
X156450000Y-78750000D01*
X158800000Y-93350000D02*
X158200000Y-93950000D01*
X158800000Y-74870000D02*
X158800000Y-73250000D01*
X158400000Y-72850000D02*
X158400000Y-72037500D01*
X150599999Y-76049999D02*
X153699998Y-72950000D01*
X158800000Y-81100000D02*
X158800000Y-93350000D01*
X158800000Y-73250000D02*
X158400000Y-72850000D01*
X153699998Y-72950000D02*
X156880000Y-72950000D01*
D56*
X152660000Y-74750000D02*
X156550000Y-74750000D01*
D57*
X152500000Y-90850000D02*
X151675000Y-90025000D01*
D56*
X152300000Y-87400000D02*
X151950000Y-87400000D01*
X151600000Y-80195600D02*
X151600000Y-82050000D01*
X151600000Y-82050000D02*
X152700000Y-83150000D01*
X151950000Y-87400000D02*
X151662500Y-87687500D01*
X151662500Y-87687500D02*
X151662500Y-88500000D01*
X151600000Y-79895600D02*
X151600000Y-75810000D01*
D57*
X151675000Y-88512500D02*
X151662500Y-88500000D01*
D56*
X152700000Y-87000000D02*
X152300000Y-87400000D01*
X151600000Y-75810000D02*
X152660000Y-74750000D01*
D57*
X151675000Y-90025000D02*
X151675000Y-88512500D01*
D56*
X152700000Y-83150000D02*
X152700000Y-87000000D01*
D57*
X155800000Y-90950000D02*
X153300000Y-93450000D01*
X155800000Y-90850000D02*
X155800000Y-90950000D01*
X155800000Y-88750000D02*
X155550000Y-88500000D01*
X155800000Y-90850000D02*
X155800000Y-88750000D01*
D58*
X154900000Y-93950000D02*
X155650000Y-93950000D01*
D56*
X144050000Y-94000000D02*
X144050000Y-89500000D01*
X140050000Y-86500000D02*
X139650000Y-86500000D01*
X141450000Y-87900000D02*
X140050000Y-86500000D01*
X142450000Y-87900000D02*
X141450000Y-87900000D01*
D58*
X154900000Y-95800000D02*
X154900000Y-93950000D01*
X155651400Y-96551400D02*
X154900000Y-95800000D01*
X156650000Y-96551400D02*
X153898600Y-96551400D01*
X153898600Y-96551400D02*
X153800000Y-96650000D01*
X156650000Y-96551400D02*
X155651400Y-96551400D01*
D56*
X144050000Y-89500000D02*
X142450000Y-87900000D01*
D58*
X157625000Y-91975000D02*
X157625000Y-88500000D01*
D56*
X143650000Y-94400000D02*
X144050000Y-94000000D01*
D58*
X155650000Y-93950000D02*
X157625000Y-91975000D01*
X133764000Y-117655087D02*
X139414913Y-117655087D01*
X139414913Y-117655087D02*
X139710000Y-117360000D01*
X139430000Y-116780000D02*
X139040000Y-116780000D01*
D56*
X147100001Y-80195600D02*
X147100001Y-102979999D01*
D58*
X139710000Y-117360000D02*
X139710000Y-117060000D01*
D56*
X148530000Y-106730000D02*
X148530000Y-108700000D01*
X147100001Y-105300001D02*
X148530000Y-106730000D01*
X148530000Y-108700000D02*
X148270000Y-108960000D01*
X147100001Y-102979999D02*
X147100001Y-105300001D01*
D58*
X139710000Y-117060000D02*
X139430000Y-116780000D01*
D56*
X146600000Y-80195600D02*
X146600000Y-109400000D01*
X148855086Y-111655086D02*
X151264000Y-111655086D01*
X146600000Y-109400000D02*
X148855086Y-111655086D01*
X146100000Y-99350000D02*
X137350000Y-108100000D01*
X137350000Y-110100000D02*
X135794914Y-111655086D01*
X137350000Y-108100000D02*
X137350000Y-110100000D01*
X146100000Y-80195600D02*
X146100000Y-99350000D01*
X135794914Y-111655086D02*
X133764000Y-111655086D01*
X136500000Y-107600000D02*
X136500000Y-108850000D01*
X136500000Y-108850000D02*
X135194913Y-110155087D01*
X145599999Y-98500001D02*
X136500000Y-107600000D01*
X145599999Y-80195600D02*
X145599999Y-98500001D01*
X135194913Y-110155087D02*
X133764000Y-110155087D01*
X145100000Y-98050000D02*
X137494915Y-105655085D01*
X145100000Y-80195600D02*
X145100000Y-98050000D01*
X137494915Y-105655085D02*
X133764000Y-105655085D01*
X144600001Y-80195600D02*
X144600001Y-97449999D01*
X144600001Y-97449999D02*
X143550000Y-98500000D01*
X147475000Y-109075000D02*
X147475000Y-106685000D01*
X148555087Y-110155087D02*
X147475000Y-109075000D01*
X147475000Y-106685000D02*
X147440000Y-106650000D01*
X151264000Y-110155087D02*
X148555087Y-110155087D01*
D57*
X131099300Y-92454820D02*
X131099300Y-90690700D01*
D56*
X141599999Y-80195600D02*
X141599999Y-83200001D01*
X141599999Y-83200001D02*
X137650000Y-87150000D01*
D57*
X131099300Y-90690700D02*
X134640000Y-87150000D01*
X134640000Y-87150000D02*
X137650000Y-87150000D01*
D56*
X141100000Y-82400000D02*
X137650000Y-85850000D01*
X141100000Y-80195600D02*
X141100000Y-82400000D01*
D58*
X137650000Y-85850000D02*
X135725000Y-85850000D01*
D56*
X127500000Y-106725000D02*
X129275000Y-106725000D01*
X129275000Y-106725000D02*
X129525000Y-106475000D01*
D57*
X119150000Y-118900000D02*
X117950000Y-118900000D01*
D56*
X123550000Y-117750000D02*
X123450000Y-117850000D01*
X123550000Y-116705000D02*
X123550000Y-117750000D01*
D57*
X117650000Y-119200000D02*
X117650000Y-119925000D01*
X117950000Y-118900000D02*
X117650000Y-119200000D01*
X155587500Y-120800000D02*
X157310000Y-120800000D01*
X157310000Y-120800000D02*
X157330000Y-120820000D01*
D58*
X153350000Y-118900000D02*
X153325000Y-118925000D01*
D56*
X153730000Y-103225000D02*
X153745000Y-103210000D01*
X121225000Y-105225000D02*
X121200000Y-105200000D01*
X122800000Y-105225000D02*
X121225000Y-105225000D01*
D58*
X155587500Y-118900000D02*
X153350000Y-118900000D01*
D56*
X153730000Y-104360000D02*
X153730000Y-103225000D01*
X130300000Y-110910000D02*
X130300000Y-108300000D01*
X130300000Y-108300000D02*
X130125000Y-108125000D01*
X126150000Y-111700000D02*
X126750000Y-112300000D01*
X126150000Y-108075000D02*
X126150000Y-108900000D01*
X127830000Y-111220000D02*
X129990000Y-111220000D01*
X126750000Y-112300000D02*
X127830000Y-111220000D01*
X129990000Y-111220000D02*
X130300000Y-110910000D01*
X126150000Y-108900000D02*
X126150000Y-111700000D01*
X130125000Y-108125000D02*
X129510000Y-108125000D01*
X150237500Y-103190000D02*
X152075000Y-103190000D01*
X152075000Y-103190000D02*
X152095000Y-103210000D01*
X150237500Y-101290000D02*
X150220000Y-101290000D01*
X140365000Y-100875000D02*
X120350000Y-100875000D01*
X120350000Y-100875000D02*
X119800000Y-101425000D01*
X142200000Y-99040000D02*
X140365000Y-100875000D01*
X121025000Y-107500000D02*
X121200000Y-107325000D01*
X121300000Y-107225000D02*
X121200000Y-107325000D01*
X121900000Y-108500000D02*
X121525000Y-108500000D01*
X150220000Y-101290000D02*
X148040000Y-99110000D01*
X121025000Y-108000000D02*
X121025000Y-107500000D01*
X161040000Y-100680000D02*
X161990000Y-101630000D01*
X121525000Y-108500000D02*
X121025000Y-108000000D01*
X150237500Y-101290000D02*
X153050000Y-101290000D01*
X122800000Y-107225000D02*
X121300000Y-107225000D01*
X142200000Y-97200000D02*
X142200000Y-99040000D01*
X161240000Y-120820000D02*
X158980000Y-120820000D01*
X161990000Y-120070000D02*
X161240000Y-120820000D01*
X159170000Y-100680000D02*
X161040000Y-100680000D01*
X161990000Y-101630000D02*
X161990000Y-120070000D01*
X121425000Y-106325000D02*
X120850000Y-106325000D01*
X120175000Y-105650000D02*
X120175000Y-103300000D01*
X132030000Y-104580000D02*
X129350000Y-101900000D01*
X122800000Y-106225000D02*
X121525000Y-106225000D01*
X133055085Y-107155085D02*
X132030000Y-106130000D01*
X121575000Y-101900000D02*
X128680000Y-101900000D01*
X121525000Y-106225000D02*
X121425000Y-106325000D01*
X129350000Y-101900000D02*
X128680000Y-101900000D01*
X132030000Y-106130000D02*
X132030000Y-104580000D01*
X120850000Y-106325000D02*
X120175000Y-105650000D01*
X133764000Y-107155085D02*
X133055085Y-107155085D01*
X120175000Y-103300000D02*
X121575000Y-101900000D01*
X131560000Y-104750000D02*
X131560000Y-107660000D01*
X121775000Y-102400000D02*
X129210000Y-102400000D01*
X132555087Y-108655087D02*
X133764000Y-108655087D01*
X129210000Y-102400000D02*
X131560000Y-104750000D01*
X131560000Y-107660000D02*
X132555087Y-108655087D01*
X121375000Y-105825000D02*
X120975000Y-105825000D01*
X121475000Y-105725000D02*
X121375000Y-105825000D01*
X120975000Y-105825000D02*
X120625000Y-105475000D01*
X120625000Y-105475000D02*
X120625000Y-103550000D01*
X120625000Y-103550000D02*
X121775000Y-102400000D01*
X122800000Y-105725000D02*
X121475000Y-105725000D01*
D57*
X151264000Y-116155087D02*
X149544913Y-116155087D01*
D58*
X153762500Y-119900000D02*
X158150000Y-119900000D01*
X158150000Y-119900000D02*
X158735000Y-119315000D01*
X153712500Y-119850000D02*
X153762500Y-119900000D01*
D57*
X149050000Y-116650000D02*
X149050000Y-118950000D01*
X149950000Y-119850000D02*
X153712500Y-119850000D01*
X149544913Y-116155087D02*
X149050000Y-116650000D01*
D58*
X158735000Y-119315000D02*
X158910000Y-119315000D01*
D57*
X149050000Y-118950000D02*
X149950000Y-119850000D01*
D56*
X128150000Y-82450000D02*
X128150000Y-84150000D01*
X120650000Y-90439000D02*
X120650000Y-92700000D01*
X120650000Y-92700000D02*
X121800000Y-93850000D01*
X121850000Y-95820000D02*
X121850000Y-99800000D01*
X147350000Y-115400000D02*
X149594914Y-113155086D01*
X120650000Y-82350000D02*
X122650000Y-80350000D01*
X120650000Y-90139000D02*
X120650000Y-82350000D01*
X132050000Y-81600000D02*
X131050000Y-80600000D01*
X128150000Y-84150000D02*
X128865000Y-84865000D01*
X121800000Y-93850000D02*
X121800000Y-95770000D01*
X121800000Y-95770000D02*
X121850000Y-95820000D01*
X147350000Y-116900000D02*
X147350000Y-115400000D01*
X131050000Y-80600000D02*
X129950000Y-80600000D01*
X121850000Y-99800000D02*
X121925000Y-99875000D01*
X122650000Y-80350000D02*
X126050000Y-80350000D01*
X128971502Y-72200000D02*
X128971502Y-76621502D01*
X129650000Y-80300000D02*
X129650000Y-77300000D01*
X131235000Y-84865000D02*
X132050000Y-84050000D01*
X149594914Y-113155086D02*
X151264000Y-113155086D01*
X128971502Y-76621502D02*
X129650000Y-77300000D01*
X132050000Y-84050000D02*
X132050000Y-81600000D01*
X129950000Y-80600000D02*
X129650000Y-80300000D01*
X130325000Y-84865000D02*
X131235000Y-84865000D01*
X128865000Y-84865000D02*
X130325000Y-84865000D01*
X126050000Y-80350000D02*
X128150000Y-82450000D01*
D58*
X128102100Y-92454820D02*
X128102100Y-90572900D01*
X128102100Y-90572900D02*
X128125000Y-90550000D01*
D57*
X132597900Y-91407100D02*
X134475000Y-89530000D01*
X132597900Y-92454820D02*
X132597900Y-91407100D01*
D58*
X137280000Y-73420000D02*
X137471501Y-73420000D01*
D56*
X132500000Y-81000000D02*
X131137500Y-79637500D01*
D57*
X131137500Y-78800000D02*
X133162500Y-78800000D01*
D58*
X134150000Y-76550000D02*
X131400000Y-76550000D01*
D56*
X131137500Y-79637500D02*
X131137500Y-78800000D01*
X132500000Y-84900000D02*
X132500000Y-81000000D01*
D58*
X134150000Y-76550000D02*
X137280000Y-73420000D01*
X131137500Y-76812500D02*
X131137500Y-78800000D01*
X131400000Y-76550000D02*
X131137500Y-76812500D01*
D56*
X131265000Y-86135000D02*
X132500000Y-84900000D01*
X130325000Y-86135000D02*
X131265000Y-86135000D01*
X123795000Y-83595000D02*
X122900000Y-82700000D01*
X122900000Y-82700000D02*
X122900000Y-82250000D01*
X125375000Y-83595000D02*
X123795000Y-83595000D01*
X129160000Y-104530000D02*
X129260000Y-104430000D01*
X129370000Y-105720000D02*
X129160000Y-105510000D01*
X130350000Y-106930000D02*
X130350000Y-106030000D01*
X129160000Y-105510000D02*
X129160000Y-105220000D01*
X130055000Y-107225000D02*
X130350000Y-106930000D01*
X130350000Y-106030000D02*
X130040000Y-105720000D01*
X130040000Y-105720000D02*
X129370000Y-105720000D01*
X127500000Y-107225000D02*
X130055000Y-107225000D01*
X129160000Y-105220000D02*
X129160000Y-104530000D01*
M02*
