G04 #@! TF.GenerationSoftware,KiCad,Pcbnew,6.0.11-2627ca5db0~126~ubuntu20.04.1*
G04 #@! TF.CreationDate,2023-02-16T11:57:51+01:00*
G04 #@! TF.ProjectId,C3-27-epaper-touch,43332d32-372d-4657-9061-7065722d746f,rev?*
G04 #@! TF.SameCoordinates,Original*
G04 #@! TF.FileFunction,Copper,L2,Bot*
G04 #@! TF.FilePolarity,Positive*
%FSLAX46Y46*%
G04 Gerber Fmt 4.6, Leading zero omitted, Abs format (unit mm)*
G04 Created by KiCad (PCBNEW 6.0.11-2627ca5db0~126~ubuntu20.04.1) date 2023-02-16 11:57:51*
%MOMM*%
%LPD*%
G01*
G04 APERTURE LIST*
G04 #@! TA.AperFunction,ComponentPad*
%ADD10O,1.000000X2.100000*%
G04 #@! TD*
G04 #@! TA.AperFunction,ComponentPad*
%ADD11O,1.000000X1.600000*%
G04 #@! TD*
G04 #@! TA.AperFunction,ComponentPad*
%ADD12R,1.150000X1.150000*%
G04 #@! TD*
G04 #@! TA.AperFunction,ComponentPad*
%ADD13C,1.150000*%
G04 #@! TD*
G04 #@! TA.AperFunction,ComponentPad*
%ADD14R,1.700000X1.700000*%
G04 #@! TD*
G04 #@! TA.AperFunction,ComponentPad*
%ADD15O,1.700000X1.700000*%
G04 #@! TD*
G04 #@! TA.AperFunction,ViaPad*
%ADD16C,0.500000*%
G04 #@! TD*
G04 #@! TA.AperFunction,ViaPad*
%ADD17C,1.000000*%
G04 #@! TD*
G04 #@! TA.AperFunction,ViaPad*
%ADD18C,0.800000*%
G04 #@! TD*
G04 #@! TA.AperFunction,Conductor*
%ADD19C,0.500000*%
G04 #@! TD*
G04 #@! TA.AperFunction,Conductor*
%ADD20C,0.400000*%
G04 #@! TD*
G04 #@! TA.AperFunction,Conductor*
%ADD21C,0.250000*%
G04 #@! TD*
G04 APERTURE END LIST*
D10*
X129120000Y-117620000D03*
D11*
X129120000Y-121800000D03*
X120480000Y-121800000D03*
D10*
X120480000Y-117620000D03*
D12*
X126971501Y-72200000D03*
D13*
X128971502Y-72200000D03*
X130971501Y-72200000D03*
X132971502Y-72200000D03*
D14*
X157650000Y-102350000D03*
D15*
X157650000Y-104890000D03*
X157650000Y-107430000D03*
X157650000Y-109970000D03*
X157650000Y-112510000D03*
X157650000Y-115050000D03*
D16*
X151350000Y-92025000D03*
D17*
X160270000Y-123250000D03*
D18*
X159750000Y-69950000D03*
D16*
X148050000Y-78275000D03*
X123900000Y-112100000D03*
D17*
X153810000Y-106130000D03*
X131930000Y-87340000D03*
D16*
X149300000Y-88300000D03*
X151000000Y-87150000D03*
X129330000Y-108990000D03*
X117900000Y-92100000D03*
D17*
X144740000Y-105900000D03*
D16*
X155000000Y-87050000D03*
D17*
X141024888Y-111455112D03*
X142154888Y-111455112D03*
X134090000Y-84520000D03*
D16*
X142600000Y-87250000D03*
D17*
X136360000Y-88140000D03*
D16*
X124575000Y-109300000D03*
D17*
X160570000Y-111110000D03*
X115450000Y-110220000D03*
D16*
X129960000Y-104020000D03*
X126850000Y-78800000D03*
X152150000Y-97400000D03*
X126275000Y-105275000D03*
D17*
X116100000Y-117800000D03*
X160570000Y-119050000D03*
X144730000Y-111430000D03*
D16*
X144725000Y-78250000D03*
D17*
X118800000Y-115075000D03*
D16*
X125525000Y-104325000D03*
X119350000Y-84900000D03*
X121350000Y-84500000D03*
D17*
X117500000Y-123800000D03*
X153800000Y-122410000D03*
D16*
X155100000Y-117950000D03*
X131600000Y-110830000D03*
X123900000Y-114750000D03*
X128550000Y-108970000D03*
D17*
X130200000Y-112950000D03*
D16*
X131000000Y-106730000D03*
X148080000Y-97990000D03*
X143590000Y-95750000D03*
X121040000Y-100060000D03*
X148150000Y-117300000D03*
X125900000Y-115200000D03*
X125000000Y-114225000D03*
X154770000Y-113720000D03*
X139090000Y-115780000D03*
X131080000Y-113950000D03*
X122650000Y-98750000D03*
X154770000Y-112100000D03*
X139080000Y-114900000D03*
X154630000Y-111030000D03*
X139130000Y-113880000D03*
X143650000Y-94400000D03*
X153800000Y-96650000D03*
X148270000Y-108960000D03*
X139040000Y-116780000D03*
X143550000Y-98500000D03*
X147440000Y-106650000D03*
X123450000Y-117850000D03*
X119150000Y-118900000D03*
X153730000Y-104360000D03*
X153325000Y-118925000D03*
X121200000Y-105200000D03*
X142200000Y-97200000D03*
X153030000Y-101310000D03*
X119800000Y-101425000D03*
X148040000Y-99110000D03*
X121900000Y-108500000D03*
D18*
X159170000Y-100680000D03*
D16*
X121925000Y-99875000D03*
X147350000Y-116900000D03*
D19*
X129650000Y-123800000D02*
X131200000Y-122250000D01*
X148900000Y-120500000D02*
X150250000Y-120500000D01*
X117500000Y-123800000D02*
X129650000Y-123800000D01*
X152690000Y-120500000D02*
X153800000Y-121610000D01*
X150250000Y-120500000D02*
X152750000Y-120500000D01*
X131500000Y-120500000D02*
X148900000Y-120500000D01*
X155100000Y-118150000D02*
X155100000Y-117950000D01*
X150250000Y-120500000D02*
X152690000Y-120500000D01*
D20*
X119350000Y-84900000D02*
X119750000Y-84500000D01*
D19*
X152750000Y-120500000D02*
X155100000Y-118150000D01*
X131200000Y-122250000D02*
X131200000Y-120800000D01*
D20*
X119750000Y-84500000D02*
X121350000Y-84500000D01*
D19*
X131200000Y-120800000D02*
X131500000Y-120500000D01*
X153800000Y-121610000D02*
X153800000Y-122410000D01*
X162020000Y-101040000D02*
X162020000Y-113480000D01*
X151150000Y-99310000D02*
X160290000Y-99310000D01*
D21*
X128780000Y-110540000D02*
X131310000Y-110540000D01*
D19*
X147870000Y-107990000D02*
X148930000Y-106930000D01*
X148930000Y-106930000D02*
X148930000Y-101530000D01*
X125350000Y-115950000D02*
X126250000Y-115950000D01*
X126250000Y-115950000D02*
X127200000Y-115950000D01*
X131900000Y-105830000D02*
X131000000Y-106730000D01*
D21*
X131310000Y-110540000D02*
X131600000Y-110830000D01*
D19*
X124550000Y-115150000D02*
X125350000Y-115950000D01*
X162020000Y-113480000D02*
X160450000Y-115050000D01*
X124150000Y-114750000D02*
X124550000Y-115150000D01*
X135100000Y-107990000D02*
X147870000Y-107990000D01*
X123900000Y-114750000D02*
X124150000Y-114750000D01*
X127200000Y-115950000D02*
X130200000Y-112950000D01*
D21*
X128550000Y-110310000D02*
X128780000Y-110540000D01*
D19*
X160290000Y-99310000D02*
X162020000Y-101040000D01*
X135100000Y-107990000D02*
X132940000Y-105830000D01*
X148930000Y-101530000D02*
X151150000Y-99310000D01*
X160450000Y-115050000D02*
X157650000Y-115050000D01*
X132940000Y-105830000D02*
X131900000Y-105830000D01*
D21*
X128550000Y-108970000D02*
X128550000Y-110310000D01*
X148080000Y-97990000D02*
X148080000Y-97730000D01*
X146030000Y-95680000D02*
X143660000Y-95680000D01*
X143660000Y-95680000D02*
X143590000Y-95750000D01*
X148080000Y-97730000D02*
X146030000Y-95680000D01*
X134350000Y-118000000D02*
X133850000Y-117500000D01*
X147450000Y-118000000D02*
X134350000Y-118000000D01*
X121040000Y-102290000D02*
X126750000Y-108000000D01*
X132100000Y-108000000D02*
X126750000Y-108000000D01*
X148150000Y-117300000D02*
X147450000Y-118000000D01*
X133850000Y-109750000D02*
X132100000Y-108000000D01*
X121040000Y-100060000D02*
X121040000Y-102290000D01*
X133850000Y-117500000D02*
X133850000Y-109750000D01*
X125900000Y-114775000D02*
X125350000Y-114225000D01*
X125350000Y-114225000D02*
X125000000Y-114225000D01*
X125900000Y-115200000D02*
X125900000Y-114775000D01*
D20*
X154770000Y-114270000D02*
X154770000Y-113720000D01*
X153260000Y-115780000D02*
X154770000Y-114270000D01*
X139090000Y-115780000D02*
X153260000Y-115780000D01*
D21*
X118900000Y-104625000D02*
X118600000Y-104325000D01*
X130465000Y-111025000D02*
X131080000Y-111640000D01*
X129850000Y-111025000D02*
X130465000Y-111025000D01*
X121725000Y-104625000D02*
X118900000Y-104625000D01*
X119550000Y-99300000D02*
X122100000Y-99300000D01*
X122100000Y-99300000D02*
X122650000Y-98750000D01*
X129850000Y-111025000D02*
X122775000Y-111025000D01*
X121000000Y-108550000D02*
X122050000Y-107500000D01*
X131080000Y-111640000D02*
X131080000Y-113950000D01*
X118600000Y-104325000D02*
X118600000Y-100250000D01*
D20*
X153080000Y-114900000D02*
X154030000Y-113950000D01*
D21*
X122775000Y-111025000D02*
X121000000Y-109250000D01*
X121000000Y-109250000D02*
X121000000Y-108550000D01*
X122050000Y-107500000D02*
X122050000Y-104950000D01*
D20*
X139080000Y-114900000D02*
X153080000Y-114900000D01*
D21*
X122050000Y-104950000D02*
X121725000Y-104625000D01*
D20*
X154030000Y-113950000D02*
X154030000Y-113190000D01*
D21*
X118600000Y-100250000D02*
X119550000Y-99300000D01*
D20*
X154030000Y-112840000D02*
X154770000Y-112100000D01*
X154030000Y-113190000D02*
X154030000Y-112840000D01*
D19*
X154630000Y-111030000D02*
X153260000Y-112400000D01*
X152860000Y-114050000D02*
X139300000Y-114050000D01*
X153260000Y-112400000D02*
X153260000Y-113350000D01*
X153260000Y-113350000D02*
X153260000Y-113650000D01*
X153260000Y-113650000D02*
X152860000Y-114050000D01*
X139300000Y-114050000D02*
X139130000Y-113880000D01*
D21*
X153800000Y-96650000D02*
X151950000Y-98500000D01*
X143400000Y-94650000D02*
X143650000Y-94400000D01*
X150500000Y-98500000D02*
X149700000Y-98500000D01*
X143400000Y-94900000D02*
X143400000Y-94650000D01*
X143650000Y-95150000D02*
X143400000Y-94900000D01*
X149700000Y-98500000D02*
X146350000Y-95150000D01*
X146350000Y-95150000D02*
X143650000Y-95150000D01*
X151950000Y-98500000D02*
X150500000Y-98500000D01*
D20*
X135100000Y-110410000D02*
X136550000Y-108960000D01*
X135100000Y-116600000D02*
X135100000Y-110410000D01*
X136550000Y-108960000D02*
X148270000Y-108960000D01*
X139040000Y-116780000D02*
X135280000Y-116780000D01*
X135280000Y-116780000D02*
X135100000Y-116600000D01*
D21*
X147450000Y-102400000D02*
X147325000Y-102275000D01*
X147440000Y-106650000D02*
X147440000Y-102390000D01*
X147440000Y-102390000D02*
X147325000Y-102275000D01*
X147325000Y-102275000D02*
X143550000Y-98500000D01*
X119350000Y-119100000D02*
X119150000Y-118900000D01*
X123450000Y-117850000D02*
X123450000Y-118600000D01*
X123450000Y-118600000D02*
X122950000Y-119100000D01*
X122950000Y-119100000D02*
X119350000Y-119100000D01*
X153325000Y-118925000D02*
X153325000Y-118825000D01*
X155420000Y-116730000D02*
X155800000Y-116350000D01*
X117350000Y-109390000D02*
X117350000Y-118600000D01*
X119840000Y-105485000D02*
X119840000Y-106900000D01*
X120125000Y-105200000D02*
X119840000Y-105485000D01*
X153325000Y-118825000D02*
X155420000Y-116730000D01*
X155800000Y-116350000D02*
X155800000Y-106430000D01*
X118300000Y-119550000D02*
X152700000Y-119550000D01*
X152700000Y-119550000D02*
X153325000Y-118925000D01*
X121200000Y-105200000D02*
X120125000Y-105200000D01*
X119840000Y-106900000D02*
X117350000Y-109390000D01*
X155800000Y-106430000D02*
X153730000Y-104360000D01*
X117350000Y-118600000D02*
X118300000Y-119550000D01*
X119750000Y-104150000D02*
X121725000Y-104150000D01*
X148040000Y-98850000D02*
X145630000Y-96440000D01*
X119550000Y-103950000D02*
X119750000Y-104150000D01*
X145630000Y-96440000D02*
X142960000Y-96440000D01*
X121725000Y-104150000D02*
X122050000Y-104150000D01*
X159170000Y-100680000D02*
X153660000Y-100680000D01*
X142960000Y-96440000D02*
X142200000Y-97200000D01*
X119550000Y-103310000D02*
X119550000Y-101675000D01*
X148040000Y-99110000D02*
X148040000Y-98850000D01*
X119550000Y-101675000D02*
X119800000Y-101425000D01*
X119550000Y-103310000D02*
X119550000Y-103950000D01*
X122050000Y-104150000D02*
X122500000Y-104600000D01*
X122500000Y-107900000D02*
X121900000Y-108500000D01*
X122500000Y-104600000D02*
X122500000Y-107900000D01*
X153660000Y-100680000D02*
X153030000Y-101310000D01*
X126800000Y-107300000D02*
X132550000Y-107300000D01*
X121925000Y-99875000D02*
X121925000Y-102425000D01*
X121925000Y-102425000D02*
X126800000Y-107300000D01*
X134450000Y-116800000D02*
X135050000Y-117400000D01*
X134450000Y-109200000D02*
X134450000Y-116800000D01*
X146850000Y-117400000D02*
X147350000Y-116900000D01*
X135050000Y-117400000D02*
X146850000Y-117400000D01*
X132550000Y-107300000D02*
X134450000Y-109200000D01*
G04 #@! TA.AperFunction,Conductor*
G36*
X160880180Y-115785405D02*
G01*
X160911449Y-115849145D01*
X160913276Y-115870697D01*
X160900176Y-125224176D01*
X160880078Y-125292269D01*
X160826358Y-125338687D01*
X160774176Y-125350000D01*
X152977162Y-125350000D01*
X152909041Y-125329998D01*
X152862548Y-125276342D01*
X152851167Y-125222844D01*
X152869596Y-123214043D01*
X152890222Y-123146109D01*
X152944302Y-123100110D01*
X153014666Y-123090651D01*
X153077252Y-123119244D01*
X153221650Y-123242136D01*
X153394294Y-123338624D01*
X153582392Y-123399740D01*
X153778777Y-123423158D01*
X153784912Y-123422686D01*
X153784914Y-123422686D01*
X153969830Y-123408457D01*
X153969834Y-123408456D01*
X153975972Y-123407984D01*
X154166463Y-123354798D01*
X154171967Y-123352018D01*
X154171969Y-123352017D01*
X154337495Y-123268404D01*
X154337497Y-123268403D01*
X154342996Y-123265625D01*
X154498847Y-123143861D01*
X154628078Y-122994145D01*
X154725769Y-122822179D01*
X154788197Y-122634513D01*
X154812985Y-122438295D01*
X154813380Y-122410000D01*
X154794080Y-122213167D01*
X154736916Y-122023831D01*
X154644066Y-121849204D01*
X154586857Y-121779059D01*
X154559303Y-121713627D01*
X154558500Y-121699423D01*
X154558500Y-121677070D01*
X154559933Y-121658120D01*
X154562099Y-121643885D01*
X154562099Y-121643881D01*
X154563199Y-121636651D01*
X154558915Y-121583982D01*
X154558500Y-121573767D01*
X154558500Y-121565707D01*
X154555211Y-121537493D01*
X154554778Y-121533118D01*
X154549454Y-121467661D01*
X154549453Y-121467658D01*
X154548860Y-121460363D01*
X154546604Y-121453399D01*
X154545413Y-121447440D01*
X154544029Y-121441585D01*
X154543182Y-121434319D01*
X154518265Y-121365673D01*
X154516848Y-121361545D01*
X154496607Y-121299064D01*
X154496606Y-121299062D01*
X154494351Y-121292101D01*
X154490555Y-121285846D01*
X154488049Y-121280372D01*
X154485330Y-121274942D01*
X154482833Y-121268063D01*
X154442814Y-121207024D01*
X154440467Y-121203305D01*
X154402595Y-121140893D01*
X154395197Y-121132516D01*
X154395224Y-121132492D01*
X154392571Y-121129500D01*
X154389868Y-121126267D01*
X154385856Y-121120148D01*
X154329617Y-121066872D01*
X154327175Y-121064494D01*
X153881776Y-120619095D01*
X153847750Y-120556783D01*
X153852815Y-120485968D01*
X153881776Y-120440905D01*
X155588911Y-118733770D01*
X155603323Y-118721384D01*
X155614918Y-118712851D01*
X155614923Y-118712846D01*
X155620818Y-118708508D01*
X155625557Y-118702930D01*
X155625560Y-118702927D01*
X155655035Y-118668232D01*
X155661965Y-118660716D01*
X155667660Y-118655021D01*
X155676545Y-118643791D01*
X155685281Y-118632749D01*
X155688072Y-118629345D01*
X155730591Y-118579297D01*
X155730592Y-118579295D01*
X155735333Y-118573715D01*
X155738661Y-118567199D01*
X155742028Y-118562150D01*
X155745195Y-118557021D01*
X155749734Y-118551284D01*
X155780655Y-118485125D01*
X155782561Y-118481225D01*
X155783922Y-118478559D01*
X155815769Y-118416192D01*
X155817508Y-118409083D01*
X155819604Y-118403449D01*
X155821523Y-118397679D01*
X155824622Y-118391050D01*
X155828072Y-118374468D01*
X155839490Y-118319571D01*
X155840461Y-118315282D01*
X155842945Y-118305132D01*
X155857808Y-118244390D01*
X155858358Y-118235534D01*
X155858500Y-118233236D01*
X155858535Y-118233238D01*
X155858775Y-118229266D01*
X155859152Y-118225045D01*
X155860641Y-118217885D01*
X155858546Y-118140458D01*
X155858500Y-118137050D01*
X155858500Y-118012151D01*
X155859726Y-117994615D01*
X155862452Y-117975221D01*
X155862452Y-117975218D01*
X155863001Y-117971313D01*
X155863299Y-117950000D01*
X155858617Y-117908258D01*
X155858500Y-117906883D01*
X155858500Y-117905707D01*
X155854040Y-117867452D01*
X155844331Y-117780892D01*
X155843756Y-117779240D01*
X155843182Y-117774319D01*
X155815393Y-117697765D01*
X155814880Y-117696322D01*
X155811944Y-117687891D01*
X155788368Y-117620189D01*
X155786300Y-117616878D01*
X155785332Y-117614945D01*
X155782833Y-117608063D01*
X155740041Y-117542794D01*
X155738575Y-117540503D01*
X155702015Y-117481994D01*
X155682879Y-117413625D01*
X155703745Y-117345764D01*
X155719774Y-117326130D01*
X156192247Y-116853657D01*
X156200537Y-116846113D01*
X156207018Y-116842000D01*
X156253659Y-116792332D01*
X156256413Y-116789491D01*
X156276134Y-116769770D01*
X156278612Y-116766575D01*
X156286318Y-116757553D01*
X156311158Y-116731101D01*
X156316586Y-116725321D01*
X156325814Y-116708535D01*
X156326346Y-116707568D01*
X156337199Y-116691045D01*
X156338405Y-116689490D01*
X156349613Y-116675041D01*
X156367176Y-116634457D01*
X156372383Y-116623827D01*
X156393695Y-116585060D01*
X156395666Y-116577383D01*
X156395668Y-116577378D01*
X156398732Y-116565442D01*
X156405138Y-116546730D01*
X156405802Y-116545197D01*
X156413181Y-116528145D01*
X156414421Y-116520317D01*
X156414423Y-116520310D01*
X156420099Y-116484476D01*
X156422505Y-116472856D01*
X156431528Y-116437711D01*
X156431528Y-116437710D01*
X156433500Y-116430030D01*
X156433500Y-116409776D01*
X156435051Y-116390065D01*
X156436980Y-116377886D01*
X156438220Y-116370057D01*
X156434059Y-116326038D01*
X156433500Y-116314181D01*
X156433500Y-116058512D01*
X156453502Y-115990391D01*
X156507158Y-115943898D01*
X156577432Y-115933794D01*
X156642012Y-115963288D01*
X156654735Y-115976012D01*
X156696250Y-116023938D01*
X156868126Y-116166632D01*
X157061000Y-116279338D01*
X157269692Y-116359030D01*
X157274760Y-116360061D01*
X157274763Y-116360062D01*
X157382017Y-116381883D01*
X157488597Y-116403567D01*
X157493772Y-116403757D01*
X157493774Y-116403757D01*
X157706673Y-116411564D01*
X157706677Y-116411564D01*
X157711837Y-116411753D01*
X157716957Y-116411097D01*
X157716959Y-116411097D01*
X157928288Y-116384025D01*
X157928289Y-116384025D01*
X157933416Y-116383368D01*
X157938366Y-116381883D01*
X158142429Y-116320661D01*
X158142434Y-116320659D01*
X158147384Y-116319174D01*
X158347994Y-116220896D01*
X158529860Y-116091173D01*
X158688096Y-115933489D01*
X158740203Y-115860974D01*
X158796198Y-115817326D01*
X158842526Y-115808500D01*
X160382930Y-115808500D01*
X160401880Y-115809933D01*
X160416115Y-115812099D01*
X160416119Y-115812099D01*
X160423349Y-115813199D01*
X160430641Y-115812606D01*
X160430644Y-115812606D01*
X160476018Y-115808915D01*
X160486233Y-115808500D01*
X160494293Y-115808500D01*
X160507583Y-115806951D01*
X160522507Y-115805211D01*
X160526882Y-115804778D01*
X160592339Y-115799454D01*
X160592342Y-115799453D01*
X160599637Y-115798860D01*
X160606601Y-115796604D01*
X160612560Y-115795413D01*
X160618415Y-115794029D01*
X160625681Y-115793182D01*
X160694327Y-115768265D01*
X160698456Y-115766848D01*
X160748446Y-115750654D01*
X160819415Y-115748689D01*
X160880180Y-115785405D01*
G37*
G04 #@! TD.AperFunction*
G04 #@! TA.AperFunction,Conductor*
G36*
X116633358Y-55528502D02*
G01*
X116679851Y-55582158D01*
X116691235Y-55635270D01*
X116691024Y-55669721D01*
X116693491Y-55678352D01*
X116699150Y-55698153D01*
X116702728Y-55714915D01*
X116706920Y-55744187D01*
X116710634Y-55752355D01*
X116710634Y-55752356D01*
X116717548Y-55767562D01*
X116723996Y-55785086D01*
X116731051Y-55809771D01*
X116735843Y-55817365D01*
X116735844Y-55817368D01*
X116746830Y-55834780D01*
X116754969Y-55849863D01*
X116767208Y-55876782D01*
X116773069Y-55883584D01*
X116783970Y-55896235D01*
X116795073Y-55911239D01*
X116808776Y-55932958D01*
X116815501Y-55938897D01*
X116815504Y-55938901D01*
X116830938Y-55952532D01*
X116842982Y-55964724D01*
X116856427Y-55980327D01*
X116856430Y-55980329D01*
X116862287Y-55987127D01*
X116869816Y-55992007D01*
X116869817Y-55992008D01*
X116883835Y-56001094D01*
X116898709Y-56012385D01*
X116911217Y-56023431D01*
X116917951Y-56029378D01*
X116944711Y-56041942D01*
X116959691Y-56050263D01*
X116976983Y-56061471D01*
X116976988Y-56061473D01*
X116984515Y-56066352D01*
X116993108Y-56068922D01*
X116993113Y-56068924D01*
X117009120Y-56073711D01*
X117026564Y-56080372D01*
X117041676Y-56087467D01*
X117041678Y-56087468D01*
X117049800Y-56091281D01*
X117058667Y-56092662D01*
X117058668Y-56092662D01*
X117061353Y-56093080D01*
X117079017Y-56095830D01*
X117095732Y-56099613D01*
X117115466Y-56105515D01*
X117115472Y-56105516D01*
X117124066Y-56108086D01*
X117133037Y-56108141D01*
X117133038Y-56108141D01*
X117143097Y-56108202D01*
X117158506Y-56108296D01*
X117159289Y-56108329D01*
X117160386Y-56108500D01*
X117191377Y-56108500D01*
X117192147Y-56108502D01*
X117265785Y-56108952D01*
X117265786Y-56108952D01*
X117269721Y-56108976D01*
X117271065Y-56108592D01*
X117272410Y-56108500D01*
X142811377Y-56108500D01*
X142812148Y-56108502D01*
X142889721Y-56108976D01*
X142918152Y-56100850D01*
X142934915Y-56097272D01*
X142935753Y-56097152D01*
X142964187Y-56093080D01*
X142987564Y-56082451D01*
X143005087Y-56076004D01*
X143029771Y-56068949D01*
X143037365Y-56064157D01*
X143037368Y-56064156D01*
X143054780Y-56053170D01*
X143069865Y-56045030D01*
X143096782Y-56032792D01*
X143116235Y-56016030D01*
X143131239Y-56004927D01*
X143152958Y-55991224D01*
X143158897Y-55984499D01*
X143158901Y-55984496D01*
X143172532Y-55969062D01*
X143184724Y-55957018D01*
X143200327Y-55943573D01*
X143200329Y-55943570D01*
X143207127Y-55937713D01*
X143221094Y-55916165D01*
X143232385Y-55901291D01*
X143243431Y-55888783D01*
X143243432Y-55888782D01*
X143249378Y-55882049D01*
X143261943Y-55855287D01*
X143270263Y-55840309D01*
X143281471Y-55823017D01*
X143281473Y-55823012D01*
X143286352Y-55815485D01*
X143288922Y-55806892D01*
X143288924Y-55806887D01*
X143293711Y-55790880D01*
X143300372Y-55773436D01*
X143307467Y-55758324D01*
X143307468Y-55758322D01*
X143311281Y-55750200D01*
X143315830Y-55720983D01*
X143319613Y-55704268D01*
X143325515Y-55684534D01*
X143325516Y-55684528D01*
X143328086Y-55675934D01*
X143328296Y-55641494D01*
X143328329Y-55640711D01*
X143328500Y-55639614D01*
X143328500Y-55634500D01*
X143328603Y-55634148D01*
X143328671Y-55632531D01*
X143328877Y-55629874D01*
X143329836Y-55629948D01*
X143348502Y-55566379D01*
X143402158Y-55519886D01*
X143454500Y-55508500D01*
X160871640Y-55508500D01*
X160939761Y-55528502D01*
X160986254Y-55582158D01*
X160997640Y-55634676D01*
X160997032Y-56068924D01*
X160937475Y-98592568D01*
X160917378Y-98660658D01*
X160863658Y-98707076D01*
X160793370Y-98717081D01*
X160729896Y-98688413D01*
X160719297Y-98679409D01*
X160719295Y-98679408D01*
X160713715Y-98674667D01*
X160707199Y-98671339D01*
X160702150Y-98667972D01*
X160697021Y-98664805D01*
X160691284Y-98660266D01*
X160625125Y-98629345D01*
X160621225Y-98627439D01*
X160593704Y-98613386D01*
X160556192Y-98594231D01*
X160549084Y-98592492D01*
X160543441Y-98590393D01*
X160537678Y-98588476D01*
X160531050Y-98585378D01*
X160459583Y-98570513D01*
X160455299Y-98569543D01*
X160384390Y-98552192D01*
X160378788Y-98551844D01*
X160378785Y-98551844D01*
X160373236Y-98551500D01*
X160373238Y-98551464D01*
X160369245Y-98551225D01*
X160365053Y-98550851D01*
X160357885Y-98549360D01*
X160291675Y-98551151D01*
X160280479Y-98551454D01*
X160277072Y-98551500D01*
X153098594Y-98551500D01*
X153030473Y-98531498D01*
X152983980Y-98477842D01*
X152973876Y-98407568D01*
X153003370Y-98342988D01*
X153009499Y-98336405D01*
X153924259Y-97421645D01*
X153974417Y-97390907D01*
X154108625Y-97347300D01*
X154115322Y-97345124D01*
X154261490Y-97257990D01*
X154266584Y-97253139D01*
X154266588Y-97253136D01*
X154340921Y-97182349D01*
X154384721Y-97140639D01*
X154404809Y-97110405D01*
X154431806Y-97069771D01*
X154478891Y-96998902D01*
X154539319Y-96839825D01*
X154563001Y-96671313D01*
X154563299Y-96650000D01*
X154544331Y-96480892D01*
X154488368Y-96320189D01*
X154482383Y-96310610D01*
X154460420Y-96275464D01*
X154398192Y-96175879D01*
X154278286Y-96055132D01*
X154262039Y-96044821D01*
X154204952Y-96008593D01*
X154134608Y-95963951D01*
X153974300Y-95906868D01*
X153805329Y-95886720D01*
X153798326Y-95887456D01*
X153798325Y-95887456D01*
X153643101Y-95903770D01*
X153643097Y-95903771D01*
X153636093Y-95904507D01*
X153629422Y-95906778D01*
X153481673Y-95957075D01*
X153481670Y-95957076D01*
X153475003Y-95959346D01*
X153469005Y-95963036D01*
X153469003Y-95963037D01*
X153336065Y-96044821D01*
X153336063Y-96044823D01*
X153330066Y-96048512D01*
X153208486Y-96167573D01*
X153116304Y-96310610D01*
X153058103Y-96470516D01*
X153058043Y-96470993D01*
X153025994Y-96528102D01*
X151724500Y-97829595D01*
X151662188Y-97863621D01*
X151635405Y-97866500D01*
X150014595Y-97866500D01*
X149946474Y-97846498D01*
X149925500Y-97829595D01*
X146853652Y-94757747D01*
X146846112Y-94749461D01*
X146842000Y-94742982D01*
X146792348Y-94696356D01*
X146789507Y-94693602D01*
X146769770Y-94673865D01*
X146766573Y-94671385D01*
X146757551Y-94663680D01*
X146731100Y-94638841D01*
X146725321Y-94633414D01*
X146718375Y-94629595D01*
X146718372Y-94629593D01*
X146707566Y-94623652D01*
X146691047Y-94612801D01*
X146687352Y-94609935D01*
X146675041Y-94600386D01*
X146667772Y-94597241D01*
X146667768Y-94597238D01*
X146634463Y-94582826D01*
X146623813Y-94577609D01*
X146585060Y-94556305D01*
X146565437Y-94551267D01*
X146546734Y-94544863D01*
X146535420Y-94539967D01*
X146535419Y-94539967D01*
X146528145Y-94536819D01*
X146520322Y-94535580D01*
X146520312Y-94535577D01*
X146484476Y-94529901D01*
X146472856Y-94527495D01*
X146437711Y-94518472D01*
X146437710Y-94518472D01*
X146430030Y-94516500D01*
X146409776Y-94516500D01*
X146390065Y-94514949D01*
X146377886Y-94513020D01*
X146370057Y-94511780D01*
X146362165Y-94512526D01*
X146326039Y-94515941D01*
X146314181Y-94516500D01*
X144538736Y-94516500D01*
X144470615Y-94496498D01*
X144424122Y-94442842D01*
X144413691Y-94399956D01*
X144413299Y-94400000D01*
X144410630Y-94376198D01*
X144395116Y-94237891D01*
X144394331Y-94230892D01*
X144338368Y-94070189D01*
X144332383Y-94060610D01*
X144310420Y-94025464D01*
X144248192Y-93925879D01*
X144128286Y-93805132D01*
X144112039Y-93794821D01*
X144026149Y-93740314D01*
X143984608Y-93713951D01*
X143824300Y-93656868D01*
X143655329Y-93636720D01*
X143648326Y-93637456D01*
X143648325Y-93637456D01*
X143493101Y-93653770D01*
X143493097Y-93653771D01*
X143486093Y-93654507D01*
X143479422Y-93656778D01*
X143331673Y-93707075D01*
X143331670Y-93707076D01*
X143325003Y-93709346D01*
X143319005Y-93713036D01*
X143319003Y-93713037D01*
X143186065Y-93794821D01*
X143186063Y-93794823D01*
X143180066Y-93798512D01*
X143058486Y-93917573D01*
X143054675Y-93923487D01*
X143054673Y-93923489D01*
X142987247Y-94028113D01*
X142966304Y-94060610D01*
X142908103Y-94220516D01*
X142907230Y-94227430D01*
X142887317Y-94270522D01*
X142883414Y-94274679D01*
X142879598Y-94281620D01*
X142879593Y-94281627D01*
X142873652Y-94292434D01*
X142862801Y-94308953D01*
X142850386Y-94324959D01*
X142847241Y-94332228D01*
X142847238Y-94332232D01*
X142832826Y-94365537D01*
X142827609Y-94376187D01*
X142806305Y-94414940D01*
X142804334Y-94422615D01*
X142804334Y-94422616D01*
X142801267Y-94434562D01*
X142794863Y-94453266D01*
X142786819Y-94471855D01*
X142785580Y-94479678D01*
X142785577Y-94479688D01*
X142779901Y-94515524D01*
X142777495Y-94527144D01*
X142775330Y-94535577D01*
X142766500Y-94569970D01*
X142766500Y-94590224D01*
X142764949Y-94609934D01*
X142761780Y-94629943D01*
X142762526Y-94637835D01*
X142765941Y-94673961D01*
X142766500Y-94685819D01*
X142766500Y-94821233D01*
X142765973Y-94832416D01*
X142764298Y-94839909D01*
X142764547Y-94847835D01*
X142764547Y-94847836D01*
X142766438Y-94907986D01*
X142766500Y-94911945D01*
X142766500Y-94939856D01*
X142766997Y-94943790D01*
X142766997Y-94943791D01*
X142767005Y-94943856D01*
X142767938Y-94955693D01*
X142769327Y-94999889D01*
X142774978Y-95019339D01*
X142778987Y-95038700D01*
X142781526Y-95058797D01*
X142784445Y-95066168D01*
X142784445Y-95066170D01*
X142797804Y-95099912D01*
X142801649Y-95111142D01*
X142811771Y-95145983D01*
X142813982Y-95153593D01*
X142818015Y-95160412D01*
X142818017Y-95160417D01*
X142824293Y-95171028D01*
X142832988Y-95188776D01*
X142840448Y-95207617D01*
X142845110Y-95214033D01*
X142845110Y-95214034D01*
X142866436Y-95243387D01*
X142872952Y-95253307D01*
X142895458Y-95291362D01*
X142894087Y-95292173D01*
X142916696Y-95349755D01*
X142905305Y-95410246D01*
X142906304Y-95410610D01*
X142848103Y-95570516D01*
X142826775Y-95739343D01*
X142823712Y-95738956D01*
X142806793Y-95793723D01*
X142752490Y-95839458D01*
X142736916Y-95845117D01*
X142714023Y-95851769D01*
X142714021Y-95851770D01*
X142706407Y-95853982D01*
X142699585Y-95858016D01*
X142699579Y-95858019D01*
X142688968Y-95864294D01*
X142671218Y-95872990D01*
X142659756Y-95877528D01*
X142659751Y-95877531D01*
X142652383Y-95880448D01*
X142634970Y-95893099D01*
X142616625Y-95906427D01*
X142606707Y-95912943D01*
X142588019Y-95923995D01*
X142568637Y-95935458D01*
X142554313Y-95949782D01*
X142539281Y-95962621D01*
X142522893Y-95974528D01*
X142494712Y-96008593D01*
X142486722Y-96017373D01*
X142077287Y-96426808D01*
X142028798Y-96456990D01*
X141978133Y-96474238D01*
X141881673Y-96507075D01*
X141881670Y-96507076D01*
X141875003Y-96509346D01*
X141869005Y-96513036D01*
X141869003Y-96513037D01*
X141736065Y-96594821D01*
X141736063Y-96594823D01*
X141730066Y-96598512D01*
X141608486Y-96717573D01*
X141604675Y-96723487D01*
X141604673Y-96723489D01*
X141529699Y-96839825D01*
X141516304Y-96860610D01*
X141458103Y-97020516D01*
X141436775Y-97189343D01*
X141453381Y-97358699D01*
X141507094Y-97520167D01*
X141510741Y-97526189D01*
X141510742Y-97526191D01*
X141524497Y-97548902D01*
X141595246Y-97665723D01*
X141713455Y-97788132D01*
X141855846Y-97881310D01*
X141862450Y-97883766D01*
X141862452Y-97883767D01*
X141935594Y-97910968D01*
X142015341Y-97940626D01*
X142184015Y-97963132D01*
X142191026Y-97962494D01*
X142191030Y-97962494D01*
X142346462Y-97948348D01*
X142353483Y-97947709D01*
X142360185Y-97945531D01*
X142360187Y-97945531D01*
X142508623Y-97897301D01*
X142508626Y-97897300D01*
X142515322Y-97895124D01*
X142661490Y-97807990D01*
X142666584Y-97803139D01*
X142666588Y-97803136D01*
X142736331Y-97736720D01*
X142784721Y-97690639D01*
X142878891Y-97548902D01*
X142939319Y-97389825D01*
X142940299Y-97382848D01*
X142941138Y-97379582D01*
X142974085Y-97321819D01*
X143185499Y-97110405D01*
X143247811Y-97076379D01*
X143274594Y-97073500D01*
X145315406Y-97073500D01*
X145383527Y-97093502D01*
X145404501Y-97110405D01*
X147246213Y-98952117D01*
X147280239Y-99014429D01*
X147282124Y-99057002D01*
X147276775Y-99099343D01*
X147293381Y-99268699D01*
X147347094Y-99430167D01*
X147350741Y-99436189D01*
X147350742Y-99436191D01*
X147383880Y-99490907D01*
X147435246Y-99575723D01*
X147553455Y-99698132D01*
X147695846Y-99791310D01*
X147702450Y-99793766D01*
X147702452Y-99793767D01*
X147738844Y-99807301D01*
X147855341Y-99850626D01*
X148024015Y-99873132D01*
X148031026Y-99872494D01*
X148031030Y-99872494D01*
X148186462Y-99858348D01*
X148193483Y-99857709D01*
X148200185Y-99855531D01*
X148200187Y-99855531D01*
X148348623Y-99807301D01*
X148348626Y-99807300D01*
X148355322Y-99805124D01*
X148501490Y-99717990D01*
X148506584Y-99713139D01*
X148506588Y-99713136D01*
X148584563Y-99638881D01*
X148624721Y-99600639D01*
X148718891Y-99458902D01*
X148779319Y-99299825D01*
X148803001Y-99131313D01*
X148803158Y-99120097D01*
X148803244Y-99113961D01*
X148803244Y-99113955D01*
X148803299Y-99110000D01*
X148784331Y-98940892D01*
X148728368Y-98780189D01*
X148724635Y-98774215D01*
X148724633Y-98774211D01*
X148721534Y-98769252D01*
X148702397Y-98700883D01*
X148723261Y-98633022D01*
X148777502Y-98587213D01*
X148847899Y-98578001D01*
X148912100Y-98608311D01*
X148917482Y-98613386D01*
X149196343Y-98892247D01*
X149203887Y-98900537D01*
X149208000Y-98907018D01*
X149213777Y-98912443D01*
X149257667Y-98953658D01*
X149260509Y-98956413D01*
X149280230Y-98976134D01*
X149283425Y-98978612D01*
X149292447Y-98986318D01*
X149324679Y-99016586D01*
X149331628Y-99020406D01*
X149342432Y-99026346D01*
X149358956Y-99037199D01*
X149374959Y-99049613D01*
X149415543Y-99067176D01*
X149426173Y-99072383D01*
X149464940Y-99093695D01*
X149472617Y-99095666D01*
X149472622Y-99095668D01*
X149484558Y-99098732D01*
X149503266Y-99105137D01*
X149521855Y-99113181D01*
X149529680Y-99114420D01*
X149529682Y-99114421D01*
X149565519Y-99120097D01*
X149577140Y-99122504D01*
X149611452Y-99131313D01*
X149619970Y-99133500D01*
X149640231Y-99133500D01*
X149659940Y-99135051D01*
X149679943Y-99138219D01*
X149687835Y-99137473D01*
X149693062Y-99136979D01*
X149723954Y-99134059D01*
X149735811Y-99133500D01*
X149949629Y-99133500D01*
X150017750Y-99153502D01*
X150064243Y-99207158D01*
X150074347Y-99277432D01*
X150044853Y-99342012D01*
X150038724Y-99348595D01*
X148441089Y-100946230D01*
X148426677Y-100958616D01*
X148415082Y-100967149D01*
X148415077Y-100967154D01*
X148409182Y-100971492D01*
X148404443Y-100977070D01*
X148404440Y-100977073D01*
X148374965Y-101011768D01*
X148368035Y-101019284D01*
X148362340Y-101024979D01*
X148360060Y-101027861D01*
X148344719Y-101047251D01*
X148341928Y-101050655D01*
X148317815Y-101079038D01*
X148294667Y-101106285D01*
X148291339Y-101112801D01*
X148287972Y-101117850D01*
X148284805Y-101122979D01*
X148280266Y-101128716D01*
X148249345Y-101194875D01*
X148247442Y-101198769D01*
X148214231Y-101263808D01*
X148212492Y-101270916D01*
X148210393Y-101276559D01*
X148208476Y-101282322D01*
X148205378Y-101288950D01*
X148190836Y-101358866D01*
X148190514Y-101360412D01*
X148189544Y-101364696D01*
X148172192Y-101435610D01*
X148171500Y-101446764D01*
X148171464Y-101446762D01*
X148171225Y-101450755D01*
X148170851Y-101454947D01*
X148169360Y-101462115D01*
X148169558Y-101469432D01*
X148171454Y-101539521D01*
X148171500Y-101542928D01*
X148171500Y-101921945D01*
X148151498Y-101990066D01*
X148097842Y-102036559D01*
X148027568Y-102046663D01*
X147962988Y-102017169D01*
X147954730Y-102008450D01*
X147954542Y-102008638D01*
X147930218Y-101984314D01*
X147917383Y-101969287D01*
X147905472Y-101952893D01*
X147871408Y-101924713D01*
X147862627Y-101916723D01*
X147744770Y-101798865D01*
X144324104Y-98378199D01*
X144294209Y-98330542D01*
X144274341Y-98273489D01*
X144238368Y-98170189D01*
X144232383Y-98160610D01*
X144210420Y-98125464D01*
X144148192Y-98025879D01*
X144129314Y-98006868D01*
X144033248Y-97910129D01*
X144028286Y-97905132D01*
X144015947Y-97897301D01*
X143962875Y-97863621D01*
X143884608Y-97813951D01*
X143724300Y-97756868D01*
X143555329Y-97736720D01*
X143548326Y-97737456D01*
X143548325Y-97737456D01*
X143393101Y-97753770D01*
X143393097Y-97753771D01*
X143386093Y-97754507D01*
X143379422Y-97756778D01*
X143231673Y-97807075D01*
X143231670Y-97807076D01*
X143225003Y-97809346D01*
X143219005Y-97813036D01*
X143219003Y-97813037D01*
X143086065Y-97894821D01*
X143086063Y-97894823D01*
X143080066Y-97898512D01*
X142958486Y-98017573D01*
X142954675Y-98023487D01*
X142954673Y-98023489D01*
X142876479Y-98144821D01*
X142866304Y-98160610D01*
X142863894Y-98167232D01*
X142824350Y-98275879D01*
X142808103Y-98320516D01*
X142786775Y-98489343D01*
X142803381Y-98658699D01*
X142857094Y-98820167D01*
X142860741Y-98826189D01*
X142860742Y-98826191D01*
X142939608Y-98956413D01*
X142945246Y-98965723D01*
X143063455Y-99088132D01*
X143205846Y-99181310D01*
X143212450Y-99183766D01*
X143212452Y-99183767D01*
X143275349Y-99207158D01*
X143365341Y-99240626D01*
X143370257Y-99241282D01*
X143428111Y-99274015D01*
X146769595Y-102615499D01*
X146803621Y-102677811D01*
X146806500Y-102704594D01*
X146806500Y-106195638D01*
X146786411Y-106263893D01*
X146781318Y-106271797D01*
X146764560Y-106297800D01*
X146756304Y-106310610D01*
X146698103Y-106470516D01*
X146676775Y-106639343D01*
X146693381Y-106808699D01*
X146747094Y-106970167D01*
X146750741Y-106976189D01*
X146750742Y-106976191D01*
X146789525Y-107040229D01*
X146807704Y-107108858D01*
X146785894Y-107176422D01*
X146731018Y-107221468D01*
X146681749Y-107231500D01*
X135466371Y-107231500D01*
X135398250Y-107211498D01*
X135377276Y-107194595D01*
X133523770Y-105341089D01*
X133511384Y-105326677D01*
X133502851Y-105315082D01*
X133502846Y-105315077D01*
X133498508Y-105309182D01*
X133492930Y-105304443D01*
X133492927Y-105304440D01*
X133458232Y-105274965D01*
X133450716Y-105268035D01*
X133445021Y-105262340D01*
X133437675Y-105256528D01*
X133422749Y-105244719D01*
X133419345Y-105241928D01*
X133369297Y-105199409D01*
X133369295Y-105199408D01*
X133363715Y-105194667D01*
X133357199Y-105191339D01*
X133352150Y-105187972D01*
X133347021Y-105184805D01*
X133341284Y-105180266D01*
X133275125Y-105149345D01*
X133271225Y-105147439D01*
X133206192Y-105114231D01*
X133199084Y-105112492D01*
X133193441Y-105110393D01*
X133187678Y-105108476D01*
X133181050Y-105105378D01*
X133172541Y-105103608D01*
X133109588Y-105090514D01*
X133105299Y-105089543D01*
X133087824Y-105085267D01*
X133034390Y-105072192D01*
X133028788Y-105071844D01*
X133028785Y-105071844D01*
X133023236Y-105071500D01*
X133023238Y-105071464D01*
X133019245Y-105071225D01*
X133015053Y-105070851D01*
X133007885Y-105069360D01*
X132944120Y-105071085D01*
X132930479Y-105071454D01*
X132927072Y-105071500D01*
X131967069Y-105071500D01*
X131948121Y-105070067D01*
X131940780Y-105068950D01*
X131933883Y-105067901D01*
X131933881Y-105067901D01*
X131926651Y-105066801D01*
X131919359Y-105067394D01*
X131919356Y-105067394D01*
X131873982Y-105071085D01*
X131863767Y-105071500D01*
X131855707Y-105071500D01*
X131842417Y-105073049D01*
X131827493Y-105074789D01*
X131823118Y-105075222D01*
X131757661Y-105080546D01*
X131757658Y-105080547D01*
X131750363Y-105081140D01*
X131743399Y-105083396D01*
X131737440Y-105084587D01*
X131731585Y-105085971D01*
X131724319Y-105086818D01*
X131655673Y-105111735D01*
X131651545Y-105113152D01*
X131589064Y-105133393D01*
X131589062Y-105133394D01*
X131582101Y-105135649D01*
X131575846Y-105139445D01*
X131570372Y-105141951D01*
X131564942Y-105144670D01*
X131558063Y-105147167D01*
X131497016Y-105187191D01*
X131493327Y-105189518D01*
X131477028Y-105199409D01*
X131435693Y-105224491D01*
X131435688Y-105224495D01*
X131430892Y-105227405D01*
X131422516Y-105234803D01*
X131422493Y-105234777D01*
X131419503Y-105237426D01*
X131416264Y-105240134D01*
X131410148Y-105244144D01*
X131405121Y-105249451D01*
X131405117Y-105249454D01*
X131356872Y-105300383D01*
X131354494Y-105302825D01*
X130469803Y-106187516D01*
X130468866Y-106188444D01*
X130408486Y-106247573D01*
X130404668Y-106253498D01*
X130404665Y-106253501D01*
X130385528Y-106283194D01*
X130378432Y-106293115D01*
X130372084Y-106301139D01*
X130350266Y-106328716D01*
X130338237Y-106354454D01*
X130330004Y-106369351D01*
X130316304Y-106390610D01*
X130313894Y-106397232D01*
X130300481Y-106434084D01*
X130296235Y-106444324D01*
X130275378Y-106488950D01*
X130270871Y-106510621D01*
X130270384Y-106512961D01*
X130265425Y-106530398D01*
X130260512Y-106543896D01*
X130260511Y-106543901D01*
X130258103Y-106550516D01*
X130257220Y-106557504D01*
X130255564Y-106564350D01*
X130254023Y-106563977D01*
X130228989Y-106621372D01*
X130169928Y-106660771D01*
X130132367Y-106666500D01*
X127114594Y-106666500D01*
X127046473Y-106646498D01*
X127025499Y-106629595D01*
X122595405Y-102199500D01*
X122561379Y-102137188D01*
X122558500Y-102110405D01*
X122558500Y-100330262D01*
X122579551Y-100260536D01*
X122603891Y-100223902D01*
X122664319Y-100064825D01*
X122688001Y-99896313D01*
X122688118Y-99887964D01*
X122688244Y-99878961D01*
X122688244Y-99878955D01*
X122688299Y-99875000D01*
X122669331Y-99705892D01*
X122669642Y-99705857D01*
X122673813Y-99638881D01*
X122703174Y-99592730D01*
X122774259Y-99521645D01*
X122824417Y-99490907D01*
X122958625Y-99447300D01*
X122965322Y-99445124D01*
X123111490Y-99357990D01*
X123116584Y-99353139D01*
X123116588Y-99353136D01*
X123198234Y-99275385D01*
X123234721Y-99240639D01*
X123328891Y-99098902D01*
X123389319Y-98939825D01*
X123413001Y-98771313D01*
X123413299Y-98750000D01*
X123394331Y-98580892D01*
X123390689Y-98570432D01*
X123362450Y-98489343D01*
X123338368Y-98420189D01*
X123332383Y-98410610D01*
X123282568Y-98330892D01*
X123248192Y-98275879D01*
X123128286Y-98155132D01*
X123112039Y-98144821D01*
X123073406Y-98120304D01*
X122984608Y-98063951D01*
X122824300Y-98006868D01*
X122655329Y-97986720D01*
X122648326Y-97987456D01*
X122648325Y-97987456D01*
X122493101Y-98003770D01*
X122493097Y-98003771D01*
X122486093Y-98004507D01*
X122479422Y-98006778D01*
X122331673Y-98057075D01*
X122331670Y-98057076D01*
X122325003Y-98059346D01*
X122319005Y-98063036D01*
X122319003Y-98063037D01*
X122186065Y-98144821D01*
X122186063Y-98144823D01*
X122180066Y-98148512D01*
X122058486Y-98267573D01*
X122054675Y-98273487D01*
X122054673Y-98273489D01*
X121970121Y-98404687D01*
X121966304Y-98410610D01*
X121963894Y-98417232D01*
X121937648Y-98489343D01*
X121908103Y-98570516D01*
X121908043Y-98570993D01*
X121875994Y-98628101D01*
X121874500Y-98629595D01*
X121812188Y-98663621D01*
X121785405Y-98666500D01*
X119628767Y-98666500D01*
X119617584Y-98665973D01*
X119610091Y-98664298D01*
X119602165Y-98664547D01*
X119602164Y-98664547D01*
X119542001Y-98666438D01*
X119538043Y-98666500D01*
X119510144Y-98666500D01*
X119506154Y-98667004D01*
X119494320Y-98667936D01*
X119450111Y-98669326D01*
X119442497Y-98671538D01*
X119442492Y-98671539D01*
X119430659Y-98674977D01*
X119411296Y-98678988D01*
X119391203Y-98681526D01*
X119383836Y-98684443D01*
X119383831Y-98684444D01*
X119350092Y-98697802D01*
X119338865Y-98701646D01*
X119296407Y-98713982D01*
X119289581Y-98718019D01*
X119278972Y-98724293D01*
X119261224Y-98732988D01*
X119242383Y-98740448D01*
X119235967Y-98745110D01*
X119235966Y-98745110D01*
X119206613Y-98766436D01*
X119196693Y-98772952D01*
X119165465Y-98791420D01*
X119165462Y-98791422D01*
X119158638Y-98795458D01*
X119144317Y-98809779D01*
X119129284Y-98822619D01*
X119112893Y-98834528D01*
X119107842Y-98840633D01*
X119107837Y-98840638D01*
X119084701Y-98868604D01*
X119076713Y-98877382D01*
X118207747Y-99746348D01*
X118199461Y-99753888D01*
X118192982Y-99758000D01*
X118187557Y-99763777D01*
X118146357Y-99807651D01*
X118143602Y-99810493D01*
X118123865Y-99830230D01*
X118121385Y-99833427D01*
X118113682Y-99842447D01*
X118083414Y-99874679D01*
X118079595Y-99881625D01*
X118079593Y-99881628D01*
X118073652Y-99892434D01*
X118062801Y-99908953D01*
X118050386Y-99924959D01*
X118047241Y-99932228D01*
X118047238Y-99932232D01*
X118032826Y-99965537D01*
X118027609Y-99976187D01*
X118006305Y-100014940D01*
X118004334Y-100022615D01*
X118004334Y-100022616D01*
X118001267Y-100034562D01*
X117994863Y-100053266D01*
X117992882Y-100057845D01*
X117986819Y-100071855D01*
X117985580Y-100079678D01*
X117985577Y-100079688D01*
X117979901Y-100115524D01*
X117977495Y-100127144D01*
X117973410Y-100143056D01*
X117966500Y-100169970D01*
X117966500Y-100190224D01*
X117964949Y-100209934D01*
X117961780Y-100229943D01*
X117962526Y-100237835D01*
X117965941Y-100273961D01*
X117966500Y-100285819D01*
X117966500Y-104246233D01*
X117965973Y-104257416D01*
X117964298Y-104264909D01*
X117964547Y-104272835D01*
X117964547Y-104272836D01*
X117966438Y-104332986D01*
X117966500Y-104336945D01*
X117966500Y-104364856D01*
X117966997Y-104368790D01*
X117966997Y-104368791D01*
X117967005Y-104368856D01*
X117967938Y-104380693D01*
X117969327Y-104424889D01*
X117974978Y-104444339D01*
X117978987Y-104463700D01*
X117981526Y-104483797D01*
X117984445Y-104491168D01*
X117984445Y-104491170D01*
X117997804Y-104524912D01*
X118001649Y-104536142D01*
X118013982Y-104578593D01*
X118018015Y-104585412D01*
X118018017Y-104585417D01*
X118024293Y-104596028D01*
X118032988Y-104613776D01*
X118040448Y-104632617D01*
X118045110Y-104639033D01*
X118045110Y-104639034D01*
X118066436Y-104668387D01*
X118072952Y-104678307D01*
X118095458Y-104716362D01*
X118101064Y-104721969D01*
X118109780Y-104730685D01*
X118122620Y-104745718D01*
X118134528Y-104762107D01*
X118140635Y-104767159D01*
X118168593Y-104790288D01*
X118177374Y-104798278D01*
X118396353Y-105017258D01*
X118403887Y-105025537D01*
X118408000Y-105032018D01*
X118449995Y-105071454D01*
X118457652Y-105078644D01*
X118460494Y-105081399D01*
X118480230Y-105101135D01*
X118483427Y-105103615D01*
X118492447Y-105111318D01*
X118524679Y-105141586D01*
X118531625Y-105145405D01*
X118531628Y-105145407D01*
X118542434Y-105151348D01*
X118558953Y-105162199D01*
X118574959Y-105174614D01*
X118582228Y-105177759D01*
X118582232Y-105177762D01*
X118615537Y-105192174D01*
X118626187Y-105197391D01*
X118664940Y-105218695D01*
X118672615Y-105220666D01*
X118672616Y-105220666D01*
X118684562Y-105223733D01*
X118703266Y-105230137D01*
X118713989Y-105234777D01*
X118721855Y-105238181D01*
X118729678Y-105239420D01*
X118729688Y-105239423D01*
X118765524Y-105245099D01*
X118777144Y-105247505D01*
X118812289Y-105256528D01*
X118819970Y-105258500D01*
X118840224Y-105258500D01*
X118859934Y-105260051D01*
X118879943Y-105263220D01*
X118887835Y-105262474D01*
X118923961Y-105259059D01*
X118935819Y-105258500D01*
X119083086Y-105258500D01*
X119151207Y-105278502D01*
X119197700Y-105332158D01*
X119207946Y-105399337D01*
X119206500Y-105404970D01*
X119206500Y-105425224D01*
X119204949Y-105444934D01*
X119201780Y-105464943D01*
X119202526Y-105472835D01*
X119205941Y-105508961D01*
X119206500Y-105520819D01*
X119206500Y-106585406D01*
X119186498Y-106653527D01*
X119169595Y-106674501D01*
X116957747Y-108886348D01*
X116949461Y-108893888D01*
X116942982Y-108898000D01*
X116937557Y-108903777D01*
X116896357Y-108947651D01*
X116893602Y-108950493D01*
X116873865Y-108970230D01*
X116871385Y-108973427D01*
X116863682Y-108982447D01*
X116833414Y-109014679D01*
X116829595Y-109021625D01*
X116829593Y-109021628D01*
X116823652Y-109032434D01*
X116812801Y-109048953D01*
X116800386Y-109064959D01*
X116797241Y-109072228D01*
X116797238Y-109072232D01*
X116782826Y-109105537D01*
X116777609Y-109116187D01*
X116756305Y-109154940D01*
X116754334Y-109162615D01*
X116754334Y-109162616D01*
X116751267Y-109174562D01*
X116744863Y-109193266D01*
X116742886Y-109197836D01*
X116736819Y-109211855D01*
X116735580Y-109219678D01*
X116735577Y-109219688D01*
X116729901Y-109255524D01*
X116727495Y-109267144D01*
X116723300Y-109283484D01*
X116716500Y-109309970D01*
X116716500Y-109330224D01*
X116714949Y-109349934D01*
X116711780Y-109369943D01*
X116712526Y-109377835D01*
X116715941Y-109413961D01*
X116716500Y-109425819D01*
X116716500Y-118521233D01*
X116715973Y-118532416D01*
X116714298Y-118539909D01*
X116714547Y-118547835D01*
X116714547Y-118547836D01*
X116716438Y-118607986D01*
X116716500Y-118611945D01*
X116716500Y-118639856D01*
X116716997Y-118643790D01*
X116716997Y-118643791D01*
X116717005Y-118643856D01*
X116717938Y-118655693D01*
X116719327Y-118699889D01*
X116723093Y-118712851D01*
X116724978Y-118719339D01*
X116728987Y-118738700D01*
X116731526Y-118758797D01*
X116734445Y-118766168D01*
X116734445Y-118766170D01*
X116747804Y-118799912D01*
X116751649Y-118811142D01*
X116761270Y-118844257D01*
X116763982Y-118853593D01*
X116768015Y-118860412D01*
X116768017Y-118860417D01*
X116774293Y-118871028D01*
X116782988Y-118888776D01*
X116790448Y-118907617D01*
X116795110Y-118914033D01*
X116795110Y-118914034D01*
X116816436Y-118943387D01*
X116822952Y-118953307D01*
X116845458Y-118991362D01*
X116859779Y-119005683D01*
X116872619Y-119020716D01*
X116884528Y-119037107D01*
X116890633Y-119042158D01*
X116890638Y-119042163D01*
X116918604Y-119065299D01*
X116927382Y-119073287D01*
X117796348Y-119942253D01*
X117803888Y-119950539D01*
X117808000Y-119957018D01*
X117813777Y-119962443D01*
X117857651Y-120003643D01*
X117860493Y-120006398D01*
X117880230Y-120026135D01*
X117883427Y-120028615D01*
X117892447Y-120036318D01*
X117924679Y-120066586D01*
X117931625Y-120070405D01*
X117931628Y-120070407D01*
X117942434Y-120076348D01*
X117958953Y-120087199D01*
X117974959Y-120099614D01*
X117982228Y-120102759D01*
X117982232Y-120102762D01*
X118015537Y-120117174D01*
X118026187Y-120122391D01*
X118064940Y-120143695D01*
X118072615Y-120145666D01*
X118072616Y-120145666D01*
X118084562Y-120148733D01*
X118103267Y-120155137D01*
X118121855Y-120163181D01*
X118129678Y-120164420D01*
X118129688Y-120164423D01*
X118165524Y-120170099D01*
X118177144Y-120172505D01*
X118212289Y-120181528D01*
X118219970Y-120183500D01*
X118240224Y-120183500D01*
X118259934Y-120185051D01*
X118279943Y-120188220D01*
X118287835Y-120187474D01*
X118323961Y-120184059D01*
X118335819Y-120183500D01*
X130458775Y-120183500D01*
X130526896Y-120203502D01*
X130573389Y-120257158D01*
X130583493Y-120327432D01*
X130564904Y-120376006D01*
X130564667Y-120376285D01*
X130561337Y-120382807D01*
X130557968Y-120387858D01*
X130554808Y-120392976D01*
X130550266Y-120398716D01*
X130519345Y-120464875D01*
X130517442Y-120468769D01*
X130484231Y-120533808D01*
X130482492Y-120540916D01*
X130480393Y-120546559D01*
X130478476Y-120552322D01*
X130475378Y-120558950D01*
X130473888Y-120566112D01*
X130473888Y-120566113D01*
X130460514Y-120630412D01*
X130459544Y-120634696D01*
X130442192Y-120705610D01*
X130441500Y-120716764D01*
X130441464Y-120716762D01*
X130441225Y-120720755D01*
X130440851Y-120724947D01*
X130439360Y-120732115D01*
X130439558Y-120739432D01*
X130441454Y-120809521D01*
X130441500Y-120812928D01*
X130441500Y-121883629D01*
X130421498Y-121951750D01*
X130404595Y-121972724D01*
X130311977Y-122065342D01*
X130249665Y-122099368D01*
X130178850Y-122094303D01*
X130140370Y-122071472D01*
X130122135Y-122055671D01*
X130114452Y-122054000D01*
X128130115Y-122054000D01*
X128114876Y-122058475D01*
X128113671Y-122059865D01*
X128112000Y-122067548D01*
X128112000Y-122146657D01*
X128112301Y-122152805D01*
X128125812Y-122290603D01*
X128128195Y-122302638D01*
X128181767Y-122480076D01*
X128186441Y-122491416D01*
X128273460Y-122655077D01*
X128280249Y-122665294D01*
X128397397Y-122808933D01*
X128406039Y-122817635D01*
X128406981Y-122818414D01*
X128407338Y-122818943D01*
X128410382Y-122822008D01*
X128409799Y-122822587D01*
X128446720Y-122877247D01*
X128448343Y-122948225D01*
X128411335Y-123008813D01*
X128347446Y-123039775D01*
X128326667Y-123041500D01*
X121274130Y-123041500D01*
X121206009Y-123021498D01*
X121159516Y-122967842D01*
X121149412Y-122897568D01*
X121178906Y-122832988D01*
X121185971Y-122825478D01*
X121192632Y-122818955D01*
X121311778Y-122676961D01*
X121318708Y-122666841D01*
X121408002Y-122504415D01*
X121412834Y-122493142D01*
X121468880Y-122316462D01*
X121471430Y-122304468D01*
X121487607Y-122160239D01*
X121488000Y-122153215D01*
X121488000Y-122072115D01*
X121483525Y-122056876D01*
X121482135Y-122055671D01*
X121474452Y-122054000D01*
X119490115Y-122054000D01*
X119474876Y-122058475D01*
X119473671Y-122059865D01*
X119472000Y-122067548D01*
X119472000Y-122146657D01*
X119472301Y-122152805D01*
X119485812Y-122290603D01*
X119488195Y-122302638D01*
X119541767Y-122480076D01*
X119546441Y-122491416D01*
X119633460Y-122655077D01*
X119640249Y-122665294D01*
X119757397Y-122808933D01*
X119766039Y-122817635D01*
X119766981Y-122818414D01*
X119767338Y-122818943D01*
X119770382Y-122822008D01*
X119769799Y-122822587D01*
X119806720Y-122877247D01*
X119808343Y-122948225D01*
X119771335Y-123008813D01*
X119707446Y-123039775D01*
X119686667Y-123041500D01*
X118210712Y-123041500D01*
X118142591Y-123021498D01*
X118130397Y-123012585D01*
X118101626Y-122988784D01*
X118066675Y-122959870D01*
X117892701Y-122865802D01*
X117703768Y-122807318D01*
X117697643Y-122806674D01*
X117697642Y-122806674D01*
X117513204Y-122787289D01*
X117513202Y-122787289D01*
X117507075Y-122786645D01*
X117424576Y-122794153D01*
X117316251Y-122804011D01*
X117316248Y-122804012D01*
X117310112Y-122804570D01*
X117304206Y-122806308D01*
X117304202Y-122806309D01*
X117213554Y-122832988D01*
X117120381Y-122860410D01*
X117114923Y-122863263D01*
X117114919Y-122863265D01*
X117024147Y-122910720D01*
X116945110Y-122952040D01*
X116790975Y-123075968D01*
X116663846Y-123227474D01*
X116660879Y-123232872D01*
X116660875Y-123232877D01*
X116592937Y-123356457D01*
X116568567Y-123400787D01*
X116508765Y-123589306D01*
X116486719Y-123785851D01*
X116503268Y-123982934D01*
X116557783Y-124173050D01*
X116560602Y-124178535D01*
X116637624Y-124328402D01*
X116648187Y-124348956D01*
X116771035Y-124503953D01*
X116775728Y-124507947D01*
X116775729Y-124507948D01*
X116839357Y-124562099D01*
X116921650Y-124632136D01*
X117094294Y-124728624D01*
X117282392Y-124789740D01*
X117478777Y-124813158D01*
X117484912Y-124812686D01*
X117484914Y-124812686D01*
X117669830Y-124798457D01*
X117669834Y-124798456D01*
X117675972Y-124797984D01*
X117866463Y-124744798D01*
X117871967Y-124742018D01*
X117871969Y-124742017D01*
X118037495Y-124658404D01*
X118037497Y-124658403D01*
X118042996Y-124655625D01*
X118133121Y-124585211D01*
X118199116Y-124559033D01*
X118210695Y-124558500D01*
X129582930Y-124558500D01*
X129601880Y-124559933D01*
X129616115Y-124562099D01*
X129616119Y-124562099D01*
X129623349Y-124563199D01*
X129630641Y-124562606D01*
X129630644Y-124562606D01*
X129676018Y-124558915D01*
X129686233Y-124558500D01*
X129694293Y-124558500D01*
X129707583Y-124556951D01*
X129722507Y-124555211D01*
X129726882Y-124554778D01*
X129792339Y-124549454D01*
X129792342Y-124549453D01*
X129799637Y-124548860D01*
X129806601Y-124546604D01*
X129812560Y-124545413D01*
X129818415Y-124544029D01*
X129825681Y-124543182D01*
X129894327Y-124518265D01*
X129898455Y-124516848D01*
X129960936Y-124496607D01*
X129960938Y-124496606D01*
X129967899Y-124494351D01*
X129974154Y-124490555D01*
X129979628Y-124488049D01*
X129985058Y-124485330D01*
X129991937Y-124482833D01*
X130052976Y-124442814D01*
X130056680Y-124440477D01*
X130119107Y-124402595D01*
X130127484Y-124395197D01*
X130127508Y-124395224D01*
X130130500Y-124392571D01*
X130133733Y-124389868D01*
X130139852Y-124385856D01*
X130193128Y-124329617D01*
X130195506Y-124327175D01*
X131202405Y-123320276D01*
X131264717Y-123286250D01*
X131335532Y-123291315D01*
X131392368Y-123333862D01*
X131417179Y-123400382D01*
X131417495Y-123410538D01*
X131406619Y-124585211D01*
X131401156Y-125175167D01*
X131380524Y-125243099D01*
X131326440Y-125289093D01*
X131275161Y-125300000D01*
X114375553Y-125300000D01*
X114307432Y-125279998D01*
X114260939Y-125226342D01*
X114249554Y-125174448D01*
X114236586Y-121527885D01*
X119472000Y-121527885D01*
X119476475Y-121543124D01*
X119477865Y-121544329D01*
X119485548Y-121546000D01*
X120207885Y-121546000D01*
X120223124Y-121541525D01*
X120224329Y-121540135D01*
X120226000Y-121532452D01*
X120226000Y-121527885D01*
X120734000Y-121527885D01*
X120738475Y-121543124D01*
X120739865Y-121544329D01*
X120747548Y-121546000D01*
X121469885Y-121546000D01*
X121485124Y-121541525D01*
X121486329Y-121540135D01*
X121488000Y-121532452D01*
X121488000Y-121527885D01*
X128112000Y-121527885D01*
X128116475Y-121543124D01*
X128117865Y-121544329D01*
X128125548Y-121546000D01*
X128847885Y-121546000D01*
X128863124Y-121541525D01*
X128864329Y-121540135D01*
X128866000Y-121532452D01*
X128866000Y-121527885D01*
X129374000Y-121527885D01*
X129378475Y-121543124D01*
X129379865Y-121544329D01*
X129387548Y-121546000D01*
X130109885Y-121546000D01*
X130125124Y-121541525D01*
X130126329Y-121540135D01*
X130128000Y-121532452D01*
X130128000Y-121453343D01*
X130127699Y-121447195D01*
X130114188Y-121309397D01*
X130111805Y-121297362D01*
X130058233Y-121119924D01*
X130053559Y-121108584D01*
X129966540Y-120944923D01*
X129959751Y-120934706D01*
X129842603Y-120791067D01*
X129833959Y-120782363D01*
X129691144Y-120664216D01*
X129680973Y-120657356D01*
X129517924Y-120569196D01*
X129506619Y-120564444D01*
X129391308Y-120528750D01*
X129377205Y-120528544D01*
X129374000Y-120535299D01*
X129374000Y-121527885D01*
X128866000Y-121527885D01*
X128866000Y-120542076D01*
X128862027Y-120528545D01*
X128854232Y-120527425D01*
X128746479Y-120559138D01*
X128735111Y-120563731D01*
X128570846Y-120649607D01*
X128560585Y-120656321D01*
X128416127Y-120772468D01*
X128407368Y-120781046D01*
X128288222Y-120923039D01*
X128281292Y-120933159D01*
X128191998Y-121095585D01*
X128187166Y-121106858D01*
X128131120Y-121283538D01*
X128128570Y-121295532D01*
X128112393Y-121439761D01*
X128112000Y-121446785D01*
X128112000Y-121527885D01*
X121488000Y-121527885D01*
X121488000Y-121453343D01*
X121487699Y-121447195D01*
X121474188Y-121309397D01*
X121471805Y-121297362D01*
X121418233Y-121119924D01*
X121413559Y-121108584D01*
X121326540Y-120944923D01*
X121319751Y-120934706D01*
X121202603Y-120791067D01*
X121193959Y-120782363D01*
X121051144Y-120664216D01*
X121040973Y-120657356D01*
X120877924Y-120569196D01*
X120866619Y-120564444D01*
X120751308Y-120528750D01*
X120737205Y-120528544D01*
X120734000Y-120535299D01*
X120734000Y-121527885D01*
X120226000Y-121527885D01*
X120226000Y-120542076D01*
X120222027Y-120528545D01*
X120214232Y-120527425D01*
X120106479Y-120559138D01*
X120095111Y-120563731D01*
X119930846Y-120649607D01*
X119920585Y-120656321D01*
X119776127Y-120772468D01*
X119767368Y-120781046D01*
X119648222Y-120923039D01*
X119641292Y-120933159D01*
X119551998Y-121095585D01*
X119547166Y-121106858D01*
X119491120Y-121283538D01*
X119488570Y-121295532D01*
X119472393Y-121439761D01*
X119472000Y-121446785D01*
X119472000Y-121527885D01*
X114236586Y-121527885D01*
X114140743Y-94576794D01*
X127894629Y-94576794D01*
X127912295Y-94693602D01*
X127921996Y-94757747D01*
X127923580Y-94768224D01*
X127925783Y-94774210D01*
X127925784Y-94774216D01*
X127956510Y-94857726D01*
X127990432Y-94949922D01*
X127993790Y-94955338D01*
X127993792Y-94955342D01*
X128089091Y-95109044D01*
X128089094Y-95109048D01*
X128092454Y-95114467D01*
X128096840Y-95119105D01*
X128214368Y-95243387D01*
X128225479Y-95255137D01*
X128384072Y-95366185D01*
X128561755Y-95443076D01*
X128751271Y-95482667D01*
X128757624Y-95483000D01*
X128899788Y-95483000D01*
X128968074Y-95476064D01*
X129037667Y-95468995D01*
X129037668Y-95468995D01*
X129044016Y-95468350D01*
X129228763Y-95410454D01*
X129398095Y-95316591D01*
X129517751Y-95214034D01*
X129540243Y-95194756D01*
X129540245Y-95194754D01*
X129545095Y-95190597D01*
X129647330Y-95058797D01*
X129659842Y-95042667D01*
X129659844Y-95042664D01*
X129663758Y-95037618D01*
X129749236Y-94863902D01*
X129778515Y-94751502D01*
X129796429Y-94682728D01*
X129798039Y-94676547D01*
X129802563Y-94590224D01*
X129803267Y-94576794D01*
X130891829Y-94576794D01*
X130909495Y-94693602D01*
X130919196Y-94757747D01*
X130920780Y-94768224D01*
X130922983Y-94774210D01*
X130922984Y-94774216D01*
X130953710Y-94857726D01*
X130987632Y-94949922D01*
X130990990Y-94955338D01*
X130990992Y-94955342D01*
X131086291Y-95109044D01*
X131086294Y-95109048D01*
X131089654Y-95114467D01*
X131094040Y-95119105D01*
X131211568Y-95243387D01*
X131222679Y-95255137D01*
X131381272Y-95366185D01*
X131558955Y-95443076D01*
X131748471Y-95482667D01*
X131754824Y-95483000D01*
X131896988Y-95483000D01*
X131965274Y-95476064D01*
X132034867Y-95468995D01*
X132034868Y-95468995D01*
X132041216Y-95468350D01*
X132225963Y-95410454D01*
X132395295Y-95316591D01*
X132514951Y-95214034D01*
X132537443Y-95194756D01*
X132537445Y-95194754D01*
X132542295Y-95190597D01*
X132644530Y-95058797D01*
X132657042Y-95042667D01*
X132657044Y-95042664D01*
X132660958Y-95037618D01*
X132746436Y-94863902D01*
X132775715Y-94751502D01*
X132793629Y-94682728D01*
X132795239Y-94676547D01*
X132799763Y-94590224D01*
X132805037Y-94489588D01*
X132805037Y-94489584D01*
X132805371Y-94483206D01*
X132776420Y-94291776D01*
X132774217Y-94285790D01*
X132774216Y-94285784D01*
X132711770Y-94116064D01*
X132709568Y-94110078D01*
X132706210Y-94104662D01*
X132706208Y-94104658D01*
X132610909Y-93950956D01*
X132610906Y-93950952D01*
X132607546Y-93945533D01*
X132540329Y-93874453D01*
X132478910Y-93809504D01*
X132478909Y-93809503D01*
X132474521Y-93804863D01*
X132315928Y-93693815D01*
X132138245Y-93616924D01*
X131948729Y-93577333D01*
X131942376Y-93577000D01*
X131800212Y-93577000D01*
X131731926Y-93583936D01*
X131662333Y-93591005D01*
X131662332Y-93591005D01*
X131655984Y-93591650D01*
X131471237Y-93649546D01*
X131301905Y-93743409D01*
X131154905Y-93869403D01*
X131036242Y-94022382D01*
X130950764Y-94196098D01*
X130949156Y-94202272D01*
X130949155Y-94202274D01*
X130936015Y-94252720D01*
X130901961Y-94383453D01*
X130901627Y-94389832D01*
X130892187Y-94569970D01*
X130891829Y-94576794D01*
X129803267Y-94576794D01*
X129807837Y-94489588D01*
X129807837Y-94489584D01*
X129808171Y-94483206D01*
X129779220Y-94291776D01*
X129777017Y-94285790D01*
X129777016Y-94285784D01*
X129714570Y-94116064D01*
X129712368Y-94110078D01*
X129709010Y-94104662D01*
X129709008Y-94104658D01*
X129613709Y-93950956D01*
X129613706Y-93950952D01*
X129610346Y-93945533D01*
X129543129Y-93874453D01*
X129481710Y-93809504D01*
X129481709Y-93809503D01*
X129477321Y-93804863D01*
X129318728Y-93693815D01*
X129141045Y-93616924D01*
X128951529Y-93577333D01*
X128945176Y-93577000D01*
X128803012Y-93577000D01*
X128734726Y-93583936D01*
X128665133Y-93591005D01*
X128665132Y-93591005D01*
X128658784Y-93591650D01*
X128474037Y-93649546D01*
X128304705Y-93743409D01*
X128157705Y-93869403D01*
X128039042Y-94022382D01*
X127953564Y-94196098D01*
X127951956Y-94202272D01*
X127951955Y-94202274D01*
X127938815Y-94252720D01*
X127904761Y-94383453D01*
X127904427Y-94389832D01*
X127894987Y-94569970D01*
X127894629Y-94576794D01*
X114140743Y-94576794D01*
X114106292Y-84889343D01*
X118586775Y-84889343D01*
X118603381Y-85058699D01*
X118657094Y-85220167D01*
X118660741Y-85226189D01*
X118660742Y-85226191D01*
X118683115Y-85263132D01*
X118745246Y-85365723D01*
X118863455Y-85488132D01*
X119005846Y-85581310D01*
X119012450Y-85583766D01*
X119012452Y-85583767D01*
X119048844Y-85597301D01*
X119165341Y-85640626D01*
X119334015Y-85663132D01*
X119341026Y-85662494D01*
X119341030Y-85662494D01*
X119496462Y-85648348D01*
X119503483Y-85647709D01*
X119510185Y-85645531D01*
X119510187Y-85645531D01*
X119658623Y-85597301D01*
X119658626Y-85597300D01*
X119665322Y-85595124D01*
X119811490Y-85507990D01*
X119816584Y-85503139D01*
X119816588Y-85503136D01*
X119883833Y-85439099D01*
X119934721Y-85390639D01*
X120018347Y-85264772D01*
X120072703Y-85219102D01*
X120123294Y-85208500D01*
X121056287Y-85208500D01*
X121100203Y-85216401D01*
X121165341Y-85240626D01*
X121334015Y-85263132D01*
X121341026Y-85262494D01*
X121341030Y-85262494D01*
X121496462Y-85248348D01*
X121503483Y-85247709D01*
X121510185Y-85245531D01*
X121510187Y-85245531D01*
X121658623Y-85197301D01*
X121658626Y-85197300D01*
X121665322Y-85195124D01*
X121811490Y-85107990D01*
X121816584Y-85103139D01*
X121816588Y-85103136D01*
X121883833Y-85039099D01*
X121934721Y-84990639D01*
X122028891Y-84848902D01*
X122089319Y-84689825D01*
X122113001Y-84521313D01*
X122113299Y-84500000D01*
X122094331Y-84330892D01*
X122038368Y-84170189D01*
X121948192Y-84025879D01*
X121933586Y-84011170D01*
X121890264Y-83967545D01*
X121828286Y-83905132D01*
X121797643Y-83885685D01*
X121764776Y-83864827D01*
X121684608Y-83813951D01*
X121524300Y-83756868D01*
X121355329Y-83736720D01*
X121348326Y-83737456D01*
X121348325Y-83737456D01*
X121193101Y-83753770D01*
X121193097Y-83753771D01*
X121186093Y-83754507D01*
X121179422Y-83756778D01*
X121097172Y-83784778D01*
X121056567Y-83791500D01*
X119778911Y-83791500D01*
X119770342Y-83791208D01*
X119720223Y-83787791D01*
X119720219Y-83787791D01*
X119712647Y-83787275D01*
X119649685Y-83798264D01*
X119643195Y-83799221D01*
X119579758Y-83806898D01*
X119572649Y-83809584D01*
X119570078Y-83810216D01*
X119553772Y-83814676D01*
X119551204Y-83815451D01*
X119543716Y-83816758D01*
X119508722Y-83832119D01*
X119485212Y-83842439D01*
X119479105Y-83844931D01*
X119426452Y-83864827D01*
X119419344Y-83867513D01*
X119413083Y-83871816D01*
X119410717Y-83873053D01*
X119395937Y-83881280D01*
X119393652Y-83882631D01*
X119386695Y-83885685D01*
X119380675Y-83890305D01*
X119380669Y-83890308D01*
X119349542Y-83914194D01*
X119335998Y-83924587D01*
X119330668Y-83928459D01*
X119284280Y-83960339D01*
X119284275Y-83960344D01*
X119278019Y-83964643D01*
X119272968Y-83970313D01*
X119272966Y-83970314D01*
X119236565Y-84011170D01*
X119231584Y-84016446D01*
X119064756Y-84183274D01*
X119030156Y-84207592D01*
X119025003Y-84209346D01*
X119019007Y-84213035D01*
X118886065Y-84294821D01*
X118886063Y-84294823D01*
X118880066Y-84298512D01*
X118758486Y-84417573D01*
X118754675Y-84423487D01*
X118754673Y-84423489D01*
X118670121Y-84554687D01*
X118666304Y-84560610D01*
X118608103Y-84720516D01*
X118586775Y-84889343D01*
X114106292Y-84889343D01*
X114063382Y-72823134D01*
X125888001Y-72823134D01*
X125894756Y-72885316D01*
X125945886Y-73021705D01*
X126033240Y-73138261D01*
X126149796Y-73225615D01*
X126286185Y-73276745D01*
X126348367Y-73283500D01*
X127594635Y-73283500D01*
X127656817Y-73276745D01*
X127793206Y-73225615D01*
X127909762Y-73138261D01*
X127997116Y-73021705D01*
X128000292Y-73013234D01*
X128000331Y-73013182D01*
X128004578Y-73005425D01*
X128005698Y-73006038D01*
X128042933Y-72956469D01*
X128109495Y-72931769D01*
X128178844Y-72946976D01*
X128206194Y-72967208D01*
X128286712Y-73045645D01*
X128452286Y-73156278D01*
X128457589Y-73158556D01*
X128457592Y-73158558D01*
X128621008Y-73228767D01*
X128635248Y-73234885D01*
X128706778Y-73251071D01*
X128823834Y-73277558D01*
X128823839Y-73277559D01*
X128829471Y-73278833D01*
X128835242Y-73279060D01*
X128835244Y-73279060D01*
X128895471Y-73281426D01*
X129028451Y-73286651D01*
X129144008Y-73269896D01*
X129219802Y-73258907D01*
X129219806Y-73258906D01*
X129225524Y-73258077D01*
X129230996Y-73256219D01*
X129230998Y-73256219D01*
X129408621Y-73195923D01*
X129414089Y-73194067D01*
X129419950Y-73190785D01*
X129582793Y-73099588D01*
X129587832Y-73096766D01*
X129645440Y-73048855D01*
X129736503Y-72973119D01*
X129740935Y-72969433D01*
X129868268Y-72816330D01*
X129870393Y-72812535D01*
X129925097Y-72768015D01*
X129995649Y-72760084D01*
X130059289Y-72791557D01*
X130076774Y-72811469D01*
X130083345Y-72820766D01*
X130144071Y-72906692D01*
X130286711Y-73045645D01*
X130452285Y-73156278D01*
X130457588Y-73158556D01*
X130457591Y-73158558D01*
X130621007Y-73228767D01*
X130635247Y-73234885D01*
X130706777Y-73251071D01*
X130823833Y-73277558D01*
X130823838Y-73277559D01*
X130829470Y-73278833D01*
X130835241Y-73279060D01*
X130835243Y-73279060D01*
X130895470Y-73281426D01*
X131028450Y-73286651D01*
X131144007Y-73269896D01*
X131219801Y-73258907D01*
X131219805Y-73258906D01*
X131225523Y-73258077D01*
X131230995Y-73256219D01*
X131230997Y-73256219D01*
X131408620Y-73195923D01*
X131414088Y-73194067D01*
X131419949Y-73190785D01*
X131540505Y-73123270D01*
X132412593Y-73123270D01*
X132422473Y-73135757D01*
X132447724Y-73152629D01*
X132457832Y-73158117D01*
X132630100Y-73232129D01*
X132641033Y-73235681D01*
X132823900Y-73277060D01*
X132835309Y-73278562D01*
X133022657Y-73285922D01*
X133034139Y-73285320D01*
X133219693Y-73258417D01*
X133230876Y-73255732D01*
X133408413Y-73195467D01*
X133418928Y-73190785D01*
X133521164Y-73133530D01*
X133531028Y-73123452D01*
X133528073Y-73115781D01*
X132984314Y-72572022D01*
X132970370Y-72564408D01*
X132968537Y-72564539D01*
X132961922Y-72568790D01*
X132418789Y-73111923D01*
X132412593Y-73123270D01*
X131540505Y-73123270D01*
X131582792Y-73099588D01*
X131587831Y-73096766D01*
X131645439Y-73048855D01*
X131736502Y-72973119D01*
X131740934Y-72969433D01*
X131759611Y-72946976D01*
X131864578Y-72820766D01*
X131864580Y-72820764D01*
X131868267Y-72816330D01*
X131872344Y-72809050D01*
X131873215Y-72808198D01*
X131874358Y-72806534D01*
X131874685Y-72806759D01*
X131923081Y-72759388D01*
X131992612Y-72745041D01*
X132030416Y-72759967D01*
X132043760Y-72761290D01*
X132059118Y-72753174D01*
X132599480Y-72212812D01*
X132605858Y-72201132D01*
X133335910Y-72201132D01*
X133336041Y-72202965D01*
X133340292Y-72209580D01*
X133883368Y-72752656D01*
X133895748Y-72759416D01*
X133902328Y-72754490D01*
X133962287Y-72647426D01*
X133966969Y-72636911D01*
X134027234Y-72459374D01*
X134029919Y-72448191D01*
X134057118Y-72260597D01*
X134057748Y-72253214D01*
X134059045Y-72203704D01*
X134058802Y-72196305D01*
X134041458Y-72007547D01*
X134039361Y-71996233D01*
X133988469Y-71815784D01*
X133984347Y-71805045D01*
X133906924Y-71648047D01*
X133897377Y-71637670D01*
X133890944Y-71639768D01*
X133343524Y-72187188D01*
X133335910Y-72201132D01*
X132605858Y-72201132D01*
X132607094Y-72198868D01*
X132606963Y-72197035D01*
X132602712Y-72190420D01*
X132058556Y-71646264D01*
X132044612Y-71638650D01*
X132036134Y-71639256D01*
X131990292Y-71656356D01*
X131920917Y-71641266D01*
X131880342Y-71606066D01*
X131783601Y-71476515D01*
X131780148Y-71471891D01*
X131633920Y-71336719D01*
X131629037Y-71333638D01*
X131539137Y-71276915D01*
X132412529Y-71276915D01*
X132416015Y-71285303D01*
X132958690Y-71827978D01*
X132972634Y-71835592D01*
X132974467Y-71835461D01*
X132981082Y-71831210D01*
X133523657Y-71288635D01*
X133530417Y-71276255D01*
X133524387Y-71268200D01*
X133470159Y-71233985D01*
X133459920Y-71228768D01*
X133285776Y-71159291D01*
X133274738Y-71156021D01*
X133090858Y-71119445D01*
X133079412Y-71118242D01*
X132891949Y-71115789D01*
X132880469Y-71116692D01*
X132695697Y-71148441D01*
X132684577Y-71151421D01*
X132508677Y-71216314D01*
X132498299Y-71221264D01*
X132422127Y-71266582D01*
X132412529Y-71276915D01*
X131539137Y-71276915D01*
X131470387Y-71233537D01*
X131465507Y-71230458D01*
X131280550Y-71156668D01*
X131274890Y-71155542D01*
X131274886Y-71155541D01*
X131090911Y-71118946D01*
X131090906Y-71118946D01*
X131085243Y-71117819D01*
X131079468Y-71117743D01*
X131079464Y-71117743D01*
X130981891Y-71116466D01*
X130886126Y-71115212D01*
X130689869Y-71148936D01*
X130503044Y-71217859D01*
X130498083Y-71220811D01*
X130498082Y-71220811D01*
X130418429Y-71268200D01*
X130331907Y-71319675D01*
X130182191Y-71450972D01*
X130178619Y-71455503D01*
X130069359Y-71594098D01*
X130011478Y-71635211D01*
X129940557Y-71638505D01*
X129879115Y-71602933D01*
X129869458Y-71591489D01*
X129780149Y-71471891D01*
X129633921Y-71336719D01*
X129629038Y-71333638D01*
X129470388Y-71233537D01*
X129465508Y-71230458D01*
X129280551Y-71156668D01*
X129274891Y-71155542D01*
X129274887Y-71155541D01*
X129090912Y-71118946D01*
X129090907Y-71118946D01*
X129085244Y-71117819D01*
X129079469Y-71117743D01*
X129079465Y-71117743D01*
X128981892Y-71116466D01*
X128886127Y-71115212D01*
X128689870Y-71148936D01*
X128503045Y-71217859D01*
X128498084Y-71220811D01*
X128498083Y-71220811D01*
X128418430Y-71268200D01*
X128331908Y-71319675D01*
X128200475Y-71434939D01*
X128136073Y-71464814D01*
X128065741Y-71455128D01*
X128011809Y-71408955D01*
X128004109Y-71393718D01*
X128000268Y-71386702D01*
X127997116Y-71378295D01*
X127909762Y-71261739D01*
X127793206Y-71174385D01*
X127656817Y-71123255D01*
X127594635Y-71116500D01*
X126348367Y-71116500D01*
X126286185Y-71123255D01*
X126149796Y-71174385D01*
X126033240Y-71261739D01*
X125945886Y-71378295D01*
X125894756Y-71514684D01*
X125888001Y-71576866D01*
X125888001Y-72823134D01*
X114063382Y-72823134D01*
X114002258Y-55634948D01*
X114022017Y-55566757D01*
X114075507Y-55520073D01*
X114128257Y-55508500D01*
X116565237Y-55508500D01*
X116633358Y-55528502D01*
G37*
G04 #@! TD.AperFunction*
G04 #@! TA.AperFunction,Conductor*
G36*
X120814216Y-105854068D02*
G01*
X120855846Y-105881310D01*
X120862450Y-105883766D01*
X120862452Y-105883767D01*
X120935594Y-105910968D01*
X121015341Y-105940626D01*
X121184015Y-105963132D01*
X121191026Y-105962494D01*
X121191030Y-105962494D01*
X121243077Y-105957757D01*
X121279081Y-105954480D01*
X121348733Y-105968225D01*
X121399898Y-106017446D01*
X121416500Y-106079961D01*
X121416500Y-107185405D01*
X121396498Y-107253526D01*
X121379595Y-107274500D01*
X120607747Y-108046348D01*
X120599461Y-108053888D01*
X120592982Y-108058000D01*
X120587557Y-108063777D01*
X120546357Y-108107651D01*
X120543602Y-108110493D01*
X120523865Y-108130230D01*
X120521385Y-108133427D01*
X120513682Y-108142447D01*
X120483414Y-108174679D01*
X120479595Y-108181625D01*
X120479593Y-108181628D01*
X120473652Y-108192434D01*
X120462801Y-108208953D01*
X120450386Y-108224959D01*
X120447241Y-108232228D01*
X120447238Y-108232232D01*
X120432826Y-108265537D01*
X120427609Y-108276187D01*
X120406305Y-108314940D01*
X120404334Y-108322615D01*
X120404334Y-108322616D01*
X120401267Y-108334562D01*
X120394863Y-108353266D01*
X120393674Y-108356015D01*
X120386819Y-108371855D01*
X120385580Y-108379678D01*
X120385577Y-108379688D01*
X120379901Y-108415524D01*
X120377495Y-108427144D01*
X120370688Y-108453658D01*
X120366500Y-108469970D01*
X120366500Y-108490224D01*
X120364949Y-108509934D01*
X120361780Y-108529943D01*
X120362526Y-108537835D01*
X120365941Y-108573961D01*
X120366500Y-108585819D01*
X120366500Y-109171233D01*
X120365973Y-109182416D01*
X120364298Y-109189909D01*
X120364547Y-109197835D01*
X120364547Y-109197836D01*
X120366438Y-109257986D01*
X120366500Y-109261945D01*
X120366500Y-109289856D01*
X120366997Y-109293790D01*
X120366997Y-109293791D01*
X120367005Y-109293856D01*
X120367938Y-109305693D01*
X120369327Y-109349889D01*
X120374978Y-109369339D01*
X120378987Y-109388700D01*
X120381526Y-109408797D01*
X120384445Y-109416168D01*
X120384445Y-109416170D01*
X120397804Y-109449912D01*
X120401649Y-109461142D01*
X120413982Y-109503593D01*
X120418015Y-109510412D01*
X120418017Y-109510417D01*
X120424293Y-109521028D01*
X120432988Y-109538776D01*
X120440448Y-109557617D01*
X120445110Y-109564033D01*
X120445110Y-109564034D01*
X120466436Y-109593387D01*
X120472952Y-109603307D01*
X120495458Y-109641362D01*
X120509779Y-109655683D01*
X120522619Y-109670716D01*
X120534528Y-109687107D01*
X120560204Y-109708348D01*
X120568605Y-109715298D01*
X120577384Y-109723288D01*
X122271348Y-111417253D01*
X122278888Y-111425539D01*
X122283000Y-111432018D01*
X122288777Y-111437443D01*
X122332651Y-111478643D01*
X122335493Y-111481398D01*
X122355230Y-111501135D01*
X122358427Y-111503615D01*
X122367447Y-111511318D01*
X122399679Y-111541586D01*
X122406625Y-111545405D01*
X122406628Y-111545407D01*
X122417434Y-111551348D01*
X122433953Y-111562199D01*
X122449959Y-111574614D01*
X122457228Y-111577759D01*
X122457232Y-111577762D01*
X122490537Y-111592174D01*
X122501187Y-111597391D01*
X122539940Y-111618695D01*
X122547615Y-111620666D01*
X122547616Y-111620666D01*
X122559562Y-111623733D01*
X122578267Y-111630137D01*
X122596855Y-111638181D01*
X122604678Y-111639420D01*
X122604688Y-111639423D01*
X122640524Y-111645099D01*
X122652144Y-111647505D01*
X122687289Y-111656528D01*
X122694970Y-111658500D01*
X122715224Y-111658500D01*
X122734934Y-111660051D01*
X122754943Y-111663220D01*
X122762835Y-111662474D01*
X122798961Y-111659059D01*
X122810819Y-111658500D01*
X130150406Y-111658500D01*
X130218527Y-111678502D01*
X130239501Y-111695405D01*
X130267715Y-111723619D01*
X130301741Y-111785931D01*
X130296676Y-111856746D01*
X130254129Y-111913582D01*
X130190040Y-111938195D01*
X130016251Y-111954011D01*
X130016248Y-111954012D01*
X130010112Y-111954570D01*
X130004206Y-111956308D01*
X130004202Y-111956309D01*
X129899076Y-111987249D01*
X129820381Y-112010410D01*
X129814923Y-112013263D01*
X129814919Y-112013265D01*
X129724147Y-112060720D01*
X129645110Y-112102040D01*
X129490975Y-112225968D01*
X129363846Y-112377474D01*
X129360879Y-112382872D01*
X129360875Y-112382877D01*
X129290990Y-112510000D01*
X129268567Y-112550787D01*
X129208765Y-112739306D01*
X129208079Y-112745425D01*
X129197354Y-112841035D01*
X129169883Y-112906502D01*
X129161234Y-112916085D01*
X126922724Y-115154595D01*
X126860412Y-115188621D01*
X126833629Y-115191500D01*
X126775003Y-115191500D01*
X126706882Y-115171498D01*
X126660389Y-115117842D01*
X126649788Y-115079544D01*
X126645116Y-115037891D01*
X126644331Y-115030892D01*
X126588368Y-114870189D01*
X126584637Y-114864218D01*
X126584633Y-114864210D01*
X126552647Y-114813024D01*
X126533500Y-114746253D01*
X126533500Y-114735144D01*
X126532994Y-114731138D01*
X126532061Y-114719292D01*
X126531868Y-114713132D01*
X126530673Y-114675110D01*
X126525022Y-114655658D01*
X126521014Y-114636306D01*
X126519468Y-114624068D01*
X126519467Y-114624066D01*
X126518474Y-114616203D01*
X126502194Y-114575086D01*
X126498359Y-114563885D01*
X126486018Y-114521406D01*
X126481985Y-114514587D01*
X126481983Y-114514582D01*
X126475707Y-114503971D01*
X126467010Y-114486221D01*
X126459552Y-114467383D01*
X126433571Y-114431623D01*
X126427053Y-114421701D01*
X126408578Y-114390460D01*
X126408574Y-114390455D01*
X126404542Y-114383637D01*
X126390218Y-114369313D01*
X126377376Y-114354278D01*
X126371374Y-114346017D01*
X126365472Y-114337893D01*
X126331406Y-114309711D01*
X126322627Y-114301722D01*
X125853652Y-113832747D01*
X125846112Y-113824461D01*
X125842000Y-113817982D01*
X125792348Y-113771356D01*
X125789507Y-113768602D01*
X125769770Y-113748865D01*
X125766573Y-113746385D01*
X125757551Y-113738680D01*
X125731100Y-113713841D01*
X125725321Y-113708414D01*
X125718375Y-113704595D01*
X125718372Y-113704593D01*
X125707566Y-113698652D01*
X125691047Y-113687801D01*
X125690583Y-113687441D01*
X125675041Y-113675386D01*
X125667772Y-113672241D01*
X125667768Y-113672238D01*
X125634463Y-113657826D01*
X125623813Y-113652609D01*
X125585060Y-113631305D01*
X125577026Y-113629242D01*
X125565438Y-113626267D01*
X125546734Y-113619863D01*
X125535420Y-113614967D01*
X125535419Y-113614967D01*
X125528145Y-113611819D01*
X125520322Y-113610580D01*
X125520312Y-113610577D01*
X125484476Y-113604901D01*
X125472856Y-113602495D01*
X125430031Y-113591500D01*
X125430573Y-113589389D01*
X125392465Y-113575668D01*
X125372541Y-113563024D01*
X125334608Y-113538951D01*
X125174300Y-113481868D01*
X125005329Y-113461720D01*
X124998326Y-113462456D01*
X124998325Y-113462456D01*
X124843101Y-113478770D01*
X124843097Y-113478771D01*
X124836093Y-113479507D01*
X124829422Y-113481778D01*
X124681673Y-113532075D01*
X124681670Y-113532076D01*
X124675003Y-113534346D01*
X124669005Y-113538036D01*
X124669003Y-113538037D01*
X124536065Y-113619821D01*
X124536063Y-113619823D01*
X124530066Y-113623512D01*
X124473926Y-113678489D01*
X124447270Y-113704593D01*
X124408486Y-113742573D01*
X124404675Y-113748487D01*
X124404673Y-113748489D01*
X124363384Y-113812557D01*
X124316304Y-113885610D01*
X124313208Y-113894118D01*
X124308460Y-113907162D01*
X124266366Y-113964333D01*
X124193466Y-113990021D01*
X124145280Y-113991324D01*
X124140478Y-113991454D01*
X124137072Y-113991500D01*
X123952905Y-113991500D01*
X123937987Y-113990614D01*
X123912323Y-113987554D01*
X123905329Y-113986720D01*
X123898326Y-113987456D01*
X123898325Y-113987456D01*
X123863368Y-113991130D01*
X123858834Y-113991500D01*
X123855707Y-113991500D01*
X123835507Y-113993855D01*
X123818541Y-113995833D01*
X123817120Y-113995991D01*
X123789032Y-113998943D01*
X123736093Y-114004507D01*
X123732257Y-114005813D01*
X123731592Y-114005970D01*
X123724319Y-114006818D01*
X123650220Y-114033716D01*
X123647967Y-114034508D01*
X123617733Y-114044800D01*
X123581676Y-114057074D01*
X123581673Y-114057075D01*
X123575003Y-114059346D01*
X123570032Y-114062404D01*
X123566700Y-114063789D01*
X123564939Y-114064671D01*
X123558063Y-114067167D01*
X123551946Y-114071178D01*
X123551943Y-114071179D01*
X123495251Y-114108348D01*
X123492189Y-114110293D01*
X123436068Y-114144819D01*
X123436065Y-114144822D01*
X123430066Y-114148512D01*
X123425032Y-114153442D01*
X123421641Y-114156091D01*
X123417859Y-114158801D01*
X123416267Y-114160132D01*
X123410148Y-114164144D01*
X123405114Y-114169458D01*
X123361027Y-114215997D01*
X123357712Y-114219367D01*
X123321739Y-114254595D01*
X123308486Y-114267573D01*
X123304674Y-114273489D01*
X123300217Y-114278953D01*
X123300009Y-114278783D01*
X123296925Y-114282714D01*
X123293545Y-114287232D01*
X123288510Y-114292547D01*
X123284836Y-114298873D01*
X123254529Y-114351049D01*
X123251505Y-114355989D01*
X123216304Y-114410610D01*
X123213895Y-114417229D01*
X123213163Y-114418703D01*
X123204592Y-114437023D01*
X123199674Y-114445490D01*
X123197553Y-114452492D01*
X123197549Y-114452502D01*
X123181170Y-114506582D01*
X123178981Y-114513153D01*
X123160513Y-114563892D01*
X123160511Y-114563900D01*
X123158103Y-114570516D01*
X123156785Y-114580950D01*
X123152371Y-114601671D01*
X123150526Y-114607762D01*
X123150525Y-114607766D01*
X123148405Y-114614767D01*
X123147952Y-114622073D01*
X123144689Y-114674659D01*
X123143940Y-114682630D01*
X123136775Y-114739343D01*
X123138181Y-114753681D01*
X123138540Y-114773774D01*
X123137453Y-114791298D01*
X123138693Y-114798514D01*
X123138693Y-114798516D01*
X123146965Y-114846654D01*
X123148184Y-114855697D01*
X123152693Y-114901688D01*
X123152694Y-114901693D01*
X123153381Y-114908699D01*
X123155604Y-114915381D01*
X123155605Y-114915387D01*
X123159155Y-114926058D01*
X123163776Y-114944489D01*
X123167406Y-114965614D01*
X123170271Y-114972348D01*
X123170272Y-114972350D01*
X123187892Y-115013758D01*
X123191511Y-115023322D01*
X123204871Y-115063486D01*
X123204873Y-115063490D01*
X123207094Y-115070167D01*
X123218589Y-115089148D01*
X123226744Y-115105067D01*
X123236657Y-115128364D01*
X123240996Y-115134260D01*
X123265390Y-115167408D01*
X123271684Y-115176818D01*
X123295246Y-115215723D01*
X123300143Y-115220794D01*
X123313349Y-115234469D01*
X123324195Y-115247314D01*
X123337154Y-115264924D01*
X123337156Y-115264927D01*
X123341492Y-115270818D01*
X123375510Y-115299718D01*
X123384561Y-115308212D01*
X123408559Y-115333063D01*
X123408563Y-115333067D01*
X123413455Y-115338132D01*
X123419346Y-115341987D01*
X123438520Y-115354535D01*
X123451099Y-115363937D01*
X123476285Y-115385333D01*
X123482805Y-115388662D01*
X123512590Y-115403871D01*
X123524284Y-115410656D01*
X123555846Y-115431310D01*
X123587563Y-115443106D01*
X123600928Y-115448980D01*
X123633808Y-115465769D01*
X123666979Y-115473886D01*
X123669656Y-115474541D01*
X123683626Y-115478832D01*
X123708736Y-115488170D01*
X123708739Y-115488171D01*
X123715341Y-115490626D01*
X123722324Y-115491558D01*
X123722325Y-115491558D01*
X123731943Y-115492841D01*
X123752734Y-115495616D01*
X123766005Y-115498117D01*
X123805610Y-115507808D01*
X123805611Y-115507808D01*
X123805261Y-115509240D01*
X123863267Y-115536303D01*
X123869078Y-115541759D01*
X124766230Y-116438911D01*
X124778616Y-116453323D01*
X124787149Y-116464918D01*
X124787154Y-116464923D01*
X124791492Y-116470818D01*
X124797070Y-116475557D01*
X124797073Y-116475560D01*
X124831768Y-116505035D01*
X124839284Y-116511965D01*
X124844979Y-116517660D01*
X124847861Y-116519940D01*
X124867251Y-116535281D01*
X124870655Y-116538072D01*
X124902872Y-116565442D01*
X124926285Y-116585333D01*
X124932801Y-116588661D01*
X124937850Y-116592028D01*
X124942979Y-116595195D01*
X124948716Y-116599734D01*
X125014875Y-116630655D01*
X125018769Y-116632558D01*
X125083808Y-116665769D01*
X125090917Y-116667508D01*
X125096551Y-116669604D01*
X125102321Y-116671523D01*
X125108950Y-116674622D01*
X125116113Y-116676112D01*
X125116116Y-116676113D01*
X125152083Y-116683594D01*
X125180435Y-116689491D01*
X125184701Y-116690457D01*
X125255610Y-116707808D01*
X125261212Y-116708156D01*
X125261215Y-116708156D01*
X125266764Y-116708500D01*
X125266762Y-116708535D01*
X125270734Y-116708775D01*
X125274955Y-116709152D01*
X125282115Y-116710641D01*
X125359542Y-116708546D01*
X125362950Y-116708500D01*
X127132930Y-116708500D01*
X127151880Y-116709933D01*
X127166115Y-116712099D01*
X127166119Y-116712099D01*
X127173349Y-116713199D01*
X127180641Y-116712606D01*
X127180644Y-116712606D01*
X127226018Y-116708915D01*
X127236233Y-116708500D01*
X127244293Y-116708500D01*
X127261680Y-116706473D01*
X127272507Y-116705211D01*
X127276882Y-116704778D01*
X127342339Y-116699454D01*
X127342342Y-116699453D01*
X127349637Y-116698860D01*
X127356601Y-116696604D01*
X127362560Y-116695413D01*
X127368415Y-116694029D01*
X127375681Y-116693182D01*
X127444327Y-116668265D01*
X127448455Y-116666848D01*
X127510936Y-116646607D01*
X127510938Y-116646606D01*
X127517899Y-116644351D01*
X127524154Y-116640555D01*
X127529628Y-116638049D01*
X127535058Y-116635330D01*
X127541937Y-116632833D01*
X127570737Y-116613951D01*
X127602976Y-116592814D01*
X127606680Y-116590477D01*
X127669107Y-116552595D01*
X127677484Y-116545197D01*
X127677508Y-116545224D01*
X127680500Y-116542571D01*
X127683733Y-116539868D01*
X127689852Y-116535856D01*
X127743128Y-116479617D01*
X127745506Y-116477175D01*
X130134358Y-114088323D01*
X130196670Y-114054297D01*
X130267485Y-114059362D01*
X130324321Y-114101909D01*
X130343008Y-114137640D01*
X130387094Y-114270167D01*
X130390741Y-114276189D01*
X130390742Y-114276191D01*
X130451601Y-114376680D01*
X130475246Y-114415723D01*
X130593455Y-114538132D01*
X130642943Y-114570516D01*
X130710566Y-114614767D01*
X130735846Y-114631310D01*
X130742450Y-114633766D01*
X130742452Y-114633767D01*
X130775714Y-114646137D01*
X130895341Y-114690626D01*
X131064015Y-114713132D01*
X131071026Y-114712494D01*
X131071030Y-114712494D01*
X131226462Y-114698348D01*
X131233483Y-114697709D01*
X131240185Y-114695531D01*
X131240187Y-114695531D01*
X131388623Y-114647301D01*
X131388626Y-114647300D01*
X131395322Y-114645124D01*
X131541490Y-114557990D01*
X131546584Y-114553139D01*
X131546588Y-114553136D01*
X131613833Y-114489099D01*
X131664721Y-114440639D01*
X131677304Y-114421701D01*
X131722580Y-114353554D01*
X131758891Y-114298902D01*
X131819319Y-114139825D01*
X131843001Y-113971313D01*
X131843299Y-113950000D01*
X131824331Y-113780892D01*
X131814155Y-113751669D01*
X131791851Y-113687624D01*
X131768368Y-113620189D01*
X131764637Y-113614218D01*
X131764633Y-113614210D01*
X131732647Y-113563024D01*
X131713500Y-113496253D01*
X131713500Y-111718763D01*
X131714027Y-111707579D01*
X131715701Y-111700091D01*
X131715247Y-111685657D01*
X131733098Y-111616942D01*
X131785266Y-111568785D01*
X131802249Y-111561864D01*
X131908623Y-111527301D01*
X131908626Y-111527300D01*
X131915322Y-111525124D01*
X132061490Y-111437990D01*
X132066584Y-111433139D01*
X132066588Y-111433136D01*
X132153860Y-111350027D01*
X132184721Y-111320639D01*
X132197528Y-111301364D01*
X132274990Y-111184773D01*
X132278891Y-111178902D01*
X132339319Y-111019825D01*
X132363001Y-110851313D01*
X132363299Y-110830000D01*
X132344331Y-110660892D01*
X132288368Y-110500189D01*
X132264252Y-110461595D01*
X132241068Y-110424494D01*
X132198192Y-110355879D01*
X132184451Y-110342041D01*
X132126633Y-110283818D01*
X132078286Y-110235132D01*
X132072143Y-110231233D01*
X132023406Y-110200304D01*
X131934608Y-110143951D01*
X131774300Y-110086868D01*
X131774602Y-110086020D01*
X131730318Y-110063163D01*
X131729772Y-110063867D01*
X131729770Y-110063865D01*
X131726573Y-110061385D01*
X131717551Y-110053680D01*
X131699352Y-110036590D01*
X131685321Y-110023414D01*
X131678375Y-110019595D01*
X131678372Y-110019593D01*
X131667566Y-110013652D01*
X131651047Y-110002801D01*
X131650583Y-110002441D01*
X131635041Y-109990386D01*
X131627772Y-109987241D01*
X131627768Y-109987238D01*
X131594463Y-109972826D01*
X131583813Y-109967609D01*
X131545060Y-109946305D01*
X131525437Y-109941267D01*
X131506734Y-109934863D01*
X131495420Y-109929967D01*
X131495419Y-109929967D01*
X131488145Y-109926819D01*
X131480322Y-109925580D01*
X131480312Y-109925577D01*
X131444476Y-109919901D01*
X131432856Y-109917495D01*
X131397711Y-109908472D01*
X131397710Y-109908472D01*
X131390030Y-109906500D01*
X131369776Y-109906500D01*
X131350065Y-109904949D01*
X131337886Y-109903020D01*
X131330057Y-109901780D01*
X131322165Y-109902526D01*
X131286039Y-109905941D01*
X131274181Y-109906500D01*
X129309500Y-109906500D01*
X129241379Y-109886498D01*
X129194886Y-109832842D01*
X129183500Y-109780500D01*
X129183500Y-109425262D01*
X129204551Y-109355536D01*
X129228891Y-109318902D01*
X129289319Y-109159825D01*
X129313001Y-108991313D01*
X129313141Y-108981313D01*
X129313244Y-108973961D01*
X129313244Y-108973955D01*
X129313299Y-108970000D01*
X129294331Y-108800892D01*
X129292013Y-108794234D01*
X129290464Y-108787419D01*
X129294875Y-108716560D01*
X129336895Y-108659333D01*
X129403183Y-108633909D01*
X129413332Y-108633500D01*
X131785406Y-108633500D01*
X131853527Y-108653502D01*
X131874501Y-108670405D01*
X133179595Y-109975500D01*
X133213621Y-110037812D01*
X133216500Y-110064595D01*
X133216500Y-117421233D01*
X133215973Y-117432416D01*
X133214298Y-117439909D01*
X133214547Y-117447835D01*
X133214547Y-117447836D01*
X133216438Y-117507986D01*
X133216500Y-117511945D01*
X133216500Y-117539856D01*
X133216997Y-117543790D01*
X133216997Y-117543791D01*
X133217005Y-117543856D01*
X133217938Y-117555693D01*
X133219327Y-117599889D01*
X133224034Y-117616090D01*
X133224978Y-117619339D01*
X133228987Y-117638700D01*
X133231526Y-117658797D01*
X133234445Y-117666168D01*
X133234445Y-117666170D01*
X133247804Y-117699912D01*
X133251649Y-117711142D01*
X133263982Y-117753593D01*
X133268015Y-117760412D01*
X133268017Y-117760417D01*
X133274293Y-117771028D01*
X133282988Y-117788776D01*
X133290448Y-117807617D01*
X133295110Y-117814033D01*
X133295110Y-117814034D01*
X133316436Y-117843387D01*
X133322952Y-117853307D01*
X133338659Y-117879865D01*
X133345458Y-117891362D01*
X133359779Y-117905683D01*
X133372619Y-117920716D01*
X133384528Y-117937107D01*
X133404901Y-117953961D01*
X133418593Y-117965288D01*
X133427374Y-117973278D01*
X133846353Y-118392258D01*
X133853887Y-118400537D01*
X133858000Y-118407018D01*
X133905964Y-118452059D01*
X133907651Y-118453643D01*
X133910493Y-118456398D01*
X133930230Y-118476135D01*
X133933427Y-118478615D01*
X133942447Y-118486318D01*
X133974679Y-118516586D01*
X133981625Y-118520405D01*
X133981628Y-118520407D01*
X133992434Y-118526348D01*
X134008953Y-118537199D01*
X134024959Y-118549614D01*
X134032228Y-118552759D01*
X134032232Y-118552762D01*
X134065537Y-118567174D01*
X134076187Y-118572391D01*
X134114940Y-118593695D01*
X134122615Y-118595666D01*
X134122616Y-118595666D01*
X134134562Y-118598733D01*
X134153267Y-118605137D01*
X134171855Y-118613181D01*
X134179678Y-118614420D01*
X134179688Y-118614423D01*
X134215524Y-118620099D01*
X134227144Y-118622505D01*
X134258959Y-118630673D01*
X134269970Y-118633500D01*
X134290224Y-118633500D01*
X134309934Y-118635051D01*
X134329943Y-118638220D01*
X134337835Y-118637474D01*
X134356580Y-118635702D01*
X134373962Y-118634059D01*
X134385819Y-118633500D01*
X147371233Y-118633500D01*
X147382416Y-118634027D01*
X147389909Y-118635702D01*
X147397835Y-118635453D01*
X147397836Y-118635453D01*
X147457986Y-118633562D01*
X147461945Y-118633500D01*
X147489856Y-118633500D01*
X147493791Y-118633003D01*
X147493856Y-118632995D01*
X147505693Y-118632062D01*
X147537951Y-118631048D01*
X147541970Y-118630922D01*
X147549889Y-118630673D01*
X147569343Y-118625021D01*
X147588700Y-118621013D01*
X147600930Y-118619468D01*
X147600931Y-118619468D01*
X147608797Y-118618474D01*
X147616168Y-118615555D01*
X147616170Y-118615555D01*
X147649912Y-118602196D01*
X147661142Y-118598351D01*
X147695983Y-118588229D01*
X147695984Y-118588229D01*
X147703593Y-118586018D01*
X147710412Y-118581985D01*
X147710417Y-118581983D01*
X147721028Y-118575707D01*
X147738776Y-118567012D01*
X147757617Y-118559552D01*
X147793387Y-118533564D01*
X147803307Y-118527048D01*
X147834535Y-118508580D01*
X147834538Y-118508578D01*
X147841362Y-118504542D01*
X147855683Y-118490221D01*
X147870717Y-118477380D01*
X147880694Y-118470131D01*
X147887107Y-118465472D01*
X147915298Y-118431395D01*
X147923288Y-118422616D01*
X148274259Y-118071645D01*
X148324417Y-118040907D01*
X148347691Y-118033345D01*
X148465322Y-117995124D01*
X148611490Y-117907990D01*
X148616584Y-117903139D01*
X148616588Y-117903136D01*
X148707962Y-117816121D01*
X148734721Y-117790639D01*
X148738718Y-117784624D01*
X148812058Y-117674238D01*
X148828891Y-117648902D01*
X148889319Y-117489825D01*
X148913001Y-117321313D01*
X148913299Y-117300000D01*
X148894331Y-117130892D01*
X148886789Y-117109233D01*
X148854737Y-117017195D01*
X148838368Y-116970189D01*
X148748192Y-116825879D01*
X148712058Y-116789491D01*
X148628286Y-116705132D01*
X148629997Y-116703433D01*
X148595890Y-116654438D01*
X148593269Y-116583489D01*
X148629421Y-116522387D01*
X148692869Y-116490530D01*
X148715393Y-116488500D01*
X153231088Y-116488500D01*
X153239658Y-116488792D01*
X153289776Y-116492209D01*
X153289780Y-116492209D01*
X153297352Y-116492725D01*
X153304829Y-116491420D01*
X153304830Y-116491420D01*
X153344617Y-116484476D01*
X153360303Y-116481738D01*
X153366821Y-116480777D01*
X153430242Y-116473102D01*
X153437343Y-116470419D01*
X153439952Y-116469778D01*
X153456262Y-116465315D01*
X153458798Y-116464550D01*
X153466284Y-116463243D01*
X153524800Y-116437556D01*
X153530904Y-116435065D01*
X153583548Y-116415173D01*
X153583549Y-116415172D01*
X153590656Y-116412487D01*
X153596919Y-116408183D01*
X153599285Y-116406946D01*
X153614097Y-116398701D01*
X153616351Y-116397368D01*
X153623305Y-116394315D01*
X153674002Y-116355413D01*
X153679332Y-116351541D01*
X153725720Y-116319661D01*
X153725725Y-116319656D01*
X153731981Y-116315357D01*
X153773436Y-116268829D01*
X153778416Y-116263554D01*
X154951405Y-115090566D01*
X155013717Y-115056540D01*
X155084533Y-115061605D01*
X155141368Y-115104152D01*
X155166179Y-115170672D01*
X155166500Y-115179661D01*
X155166500Y-116035405D01*
X155146498Y-116103526D01*
X155129595Y-116124500D01*
X153050674Y-118203421D01*
X153012231Y-118227349D01*
X153013044Y-118229078D01*
X153006676Y-118232074D01*
X153000003Y-118234346D01*
X152956039Y-118261393D01*
X152861065Y-118319821D01*
X152861063Y-118319823D01*
X152855066Y-118323512D01*
X152850033Y-118328441D01*
X152778494Y-118398498D01*
X152733486Y-118442573D01*
X152729675Y-118448487D01*
X152729673Y-118448489D01*
X152650939Y-118570659D01*
X152641304Y-118585610D01*
X152623851Y-118633562D01*
X152585584Y-118738700D01*
X152583103Y-118745516D01*
X152583043Y-118745993D01*
X152550994Y-118803101D01*
X152474500Y-118879595D01*
X152412188Y-118913621D01*
X152385405Y-118916500D01*
X130072993Y-118916500D01*
X130004872Y-118896498D01*
X129958379Y-118842842D01*
X129948275Y-118772568D01*
X129962578Y-118729799D01*
X130048006Y-118574407D01*
X130052834Y-118563142D01*
X130108880Y-118386462D01*
X130111430Y-118374468D01*
X130127607Y-118230239D01*
X130128000Y-118223215D01*
X130128000Y-117892115D01*
X130123525Y-117876876D01*
X130122135Y-117875671D01*
X130114452Y-117874000D01*
X128992000Y-117874000D01*
X128923879Y-117853998D01*
X128877386Y-117800342D01*
X128866000Y-117748000D01*
X128866000Y-117347885D01*
X129374000Y-117347885D01*
X129378475Y-117363124D01*
X129379865Y-117364329D01*
X129387548Y-117366000D01*
X130109885Y-117366000D01*
X130125124Y-117361525D01*
X130126329Y-117360135D01*
X130128000Y-117352452D01*
X130128000Y-117023343D01*
X130127699Y-117017195D01*
X130114188Y-116879397D01*
X130111805Y-116867362D01*
X130058233Y-116689924D01*
X130053559Y-116678584D01*
X129966540Y-116514923D01*
X129959751Y-116504706D01*
X129842603Y-116361067D01*
X129833959Y-116352363D01*
X129691144Y-116234216D01*
X129680973Y-116227356D01*
X129517924Y-116139196D01*
X129506619Y-116134444D01*
X129391308Y-116098750D01*
X129377205Y-116098544D01*
X129374000Y-116105299D01*
X129374000Y-117347885D01*
X128866000Y-117347885D01*
X128866000Y-116112076D01*
X128862027Y-116098545D01*
X128854232Y-116097425D01*
X128746479Y-116129138D01*
X128735111Y-116133731D01*
X128570846Y-116219607D01*
X128560585Y-116226321D01*
X128416127Y-116342468D01*
X128407368Y-116351046D01*
X128288222Y-116493039D01*
X128281292Y-116503159D01*
X128191998Y-116665585D01*
X128187166Y-116676858D01*
X128131120Y-116853538D01*
X128128570Y-116865532D01*
X128112393Y-117009761D01*
X128112000Y-117016785D01*
X128112000Y-117232974D01*
X128091998Y-117301095D01*
X128038342Y-117347588D01*
X127968068Y-117357692D01*
X127958514Y-117355939D01*
X127788506Y-117317938D01*
X127788499Y-117317937D01*
X127783457Y-117316810D01*
X127777912Y-117316500D01*
X127644756Y-117316500D01*
X127509963Y-117331143D01*
X127401714Y-117367573D01*
X127344796Y-117386728D01*
X127344794Y-117386729D01*
X127338325Y-117388906D01*
X127183095Y-117482177D01*
X127178138Y-117486865D01*
X127178135Y-117486867D01*
X127105348Y-117555699D01*
X127051515Y-117606607D01*
X127047683Y-117612245D01*
X127047680Y-117612249D01*
X126980472Y-117711142D01*
X126949723Y-117756388D01*
X126882470Y-117924534D01*
X126881356Y-117931262D01*
X126881355Y-117931266D01*
X126854007Y-118096461D01*
X126852892Y-118103198D01*
X126853249Y-118110015D01*
X126853249Y-118110019D01*
X126859959Y-118238038D01*
X126862370Y-118284047D01*
X126864181Y-118290620D01*
X126864181Y-118290623D01*
X126901437Y-118425879D01*
X126910461Y-118458641D01*
X126994922Y-118618836D01*
X126999327Y-118624049D01*
X126999330Y-118624053D01*
X127071262Y-118709172D01*
X127099954Y-118774113D01*
X127088981Y-118844257D01*
X127041828Y-118897333D01*
X126975024Y-118916500D01*
X124188795Y-118916500D01*
X124120674Y-118896498D01*
X124074181Y-118842842D01*
X124064347Y-118770786D01*
X124070099Y-118734475D01*
X124072505Y-118722856D01*
X124081528Y-118687711D01*
X124081528Y-118687710D01*
X124083500Y-118680030D01*
X124083500Y-118659776D01*
X124085051Y-118640065D01*
X124085782Y-118635453D01*
X124088220Y-118620057D01*
X124084059Y-118576038D01*
X124083500Y-118564181D01*
X124083500Y-118305262D01*
X124104551Y-118235536D01*
X124128891Y-118198902D01*
X124189319Y-118039825D01*
X124213001Y-117871313D01*
X124213299Y-117850000D01*
X124194331Y-117680892D01*
X124138368Y-117520189D01*
X124132383Y-117510610D01*
X124086381Y-117436994D01*
X124048192Y-117375879D01*
X124036723Y-117364329D01*
X123933248Y-117260129D01*
X123928286Y-117255132D01*
X123912039Y-117244821D01*
X123873406Y-117220304D01*
X123784608Y-117163951D01*
X123624300Y-117106868D01*
X123455329Y-117086720D01*
X123448326Y-117087456D01*
X123448325Y-117087456D01*
X123293101Y-117103770D01*
X123293097Y-117103771D01*
X123286093Y-117104507D01*
X123279422Y-117106778D01*
X123131673Y-117157075D01*
X123131670Y-117157076D01*
X123125003Y-117159346D01*
X123119005Y-117163036D01*
X123119003Y-117163037D01*
X122986065Y-117244821D01*
X122986063Y-117244823D01*
X122980066Y-117248512D01*
X122923444Y-117303961D01*
X122866818Y-117359414D01*
X122858486Y-117367573D01*
X122854675Y-117373487D01*
X122854673Y-117373489D01*
X122781605Y-117486867D01*
X122766304Y-117510610D01*
X122763895Y-117517230D01*
X122763892Y-117517235D01*
X122748721Y-117558918D01*
X122706627Y-117616090D01*
X122640306Y-117641428D01*
X122570814Y-117626887D01*
X122534082Y-117597152D01*
X122509079Y-117567565D01*
X122488187Y-117542843D01*
X122482762Y-117538695D01*
X122349743Y-117436994D01*
X122349739Y-117436991D01*
X122344322Y-117432850D01*
X122200962Y-117366000D01*
X122186369Y-117359195D01*
X122186366Y-117359194D01*
X122180192Y-117356315D01*
X122173544Y-117354829D01*
X122173541Y-117354828D01*
X122045152Y-117326130D01*
X122003457Y-117316810D01*
X121997912Y-117316500D01*
X121864756Y-117316500D01*
X121729963Y-117331143D01*
X121723499Y-117333318D01*
X121723496Y-117333319D01*
X121666645Y-117352452D01*
X121655167Y-117356315D01*
X121654189Y-117356644D01*
X121583247Y-117359414D01*
X121522068Y-117323391D01*
X121490077Y-117260010D01*
X121488000Y-117237225D01*
X121488000Y-117023343D01*
X121487699Y-117017195D01*
X121474188Y-116879397D01*
X121471805Y-116867362D01*
X121418233Y-116689924D01*
X121413559Y-116678584D01*
X121326540Y-116514923D01*
X121319751Y-116504706D01*
X121202603Y-116361067D01*
X121193959Y-116352363D01*
X121051144Y-116234216D01*
X121040973Y-116227356D01*
X120877924Y-116139196D01*
X120866619Y-116134444D01*
X120751308Y-116098750D01*
X120737205Y-116098544D01*
X120734000Y-116105299D01*
X120734000Y-117748000D01*
X120713998Y-117816121D01*
X120660342Y-117862614D01*
X120608000Y-117874000D01*
X119490115Y-117874000D01*
X119474876Y-117878475D01*
X119473671Y-117879865D01*
X119472000Y-117887548D01*
X119472000Y-118033345D01*
X119451998Y-118101466D01*
X119398342Y-118147959D01*
X119328068Y-118158063D01*
X119327191Y-118157897D01*
X119324300Y-118156868D01*
X119155329Y-118136720D01*
X119148326Y-118137456D01*
X119148325Y-118137456D01*
X118993101Y-118153770D01*
X118993097Y-118153771D01*
X118986093Y-118154507D01*
X118979422Y-118156778D01*
X118831673Y-118207075D01*
X118831670Y-118207076D01*
X118825003Y-118209346D01*
X118819005Y-118213036D01*
X118819003Y-118213037D01*
X118686065Y-118294821D01*
X118686063Y-118294823D01*
X118680066Y-118298512D01*
X118658306Y-118319821D01*
X118573185Y-118403179D01*
X118558486Y-118417573D01*
X118554675Y-118423487D01*
X118554673Y-118423489D01*
X118472314Y-118551284D01*
X118466304Y-118560610D01*
X118463894Y-118567232D01*
X118460763Y-118573539D01*
X118459106Y-118572716D01*
X118422538Y-118622390D01*
X118356218Y-118647732D01*
X118286725Y-118633196D01*
X118257129Y-118611224D01*
X118020405Y-118374500D01*
X117986379Y-118312188D01*
X117983500Y-118285405D01*
X117983500Y-117347885D01*
X119472000Y-117347885D01*
X119476475Y-117363124D01*
X119477865Y-117364329D01*
X119485548Y-117366000D01*
X120207885Y-117366000D01*
X120223124Y-117361525D01*
X120224329Y-117360135D01*
X120226000Y-117352452D01*
X120226000Y-116112076D01*
X120222027Y-116098545D01*
X120214232Y-116097425D01*
X120106479Y-116129138D01*
X120095111Y-116133731D01*
X119930846Y-116219607D01*
X119920585Y-116226321D01*
X119776127Y-116342468D01*
X119767368Y-116351046D01*
X119648222Y-116493039D01*
X119641292Y-116503159D01*
X119551998Y-116665585D01*
X119547166Y-116676858D01*
X119491120Y-116853538D01*
X119488570Y-116865532D01*
X119472393Y-117009761D01*
X119472000Y-117016785D01*
X119472000Y-117347885D01*
X117983500Y-117347885D01*
X117983500Y-109704594D01*
X118003502Y-109636473D01*
X118020405Y-109615499D01*
X119113791Y-108522114D01*
X120232253Y-107403652D01*
X120240539Y-107396112D01*
X120247018Y-107392000D01*
X120293644Y-107342348D01*
X120296398Y-107339507D01*
X120316135Y-107319770D01*
X120318615Y-107316573D01*
X120326320Y-107307551D01*
X120351159Y-107281100D01*
X120356586Y-107275321D01*
X120360405Y-107268375D01*
X120360407Y-107268372D01*
X120366348Y-107257566D01*
X120377199Y-107241047D01*
X120377559Y-107240583D01*
X120389614Y-107225041D01*
X120392759Y-107217772D01*
X120392762Y-107217768D01*
X120407174Y-107184463D01*
X120412391Y-107173813D01*
X120433695Y-107135060D01*
X120438733Y-107115437D01*
X120445137Y-107096734D01*
X120450033Y-107085420D01*
X120450033Y-107085419D01*
X120453181Y-107078145D01*
X120454420Y-107070322D01*
X120454423Y-107070312D01*
X120460099Y-107034476D01*
X120462505Y-107022856D01*
X120471528Y-106987711D01*
X120471528Y-106987710D01*
X120473500Y-106980030D01*
X120473500Y-106959776D01*
X120475051Y-106940065D01*
X120476980Y-106927886D01*
X120478220Y-106920057D01*
X120474059Y-106876038D01*
X120473500Y-106864181D01*
X120473500Y-105959500D01*
X120493502Y-105891379D01*
X120547158Y-105844886D01*
X120599500Y-105833500D01*
X120745223Y-105833500D01*
X120814216Y-105854068D01*
G37*
G04 #@! TD.AperFunction*
G04 #@! TA.AperFunction,Conductor*
G36*
X153139526Y-100088502D02*
G01*
X153186019Y-100142158D01*
X153196123Y-100212432D01*
X153166629Y-100277012D01*
X153160500Y-100283596D01*
X152907286Y-100536809D01*
X152858796Y-100566991D01*
X152711673Y-100617075D01*
X152711670Y-100617076D01*
X152705003Y-100619346D01*
X152699005Y-100623036D01*
X152699003Y-100623037D01*
X152566065Y-100704821D01*
X152566063Y-100704823D01*
X152560066Y-100708512D01*
X152528983Y-100738951D01*
X152469788Y-100796920D01*
X152438486Y-100827573D01*
X152434675Y-100833487D01*
X152434673Y-100833489D01*
X152362016Y-100946230D01*
X152346304Y-100970610D01*
X152288103Y-101130516D01*
X152266775Y-101299343D01*
X152283381Y-101468699D01*
X152337094Y-101630167D01*
X152340741Y-101636189D01*
X152340742Y-101636191D01*
X152359451Y-101667082D01*
X152425246Y-101775723D01*
X152543455Y-101898132D01*
X152579309Y-101921594D01*
X152664440Y-101977302D01*
X152685846Y-101991310D01*
X152692450Y-101993766D01*
X152692452Y-101993767D01*
X152728844Y-102007301D01*
X152845341Y-102050626D01*
X153014015Y-102073132D01*
X153021026Y-102072494D01*
X153021030Y-102072494D01*
X153176462Y-102058348D01*
X153183483Y-102057709D01*
X153190185Y-102055531D01*
X153190187Y-102055531D01*
X153338623Y-102007301D01*
X153338626Y-102007300D01*
X153345322Y-102005124D01*
X153491490Y-101917990D01*
X153496584Y-101913139D01*
X153496588Y-101913136D01*
X153568997Y-101844181D01*
X153614721Y-101800639D01*
X153638652Y-101764621D01*
X153704990Y-101664773D01*
X153708891Y-101658902D01*
X153769319Y-101499825D01*
X153770299Y-101492848D01*
X153771138Y-101489582D01*
X153804085Y-101431819D01*
X153885499Y-101350405D01*
X153947811Y-101316379D01*
X153974594Y-101313500D01*
X156166672Y-101313500D01*
X156234793Y-101333502D01*
X156281286Y-101387158D01*
X156292488Y-101446312D01*
X156292000Y-101455325D01*
X156292000Y-102077885D01*
X156296475Y-102093124D01*
X156297865Y-102094329D01*
X156305548Y-102096000D01*
X158989884Y-102096000D01*
X159005123Y-102091525D01*
X159006328Y-102090135D01*
X159007999Y-102082452D01*
X159007999Y-101714500D01*
X159028001Y-101646379D01*
X159081657Y-101599886D01*
X159133999Y-101588500D01*
X159265487Y-101588500D01*
X159271939Y-101587128D01*
X159271944Y-101587128D01*
X159358888Y-101568647D01*
X159452288Y-101548794D01*
X159458319Y-101546109D01*
X159620722Y-101473803D01*
X159620724Y-101473802D01*
X159626752Y-101471118D01*
X159639729Y-101461690D01*
X159682157Y-101430864D01*
X159781253Y-101358866D01*
X159804091Y-101333502D01*
X159904621Y-101221852D01*
X159904622Y-101221851D01*
X159909040Y-101216944D01*
X160004527Y-101051556D01*
X160063542Y-100869928D01*
X160068421Y-100823512D01*
X160082814Y-100686565D01*
X160083504Y-100680000D01*
X160063542Y-100490072D01*
X160061501Y-100483792D01*
X160060968Y-100481282D01*
X160066371Y-100410491D01*
X160109188Y-100353859D01*
X160175825Y-100329366D01*
X160245127Y-100344787D01*
X160273310Y-100365991D01*
X160897088Y-100989769D01*
X160931114Y-101052081D01*
X160933993Y-101079038D01*
X160916654Y-113458652D01*
X160896557Y-113526743D01*
X160879750Y-113547569D01*
X160172724Y-114254595D01*
X160110412Y-114288621D01*
X160083629Y-114291500D01*
X158845939Y-114291500D01*
X158777818Y-114271498D01*
X158740147Y-114233941D01*
X158732818Y-114222612D01*
X158730014Y-114218277D01*
X158579670Y-114053051D01*
X158575619Y-114049852D01*
X158575615Y-114049848D01*
X158408414Y-113917800D01*
X158408410Y-113917798D01*
X158404359Y-113914598D01*
X158363053Y-113891796D01*
X158313084Y-113841364D01*
X158298312Y-113771921D01*
X158323428Y-113705516D01*
X158350780Y-113678909D01*
X158394603Y-113647650D01*
X158529860Y-113551173D01*
X158552930Y-113528184D01*
X158658193Y-113423288D01*
X158688096Y-113393489D01*
X158704199Y-113371080D01*
X158815435Y-113216277D01*
X158818453Y-113212077D01*
X158824365Y-113200116D01*
X158915136Y-113016453D01*
X158915137Y-113016451D01*
X158917430Y-113011811D01*
X158982370Y-112798069D01*
X159011529Y-112576590D01*
X159012016Y-112556656D01*
X159013074Y-112513365D01*
X159013074Y-112513361D01*
X159013156Y-112510000D01*
X158994852Y-112287361D01*
X158940431Y-112070702D01*
X158851354Y-111865840D01*
X158756206Y-111718763D01*
X158732822Y-111682617D01*
X158732820Y-111682614D01*
X158730014Y-111678277D01*
X158579670Y-111513051D01*
X158575619Y-111509852D01*
X158575615Y-111509848D01*
X158408414Y-111377800D01*
X158408410Y-111377798D01*
X158404359Y-111374598D01*
X158363053Y-111351796D01*
X158313084Y-111301364D01*
X158298312Y-111231921D01*
X158323428Y-111165516D01*
X158350780Y-111138909D01*
X158394603Y-111107650D01*
X158529860Y-111011173D01*
X158688096Y-110853489D01*
X158704975Y-110830000D01*
X158815435Y-110676277D01*
X158818453Y-110672077D01*
X158879987Y-110547573D01*
X158915136Y-110476453D01*
X158915137Y-110476451D01*
X158917430Y-110471811D01*
X158953043Y-110354595D01*
X158980865Y-110263023D01*
X158980865Y-110263021D01*
X158982370Y-110258069D01*
X159011529Y-110036590D01*
X159011944Y-110019593D01*
X159013074Y-109973365D01*
X159013074Y-109973361D01*
X159013156Y-109970000D01*
X158994852Y-109747361D01*
X158940431Y-109530702D01*
X158851354Y-109325840D01*
X158777382Y-109211497D01*
X158732822Y-109142617D01*
X158732820Y-109142614D01*
X158730014Y-109138277D01*
X158579670Y-108973051D01*
X158575619Y-108969852D01*
X158575615Y-108969848D01*
X158408414Y-108837800D01*
X158408410Y-108837798D01*
X158404359Y-108834598D01*
X158363053Y-108811796D01*
X158313084Y-108761364D01*
X158298312Y-108691921D01*
X158323428Y-108625516D01*
X158350780Y-108598909D01*
X158415477Y-108552761D01*
X158529860Y-108471173D01*
X158547437Y-108453658D01*
X158648180Y-108353266D01*
X158688096Y-108313489D01*
X158692362Y-108307553D01*
X158815435Y-108136277D01*
X158818453Y-108132077D01*
X158820776Y-108127378D01*
X158915136Y-107936453D01*
X158915137Y-107936451D01*
X158917430Y-107931811D01*
X158982370Y-107718069D01*
X159011529Y-107496590D01*
X159011611Y-107493240D01*
X159013074Y-107433365D01*
X159013074Y-107433361D01*
X159013156Y-107430000D01*
X158994852Y-107207361D01*
X158940431Y-106990702D01*
X158851354Y-106785840D01*
X158779326Y-106674501D01*
X158732822Y-106602617D01*
X158732820Y-106602614D01*
X158730014Y-106598277D01*
X158579670Y-106433051D01*
X158575619Y-106429852D01*
X158575615Y-106429848D01*
X158408414Y-106297800D01*
X158408410Y-106297798D01*
X158404359Y-106294598D01*
X158363053Y-106271796D01*
X158313084Y-106221364D01*
X158298312Y-106151921D01*
X158323428Y-106085516D01*
X158350780Y-106058909D01*
X158420353Y-106009283D01*
X158529860Y-105931173D01*
X158688096Y-105773489D01*
X158747594Y-105690689D01*
X158815435Y-105596277D01*
X158818453Y-105592077D01*
X158856609Y-105514875D01*
X158915136Y-105396453D01*
X158915137Y-105396451D01*
X158917430Y-105391811D01*
X158966251Y-105231123D01*
X158980865Y-105183023D01*
X158980865Y-105183021D01*
X158982370Y-105178069D01*
X159011529Y-104956590D01*
X159011611Y-104953240D01*
X159013074Y-104893365D01*
X159013074Y-104893361D01*
X159013156Y-104890000D01*
X158994852Y-104667361D01*
X158940431Y-104450702D01*
X158851354Y-104245840D01*
X158730014Y-104058277D01*
X158726540Y-104054459D01*
X158726533Y-104054450D01*
X158582435Y-103896088D01*
X158551383Y-103832242D01*
X158559779Y-103761744D01*
X158604956Y-103706976D01*
X158631400Y-103693307D01*
X158738052Y-103653325D01*
X158753649Y-103644786D01*
X158855724Y-103568285D01*
X158868285Y-103555724D01*
X158944786Y-103453649D01*
X158953324Y-103438054D01*
X158998478Y-103317606D01*
X159002105Y-103302351D01*
X159007631Y-103251486D01*
X159008000Y-103244672D01*
X159008000Y-102622115D01*
X159003525Y-102606876D01*
X159002135Y-102605671D01*
X158994452Y-102604000D01*
X156310116Y-102604000D01*
X156294877Y-102608475D01*
X156293672Y-102609865D01*
X156292001Y-102617548D01*
X156292001Y-103244669D01*
X156292371Y-103251490D01*
X156297895Y-103302352D01*
X156301521Y-103317604D01*
X156346676Y-103438054D01*
X156355214Y-103453649D01*
X156431715Y-103555724D01*
X156444276Y-103568285D01*
X156546351Y-103644786D01*
X156561946Y-103653324D01*
X156670827Y-103694142D01*
X156727591Y-103736784D01*
X156752291Y-103803345D01*
X156737083Y-103872694D01*
X156717691Y-103899175D01*
X156601645Y-104020610D01*
X156590629Y-104032138D01*
X156464743Y-104216680D01*
X156417715Y-104317993D01*
X156394106Y-104368856D01*
X156370688Y-104419305D01*
X156310989Y-104634570D01*
X156287251Y-104856695D01*
X156287548Y-104861848D01*
X156287548Y-104861851D01*
X156293011Y-104956590D01*
X156300110Y-105079715D01*
X156301247Y-105084761D01*
X156301248Y-105084767D01*
X156316253Y-105151348D01*
X156349222Y-105297639D01*
X156433266Y-105504616D01*
X156549987Y-105695088D01*
X156696250Y-105863938D01*
X156868126Y-106006632D01*
X156913296Y-106033027D01*
X156941445Y-106049476D01*
X156990169Y-106101114D01*
X157003240Y-106170897D01*
X156976509Y-106236669D01*
X156936055Y-106270027D01*
X156923607Y-106276507D01*
X156919474Y-106279610D01*
X156919471Y-106279612D01*
X156762816Y-106397232D01*
X156744965Y-106410635D01*
X156734101Y-106422004D01*
X156650724Y-106509252D01*
X156589199Y-106544682D01*
X156518287Y-106541225D01*
X156460501Y-106499979D01*
X156434187Y-106434038D01*
X156433692Y-106426150D01*
X156433562Y-106422004D01*
X156433500Y-106418055D01*
X156433500Y-106390144D01*
X156432995Y-106386144D01*
X156432062Y-106374301D01*
X156431907Y-106369352D01*
X156430673Y-106330111D01*
X156425021Y-106310657D01*
X156421013Y-106291300D01*
X156419468Y-106279070D01*
X156419468Y-106279069D01*
X156418474Y-106271203D01*
X156415555Y-106263830D01*
X156402196Y-106230088D01*
X156398351Y-106218858D01*
X156388229Y-106184017D01*
X156388229Y-106184016D01*
X156386018Y-106176407D01*
X156381985Y-106169588D01*
X156381983Y-106169583D01*
X156375707Y-106158972D01*
X156367012Y-106141224D01*
X156359552Y-106122383D01*
X156333564Y-106086613D01*
X156327048Y-106076693D01*
X156308580Y-106045465D01*
X156308578Y-106045462D01*
X156304542Y-106038638D01*
X156290221Y-106024317D01*
X156277380Y-106009283D01*
X156270131Y-105999306D01*
X156265472Y-105992893D01*
X156231395Y-105964702D01*
X156222616Y-105956712D01*
X154504105Y-104238200D01*
X154474209Y-104190542D01*
X154468413Y-104173897D01*
X154418368Y-104030189D01*
X154412383Y-104020610D01*
X154334571Y-103896088D01*
X154328192Y-103885879D01*
X154208286Y-103765132D01*
X154192039Y-103754821D01*
X154116647Y-103706976D01*
X154064608Y-103673951D01*
X153904300Y-103616868D01*
X153735329Y-103596720D01*
X153728326Y-103597456D01*
X153728325Y-103597456D01*
X153573101Y-103613770D01*
X153573097Y-103613771D01*
X153566093Y-103614507D01*
X153559422Y-103616778D01*
X153411673Y-103667075D01*
X153411670Y-103667076D01*
X153405003Y-103669346D01*
X153399005Y-103673036D01*
X153399003Y-103673037D01*
X153266065Y-103754821D01*
X153266063Y-103754823D01*
X153260066Y-103758512D01*
X153138486Y-103877573D01*
X153134675Y-103883487D01*
X153134673Y-103883489D01*
X153124564Y-103899175D01*
X153046304Y-104020610D01*
X152988103Y-104180516D01*
X152966775Y-104349343D01*
X152983381Y-104518699D01*
X153037094Y-104680167D01*
X153040741Y-104686189D01*
X153040742Y-104686191D01*
X153108625Y-104798278D01*
X153125246Y-104825723D01*
X153243455Y-104948132D01*
X153261451Y-104959908D01*
X153349091Y-105017258D01*
X153385846Y-105041310D01*
X153392450Y-105043766D01*
X153392452Y-105043767D01*
X153454389Y-105066801D01*
X153545341Y-105100626D01*
X153550257Y-105101282D01*
X153608111Y-105134015D01*
X155129595Y-106655500D01*
X155163621Y-106717812D01*
X155166500Y-106744595D01*
X155166500Y-110241779D01*
X155146498Y-110309900D01*
X155092842Y-110356393D01*
X155022568Y-110366497D01*
X154993409Y-110358648D01*
X154988649Y-110356730D01*
X154976937Y-110350718D01*
X154976890Y-110350814D01*
X154970552Y-110347723D01*
X154964608Y-110343951D01*
X154901138Y-110321350D01*
X154896387Y-110319547D01*
X154831511Y-110293402D01*
X154824271Y-110292300D01*
X154817862Y-110290547D01*
X154817794Y-110290839D01*
X154810936Y-110289231D01*
X154804300Y-110286868D01*
X154784499Y-110284507D01*
X154733517Y-110278428D01*
X154729485Y-110277881D01*
X154663886Y-110267901D01*
X154663880Y-110267901D01*
X154656651Y-110266801D01*
X154649359Y-110267394D01*
X154647412Y-110267326D01*
X154642076Y-110267524D01*
X154635329Y-110266720D01*
X154628326Y-110267456D01*
X154628325Y-110267456D01*
X154609730Y-110269410D01*
X154560367Y-110274599D01*
X154557459Y-110274869D01*
X154521591Y-110277787D01*
X154487664Y-110280546D01*
X154487662Y-110280546D01*
X154480364Y-110281140D01*
X154473396Y-110283397D01*
X154471291Y-110283818D01*
X154470431Y-110284051D01*
X154466093Y-110284507D01*
X154459426Y-110286777D01*
X154459424Y-110286777D01*
X154390764Y-110310150D01*
X154388992Y-110310739D01*
X154312101Y-110335648D01*
X154307290Y-110338567D01*
X154305003Y-110339346D01*
X154300624Y-110342040D01*
X154300622Y-110342041D01*
X154232592Y-110383893D01*
X154231937Y-110384293D01*
X154160893Y-110427405D01*
X154156691Y-110431115D01*
X154156688Y-110431118D01*
X154153981Y-110433509D01*
X154152517Y-110434802D01*
X154099803Y-110487516D01*
X154098866Y-110488444D01*
X154086873Y-110500189D01*
X154038486Y-110547573D01*
X154036756Y-110550258D01*
X154033890Y-110553429D01*
X152771089Y-111816230D01*
X152756677Y-111828616D01*
X152745082Y-111837149D01*
X152745077Y-111837154D01*
X152739182Y-111841492D01*
X152734443Y-111847070D01*
X152734440Y-111847073D01*
X152704965Y-111881768D01*
X152698035Y-111889284D01*
X152692340Y-111894979D01*
X152690060Y-111897861D01*
X152674719Y-111917251D01*
X152671928Y-111920655D01*
X152629409Y-111970703D01*
X152624667Y-111976285D01*
X152621339Y-111982801D01*
X152617972Y-111987850D01*
X152614805Y-111992979D01*
X152610266Y-111998716D01*
X152579345Y-112064875D01*
X152577442Y-112068769D01*
X152544231Y-112133808D01*
X152542492Y-112140916D01*
X152540393Y-112146559D01*
X152538476Y-112152322D01*
X152535378Y-112158950D01*
X152533888Y-112166112D01*
X152533888Y-112166113D01*
X152520514Y-112230412D01*
X152519544Y-112234696D01*
X152502192Y-112305610D01*
X152501500Y-112316764D01*
X152501464Y-112316762D01*
X152501225Y-112320755D01*
X152500851Y-112324947D01*
X152499360Y-112332115D01*
X152499558Y-112339432D01*
X152501454Y-112409521D01*
X152501500Y-112412928D01*
X152501500Y-113165500D01*
X152481498Y-113233621D01*
X152427842Y-113280114D01*
X152375500Y-113291500D01*
X139654926Y-113291500D01*
X139587413Y-113271886D01*
X139575126Y-113264088D01*
X139564470Y-113256522D01*
X139537025Y-113234808D01*
X139537024Y-113234808D01*
X139531284Y-113230266D01*
X139502740Y-113216926D01*
X139488594Y-113209173D01*
X139464608Y-113193951D01*
X139423936Y-113179469D01*
X139412893Y-113174934D01*
X139371050Y-113155378D01*
X139363888Y-113153888D01*
X139363884Y-113153887D01*
X139344002Y-113149752D01*
X139327400Y-113145094D01*
X139304300Y-113136868D01*
X139269833Y-113132758D01*
X139257583Y-113131297D01*
X139246846Y-113129543D01*
X139205052Y-113120850D01*
X139205046Y-113120849D01*
X139197885Y-113119360D01*
X139187326Y-113119646D01*
X139174135Y-113120002D01*
X139155814Y-113119162D01*
X139142325Y-113117554D01*
X139142324Y-113117554D01*
X139135329Y-113116720D01*
X139128326Y-113117456D01*
X139128322Y-113117456D01*
X139084687Y-113122042D01*
X139074926Y-113122686D01*
X139034045Y-113123792D01*
X139021079Y-113124143D01*
X139013998Y-113126021D01*
X139013995Y-113126021D01*
X139001859Y-113129239D01*
X138982736Y-113132758D01*
X138966093Y-113134507D01*
X138959425Y-113136777D01*
X138959420Y-113136778D01*
X138914194Y-113152174D01*
X138905885Y-113154687D01*
X138850116Y-113169474D01*
X138843665Y-113172926D01*
X138843662Y-113172927D01*
X138836009Y-113177022D01*
X138817172Y-113185204D01*
X138805003Y-113189346D01*
X138799004Y-113193036D01*
X138799003Y-113193037D01*
X138754985Y-113220117D01*
X138748417Y-113223890D01*
X138694166Y-113252918D01*
X138688681Y-113257762D01*
X138688680Y-113257763D01*
X138685081Y-113260942D01*
X138667690Y-113273822D01*
X138660066Y-113278512D01*
X138655037Y-113283437D01*
X138655033Y-113283440D01*
X138615334Y-113322317D01*
X138610584Y-113326735D01*
X138561596Y-113370000D01*
X138557374Y-113375974D01*
X138557371Y-113375977D01*
X138556832Y-113376740D01*
X138547948Y-113387171D01*
X138547969Y-113387188D01*
X138543520Y-113392643D01*
X138538486Y-113397573D01*
X138534671Y-113403492D01*
X138534669Y-113403495D01*
X138502442Y-113453502D01*
X138499428Y-113457966D01*
X138463741Y-113508461D01*
X138463739Y-113508464D01*
X138459516Y-113514440D01*
X138456780Y-113521230D01*
X138453276Y-113527657D01*
X138453167Y-113527598D01*
X138452864Y-113528184D01*
X138453254Y-113528377D01*
X138450122Y-113534687D01*
X138446304Y-113540610D01*
X138443894Y-113547230D01*
X138443893Y-113547233D01*
X138443771Y-113547569D01*
X138423242Y-113603973D01*
X138422189Y-113606865D01*
X138420658Y-113610857D01*
X138393402Y-113678489D01*
X138392302Y-113685720D01*
X138391781Y-113687624D01*
X138390703Y-113693109D01*
X138390513Y-113693894D01*
X138388103Y-113700516D01*
X138382043Y-113748489D01*
X138378766Y-113774426D01*
X138378327Y-113777584D01*
X138371271Y-113823968D01*
X138366801Y-113853349D01*
X138367394Y-113860642D01*
X138367322Y-113862706D01*
X138367383Y-113864526D01*
X138366775Y-113869343D01*
X138367462Y-113876350D01*
X138367462Y-113876353D01*
X138374461Y-113947726D01*
X138374645Y-113949788D01*
X138381140Y-114029637D01*
X138383079Y-114035624D01*
X138383381Y-114038699D01*
X138409818Y-114118172D01*
X138410053Y-114118889D01*
X138435649Y-114197899D01*
X138471865Y-114257580D01*
X138489084Y-114286012D01*
X138507263Y-114354641D01*
X138487219Y-114419539D01*
X138421570Y-114521406D01*
X138396304Y-114560610D01*
X138376070Y-114616203D01*
X138340791Y-114713132D01*
X138338103Y-114720516D01*
X138316775Y-114889343D01*
X138333381Y-115058699D01*
X138387094Y-115220167D01*
X138424442Y-115281835D01*
X138442620Y-115350463D01*
X138422576Y-115415361D01*
X138410717Y-115433763D01*
X138406304Y-115440610D01*
X138348103Y-115600516D01*
X138326775Y-115769343D01*
X138331480Y-115817326D01*
X138342842Y-115933204D01*
X138329583Y-116002952D01*
X138280720Y-116054459D01*
X138217443Y-116071500D01*
X135934500Y-116071500D01*
X135866379Y-116051498D01*
X135819886Y-115997842D01*
X135808500Y-115945500D01*
X135808500Y-110755660D01*
X135828502Y-110687539D01*
X135845405Y-110666565D01*
X136806565Y-109705405D01*
X136868877Y-109671379D01*
X136895660Y-109668500D01*
X147976287Y-109668500D01*
X148020203Y-109676401D01*
X148085341Y-109700626D01*
X148254015Y-109723132D01*
X148261026Y-109722494D01*
X148261030Y-109722494D01*
X148416462Y-109708348D01*
X148423483Y-109707709D01*
X148430185Y-109705531D01*
X148430187Y-109705531D01*
X148578623Y-109657301D01*
X148578626Y-109657300D01*
X148585322Y-109655124D01*
X148731490Y-109567990D01*
X148736584Y-109563139D01*
X148736588Y-109563136D01*
X148807105Y-109495983D01*
X148854721Y-109450639D01*
X148871212Y-109425819D01*
X148916159Y-109358167D01*
X148948891Y-109308902D01*
X149009319Y-109149825D01*
X149033001Y-108981313D01*
X149033210Y-108966355D01*
X149033244Y-108963961D01*
X149033244Y-108963955D01*
X149033299Y-108960000D01*
X149014331Y-108790892D01*
X149002886Y-108758025D01*
X148979865Y-108691921D01*
X148958368Y-108630189D01*
X148940064Y-108600896D01*
X148922251Y-108572390D01*
X148868192Y-108485879D01*
X148855733Y-108473332D01*
X148748286Y-108365132D01*
X148750140Y-108363291D01*
X148716436Y-108314887D01*
X148713807Y-108243939D01*
X148746840Y-108185841D01*
X149418911Y-107513770D01*
X149433323Y-107501384D01*
X149444918Y-107492851D01*
X149444923Y-107492846D01*
X149450818Y-107488508D01*
X149455557Y-107482930D01*
X149455560Y-107482927D01*
X149485035Y-107448232D01*
X149491965Y-107440716D01*
X149497660Y-107435021D01*
X149515281Y-107412749D01*
X149518072Y-107409345D01*
X149560591Y-107359297D01*
X149560592Y-107359295D01*
X149565333Y-107353715D01*
X149568661Y-107347199D01*
X149572028Y-107342150D01*
X149575195Y-107337021D01*
X149579734Y-107331284D01*
X149610655Y-107265125D01*
X149612561Y-107261225D01*
X149645769Y-107196192D01*
X149647508Y-107189084D01*
X149649607Y-107183441D01*
X149651524Y-107177678D01*
X149654622Y-107171050D01*
X149669487Y-107099583D01*
X149670457Y-107095299D01*
X149672874Y-107085420D01*
X149687808Y-107024390D01*
X149688500Y-107013236D01*
X149688536Y-107013238D01*
X149688775Y-107009245D01*
X149689149Y-107005053D01*
X149690640Y-106997885D01*
X149688546Y-106920479D01*
X149688500Y-106917072D01*
X149688500Y-101896371D01*
X149708502Y-101828250D01*
X149725405Y-101807276D01*
X151427276Y-100105405D01*
X151489588Y-100071379D01*
X151516371Y-100068500D01*
X153071405Y-100068500D01*
X153139526Y-100088502D01*
G37*
G04 #@! TD.AperFunction*
G04 #@! TA.AperFunction,Conductor*
G36*
X123342012Y-105488370D02*
G01*
X123348595Y-105494499D01*
X126246343Y-108392247D01*
X126253887Y-108400537D01*
X126258000Y-108407018D01*
X126263777Y-108412443D01*
X126307667Y-108453658D01*
X126310509Y-108456413D01*
X126330230Y-108476134D01*
X126333425Y-108478612D01*
X126342447Y-108486318D01*
X126374679Y-108516586D01*
X126381628Y-108520406D01*
X126392432Y-108526346D01*
X126408956Y-108537199D01*
X126424959Y-108549613D01*
X126465543Y-108567176D01*
X126476173Y-108572383D01*
X126514940Y-108593695D01*
X126522617Y-108595666D01*
X126522622Y-108595668D01*
X126534558Y-108598732D01*
X126553266Y-108605137D01*
X126571855Y-108613181D01*
X126579680Y-108614420D01*
X126579682Y-108614421D01*
X126615519Y-108620097D01*
X126627140Y-108622504D01*
X126657074Y-108630189D01*
X126669970Y-108633500D01*
X126690231Y-108633500D01*
X126709940Y-108635051D01*
X126729943Y-108638219D01*
X126737835Y-108637473D01*
X126743062Y-108636979D01*
X126773954Y-108634059D01*
X126785811Y-108633500D01*
X127686780Y-108633500D01*
X127754901Y-108653502D01*
X127801394Y-108707158D01*
X127811498Y-108777432D01*
X127809964Y-108785404D01*
X127808103Y-108790516D01*
X127786775Y-108959343D01*
X127803381Y-109128699D01*
X127805605Y-109135384D01*
X127805605Y-109135385D01*
X127820466Y-109180058D01*
X127857094Y-109290167D01*
X127860741Y-109296189D01*
X127860742Y-109296191D01*
X127898276Y-109358167D01*
X127916500Y-109423438D01*
X127916500Y-110231233D01*
X127915973Y-110242416D01*
X127914298Y-110249909D01*
X127914547Y-110257832D01*
X127914547Y-110257833D01*
X127914664Y-110261537D01*
X127913930Y-110264362D01*
X127913801Y-110265728D01*
X127913581Y-110265707D01*
X127896814Y-110330253D01*
X127844647Y-110378411D01*
X127788726Y-110391500D01*
X123089594Y-110391500D01*
X123021473Y-110371498D01*
X123000503Y-110354599D01*
X122078208Y-109432303D01*
X122044184Y-109369993D01*
X122049249Y-109299177D01*
X122091796Y-109242342D01*
X122128369Y-109223377D01*
X122208623Y-109197301D01*
X122208626Y-109197300D01*
X122215322Y-109195124D01*
X122361490Y-109107990D01*
X122366584Y-109103139D01*
X122366588Y-109103136D01*
X122474794Y-109000092D01*
X122484721Y-108990639D01*
X122490163Y-108982449D01*
X122574990Y-108854773D01*
X122578891Y-108848902D01*
X122639319Y-108689825D01*
X122640299Y-108682848D01*
X122641138Y-108679582D01*
X122674085Y-108621819D01*
X122892247Y-108403657D01*
X122900537Y-108396113D01*
X122907018Y-108392000D01*
X122953659Y-108342332D01*
X122956413Y-108339491D01*
X122976134Y-108319770D01*
X122978612Y-108316575D01*
X122986318Y-108307553D01*
X123011158Y-108281101D01*
X123016586Y-108275321D01*
X123026346Y-108257568D01*
X123037199Y-108241045D01*
X123044753Y-108231306D01*
X123049613Y-108225041D01*
X123067176Y-108184457D01*
X123072383Y-108173827D01*
X123093695Y-108135060D01*
X123095666Y-108127383D01*
X123095668Y-108127378D01*
X123098732Y-108115442D01*
X123105138Y-108096730D01*
X123110033Y-108085419D01*
X123113181Y-108078145D01*
X123114421Y-108070317D01*
X123114423Y-108070310D01*
X123120099Y-108034476D01*
X123122505Y-108022856D01*
X123131528Y-107987711D01*
X123131528Y-107987710D01*
X123133500Y-107980030D01*
X123133500Y-107959776D01*
X123135051Y-107940065D01*
X123136980Y-107927886D01*
X123138220Y-107920057D01*
X123134059Y-107876038D01*
X123133500Y-107864181D01*
X123133500Y-105583594D01*
X123153502Y-105515473D01*
X123207158Y-105468980D01*
X123277432Y-105458876D01*
X123342012Y-105488370D01*
G37*
G04 #@! TD.AperFunction*
M02*
