G04 #@! TF.GenerationSoftware,KiCad,Pcbnew,6.0.11-2627ca5db0~126~ubuntu20.04.1*
G04 #@! TF.CreationDate,2023-02-16T11:57:51+01:00*
G04 #@! TF.ProjectId,C3-27-epaper-touch,43332d32-372d-4657-9061-7065722d746f,rev?*
G04 #@! TF.SameCoordinates,Original*
G04 #@! TF.FileFunction,Paste,Top*
G04 #@! TF.FilePolarity,Positive*
%FSLAX46Y46*%
G04 Gerber Fmt 4.6, Leading zero omitted, Abs format (unit mm)*
G04 Created by KiCad (PCBNEW 6.0.11-2627ca5db0~126~ubuntu20.04.1) date 2023-02-16 11:57:51*
%MOMM*%
%LPD*%
G01*
G04 APERTURE LIST*
G04 Aperture macros list*
%AMRoundRect*
0 Rectangle with rounded corners*
0 $1 Rounding radius*
0 $2 $3 $4 $5 $6 $7 $8 $9 X,Y pos of 4 corners*
0 Add a 4 corners polygon primitive as box body*
4,1,4,$2,$3,$4,$5,$6,$7,$8,$9,$2,$3,0*
0 Add four circle primitives for the rounded corners*
1,1,$1+$1,$2,$3*
1,1,$1+$1,$4,$5*
1,1,$1+$1,$6,$7*
1,1,$1+$1,$8,$9*
0 Add four rect primitives between the rounded corners*
20,1,$1+$1,$2,$3,$4,$5,0*
20,1,$1+$1,$4,$5,$6,$7,0*
20,1,$1+$1,$6,$7,$8,$9,0*
20,1,$1+$1,$8,$9,$2,$3,0*%
G04 Aperture macros list end*
%ADD10R,0.450000X0.600000*%
%ADD11RoundRect,0.250000X-0.337500X-0.475000X0.337500X-0.475000X0.337500X0.475000X-0.337500X0.475000X0*%
%ADD12R,1.498600X0.889000*%
%ADD13R,0.711200X0.711200*%
%ADD14RoundRect,0.150000X0.587500X0.150000X-0.587500X0.150000X-0.587500X-0.150000X0.587500X-0.150000X0*%
%ADD15RoundRect,0.250000X0.475000X-0.337500X0.475000X0.337500X-0.475000X0.337500X-0.475000X-0.337500X0*%
%ADD16RoundRect,0.250000X0.337500X0.475000X-0.337500X0.475000X-0.337500X-0.475000X0.337500X-0.475000X0*%
%ADD17R,0.600000X1.450000*%
%ADD18R,0.300000X1.450000*%
%ADD19RoundRect,0.150000X-0.150000X0.587500X-0.150000X-0.587500X0.150000X-0.587500X0.150000X0.587500X0*%
%ADD20RoundRect,0.200000X0.275000X-0.200000X0.275000X0.200000X-0.275000X0.200000X-0.275000X-0.200000X0*%
%ADD21RoundRect,0.200000X-0.200000X-0.275000X0.200000X-0.275000X0.200000X0.275000X-0.200000X0.275000X0*%
%ADD22RoundRect,0.250000X0.412500X0.925000X-0.412500X0.925000X-0.412500X-0.925000X0.412500X-0.925000X0*%
%ADD23RoundRect,0.150000X-0.825000X-0.150000X0.825000X-0.150000X0.825000X0.150000X-0.825000X0.150000X0*%
%ADD24RoundRect,0.250000X-0.475000X0.337500X-0.475000X-0.337500X0.475000X-0.337500X0.475000X0.337500X0*%
%ADD25RoundRect,0.200000X0.200000X0.275000X-0.200000X0.275000X-0.200000X-0.275000X0.200000X-0.275000X0*%
%ADD26R,0.889000X1.244600*%
%ADD27R,0.812800X0.939800*%
%ADD28RoundRect,0.250000X-0.475000X0.250000X-0.475000X-0.250000X0.475000X-0.250000X0.475000X0.250000X0*%
%ADD29R,0.304800X1.193800*%
%ADD30R,1.803400X2.006600*%
%ADD31R,0.900000X1.200000*%
%ADD32RoundRect,0.250000X-0.250000X-0.475000X0.250000X-0.475000X0.250000X0.475000X-0.250000X0.475000X0*%
%ADD33RoundRect,0.200000X-0.275000X0.200000X-0.275000X-0.200000X0.275000X-0.200000X0.275000X0.200000X0*%
%ADD34RoundRect,0.250000X0.250000X0.475000X-0.250000X0.475000X-0.250000X-0.475000X0.250000X-0.475000X0*%
%ADD35RoundRect,0.250000X-0.412500X-0.925000X0.412500X-0.925000X0.412500X0.925000X-0.412500X0.925000X0*%
%ADD36R,0.304800X0.812800*%
%ADD37R,0.406400X0.812800*%
%ADD38R,0.300000X1.000000*%
%ADD39R,1.000000X0.300000*%
%ADD40R,3.350000X3.350000*%
%ADD41RoundRect,0.135000X-0.185000X0.135000X-0.185000X-0.135000X0.185000X-0.135000X0.185000X0.135000X0*%
%ADD42R,0.700000X0.450000*%
%ADD43RoundRect,0.225000X-0.225000X-0.250000X0.225000X-0.250000X0.225000X0.250000X-0.225000X0.250000X0*%
%ADD44R,3.708400X1.092200*%
%ADD45RoundRect,0.079500X-0.079500X-0.100500X0.079500X-0.100500X0.079500X0.100500X-0.079500X0.100500X0*%
G04 APERTURE END LIST*
D10*
X137471501Y-73420000D03*
X137471501Y-71320000D03*
D11*
X133475000Y-83050000D03*
X135550000Y-83050000D03*
D12*
X151264000Y-117655087D03*
X151264000Y-116155087D03*
X151264000Y-114655085D03*
X151264000Y-113155086D03*
X151264000Y-111655086D03*
X151264000Y-110155087D03*
X151264000Y-108655087D03*
X151264000Y-107155085D03*
X151264000Y-105655085D03*
X133764000Y-105655085D03*
X133764000Y-107155085D03*
X133764000Y-108655087D03*
X133764000Y-110155087D03*
X133764000Y-111655086D03*
X133764000Y-113155086D03*
X133764000Y-114655085D03*
X133764000Y-116155087D03*
X133764000Y-117655087D03*
D13*
X142658198Y-112555110D03*
X141558198Y-112555110D03*
X140458198Y-112555110D03*
X142658300Y-111455112D03*
X141558300Y-111455112D03*
X140458299Y-111455112D03*
X142658198Y-110355114D03*
X141558198Y-110355114D03*
X140458198Y-110355114D03*
D14*
X155587500Y-120800000D03*
X155587500Y-118900000D03*
X153712500Y-119850000D03*
D15*
X149300000Y-87137500D03*
X149300000Y-85062500D03*
D16*
X152137500Y-96000000D03*
X150062500Y-96000000D03*
D17*
X121550000Y-116705000D03*
X122350000Y-116705000D03*
D18*
X123550000Y-116705000D03*
X124550000Y-116705000D03*
X125050000Y-116705000D03*
X126050000Y-116705000D03*
D17*
X127250000Y-116705000D03*
X128050000Y-116705000D03*
X128050000Y-116705000D03*
X127250000Y-116705000D03*
D18*
X126550000Y-116705000D03*
X125550000Y-116705000D03*
X124050000Y-116705000D03*
X123050000Y-116705000D03*
D17*
X122350000Y-116705000D03*
X121550000Y-116705000D03*
D19*
X122650000Y-112125000D03*
X120750000Y-112125000D03*
X121700000Y-114000000D03*
D20*
X129510000Y-108125000D03*
X129510000Y-106475000D03*
D11*
X155550000Y-88500000D03*
X157625000Y-88500000D03*
D21*
X128125000Y-90550000D03*
X129775000Y-90550000D03*
D22*
X131137500Y-78800000D03*
X128062500Y-78800000D03*
D16*
X155787500Y-85650000D03*
X153712500Y-85650000D03*
D23*
X125375000Y-83595000D03*
X125375000Y-84865000D03*
X125375000Y-86135000D03*
X125375000Y-87405000D03*
X130325000Y-87405000D03*
X130325000Y-86135000D03*
X130325000Y-84865000D03*
X130325000Y-83595000D03*
D24*
X158400000Y-69962500D03*
X158400000Y-72037500D03*
D21*
X134475000Y-89530000D03*
X136125000Y-89530000D03*
D25*
X158980000Y-120820000D03*
X157330000Y-120820000D03*
D15*
X156100000Y-71000000D03*
X156100000Y-68925000D03*
D25*
X153745000Y-103210000D03*
X152095000Y-103210000D03*
D26*
X128102100Y-92454820D03*
X131099300Y-92454820D03*
X132597900Y-92454820D03*
D27*
X126550160Y-93399700D03*
X134149840Y-93399700D03*
X126550160Y-95660300D03*
X134149840Y-95660300D03*
D28*
X131400000Y-119450000D03*
X131400000Y-121350000D03*
D29*
X152100001Y-79895600D03*
X151600000Y-79895600D03*
X151100001Y-79895600D03*
X150599999Y-79895600D03*
X150100000Y-79895600D03*
X149600001Y-79895600D03*
X149100000Y-79895600D03*
X148600001Y-79895600D03*
X148099999Y-79895600D03*
X147600000Y-79895600D03*
X147100001Y-79895600D03*
X146600000Y-79895600D03*
X146100000Y-79895600D03*
X145599999Y-79895600D03*
X145100000Y-79895600D03*
X144600001Y-79895600D03*
X144099999Y-79895600D03*
X143600000Y-79895600D03*
X143099999Y-79895600D03*
X142600000Y-79895600D03*
X142100001Y-79895600D03*
X141599999Y-79895600D03*
X141100000Y-79895600D03*
X140600001Y-79895600D03*
D30*
X153750000Y-76745601D03*
X138950000Y-76745601D03*
D16*
X153737500Y-88500000D03*
X151662500Y-88500000D03*
D21*
X126675000Y-114100000D03*
X128325000Y-114100000D03*
D14*
X150237500Y-103190000D03*
X150237500Y-101290000D03*
X148362500Y-102240000D03*
D31*
X155800000Y-90850000D03*
X152500000Y-90850000D03*
D32*
X126750000Y-112300000D03*
X128650000Y-112300000D03*
D33*
X123150000Y-87525000D03*
X123150000Y-89175000D03*
D25*
X119650000Y-94200000D03*
X118000000Y-94200000D03*
D34*
X118800000Y-110200000D03*
X116900000Y-110200000D03*
D35*
X155625000Y-123270000D03*
X158700000Y-123270000D03*
D16*
X129157500Y-110180000D03*
X127082500Y-110180000D03*
D25*
X135725000Y-85850000D03*
X134075000Y-85850000D03*
D36*
X118150000Y-90139000D03*
X118649999Y-90139000D03*
X119150001Y-90139000D03*
X119650000Y-90139000D03*
X120150001Y-90139000D03*
X120650000Y-90139000D03*
D37*
X121650001Y-87625878D03*
X117149999Y-87625878D03*
D21*
X120200000Y-95820000D03*
X121850000Y-95820000D03*
D33*
X117650000Y-119925000D03*
X117650000Y-121575000D03*
D15*
X142600000Y-86237500D03*
X142600000Y-84162500D03*
D38*
X123650000Y-108075000D03*
X124150000Y-108075000D03*
X124650000Y-108075000D03*
X125150000Y-108075000D03*
X125650000Y-108075000D03*
X126150000Y-108075000D03*
X126650000Y-108075000D03*
D39*
X127500000Y-107225000D03*
X127500000Y-106725000D03*
X127500000Y-106225000D03*
X127500000Y-105725000D03*
X127500000Y-105225000D03*
X127500000Y-104725000D03*
X127500000Y-104225000D03*
D38*
X126650000Y-103375000D03*
X126150000Y-103375000D03*
X125650000Y-103375000D03*
X125150000Y-103375000D03*
X124650000Y-103375000D03*
X124150000Y-103375000D03*
X123650000Y-103375000D03*
D39*
X122800000Y-104225000D03*
X122800000Y-104725000D03*
X122800000Y-105225000D03*
X122800000Y-105725000D03*
X122800000Y-106225000D03*
X122800000Y-106725000D03*
X122800000Y-107225000D03*
D40*
X125150000Y-105725000D03*
D41*
X129260000Y-103410000D03*
X129260000Y-104430000D03*
D31*
X150000000Y-93450000D03*
X153300000Y-93450000D03*
D16*
X150137500Y-90800000D03*
X148062500Y-90800000D03*
D35*
X133162500Y-78800000D03*
X136237500Y-78800000D03*
D42*
X137650000Y-85850000D03*
X137650000Y-87150000D03*
X139650000Y-86500000D03*
D43*
X151850000Y-99050000D03*
X153400000Y-99050000D03*
D20*
X155000000Y-116675000D03*
X155000000Y-115025000D03*
D44*
X156650000Y-96551400D03*
X156650000Y-99548600D03*
D31*
X158200000Y-93950000D03*
X154900000Y-93950000D03*
D45*
X129135000Y-105220000D03*
X129825000Y-105220000D03*
D15*
X151550000Y-86037500D03*
X151550000Y-83962500D03*
D33*
X158910000Y-117665000D03*
X158910000Y-119315000D03*
M02*
