%TF.GenerationSoftware,KiCad,Pcbnew,7.0.2-6a45011f42~172~ubuntu22.04.1*%
%TF.CreationDate,2023-05-10T16:30:58+02:00*%
%TF.ProjectId,220AC-mini-C3-board,32323041-432d-46d6-996e-692d43332d62,rev?*%
%TF.SameCoordinates,Original*%
%TF.FileFunction,Drillmap*%
%TF.FilePolarity,Positive*%
%FSLAX45Y45*%
G04 Gerber Fmt 4.5, Leading zero omitted, Abs format (unit mm)*
G04 Created by KiCad (PCBNEW 7.0.2-6a45011f42~172~ubuntu22.04.1) date 2023-05-10 16:30:58*
%MOMM*%
%LPD*%
G01*
G04 APERTURE LIST*
%ADD10C,0.100000*%
%ADD11C,0.200000*%
%ADD12C,0.099060*%
G04 APERTURE END LIST*
D10*
X13523000Y-7818120D02*
X13523000Y-5902000D01*
X13523000Y-5902000D02*
G75*
G03*
X13788918Y-5902206I130918J-2632206D01*
G01*
X13750000Y-5902206D02*
X13750000Y-7818120D01*
X13750000Y-7818120D02*
X13523000Y-7818120D01*
X13788918Y-5902206D02*
X13750000Y-5902206D01*
D11*
D12*
X13185470Y-7105310D02*
X13284530Y-7204370D01*
X13284530Y-7105310D02*
X13185470Y-7204370D01*
X13185470Y-7379630D02*
X13284530Y-7478690D01*
X13284530Y-7379630D02*
X13185470Y-7478690D01*
X13765470Y-7105310D02*
X13864530Y-7204370D01*
X13864530Y-7105310D02*
X13765470Y-7204370D01*
X13765470Y-7379630D02*
X13864530Y-7478690D01*
X13864530Y-7379630D02*
X13765470Y-7478690D01*
D11*
X11261077Y-11487190D02*
X11261077Y-11287190D01*
X11261077Y-11287190D02*
X11308696Y-11287190D01*
X11308696Y-11287190D02*
X11337268Y-11296714D01*
X11337268Y-11296714D02*
X11356315Y-11315761D01*
X11356315Y-11315761D02*
X11365839Y-11334809D01*
X11365839Y-11334809D02*
X11375363Y-11372904D01*
X11375363Y-11372904D02*
X11375363Y-11401476D01*
X11375363Y-11401476D02*
X11365839Y-11439571D01*
X11365839Y-11439571D02*
X11356315Y-11458618D01*
X11356315Y-11458618D02*
X11337268Y-11477666D01*
X11337268Y-11477666D02*
X11308696Y-11487190D01*
X11308696Y-11487190D02*
X11261077Y-11487190D01*
X11461077Y-11487190D02*
X11461077Y-11353856D01*
X11461077Y-11391952D02*
X11470601Y-11372904D01*
X11470601Y-11372904D02*
X11480125Y-11363380D01*
X11480125Y-11363380D02*
X11499172Y-11353856D01*
X11499172Y-11353856D02*
X11518220Y-11353856D01*
X11584887Y-11487190D02*
X11584887Y-11353856D01*
X11584887Y-11287190D02*
X11575363Y-11296714D01*
X11575363Y-11296714D02*
X11584887Y-11306237D01*
X11584887Y-11306237D02*
X11594410Y-11296714D01*
X11594410Y-11296714D02*
X11584887Y-11287190D01*
X11584887Y-11287190D02*
X11584887Y-11306237D01*
X11708696Y-11487190D02*
X11689648Y-11477666D01*
X11689648Y-11477666D02*
X11680125Y-11458618D01*
X11680125Y-11458618D02*
X11680125Y-11287190D01*
X11813458Y-11487190D02*
X11794410Y-11477666D01*
X11794410Y-11477666D02*
X11784887Y-11458618D01*
X11784887Y-11458618D02*
X11784887Y-11287190D01*
X12042029Y-11487190D02*
X12042029Y-11287190D01*
X12042029Y-11287190D02*
X12108696Y-11430047D01*
X12108696Y-11430047D02*
X12175363Y-11287190D01*
X12175363Y-11287190D02*
X12175363Y-11487190D01*
X12356315Y-11487190D02*
X12356315Y-11382428D01*
X12356315Y-11382428D02*
X12346791Y-11363380D01*
X12346791Y-11363380D02*
X12327744Y-11353856D01*
X12327744Y-11353856D02*
X12289648Y-11353856D01*
X12289648Y-11353856D02*
X12270601Y-11363380D01*
X12356315Y-11477666D02*
X12337268Y-11487190D01*
X12337268Y-11487190D02*
X12289648Y-11487190D01*
X12289648Y-11487190D02*
X12270601Y-11477666D01*
X12270601Y-11477666D02*
X12261077Y-11458618D01*
X12261077Y-11458618D02*
X12261077Y-11439571D01*
X12261077Y-11439571D02*
X12270601Y-11420523D01*
X12270601Y-11420523D02*
X12289648Y-11410999D01*
X12289648Y-11410999D02*
X12337268Y-11410999D01*
X12337268Y-11410999D02*
X12356315Y-11401476D01*
X12451553Y-11353856D02*
X12451553Y-11553856D01*
X12451553Y-11363380D02*
X12470601Y-11353856D01*
X12470601Y-11353856D02*
X12508696Y-11353856D01*
X12508696Y-11353856D02*
X12527744Y-11363380D01*
X12527744Y-11363380D02*
X12537268Y-11372904D01*
X12537268Y-11372904D02*
X12546791Y-11391952D01*
X12546791Y-11391952D02*
X12546791Y-11449095D01*
X12546791Y-11449095D02*
X12537268Y-11468142D01*
X12537268Y-11468142D02*
X12527744Y-11477666D01*
X12527744Y-11477666D02*
X12508696Y-11487190D01*
X12508696Y-11487190D02*
X12470601Y-11487190D01*
X12470601Y-11487190D02*
X12451553Y-11477666D01*
X12632506Y-11468142D02*
X12642029Y-11477666D01*
X12642029Y-11477666D02*
X12632506Y-11487190D01*
X12632506Y-11487190D02*
X12622982Y-11477666D01*
X12622982Y-11477666D02*
X12632506Y-11468142D01*
X12632506Y-11468142D02*
X12632506Y-11487190D01*
X12632506Y-11363380D02*
X12642029Y-11372904D01*
X12642029Y-11372904D02*
X12632506Y-11382428D01*
X12632506Y-11382428D02*
X12622982Y-11372904D01*
X12622982Y-11372904D02*
X12632506Y-11363380D01*
X12632506Y-11363380D02*
X12632506Y-11382428D01*
D12*
X10914398Y-11765136D02*
X11013458Y-11864196D01*
X11013458Y-11765136D02*
X10914398Y-11864196D01*
D11*
X11299172Y-11707190D02*
X11318220Y-11707190D01*
X11318220Y-11707190D02*
X11337268Y-11716714D01*
X11337268Y-11716714D02*
X11346791Y-11726237D01*
X11346791Y-11726237D02*
X11356315Y-11745285D01*
X11356315Y-11745285D02*
X11365839Y-11783380D01*
X11365839Y-11783380D02*
X11365839Y-11830999D01*
X11365839Y-11830999D02*
X11356315Y-11869095D01*
X11356315Y-11869095D02*
X11346791Y-11888142D01*
X11346791Y-11888142D02*
X11337268Y-11897666D01*
X11337268Y-11897666D02*
X11318220Y-11907190D01*
X11318220Y-11907190D02*
X11299172Y-11907190D01*
X11299172Y-11907190D02*
X11280125Y-11897666D01*
X11280125Y-11897666D02*
X11270601Y-11888142D01*
X11270601Y-11888142D02*
X11261077Y-11869095D01*
X11261077Y-11869095D02*
X11251553Y-11830999D01*
X11251553Y-11830999D02*
X11251553Y-11783380D01*
X11251553Y-11783380D02*
X11261077Y-11745285D01*
X11261077Y-11745285D02*
X11270601Y-11726237D01*
X11270601Y-11726237D02*
X11280125Y-11716714D01*
X11280125Y-11716714D02*
X11299172Y-11707190D01*
X11451553Y-11888142D02*
X11461077Y-11897666D01*
X11461077Y-11897666D02*
X11451553Y-11907190D01*
X11451553Y-11907190D02*
X11442029Y-11897666D01*
X11442029Y-11897666D02*
X11451553Y-11888142D01*
X11451553Y-11888142D02*
X11451553Y-11907190D01*
X11556315Y-11907190D02*
X11594410Y-11907190D01*
X11594410Y-11907190D02*
X11613458Y-11897666D01*
X11613458Y-11897666D02*
X11622982Y-11888142D01*
X11622982Y-11888142D02*
X11642029Y-11859571D01*
X11642029Y-11859571D02*
X11651553Y-11821476D01*
X11651553Y-11821476D02*
X11651553Y-11745285D01*
X11651553Y-11745285D02*
X11642029Y-11726237D01*
X11642029Y-11726237D02*
X11632506Y-11716714D01*
X11632506Y-11716714D02*
X11613458Y-11707190D01*
X11613458Y-11707190D02*
X11575363Y-11707190D01*
X11575363Y-11707190D02*
X11556315Y-11716714D01*
X11556315Y-11716714D02*
X11546791Y-11726237D01*
X11546791Y-11726237D02*
X11537268Y-11745285D01*
X11537268Y-11745285D02*
X11537268Y-11792904D01*
X11537268Y-11792904D02*
X11546791Y-11811952D01*
X11546791Y-11811952D02*
X11556315Y-11821476D01*
X11556315Y-11821476D02*
X11575363Y-11830999D01*
X11575363Y-11830999D02*
X11613458Y-11830999D01*
X11613458Y-11830999D02*
X11632506Y-11821476D01*
X11632506Y-11821476D02*
X11642029Y-11811952D01*
X11642029Y-11811952D02*
X11651553Y-11792904D01*
X11746791Y-11907190D02*
X11784887Y-11907190D01*
X11784887Y-11907190D02*
X11803934Y-11897666D01*
X11803934Y-11897666D02*
X11813458Y-11888142D01*
X11813458Y-11888142D02*
X11832506Y-11859571D01*
X11832506Y-11859571D02*
X11842029Y-11821476D01*
X11842029Y-11821476D02*
X11842029Y-11745285D01*
X11842029Y-11745285D02*
X11832506Y-11726237D01*
X11832506Y-11726237D02*
X11822982Y-11716714D01*
X11822982Y-11716714D02*
X11803934Y-11707190D01*
X11803934Y-11707190D02*
X11765839Y-11707190D01*
X11765839Y-11707190D02*
X11746791Y-11716714D01*
X11746791Y-11716714D02*
X11737268Y-11726237D01*
X11737268Y-11726237D02*
X11727744Y-11745285D01*
X11727744Y-11745285D02*
X11727744Y-11792904D01*
X11727744Y-11792904D02*
X11737268Y-11811952D01*
X11737268Y-11811952D02*
X11746791Y-11821476D01*
X11746791Y-11821476D02*
X11765839Y-11830999D01*
X11765839Y-11830999D02*
X11803934Y-11830999D01*
X11803934Y-11830999D02*
X11822982Y-11821476D01*
X11822982Y-11821476D02*
X11832506Y-11811952D01*
X11832506Y-11811952D02*
X11842029Y-11792904D01*
X12032506Y-11907190D02*
X11918220Y-11907190D01*
X11975363Y-11907190D02*
X11975363Y-11707190D01*
X11975363Y-11707190D02*
X11956315Y-11735761D01*
X11956315Y-11735761D02*
X11937268Y-11754809D01*
X11937268Y-11754809D02*
X11918220Y-11764333D01*
X12118220Y-11907190D02*
X12118220Y-11773856D01*
X12118220Y-11792904D02*
X12127744Y-11783380D01*
X12127744Y-11783380D02*
X12146791Y-11773856D01*
X12146791Y-11773856D02*
X12175363Y-11773856D01*
X12175363Y-11773856D02*
X12194410Y-11783380D01*
X12194410Y-11783380D02*
X12203934Y-11802428D01*
X12203934Y-11802428D02*
X12203934Y-11907190D01*
X12203934Y-11802428D02*
X12213458Y-11783380D01*
X12213458Y-11783380D02*
X12232506Y-11773856D01*
X12232506Y-11773856D02*
X12261077Y-11773856D01*
X12261077Y-11773856D02*
X12280125Y-11783380D01*
X12280125Y-11783380D02*
X12289649Y-11802428D01*
X12289649Y-11802428D02*
X12289649Y-11907190D01*
X12384887Y-11907190D02*
X12384887Y-11773856D01*
X12384887Y-11792904D02*
X12394410Y-11783380D01*
X12394410Y-11783380D02*
X12413458Y-11773856D01*
X12413458Y-11773856D02*
X12442030Y-11773856D01*
X12442030Y-11773856D02*
X12461077Y-11783380D01*
X12461077Y-11783380D02*
X12470601Y-11802428D01*
X12470601Y-11802428D02*
X12470601Y-11907190D01*
X12470601Y-11802428D02*
X12480125Y-11783380D01*
X12480125Y-11783380D02*
X12499172Y-11773856D01*
X12499172Y-11773856D02*
X12527744Y-11773856D01*
X12527744Y-11773856D02*
X12546791Y-11783380D01*
X12546791Y-11783380D02*
X12556315Y-11802428D01*
X12556315Y-11802428D02*
X12556315Y-11907190D01*
X12946791Y-11697666D02*
X12775363Y-11954809D01*
X13203934Y-11707190D02*
X13222982Y-11707190D01*
X13222982Y-11707190D02*
X13242030Y-11716714D01*
X13242030Y-11716714D02*
X13251553Y-11726237D01*
X13251553Y-11726237D02*
X13261077Y-11745285D01*
X13261077Y-11745285D02*
X13270601Y-11783380D01*
X13270601Y-11783380D02*
X13270601Y-11830999D01*
X13270601Y-11830999D02*
X13261077Y-11869095D01*
X13261077Y-11869095D02*
X13251553Y-11888142D01*
X13251553Y-11888142D02*
X13242030Y-11897666D01*
X13242030Y-11897666D02*
X13222982Y-11907190D01*
X13222982Y-11907190D02*
X13203934Y-11907190D01*
X13203934Y-11907190D02*
X13184887Y-11897666D01*
X13184887Y-11897666D02*
X13175363Y-11888142D01*
X13175363Y-11888142D02*
X13165839Y-11869095D01*
X13165839Y-11869095D02*
X13156315Y-11830999D01*
X13156315Y-11830999D02*
X13156315Y-11783380D01*
X13156315Y-11783380D02*
X13165839Y-11745285D01*
X13165839Y-11745285D02*
X13175363Y-11726237D01*
X13175363Y-11726237D02*
X13184887Y-11716714D01*
X13184887Y-11716714D02*
X13203934Y-11707190D01*
X13356315Y-11888142D02*
X13365839Y-11897666D01*
X13365839Y-11897666D02*
X13356315Y-11907190D01*
X13356315Y-11907190D02*
X13346792Y-11897666D01*
X13346792Y-11897666D02*
X13356315Y-11888142D01*
X13356315Y-11888142D02*
X13356315Y-11907190D01*
X13489649Y-11707190D02*
X13508696Y-11707190D01*
X13508696Y-11707190D02*
X13527744Y-11716714D01*
X13527744Y-11716714D02*
X13537268Y-11726237D01*
X13537268Y-11726237D02*
X13546792Y-11745285D01*
X13546792Y-11745285D02*
X13556315Y-11783380D01*
X13556315Y-11783380D02*
X13556315Y-11830999D01*
X13556315Y-11830999D02*
X13546792Y-11869095D01*
X13546792Y-11869095D02*
X13537268Y-11888142D01*
X13537268Y-11888142D02*
X13527744Y-11897666D01*
X13527744Y-11897666D02*
X13508696Y-11907190D01*
X13508696Y-11907190D02*
X13489649Y-11907190D01*
X13489649Y-11907190D02*
X13470601Y-11897666D01*
X13470601Y-11897666D02*
X13461077Y-11888142D01*
X13461077Y-11888142D02*
X13451553Y-11869095D01*
X13451553Y-11869095D02*
X13442030Y-11830999D01*
X13442030Y-11830999D02*
X13442030Y-11783380D01*
X13442030Y-11783380D02*
X13451553Y-11745285D01*
X13451553Y-11745285D02*
X13461077Y-11726237D01*
X13461077Y-11726237D02*
X13470601Y-11716714D01*
X13470601Y-11716714D02*
X13489649Y-11707190D01*
X13622982Y-11707190D02*
X13746792Y-11707190D01*
X13746792Y-11707190D02*
X13680125Y-11783380D01*
X13680125Y-11783380D02*
X13708696Y-11783380D01*
X13708696Y-11783380D02*
X13727744Y-11792904D01*
X13727744Y-11792904D02*
X13737268Y-11802428D01*
X13737268Y-11802428D02*
X13746792Y-11821476D01*
X13746792Y-11821476D02*
X13746792Y-11869095D01*
X13746792Y-11869095D02*
X13737268Y-11888142D01*
X13737268Y-11888142D02*
X13727744Y-11897666D01*
X13727744Y-11897666D02*
X13708696Y-11907190D01*
X13708696Y-11907190D02*
X13651553Y-11907190D01*
X13651553Y-11907190D02*
X13632506Y-11897666D01*
X13632506Y-11897666D02*
X13622982Y-11888142D01*
X13842030Y-11907190D02*
X13880125Y-11907190D01*
X13880125Y-11907190D02*
X13899173Y-11897666D01*
X13899173Y-11897666D02*
X13908696Y-11888142D01*
X13908696Y-11888142D02*
X13927744Y-11859571D01*
X13927744Y-11859571D02*
X13937268Y-11821476D01*
X13937268Y-11821476D02*
X13937268Y-11745285D01*
X13937268Y-11745285D02*
X13927744Y-11726237D01*
X13927744Y-11726237D02*
X13918220Y-11716714D01*
X13918220Y-11716714D02*
X13899173Y-11707190D01*
X13899173Y-11707190D02*
X13861077Y-11707190D01*
X13861077Y-11707190D02*
X13842030Y-11716714D01*
X13842030Y-11716714D02*
X13832506Y-11726237D01*
X13832506Y-11726237D02*
X13822982Y-11745285D01*
X13822982Y-11745285D02*
X13822982Y-11792904D01*
X13822982Y-11792904D02*
X13832506Y-11811952D01*
X13832506Y-11811952D02*
X13842030Y-11821476D01*
X13842030Y-11821476D02*
X13861077Y-11830999D01*
X13861077Y-11830999D02*
X13899173Y-11830999D01*
X13899173Y-11830999D02*
X13918220Y-11821476D01*
X13918220Y-11821476D02*
X13927744Y-11811952D01*
X13927744Y-11811952D02*
X13937268Y-11792904D01*
X14061077Y-11707190D02*
X14080125Y-11707190D01*
X14080125Y-11707190D02*
X14099173Y-11716714D01*
X14099173Y-11716714D02*
X14108696Y-11726237D01*
X14108696Y-11726237D02*
X14118220Y-11745285D01*
X14118220Y-11745285D02*
X14127744Y-11783380D01*
X14127744Y-11783380D02*
X14127744Y-11830999D01*
X14127744Y-11830999D02*
X14118220Y-11869095D01*
X14118220Y-11869095D02*
X14108696Y-11888142D01*
X14108696Y-11888142D02*
X14099173Y-11897666D01*
X14099173Y-11897666D02*
X14080125Y-11907190D01*
X14080125Y-11907190D02*
X14061077Y-11907190D01*
X14061077Y-11907190D02*
X14042030Y-11897666D01*
X14042030Y-11897666D02*
X14032506Y-11888142D01*
X14032506Y-11888142D02*
X14022982Y-11869095D01*
X14022982Y-11869095D02*
X14013458Y-11830999D01*
X14013458Y-11830999D02*
X14013458Y-11783380D01*
X14013458Y-11783380D02*
X14022982Y-11745285D01*
X14022982Y-11745285D02*
X14032506Y-11726237D01*
X14032506Y-11726237D02*
X14042030Y-11716714D01*
X14042030Y-11716714D02*
X14061077Y-11707190D01*
X14203934Y-11707190D02*
X14203934Y-11745285D01*
X14280125Y-11707190D02*
X14280125Y-11745285D01*
X14575363Y-11983380D02*
X14565839Y-11973856D01*
X14565839Y-11973856D02*
X14546792Y-11945285D01*
X14546792Y-11945285D02*
X14537268Y-11926237D01*
X14537268Y-11926237D02*
X14527744Y-11897666D01*
X14527744Y-11897666D02*
X14518220Y-11850047D01*
X14518220Y-11850047D02*
X14518220Y-11811952D01*
X14518220Y-11811952D02*
X14527744Y-11764333D01*
X14527744Y-11764333D02*
X14537268Y-11735761D01*
X14537268Y-11735761D02*
X14546792Y-11716714D01*
X14546792Y-11716714D02*
X14565839Y-11688142D01*
X14565839Y-11688142D02*
X14575363Y-11678618D01*
X14737268Y-11773856D02*
X14737268Y-11907190D01*
X14689649Y-11697666D02*
X14642030Y-11840523D01*
X14642030Y-11840523D02*
X14765839Y-11840523D01*
X14994411Y-11907190D02*
X14994411Y-11707190D01*
X15080125Y-11907190D02*
X15080125Y-11802428D01*
X15080125Y-11802428D02*
X15070601Y-11783380D01*
X15070601Y-11783380D02*
X15051554Y-11773856D01*
X15051554Y-11773856D02*
X15022982Y-11773856D01*
X15022982Y-11773856D02*
X15003935Y-11783380D01*
X15003935Y-11783380D02*
X14994411Y-11792904D01*
X15203935Y-11907190D02*
X15184887Y-11897666D01*
X15184887Y-11897666D02*
X15175363Y-11888142D01*
X15175363Y-11888142D02*
X15165839Y-11869095D01*
X15165839Y-11869095D02*
X15165839Y-11811952D01*
X15165839Y-11811952D02*
X15175363Y-11792904D01*
X15175363Y-11792904D02*
X15184887Y-11783380D01*
X15184887Y-11783380D02*
X15203935Y-11773856D01*
X15203935Y-11773856D02*
X15232506Y-11773856D01*
X15232506Y-11773856D02*
X15251554Y-11783380D01*
X15251554Y-11783380D02*
X15261077Y-11792904D01*
X15261077Y-11792904D02*
X15270601Y-11811952D01*
X15270601Y-11811952D02*
X15270601Y-11869095D01*
X15270601Y-11869095D02*
X15261077Y-11888142D01*
X15261077Y-11888142D02*
X15251554Y-11897666D01*
X15251554Y-11897666D02*
X15232506Y-11907190D01*
X15232506Y-11907190D02*
X15203935Y-11907190D01*
X15384887Y-11907190D02*
X15365839Y-11897666D01*
X15365839Y-11897666D02*
X15356316Y-11878618D01*
X15356316Y-11878618D02*
X15356316Y-11707190D01*
X15537268Y-11897666D02*
X15518220Y-11907190D01*
X15518220Y-11907190D02*
X15480125Y-11907190D01*
X15480125Y-11907190D02*
X15461077Y-11897666D01*
X15461077Y-11897666D02*
X15451554Y-11878618D01*
X15451554Y-11878618D02*
X15451554Y-11802428D01*
X15451554Y-11802428D02*
X15461077Y-11783380D01*
X15461077Y-11783380D02*
X15480125Y-11773856D01*
X15480125Y-11773856D02*
X15518220Y-11773856D01*
X15518220Y-11773856D02*
X15537268Y-11783380D01*
X15537268Y-11783380D02*
X15546792Y-11802428D01*
X15546792Y-11802428D02*
X15546792Y-11821476D01*
X15546792Y-11821476D02*
X15451554Y-11840523D01*
X15622982Y-11897666D02*
X15642030Y-11907190D01*
X15642030Y-11907190D02*
X15680125Y-11907190D01*
X15680125Y-11907190D02*
X15699173Y-11897666D01*
X15699173Y-11897666D02*
X15708697Y-11878618D01*
X15708697Y-11878618D02*
X15708697Y-11869095D01*
X15708697Y-11869095D02*
X15699173Y-11850047D01*
X15699173Y-11850047D02*
X15680125Y-11840523D01*
X15680125Y-11840523D02*
X15651554Y-11840523D01*
X15651554Y-11840523D02*
X15632506Y-11830999D01*
X15632506Y-11830999D02*
X15622982Y-11811952D01*
X15622982Y-11811952D02*
X15622982Y-11802428D01*
X15622982Y-11802428D02*
X15632506Y-11783380D01*
X15632506Y-11783380D02*
X15651554Y-11773856D01*
X15651554Y-11773856D02*
X15680125Y-11773856D01*
X15680125Y-11773856D02*
X15699173Y-11783380D01*
X15775363Y-11983380D02*
X15784887Y-11973856D01*
X15784887Y-11973856D02*
X15803935Y-11945285D01*
X15803935Y-11945285D02*
X15813458Y-11926237D01*
X15813458Y-11926237D02*
X15822982Y-11897666D01*
X15822982Y-11897666D02*
X15832506Y-11850047D01*
X15832506Y-11850047D02*
X15832506Y-11811952D01*
X15832506Y-11811952D02*
X15822982Y-11764333D01*
X15822982Y-11764333D02*
X15813458Y-11735761D01*
X15813458Y-11735761D02*
X15803935Y-11716714D01*
X15803935Y-11716714D02*
X15784887Y-11688142D01*
X15784887Y-11688142D02*
X15775363Y-11678618D01*
X16137268Y-11983380D02*
X16127744Y-11973856D01*
X16127744Y-11973856D02*
X16108697Y-11945285D01*
X16108697Y-11945285D02*
X16099173Y-11926237D01*
X16099173Y-11926237D02*
X16089649Y-11897666D01*
X16089649Y-11897666D02*
X16080125Y-11850047D01*
X16080125Y-11850047D02*
X16080125Y-11811952D01*
X16080125Y-11811952D02*
X16089649Y-11764333D01*
X16089649Y-11764333D02*
X16099173Y-11735761D01*
X16099173Y-11735761D02*
X16108697Y-11716714D01*
X16108697Y-11716714D02*
X16127744Y-11688142D01*
X16127744Y-11688142D02*
X16137268Y-11678618D01*
X16213458Y-11773856D02*
X16213458Y-11907190D01*
X16213458Y-11792904D02*
X16222982Y-11783380D01*
X16222982Y-11783380D02*
X16242030Y-11773856D01*
X16242030Y-11773856D02*
X16270601Y-11773856D01*
X16270601Y-11773856D02*
X16289649Y-11783380D01*
X16289649Y-11783380D02*
X16299173Y-11802428D01*
X16299173Y-11802428D02*
X16299173Y-11907190D01*
X16422982Y-11907190D02*
X16403935Y-11897666D01*
X16403935Y-11897666D02*
X16394411Y-11888142D01*
X16394411Y-11888142D02*
X16384887Y-11869095D01*
X16384887Y-11869095D02*
X16384887Y-11811952D01*
X16384887Y-11811952D02*
X16394411Y-11792904D01*
X16394411Y-11792904D02*
X16403935Y-11783380D01*
X16403935Y-11783380D02*
X16422982Y-11773856D01*
X16422982Y-11773856D02*
X16451554Y-11773856D01*
X16451554Y-11773856D02*
X16470601Y-11783380D01*
X16470601Y-11783380D02*
X16480125Y-11792904D01*
X16480125Y-11792904D02*
X16489649Y-11811952D01*
X16489649Y-11811952D02*
X16489649Y-11869095D01*
X16489649Y-11869095D02*
X16480125Y-11888142D01*
X16480125Y-11888142D02*
X16470601Y-11897666D01*
X16470601Y-11897666D02*
X16451554Y-11907190D01*
X16451554Y-11907190D02*
X16422982Y-11907190D01*
X16546792Y-11773856D02*
X16622982Y-11773856D01*
X16575363Y-11707190D02*
X16575363Y-11878618D01*
X16575363Y-11878618D02*
X16584887Y-11897666D01*
X16584887Y-11897666D02*
X16603935Y-11907190D01*
X16603935Y-11907190D02*
X16622982Y-11907190D01*
X16842030Y-11773856D02*
X16842030Y-11973856D01*
X16842030Y-11783380D02*
X16861078Y-11773856D01*
X16861078Y-11773856D02*
X16899173Y-11773856D01*
X16899173Y-11773856D02*
X16918221Y-11783380D01*
X16918221Y-11783380D02*
X16927744Y-11792904D01*
X16927744Y-11792904D02*
X16937268Y-11811952D01*
X16937268Y-11811952D02*
X16937268Y-11869095D01*
X16937268Y-11869095D02*
X16927744Y-11888142D01*
X16927744Y-11888142D02*
X16918221Y-11897666D01*
X16918221Y-11897666D02*
X16899173Y-11907190D01*
X16899173Y-11907190D02*
X16861078Y-11907190D01*
X16861078Y-11907190D02*
X16842030Y-11897666D01*
X17051554Y-11907190D02*
X17032506Y-11897666D01*
X17032506Y-11897666D02*
X17022982Y-11878618D01*
X17022982Y-11878618D02*
X17022982Y-11707190D01*
X17213459Y-11907190D02*
X17213459Y-11802428D01*
X17213459Y-11802428D02*
X17203935Y-11783380D01*
X17203935Y-11783380D02*
X17184887Y-11773856D01*
X17184887Y-11773856D02*
X17146792Y-11773856D01*
X17146792Y-11773856D02*
X17127744Y-11783380D01*
X17213459Y-11897666D02*
X17194411Y-11907190D01*
X17194411Y-11907190D02*
X17146792Y-11907190D01*
X17146792Y-11907190D02*
X17127744Y-11897666D01*
X17127744Y-11897666D02*
X17118221Y-11878618D01*
X17118221Y-11878618D02*
X17118221Y-11859571D01*
X17118221Y-11859571D02*
X17127744Y-11840523D01*
X17127744Y-11840523D02*
X17146792Y-11830999D01*
X17146792Y-11830999D02*
X17194411Y-11830999D01*
X17194411Y-11830999D02*
X17213459Y-11821476D01*
X17280125Y-11773856D02*
X17356316Y-11773856D01*
X17308697Y-11707190D02*
X17308697Y-11878618D01*
X17308697Y-11878618D02*
X17318221Y-11897666D01*
X17318221Y-11897666D02*
X17337268Y-11907190D01*
X17337268Y-11907190D02*
X17356316Y-11907190D01*
X17499173Y-11897666D02*
X17480125Y-11907190D01*
X17480125Y-11907190D02*
X17442030Y-11907190D01*
X17442030Y-11907190D02*
X17422982Y-11897666D01*
X17422982Y-11897666D02*
X17413459Y-11878618D01*
X17413459Y-11878618D02*
X17413459Y-11802428D01*
X17413459Y-11802428D02*
X17422982Y-11783380D01*
X17422982Y-11783380D02*
X17442030Y-11773856D01*
X17442030Y-11773856D02*
X17480125Y-11773856D01*
X17480125Y-11773856D02*
X17499173Y-11783380D01*
X17499173Y-11783380D02*
X17508697Y-11802428D01*
X17508697Y-11802428D02*
X17508697Y-11821476D01*
X17508697Y-11821476D02*
X17413459Y-11840523D01*
X17680125Y-11907190D02*
X17680125Y-11707190D01*
X17680125Y-11897666D02*
X17661078Y-11907190D01*
X17661078Y-11907190D02*
X17622982Y-11907190D01*
X17622982Y-11907190D02*
X17603935Y-11897666D01*
X17603935Y-11897666D02*
X17594411Y-11888142D01*
X17594411Y-11888142D02*
X17584887Y-11869095D01*
X17584887Y-11869095D02*
X17584887Y-11811952D01*
X17584887Y-11811952D02*
X17594411Y-11792904D01*
X17594411Y-11792904D02*
X17603935Y-11783380D01*
X17603935Y-11783380D02*
X17622982Y-11773856D01*
X17622982Y-11773856D02*
X17661078Y-11773856D01*
X17661078Y-11773856D02*
X17680125Y-11783380D01*
X17756316Y-11983380D02*
X17765840Y-11973856D01*
X17765840Y-11973856D02*
X17784887Y-11945285D01*
X17784887Y-11945285D02*
X17794411Y-11926237D01*
X17794411Y-11926237D02*
X17803935Y-11897666D01*
X17803935Y-11897666D02*
X17813459Y-11850047D01*
X17813459Y-11850047D02*
X17813459Y-11811952D01*
X17813459Y-11811952D02*
X17803935Y-11764333D01*
X17803935Y-11764333D02*
X17794411Y-11735761D01*
X17794411Y-11735761D02*
X17784887Y-11716714D01*
X17784887Y-11716714D02*
X17765840Y-11688142D01*
X17765840Y-11688142D02*
X17756316Y-11678618D01*
M02*
