%TF.GenerationSoftware,KiCad,Pcbnew,7.0.2-6a45011f42~172~ubuntu22.04.1*%
%TF.CreationDate,2023-05-10T16:31:12+02:00*%
%TF.ProjectId,220AC-mini-C3-board,32323041-432d-46d6-996e-692d43332d62,rev?*%
%TF.SameCoordinates,Original*%
%TF.FileFunction,Copper,L2,Bot*%
%TF.FilePolarity,Positive*%
%FSLAX46Y46*%
G04 Gerber Fmt 4.6, Leading zero omitted, Abs format (unit mm)*
G04 Created by KiCad (PCBNEW 7.0.2-6a45011f42~172~ubuntu22.04.1) date 2023-05-10 16:31:12*
%MOMM*%
%LPD*%
G01*
G04 APERTURE LIST*
G04 Aperture macros list*
%AMRoundRect*
0 Rectangle with rounded corners*
0 $1 Rounding radius*
0 $2 $3 $4 $5 $6 $7 $8 $9 X,Y pos of 4 corners*
0 Add a 4 corners polygon primitive as box body*
4,1,4,$2,$3,$4,$5,$6,$7,$8,$9,$2,$3,0*
0 Add four circle primitives for the rounded corners*
1,1,$1+$1,$2,$3*
1,1,$1+$1,$4,$5*
1,1,$1+$1,$6,$7*
1,1,$1+$1,$8,$9*
0 Add four rect primitives between the rounded corners*
20,1,$1+$1,$2,$3,$4,$5,0*
20,1,$1+$1,$4,$5,$6,$7,0*
20,1,$1+$1,$6,$7,$8,$9,0*
20,1,$1+$1,$8,$9,$2,$3,0*%
G04 Aperture macros list end*
%TA.AperFunction,ComponentPad*%
%ADD10R,1.320800X1.320800*%
%TD*%
%TA.AperFunction,ComponentPad*%
%ADD11C,1.320800*%
%TD*%
%TA.AperFunction,ComponentPad*%
%ADD12RoundRect,0.476250X0.781050X0.476250X-0.781050X0.476250X-0.781050X-0.476250X0.781050X-0.476250X0*%
%TD*%
%TA.AperFunction,ComponentPad*%
%ADD13O,2.514600X1.905000*%
%TD*%
%TA.AperFunction,ComponentPad*%
%ADD14RoundRect,0.500000X0.024678X-0.706676X0.706676X0.024678X-0.024678X0.706676X-0.706676X-0.024678X0*%
%TD*%
%TA.AperFunction,ComponentPad*%
%ADD15C,2.000000*%
%TD*%
%TA.AperFunction,ComponentPad*%
%ADD16RoundRect,0.500000X0.500000X-0.500000X0.500000X0.500000X-0.500000X0.500000X-0.500000X-0.500000X0*%
%TD*%
%TA.AperFunction,ComponentPad*%
%ADD17C,1.803400*%
%TD*%
%TA.AperFunction,ComponentPad*%
%ADD18R,1.803400X1.803400*%
%TD*%
%TA.AperFunction,ComponentPad*%
%ADD19C,2.311400*%
%TD*%
%TA.AperFunction,ComponentPad*%
%ADD20R,2.000000X2.000000*%
%TD*%
%TA.AperFunction,ComponentPad*%
%ADD21R,1.700000X1.700000*%
%TD*%
%TA.AperFunction,ComponentPad*%
%ADD22O,1.700000X1.700000*%
%TD*%
G04 APERTURE END LIST*
D10*
%TO.P,Q1,1,C*%
%TO.N,Net-(D1-Pad2)*%
X132760000Y-94000000D03*
D11*
%TO.P,Q1,2,B*%
%TO.N,Net-(Q1-Pad2)*%
X132760000Y-91400000D03*
%TO.P,Q1,3,E*%
%TO.N,GND*%
X132760000Y-88800000D03*
%TD*%
D12*
%TO.P,U1,1,ACL*%
%TO.N,/AC (N)*%
X151249999Y-72920000D03*
D13*
%TO.P,U1,2,ACN*%
%TO.N,Net-(R1-Pad2)*%
X147250000Y-72920000D03*
%TO.P,U1,3,+VCAP*%
%TO.N,Net-(C1-Pad1)*%
X143250000Y-72920000D03*
%TO.P,U1,4,-VCAP*%
%TO.N,Net-(C1-Pad2)*%
X139250000Y-72920000D03*
%TO.P,U1,5,-VO*%
%TO.N,GND*%
X131250001Y-72920000D03*
%TO.P,U1,6,+VO*%
%TO.N,Net-(C2-Pad1)*%
X127250002Y-72920000D03*
%TD*%
D14*
%TO.P,J2,1,Pin_1*%
%TO.N,Net-(J2-Pad1)*%
X151137724Y-100587638D03*
D15*
%TO.P,J2,2,Pin_2*%
%TO.N,Net-(J2-Pad2)*%
X154602276Y-96872362D03*
%TD*%
D16*
%TO.P,J1,1,Pin_1*%
%TO.N,AC*%
X157700000Y-88840000D03*
D15*
%TO.P,J1,2,Pin_2*%
%TO.N,/AC (N)*%
X157700000Y-83760000D03*
%TD*%
D10*
%TO.P,Q2,1,C*%
%TO.N,Net-(D2-Pad2)*%
X127000000Y-93980000D03*
D11*
%TO.P,Q2,2,B*%
%TO.N,Net-(Q2-Pad2)*%
X127000000Y-91380000D03*
%TO.P,Q2,3,E*%
%TO.N,GND*%
X127000000Y-88780000D03*
%TD*%
D17*
%TO.P,K1,1*%
%TO.N,Net-(D1-Pad2)*%
X126570000Y-105350000D03*
D18*
%TO.P,K1,2*%
%TO.N,+3V3*%
X126570000Y-101600000D03*
D17*
%TO.P,K1,3*%
%TO.N,Net-(D2-Pad2)*%
X126570000Y-97850000D03*
D19*
%TO.P,K1,4*%
%TO.N,Net-(J2-Pad2)*%
X143903000Y-98000000D03*
%TO.P,K1,5*%
%TO.N,Net-(J2-Pad1)*%
X141363000Y-105200000D03*
%TD*%
D20*
%TO.P,C2,1*%
%TO.N,Net-(C2-Pad1)*%
X117622323Y-72030000D03*
D15*
%TO.P,C2,2*%
%TO.N,GND*%
X122622323Y-72030000D03*
%TD*%
D21*
%TO.P,J3,1,Pin_1*%
%TO.N,GND*%
X117605000Y-87620000D03*
D22*
%TO.P,J3,2,Pin_2*%
%TO.N,+3V3*%
X117605000Y-90160000D03*
%TO.P,J3,3,Pin_3*%
%TO.N,/IO_3*%
X117605000Y-92700000D03*
%TO.P,J3,4,Pin_4*%
%TO.N,/IO_2*%
X117605000Y-95240000D03*
%TD*%
%TA.AperFunction,Conductor*%
%TO.N,GND*%
G36*
X135164149Y-59045103D02*
G01*
X135214231Y-59095424D01*
X135229500Y-59155546D01*
X135229500Y-61880395D01*
X134868505Y-95566947D01*
X134854003Y-95624298D01*
X127331196Y-109912324D01*
X127281761Y-109963282D01*
X127212623Y-109979424D01*
X127174395Y-109971194D01*
X126778970Y-109818802D01*
X126776424Y-109817789D01*
X126349358Y-109642444D01*
X125837964Y-109422309D01*
X125835435Y-109421188D01*
X125415701Y-109229462D01*
X124913120Y-108989703D01*
X124910608Y-108988470D01*
X124498734Y-108780619D01*
X124005647Y-108521549D01*
X124003158Y-108520205D01*
X123599886Y-108296617D01*
X123384930Y-108172855D01*
X123116978Y-108018580D01*
X123114550Y-108017145D01*
X122720477Y-107778173D01*
X122248515Y-107481590D01*
X122246086Y-107480025D01*
X121861841Y-107226074D01*
X121401454Y-106911322D01*
X121399063Y-106909646D01*
X121025206Y-106641114D01*
X120577168Y-106308698D01*
X120574818Y-106306912D01*
X120211866Y-106024194D01*
X119776772Y-105674531D01*
X119774470Y-105672636D01*
X119423065Y-105376261D01*
X119392856Y-105350000D01*
X125154967Y-105350000D01*
X125174266Y-105582907D01*
X125174266Y-105582910D01*
X125174267Y-105582911D01*
X125231636Y-105809459D01*
X125325516Y-106023481D01*
X125453340Y-106219132D01*
X125611620Y-106391070D01*
X125611624Y-106391074D01*
X125759164Y-106505909D01*
X125796051Y-106534619D01*
X125992838Y-106641114D01*
X126001588Y-106645849D01*
X126222630Y-106721733D01*
X126337888Y-106740966D01*
X126453145Y-106760200D01*
X126453148Y-106760200D01*
X126686855Y-106760200D01*
X126785645Y-106743714D01*
X126917370Y-106721733D01*
X127138412Y-106645849D01*
X127343950Y-106534618D01*
X127528376Y-106391074D01*
X127686660Y-106219131D01*
X127814484Y-106023481D01*
X127908363Y-105809460D01*
X127965734Y-105582907D01*
X127985033Y-105350000D01*
X127965734Y-105117093D01*
X127908363Y-104890540D01*
X127814484Y-104676519D01*
X127686660Y-104480869D01*
X127686659Y-104480867D01*
X127528379Y-104308929D01*
X127528378Y-104308928D01*
X127528376Y-104308926D01*
X127417720Y-104222799D01*
X127343948Y-104165380D01*
X127138411Y-104054150D01*
X126997465Y-104005763D01*
X126917370Y-103978267D01*
X126917367Y-103978266D01*
X126917366Y-103978266D01*
X126686855Y-103939800D01*
X126686852Y-103939800D01*
X126453148Y-103939800D01*
X126453145Y-103939800D01*
X126222633Y-103978266D01*
X126001588Y-104054150D01*
X125796051Y-104165380D01*
X125611620Y-104308929D01*
X125453340Y-104480867D01*
X125325516Y-104676518D01*
X125231636Y-104890540D01*
X125201915Y-105007908D01*
X125174266Y-105117093D01*
X125154967Y-105350000D01*
X119392856Y-105350000D01*
X119292532Y-105262788D01*
X119001638Y-105009911D01*
X118999388Y-105007908D01*
X118659930Y-104698242D01*
X118252781Y-104315709D01*
X118250588Y-104313598D01*
X117923651Y-103991195D01*
X117531387Y-103593021D01*
X117529256Y-103590804D01*
X117215356Y-103256210D01*
X116838491Y-102842879D01*
X116836428Y-102840559D01*
X116584636Y-102550338D01*
X125159800Y-102550338D01*
X125160160Y-102553686D01*
X125166311Y-102610900D01*
X125217411Y-102747905D01*
X125305038Y-102864961D01*
X125422094Y-102952588D01*
X125422095Y-102952588D01*
X125422096Y-102952589D01*
X125559099Y-103003689D01*
X125619662Y-103010200D01*
X125623031Y-103010200D01*
X127516969Y-103010200D01*
X127520338Y-103010200D01*
X127580901Y-103003689D01*
X127717904Y-102952589D01*
X127834961Y-102864961D01*
X127922589Y-102747904D01*
X127973689Y-102610901D01*
X127980200Y-102550338D01*
X127980200Y-100649662D01*
X127973689Y-100589099D01*
X127922589Y-100452096D01*
X127922588Y-100452094D01*
X127834961Y-100335038D01*
X127717905Y-100247411D01*
X127649402Y-100221861D01*
X127580901Y-100196311D01*
X127520338Y-100189800D01*
X125619662Y-100189800D01*
X125616313Y-100190159D01*
X125616313Y-100190160D01*
X125559099Y-100196311D01*
X125422094Y-100247411D01*
X125305038Y-100335038D01*
X125217411Y-100452094D01*
X125166310Y-100589098D01*
X125166311Y-100589099D01*
X125159800Y-100649662D01*
X125159800Y-102550338D01*
X116584636Y-102550338D01*
X116536046Y-102494332D01*
X116175217Y-102066500D01*
X116173226Y-102064078D01*
X115886770Y-101706737D01*
X115761129Y-101545519D01*
X115542493Y-101264972D01*
X115540581Y-101262452D01*
X115268481Y-100894582D01*
X114941350Y-100439602D01*
X114939516Y-100436983D01*
X114682113Y-100059094D01*
X114571514Y-99892013D01*
X114372546Y-99591432D01*
X114370850Y-99588796D01*
X114128592Y-99201604D01*
X113985517Y-98966180D01*
X113837077Y-98721928D01*
X113835436Y-98719147D01*
X113608701Y-98323334D01*
X113475020Y-98082907D01*
X113345520Y-97850000D01*
X125154967Y-97850000D01*
X125174266Y-98082907D01*
X125174266Y-98082910D01*
X125174267Y-98082911D01*
X125231636Y-98309459D01*
X125325516Y-98523481D01*
X125453340Y-98719132D01*
X125611620Y-98891070D01*
X125611624Y-98891074D01*
X125759164Y-99005909D01*
X125796051Y-99034619D01*
X125855837Y-99066973D01*
X126001588Y-99145849D01*
X126222630Y-99221733D01*
X126337888Y-99240966D01*
X126453145Y-99260200D01*
X126453148Y-99260200D01*
X126686855Y-99260200D01*
X126785645Y-99243714D01*
X126917370Y-99221733D01*
X127138412Y-99145849D01*
X127343950Y-99034618D01*
X127528376Y-98891074D01*
X127686660Y-98719131D01*
X127814484Y-98523481D01*
X127908363Y-98309460D01*
X127965734Y-98082907D01*
X127985033Y-97850000D01*
X127965734Y-97617093D01*
X127908363Y-97390540D01*
X127814484Y-97176519D01*
X127686660Y-96980869D01*
X127686659Y-96980867D01*
X127528379Y-96808929D01*
X127528378Y-96808928D01*
X127528376Y-96808926D01*
X127417720Y-96722799D01*
X127343948Y-96665380D01*
X127138411Y-96554150D01*
X126946717Y-96488342D01*
X126917370Y-96478267D01*
X126917367Y-96478266D01*
X126917366Y-96478266D01*
X126686855Y-96439800D01*
X126686852Y-96439800D01*
X126453148Y-96439800D01*
X126453145Y-96439800D01*
X126222633Y-96478266D01*
X126001588Y-96554150D01*
X125796051Y-96665380D01*
X125611620Y-96808929D01*
X125453340Y-96980867D01*
X125325516Y-97176518D01*
X125231636Y-97390540D01*
X125174267Y-97617088D01*
X125174266Y-97617093D01*
X125154967Y-97850000D01*
X113345520Y-97850000D01*
X113335690Y-97832320D01*
X113334177Y-97829513D01*
X113123223Y-97425615D01*
X112869149Y-96923957D01*
X112867694Y-96920986D01*
X112672881Y-96509788D01*
X112438154Y-95998205D01*
X112436807Y-95995163D01*
X112391386Y-95888790D01*
X112258305Y-95577120D01*
X112254105Y-95566947D01*
X112119127Y-95240000D01*
X116241844Y-95240000D01*
X116260436Y-95464368D01*
X116260436Y-95464371D01*
X116260437Y-95464372D01*
X116315702Y-95682611D01*
X116406139Y-95888790D01*
X116529278Y-96077268D01*
X116681762Y-96242908D01*
X116799883Y-96334846D01*
X116859424Y-96381189D01*
X117057426Y-96488342D01*
X117270365Y-96561444D01*
X117492431Y-96598500D01*
X117492434Y-96598500D01*
X117717566Y-96598500D01*
X117717569Y-96598500D01*
X117939635Y-96561444D01*
X118152574Y-96488342D01*
X118350576Y-96381189D01*
X118528240Y-96242906D01*
X118680722Y-96077268D01*
X118803860Y-95888791D01*
X118894296Y-95682616D01*
X118949564Y-95464368D01*
X118968156Y-95240000D01*
X118949564Y-95015632D01*
X118894296Y-94797384D01*
X118846771Y-94689038D01*
X125831100Y-94689038D01*
X125837611Y-94749601D01*
X125845071Y-94769601D01*
X125888711Y-94886605D01*
X125976338Y-95003661D01*
X126093394Y-95091288D01*
X126093395Y-95091288D01*
X126093396Y-95091289D01*
X126230399Y-95142389D01*
X126290962Y-95148900D01*
X126294331Y-95148900D01*
X127705669Y-95148900D01*
X127709038Y-95148900D01*
X127769601Y-95142389D01*
X127906604Y-95091289D01*
X128023661Y-95003661D01*
X128111289Y-94886604D01*
X128162389Y-94749601D01*
X128166750Y-94709038D01*
X131591100Y-94709038D01*
X131591460Y-94712386D01*
X131597611Y-94769600D01*
X131648711Y-94906605D01*
X131736338Y-95023661D01*
X131853394Y-95111288D01*
X131853395Y-95111288D01*
X131853396Y-95111289D01*
X131990399Y-95162389D01*
X132050962Y-95168900D01*
X132054331Y-95168900D01*
X133465669Y-95168900D01*
X133469038Y-95168900D01*
X133529601Y-95162389D01*
X133666604Y-95111289D01*
X133783661Y-95023661D01*
X133871289Y-94906604D01*
X133922389Y-94769601D01*
X133928900Y-94709038D01*
X133928900Y-93290962D01*
X133922389Y-93230399D01*
X133871289Y-93093396D01*
X133871288Y-93093394D01*
X133783661Y-92976338D01*
X133666605Y-92888711D01*
X133598102Y-92863161D01*
X133529601Y-92837611D01*
X133469038Y-92831100D01*
X132050962Y-92831100D01*
X132047613Y-92831459D01*
X132047613Y-92831460D01*
X131990399Y-92837611D01*
X131853394Y-92888711D01*
X131736338Y-92976338D01*
X131648711Y-93093394D01*
X131605071Y-93210399D01*
X131597611Y-93230399D01*
X131591100Y-93290962D01*
X131591100Y-94709038D01*
X128166750Y-94709038D01*
X128168900Y-94689038D01*
X128168900Y-93270962D01*
X128162389Y-93210399D01*
X128111289Y-93073396D01*
X128087537Y-93041667D01*
X128023661Y-92956338D01*
X127906605Y-92868711D01*
X127838102Y-92843161D01*
X127769601Y-92817611D01*
X127709038Y-92811100D01*
X126290962Y-92811100D01*
X126287613Y-92811459D01*
X126287613Y-92811460D01*
X126230399Y-92817611D01*
X126093394Y-92868711D01*
X125976338Y-92956338D01*
X125888711Y-93073394D01*
X125862895Y-93142611D01*
X125837611Y-93210399D01*
X125831100Y-93270962D01*
X125831100Y-94689038D01*
X118846771Y-94689038D01*
X118803860Y-94591209D01*
X118680722Y-94402732D01*
X118528240Y-94237094D01*
X118528239Y-94237093D01*
X118528237Y-94237091D01*
X118350578Y-94098812D01*
X118317317Y-94080812D01*
X118266927Y-94030798D01*
X118251576Y-93961481D01*
X118276138Y-93894868D01*
X118317315Y-93859188D01*
X118350576Y-93841189D01*
X118528240Y-93702906D01*
X118680722Y-93537268D01*
X118803860Y-93348791D01*
X118894296Y-93142616D01*
X118949564Y-92924368D01*
X118968156Y-92700000D01*
X118949564Y-92475632D01*
X118894296Y-92257384D01*
X118803860Y-92051209D01*
X118680722Y-91862732D01*
X118528240Y-91697094D01*
X118528239Y-91697093D01*
X118528237Y-91697091D01*
X118350579Y-91558813D01*
X118350577Y-91558812D01*
X118350576Y-91558811D01*
X118317317Y-91540812D01*
X118266929Y-91490801D01*
X118251576Y-91421484D01*
X118266871Y-91380000D01*
X125826091Y-91380000D01*
X125846079Y-91595703D01*
X125905361Y-91804060D01*
X126001924Y-91997985D01*
X126050489Y-92062295D01*
X126132472Y-92170857D01*
X126292562Y-92316799D01*
X126292564Y-92316800D01*
X126292565Y-92316801D01*
X126476739Y-92430837D01*
X126476743Y-92430838D01*
X126476744Y-92430839D01*
X126678745Y-92509095D01*
X126891685Y-92548900D01*
X126891686Y-92548900D01*
X127108314Y-92548900D01*
X127108315Y-92548900D01*
X127321255Y-92509095D01*
X127523256Y-92430839D01*
X127523257Y-92430837D01*
X127523260Y-92430837D01*
X127675133Y-92336801D01*
X127707438Y-92316799D01*
X127867528Y-92170857D01*
X127998077Y-91997983D01*
X128094637Y-91804064D01*
X128153920Y-91595705D01*
X128172055Y-91400000D01*
X131586091Y-91400000D01*
X131606079Y-91615703D01*
X131665361Y-91824060D01*
X131761924Y-92017985D01*
X131787014Y-92051209D01*
X131892472Y-92190857D01*
X132052562Y-92336799D01*
X132052564Y-92336800D01*
X132052565Y-92336801D01*
X132236739Y-92450837D01*
X132236743Y-92450838D01*
X132236744Y-92450839D01*
X132438745Y-92529095D01*
X132651685Y-92568900D01*
X132651686Y-92568900D01*
X132868314Y-92568900D01*
X132868315Y-92568900D01*
X133081255Y-92529095D01*
X133283256Y-92450839D01*
X133283257Y-92450837D01*
X133283260Y-92450837D01*
X133375347Y-92393818D01*
X133467438Y-92336799D01*
X133627528Y-92190857D01*
X133758077Y-92017983D01*
X133854637Y-91824064D01*
X133913920Y-91615705D01*
X133933908Y-91400000D01*
X133913920Y-91184295D01*
X133870870Y-91032990D01*
X133854638Y-90975939D01*
X133854637Y-90975936D01*
X133758077Y-90782017D01*
X133742971Y-90762014D01*
X133706109Y-90713201D01*
X133627528Y-90609143D01*
X133467438Y-90463201D01*
X133467435Y-90463199D01*
X133467434Y-90463198D01*
X133283260Y-90349162D01*
X133164771Y-90303259D01*
X133081255Y-90270905D01*
X132868315Y-90231100D01*
X132651685Y-90231100D01*
X132545737Y-90250905D01*
X132438745Y-90270905D01*
X132236739Y-90349162D01*
X132052565Y-90463198D01*
X131892471Y-90609144D01*
X131761924Y-90782014D01*
X131665361Y-90975939D01*
X131606079Y-91184296D01*
X131586091Y-91400000D01*
X128172055Y-91400000D01*
X128173908Y-91380000D01*
X128153920Y-91164295D01*
X128100328Y-90975939D01*
X128094638Y-90955939D01*
X128094637Y-90955936D01*
X127998077Y-90762017D01*
X127867528Y-90589143D01*
X127707438Y-90443201D01*
X127707435Y-90443199D01*
X127707434Y-90443198D01*
X127523260Y-90329162D01*
X127404771Y-90283259D01*
X127321255Y-90250905D01*
X127108315Y-90211100D01*
X126891685Y-90211100D01*
X126678745Y-90250904D01*
X126678745Y-90250905D01*
X126476739Y-90329162D01*
X126292565Y-90443198D01*
X126292561Y-90443201D01*
X126292562Y-90443201D01*
X126146826Y-90576058D01*
X126132471Y-90589144D01*
X126001924Y-90762014D01*
X125905361Y-90955939D01*
X125846079Y-91164296D01*
X125826091Y-91380000D01*
X118266871Y-91380000D01*
X118276136Y-91354871D01*
X118317316Y-91319187D01*
X118350576Y-91301189D01*
X118528240Y-91162906D01*
X118680722Y-90997268D01*
X118803860Y-90808791D01*
X118894296Y-90602616D01*
X118949564Y-90384368D01*
X118968156Y-90160000D01*
X118949564Y-89935632D01*
X118894296Y-89717384D01*
X118803860Y-89511209D01*
X118680722Y-89322732D01*
X118537157Y-89166780D01*
X118505737Y-89103117D01*
X118513724Y-89032571D01*
X118558583Y-88977542D01*
X118585827Y-88963388D01*
X118700963Y-88920445D01*
X118817904Y-88832904D01*
X118857507Y-88780000D01*
X125826594Y-88780000D01*
X125846574Y-88995617D01*
X125905829Y-89203880D01*
X126002350Y-89397719D01*
X126011264Y-89409523D01*
X126011265Y-89409524D01*
X126595678Y-88825110D01*
X126608673Y-88907150D01*
X126667117Y-89021854D01*
X126758146Y-89112883D01*
X126872850Y-89171327D01*
X126954888Y-89184320D01*
X126373119Y-89766089D01*
X126476966Y-89830389D01*
X126678882Y-89908611D01*
X126891734Y-89948400D01*
X127108266Y-89948400D01*
X127321117Y-89908611D01*
X127523030Y-89830390D01*
X127626878Y-89766089D01*
X127045110Y-89184321D01*
X127127150Y-89171327D01*
X127241854Y-89112883D01*
X127332883Y-89021854D01*
X127391327Y-88907150D01*
X127404320Y-88825111D01*
X127988733Y-89409524D01*
X127988734Y-89409523D01*
X127997650Y-89397719D01*
X128094168Y-89203885D01*
X128153425Y-88995617D01*
X128171552Y-88800000D01*
X131586594Y-88800000D01*
X131606574Y-89015617D01*
X131665829Y-89223880D01*
X131762350Y-89417719D01*
X131771264Y-89429523D01*
X131771265Y-89429524D01*
X132355678Y-88845109D01*
X132368673Y-88927150D01*
X132427117Y-89041854D01*
X132518146Y-89132883D01*
X132632850Y-89191327D01*
X132714888Y-89204320D01*
X132133119Y-89786089D01*
X132236966Y-89850389D01*
X132438882Y-89928611D01*
X132651734Y-89968400D01*
X132868266Y-89968400D01*
X133081117Y-89928611D01*
X133283030Y-89850390D01*
X133386878Y-89786089D01*
X132805110Y-89204321D01*
X132887150Y-89191327D01*
X133001854Y-89132883D01*
X133092883Y-89041854D01*
X133151327Y-88927150D01*
X133164320Y-88845111D01*
X133748733Y-89429524D01*
X133748734Y-89429523D01*
X133757650Y-89417719D01*
X133854168Y-89223885D01*
X133913425Y-89015617D01*
X133933405Y-88800000D01*
X133913425Y-88584382D01*
X133854169Y-88376117D01*
X133757650Y-88182282D01*
X133748733Y-88170475D01*
X133164320Y-88754887D01*
X133151327Y-88672850D01*
X133092883Y-88558146D01*
X133001854Y-88467117D01*
X132887150Y-88408673D01*
X132805110Y-88395678D01*
X133386879Y-87813910D01*
X133283033Y-87749610D01*
X133081117Y-87671388D01*
X132868266Y-87631600D01*
X132651734Y-87631600D01*
X132438882Y-87671388D01*
X132236966Y-87749610D01*
X132133119Y-87813910D01*
X132714888Y-88395679D01*
X132632850Y-88408673D01*
X132518146Y-88467117D01*
X132427117Y-88558146D01*
X132368673Y-88672850D01*
X132355679Y-88754888D01*
X131771265Y-88170474D01*
X131762348Y-88182282D01*
X131665831Y-88376114D01*
X131606574Y-88584382D01*
X131586594Y-88800000D01*
X128171552Y-88800000D01*
X128173405Y-88780000D01*
X128153425Y-88564382D01*
X128094169Y-88356117D01*
X127997650Y-88162282D01*
X127988733Y-88150475D01*
X127404320Y-88734887D01*
X127391327Y-88652850D01*
X127332883Y-88538146D01*
X127241854Y-88447117D01*
X127127150Y-88388673D01*
X127045110Y-88375678D01*
X127626879Y-87793910D01*
X127523033Y-87729610D01*
X127321117Y-87651388D01*
X127108266Y-87611600D01*
X126891734Y-87611600D01*
X126678882Y-87651388D01*
X126476966Y-87729610D01*
X126373120Y-87793910D01*
X126954888Y-88375679D01*
X126872850Y-88388673D01*
X126758146Y-88447117D01*
X126667117Y-88538146D01*
X126608673Y-88652850D01*
X126595679Y-88734888D01*
X126011264Y-88150474D01*
X126002348Y-88162282D01*
X125905831Y-88356114D01*
X125846574Y-88564382D01*
X125826594Y-88780000D01*
X118857507Y-88780000D01*
X118905445Y-88715962D01*
X118956494Y-88579093D01*
X118962640Y-88521936D01*
X118963000Y-88515222D01*
X118963000Y-87874000D01*
X118036116Y-87874000D01*
X118064493Y-87829844D01*
X118105000Y-87691889D01*
X118105000Y-87548111D01*
X118064493Y-87410156D01*
X118036116Y-87366000D01*
X118963000Y-87366000D01*
X118963000Y-86724777D01*
X118962640Y-86718063D01*
X118956494Y-86660906D01*
X118905445Y-86524037D01*
X118817904Y-86407095D01*
X118700962Y-86319554D01*
X118564093Y-86268505D01*
X118506936Y-86262359D01*
X118500223Y-86262000D01*
X117859000Y-86262000D01*
X117859000Y-87186325D01*
X117747315Y-87135320D01*
X117640763Y-87120000D01*
X117569237Y-87120000D01*
X117462685Y-87135320D01*
X117351000Y-87186325D01*
X117351000Y-86262000D01*
X116709777Y-86262000D01*
X116703063Y-86262359D01*
X116645906Y-86268505D01*
X116509037Y-86319554D01*
X116392095Y-86407095D01*
X116304554Y-86524037D01*
X116253505Y-86660906D01*
X116247359Y-86718063D01*
X116247000Y-86724777D01*
X116247000Y-87366000D01*
X117173884Y-87366000D01*
X117145507Y-87410156D01*
X117105000Y-87548111D01*
X117105000Y-87691889D01*
X117145507Y-87829844D01*
X117173884Y-87874000D01*
X116247000Y-87874000D01*
X116247000Y-88515222D01*
X116247359Y-88521936D01*
X116253505Y-88579093D01*
X116304554Y-88715962D01*
X116392095Y-88832904D01*
X116509037Y-88920445D01*
X116624172Y-88963388D01*
X116681008Y-89005935D01*
X116705819Y-89072455D01*
X116690728Y-89141829D01*
X116672841Y-89166782D01*
X116529278Y-89322731D01*
X116406139Y-89511209D01*
X116315702Y-89717388D01*
X116262214Y-89928611D01*
X116260436Y-89935632D01*
X116241844Y-90160000D01*
X116260436Y-90384368D01*
X116260436Y-90384371D01*
X116260437Y-90384372D01*
X116315702Y-90602611D01*
X116315703Y-90602614D01*
X116315704Y-90602616D01*
X116338856Y-90655398D01*
X116406139Y-90808790D01*
X116529278Y-90997268D01*
X116681762Y-91162908D01*
X116859418Y-91301185D01*
X116859420Y-91301186D01*
X116859424Y-91301189D01*
X116892682Y-91319187D01*
X116943071Y-91369200D01*
X116958423Y-91438517D01*
X116933862Y-91505130D01*
X116892683Y-91540812D01*
X116867794Y-91554281D01*
X116859418Y-91558814D01*
X116681762Y-91697091D01*
X116529278Y-91862731D01*
X116406139Y-92051209D01*
X116315702Y-92257388D01*
X116271779Y-92430839D01*
X116260436Y-92475632D01*
X116241844Y-92700000D01*
X116260436Y-92924368D01*
X116260436Y-92924371D01*
X116260437Y-92924372D01*
X116315702Y-93142611D01*
X116406139Y-93348790D01*
X116529278Y-93537268D01*
X116681762Y-93702908D01*
X116783611Y-93782181D01*
X116859424Y-93841189D01*
X116892682Y-93859187D01*
X116943070Y-93909197D01*
X116958423Y-93978513D01*
X116933863Y-94045127D01*
X116892683Y-94080811D01*
X116859423Y-94098810D01*
X116681762Y-94237091D01*
X116529278Y-94402731D01*
X116406139Y-94591209D01*
X116315702Y-94797388D01*
X116273388Y-94964485D01*
X116260436Y-95015632D01*
X116241844Y-95240000D01*
X112119127Y-95240000D01*
X112043332Y-95056409D01*
X112042126Y-95053373D01*
X111926160Y-94749600D01*
X111880215Y-94629246D01*
X111796787Y-94402732D01*
X111685302Y-94100039D01*
X111684228Y-94096996D01*
X111539112Y-93667450D01*
X111364597Y-93130520D01*
X111363629Y-93127395D01*
X111235515Y-92693191D01*
X111081689Y-92149272D01*
X111080824Y-92146044D01*
X110969903Y-91708049D01*
X110871641Y-91301185D01*
X110837036Y-91157901D01*
X110836261Y-91154484D01*
X110762886Y-90808790D01*
X110742608Y-90713255D01*
X110630953Y-90157697D01*
X110630306Y-90154223D01*
X110594918Y-89948400D01*
X110554031Y-89710596D01*
X110463782Y-89150278D01*
X110463267Y-89146764D01*
X110462269Y-89139210D01*
X110404382Y-88701158D01*
X110335762Y-88137089D01*
X110335389Y-88133613D01*
X110293960Y-87687037D01*
X110247098Y-87119743D01*
X110246860Y-87116254D01*
X110222872Y-86669332D01*
X110197918Y-86099701D01*
X110197814Y-86096152D01*
X110191232Y-85649717D01*
X110188295Y-85078484D01*
X110188329Y-85074997D01*
X110199083Y-84629623D01*
X110218246Y-84057782D01*
X110218424Y-84054090D01*
X110246410Y-83610635D01*
X110258583Y-83442174D01*
X110287724Y-83038908D01*
X110288040Y-83035283D01*
X110333122Y-82594415D01*
X110396641Y-82023372D01*
X110397080Y-82019905D01*
X110459087Y-81582387D01*
X110544796Y-81013032D01*
X110545393Y-81009431D01*
X110624115Y-80576011D01*
X110731989Y-80009163D01*
X110732756Y-80005435D01*
X110827920Y-79576958D01*
X110957956Y-79013196D01*
X110958857Y-79009545D01*
X111070246Y-78586456D01*
X111222321Y-78026817D01*
X111223388Y-78023118D01*
X111350620Y-77606375D01*
X111524762Y-77051242D01*
X111525936Y-77047694D01*
X111668661Y-76637967D01*
X111864729Y-76088259D01*
X111866074Y-76084668D01*
X112023932Y-75682546D01*
X112241754Y-75139162D01*
X112243233Y-75135635D01*
X112415795Y-74741799D01*
X112655292Y-74205337D01*
X112656915Y-74201853D01*
X112843670Y-73817053D01*
X113104686Y-73288269D01*
X113106444Y-73284849D01*
X113216627Y-73078638D01*
X116113823Y-73078638D01*
X116120334Y-73139201D01*
X116145883Y-73207702D01*
X116171434Y-73276205D01*
X116259061Y-73393261D01*
X116376117Y-73480888D01*
X116376118Y-73480888D01*
X116376119Y-73480889D01*
X116513122Y-73531989D01*
X116573685Y-73538500D01*
X116577054Y-73538500D01*
X118667592Y-73538500D01*
X118670961Y-73538500D01*
X118731524Y-73531989D01*
X118868527Y-73480889D01*
X118985584Y-73393261D01*
X119073212Y-73276204D01*
X119124312Y-73139201D01*
X119130823Y-73078638D01*
X119130823Y-72030000D01*
X121109660Y-72030000D01*
X121128283Y-72266633D01*
X121183695Y-72497440D01*
X121274531Y-72716738D01*
X121389219Y-72903891D01*
X121389220Y-72903891D01*
X122137961Y-72155150D01*
X122162830Y-72239844D01*
X122240562Y-72360798D01*
X122349223Y-72454952D01*
X122480008Y-72514680D01*
X122494735Y-72516797D01*
X121748430Y-73263101D01*
X121748430Y-73263102D01*
X121935584Y-73377791D01*
X122154882Y-73468627D01*
X122385689Y-73524039D01*
X122622323Y-73542662D01*
X122858956Y-73524039D01*
X123089763Y-73468627D01*
X123309061Y-73377791D01*
X123496214Y-73263102D01*
X123496215Y-73263101D01*
X123274176Y-73041062D01*
X125484202Y-73041062D01*
X125524054Y-73279883D01*
X125524055Y-73279885D01*
X125602671Y-73508887D01*
X125717911Y-73721833D01*
X125866625Y-73912900D01*
X126018542Y-74052749D01*
X126044762Y-74076886D01*
X126247460Y-74209315D01*
X126469190Y-74306575D01*
X126703905Y-74366013D01*
X126884775Y-74381000D01*
X126887389Y-74381000D01*
X127612615Y-74381000D01*
X127615229Y-74381000D01*
X127796099Y-74366013D01*
X128030814Y-74306575D01*
X128252544Y-74209315D01*
X128455242Y-74076886D01*
X128633378Y-73912900D01*
X128782094Y-73721830D01*
X128897332Y-73508888D01*
X128975950Y-73279883D01*
X128993619Y-73174000D01*
X129506893Y-73174000D01*
X129524541Y-73279762D01*
X129603130Y-73508686D01*
X129718327Y-73721553D01*
X129866997Y-73912563D01*
X130045067Y-74076488D01*
X130247697Y-74208872D01*
X130469348Y-74306097D01*
X130703987Y-74365516D01*
X130882202Y-74380284D01*
X130887415Y-74380500D01*
X130996001Y-74380500D01*
X130996001Y-73612513D01*
X131057661Y-73620000D01*
X131442341Y-73620000D01*
X131504001Y-73612513D01*
X131504001Y-74380501D01*
X131504563Y-74381063D01*
X131570765Y-74400502D01*
X131617258Y-74454158D01*
X131626729Y-74484618D01*
X131630667Y-74506952D01*
X131699721Y-74667039D01*
X131803830Y-74806881D01*
X131937385Y-74918949D01*
X132015977Y-74958419D01*
X132093185Y-74997194D01*
X132262829Y-75037400D01*
X132262831Y-75037400D01*
X132389767Y-75037400D01*
X132393436Y-75037400D01*
X132523164Y-75022237D01*
X132686993Y-74962608D01*
X132832654Y-74866805D01*
X132952296Y-74739993D01*
X133039467Y-74589007D01*
X133089469Y-74421988D01*
X133099607Y-74247940D01*
X133069332Y-74076246D01*
X133000279Y-73916162D01*
X132926289Y-73816777D01*
X132896169Y-73776318D01*
X132896168Y-73776317D01*
X132875796Y-73759223D01*
X132836470Y-73700114D01*
X132835344Y-73629126D01*
X132845975Y-73602731D01*
X132896871Y-73508685D01*
X132975460Y-73279762D01*
X132993109Y-73174000D01*
X132057244Y-73174000D01*
X132059319Y-73170046D01*
X132100001Y-73004995D01*
X132100001Y-72835005D01*
X132059319Y-72669954D01*
X132057244Y-72666000D01*
X132993109Y-72666000D01*
X132975460Y-72560237D01*
X132896871Y-72331313D01*
X132845405Y-72236211D01*
X132830575Y-72166780D01*
X132855636Y-72100354D01*
X132864571Y-72089775D01*
X132920967Y-72030000D01*
X132952296Y-71996793D01*
X133039467Y-71845807D01*
X133089469Y-71678788D01*
X133099607Y-71504740D01*
X133069332Y-71333046D01*
X133000279Y-71172962D01*
X132911125Y-71053208D01*
X132896169Y-71033118D01*
X132762614Y-70921050D01*
X132606817Y-70842807D01*
X132606816Y-70842806D01*
X132606815Y-70842806D01*
X132437171Y-70802600D01*
X132306564Y-70802600D01*
X132302936Y-70803023D01*
X132302919Y-70803025D01*
X132176834Y-70817763D01*
X132013006Y-70877391D01*
X131867348Y-70973192D01*
X131747703Y-71100007D01*
X131660533Y-71250992D01*
X131660533Y-71250993D01*
X131625013Y-71369638D01*
X131586315Y-71429159D01*
X131521579Y-71458311D01*
X131504307Y-71459500D01*
X131504001Y-71459500D01*
X131504001Y-72227486D01*
X131442341Y-72220000D01*
X131057661Y-72220000D01*
X130996001Y-72227486D01*
X130996001Y-71459500D01*
X130887415Y-71459500D01*
X130882202Y-71459715D01*
X130703987Y-71474483D01*
X130469348Y-71533902D01*
X130247697Y-71631127D01*
X130045067Y-71763511D01*
X129866997Y-71927436D01*
X129718327Y-72118446D01*
X129603130Y-72331313D01*
X129524541Y-72560237D01*
X129506893Y-72666000D01*
X130442758Y-72666000D01*
X130440683Y-72669954D01*
X130400001Y-72835005D01*
X130400001Y-73004995D01*
X130440683Y-73170046D01*
X130442758Y-73174000D01*
X129506893Y-73174000D01*
X128993619Y-73174000D01*
X129015802Y-73041062D01*
X129015802Y-72798938D01*
X128975950Y-72560117D01*
X128897332Y-72331112D01*
X128845508Y-72235349D01*
X128782092Y-72118166D01*
X128633378Y-71927099D01*
X128455243Y-71763115D01*
X128455242Y-71763114D01*
X128252544Y-71630685D01*
X128057932Y-71545320D01*
X128030812Y-71533424D01*
X127796103Y-71473988D01*
X127796102Y-71473987D01*
X127796099Y-71473987D01*
X127688355Y-71465059D01*
X127617829Y-71459215D01*
X127617818Y-71459214D01*
X127615229Y-71459000D01*
X126884775Y-71459000D01*
X126882186Y-71459214D01*
X126882174Y-71459215D01*
X126798293Y-71466165D01*
X126703905Y-71473987D01*
X126703901Y-71473987D01*
X126703900Y-71473988D01*
X126469191Y-71533424D01*
X126247459Y-71630685D01*
X126044760Y-71763115D01*
X125866625Y-71927099D01*
X125717911Y-72118166D01*
X125602671Y-72331112D01*
X125534393Y-72530000D01*
X125524054Y-72560117D01*
X125484202Y-72798938D01*
X125484202Y-73041062D01*
X123274176Y-73041062D01*
X122749911Y-72516797D01*
X122764638Y-72514680D01*
X122895423Y-72454952D01*
X123004084Y-72360798D01*
X123081816Y-72239844D01*
X123106683Y-72155150D01*
X123855425Y-72903892D01*
X123855425Y-72903891D01*
X123970114Y-72716738D01*
X124060950Y-72497440D01*
X124116362Y-72266633D01*
X124134985Y-72029999D01*
X124116362Y-71793366D01*
X124060950Y-71562559D01*
X123970114Y-71343261D01*
X123855425Y-71156107D01*
X123855423Y-71156107D01*
X123106683Y-71904847D01*
X123081816Y-71820156D01*
X123004084Y-71699202D01*
X122895423Y-71605048D01*
X122764638Y-71545320D01*
X122749910Y-71543202D01*
X123496214Y-70796897D01*
X123496214Y-70796896D01*
X123309061Y-70682208D01*
X123089763Y-70591372D01*
X122858956Y-70535960D01*
X122622323Y-70517337D01*
X122385689Y-70535960D01*
X122154882Y-70591372D01*
X121935587Y-70682207D01*
X121748430Y-70796896D01*
X121748430Y-70796898D01*
X122494734Y-71543202D01*
X122480008Y-71545320D01*
X122349223Y-71605048D01*
X122240562Y-71699202D01*
X122162830Y-71820156D01*
X122137962Y-71904848D01*
X121389221Y-71156107D01*
X121389219Y-71156107D01*
X121274530Y-71343264D01*
X121183695Y-71562559D01*
X121128283Y-71793366D01*
X121109660Y-72030000D01*
X119130823Y-72030000D01*
X119130823Y-70981362D01*
X119124312Y-70920799D01*
X119073212Y-70783796D01*
X119073211Y-70783794D01*
X118985584Y-70666738D01*
X118868528Y-70579111D01*
X118800025Y-70553561D01*
X118731524Y-70528011D01*
X118670961Y-70521500D01*
X116573685Y-70521500D01*
X116570336Y-70521859D01*
X116570336Y-70521860D01*
X116513122Y-70528011D01*
X116376117Y-70579111D01*
X116259061Y-70666738D01*
X116171434Y-70783794D01*
X116136524Y-70877392D01*
X116120334Y-70920799D01*
X116113823Y-70981362D01*
X116113823Y-73078638D01*
X113216627Y-73078638D01*
X113306979Y-72909540D01*
X113589263Y-72389326D01*
X113591169Y-72385943D01*
X113804812Y-72020983D01*
X114108347Y-71509761D01*
X114110404Y-71506422D01*
X114336458Y-71152570D01*
X114661074Y-70651044D01*
X114663303Y-70647721D01*
X114901319Y-70305259D01*
X115246703Y-69814322D01*
X115249061Y-69811086D01*
X115498143Y-69480873D01*
X115864289Y-69000949D01*
X115866806Y-68997762D01*
X116126171Y-68680375D01*
X116512915Y-68212130D01*
X116515639Y-68208943D01*
X116784436Y-67904944D01*
X117191669Y-67448976D01*
X117194485Y-67445929D01*
X117471799Y-67155846D01*
X117899421Y-66712760D01*
X117902374Y-66709802D01*
X118187553Y-66433819D01*
X118635257Y-66004432D01*
X118638292Y-66001619D01*
X118929703Y-65740760D01*
X119397943Y-65325186D01*
X119401084Y-65322494D01*
X119697647Y-65077105D01*
X120186330Y-64676040D01*
X120189672Y-64673393D01*
X120489982Y-64443971D01*
X120999369Y-64057856D01*
X121002730Y-64055399D01*
X121305310Y-63842345D01*
X121835661Y-63471703D01*
X121839222Y-63469306D01*
X122142220Y-63273120D01*
X122694131Y-62918332D01*
X122697779Y-62916078D01*
X122998948Y-62737295D01*
X123573287Y-62398706D01*
X123577129Y-62396532D01*
X123874061Y-62235533D01*
X124471993Y-61913490D01*
X124475936Y-61911457D01*
X124765617Y-61768670D01*
X125388850Y-61463449D01*
X125392824Y-61461591D01*
X125671403Y-61337493D01*
X126322455Y-61049272D01*
X126326526Y-61047558D01*
X126588994Y-60942666D01*
X127271400Y-60671585D01*
X127275533Y-60670030D01*
X127515116Y-60584927D01*
X128234236Y-60330961D01*
X128238518Y-60329538D01*
X128445653Y-60264911D01*
X129209595Y-60027885D01*
X129213895Y-60026638D01*
X129374482Y-59983307D01*
X130195874Y-59762853D01*
X130200369Y-59761737D01*
X130291643Y-59740878D01*
X131191309Y-59536319D01*
X131195981Y-59535350D01*
X132192185Y-59348990D01*
X132196902Y-59348203D01*
X133199499Y-59200474D01*
X133204239Y-59199868D01*
X134211824Y-59090976D01*
X134216638Y-59090550D01*
X135094812Y-59029846D01*
X135164149Y-59045103D01*
G37*
%TD.AperFunction*%
%TD*%
M02*
