%TF.GenerationSoftware,KiCad,Pcbnew,7.0.2-6a45011f42~172~ubuntu22.04.1*%
%TF.CreationDate,2023-05-10T16:31:12+02:00*%
%TF.ProjectId,220AC-mini-C3-board,32323041-432d-46d6-996e-692d43332d62,rev?*%
%TF.SameCoordinates,Original*%
%TF.FileFunction,Soldermask,Top*%
%TF.FilePolarity,Negative*%
%FSLAX46Y46*%
G04 Gerber Fmt 4.6, Leading zero omitted, Abs format (unit mm)*
G04 Created by KiCad (PCBNEW 7.0.2-6a45011f42~172~ubuntu22.04.1) date 2023-05-10 16:31:12*
%MOMM*%
%LPD*%
G01*
G04 APERTURE LIST*
G04 Aperture macros list*
%AMRoundRect*
0 Rectangle with rounded corners*
0 $1 Rounding radius*
0 $2 $3 $4 $5 $6 $7 $8 $9 X,Y pos of 4 corners*
0 Add a 4 corners polygon primitive as box body*
4,1,4,$2,$3,$4,$5,$6,$7,$8,$9,$2,$3,0*
0 Add four circle primitives for the rounded corners*
1,1,$1+$1,$2,$3*
1,1,$1+$1,$4,$5*
1,1,$1+$1,$6,$7*
1,1,$1+$1,$8,$9*
0 Add four rect primitives between the rounded corners*
20,1,$1+$1,$2,$3,$4,$5,0*
20,1,$1+$1,$4,$5,$6,$7,0*
20,1,$1+$1,$6,$7,$8,$9,0*
20,1,$1+$1,$8,$9,$2,$3,0*%
G04 Aperture macros list end*
%ADD10RoundRect,0.650875X0.650875X0.796925X-0.650875X0.796925X-0.650875X-0.796925X0.650875X-0.796925X0*%
%ADD11R,1.320800X1.320800*%
%ADD12C,1.320800*%
%ADD13RoundRect,0.200000X0.200000X0.275000X-0.200000X0.275000X-0.200000X-0.275000X0.200000X-0.275000X0*%
%ADD14RoundRect,0.250000X1.000000X-1.950000X1.000000X1.950000X-1.000000X1.950000X-1.000000X-1.950000X0*%
%ADD15R,0.450000X0.600000*%
%ADD16RoundRect,0.279400X-0.279400X-0.876300X0.279400X-0.876300X0.279400X0.876300X-0.279400X0.876300X0*%
%ADD17C,0.990600*%
%ADD18RoundRect,0.476250X0.781050X0.476250X-0.781050X0.476250X-0.781050X-0.476250X0.781050X-0.476250X0*%
%ADD19O,2.514600X1.905000*%
%ADD20RoundRect,0.500000X0.024678X-0.706676X0.706676X0.024678X-0.024678X0.706676X-0.706676X-0.024678X0*%
%ADD21C,2.000000*%
%ADD22RoundRect,0.500000X0.500000X-0.500000X0.500000X0.500000X-0.500000X0.500000X-0.500000X-0.500000X0*%
%ADD23C,1.803400*%
%ADD24R,1.803400X1.803400*%
%ADD25C,2.311400*%
%ADD26R,2.000000X2.000000*%
%ADD27RoundRect,0.514350X1.047750X-0.514350X1.047750X0.514350X-1.047750X0.514350X-1.047750X-0.514350X0*%
%ADD28R,2.700000X1.400000*%
%ADD29RoundRect,0.250000X-1.750000X-1.000000X1.750000X-1.000000X1.750000X1.000000X-1.750000X1.000000X0*%
%ADD30R,1.700000X1.700000*%
%ADD31O,1.700000X1.700000*%
G04 APERTURE END LIST*
D10*
%TO.C,R1*%
X154998750Y-78450000D03*
X149601250Y-78450000D03*
%TD*%
D11*
%TO.C,Q1*%
X132760000Y-94000000D03*
D12*
X132760000Y-91400000D03*
X132760000Y-88800000D03*
%TD*%
D13*
%TO.C,R2*%
X122745000Y-93980000D03*
X121095000Y-93980000D03*
%TD*%
D14*
%TO.C,C11*%
X142560000Y-92460000D03*
X142560000Y-84060000D03*
%TD*%
D15*
%TO.C,D2*%
X121810000Y-98790000D03*
X121810000Y-96690000D03*
%TD*%
D16*
%TO.C,CY1*%
X134702100Y-81150000D03*
X139197900Y-81150000D03*
%TD*%
D17*
%TO.C,U1*%
X132350000Y-74291600D03*
X132350000Y-71548400D03*
X138150000Y-71548400D03*
X138150000Y-74291600D03*
D18*
X151249999Y-72920000D03*
D19*
X147250000Y-72920000D03*
X143250000Y-72920000D03*
X139250000Y-72920000D03*
X131250001Y-72920000D03*
X127250002Y-72920000D03*
%TD*%
D20*
%TO.C,J2*%
X151137724Y-100587638D03*
D21*
X154602276Y-96872362D03*
%TD*%
D22*
%TO.C,J1*%
X157700000Y-88840000D03*
D21*
X157700000Y-83760000D03*
%TD*%
D13*
%TO.C,R3*%
X122745000Y-91440000D03*
X121095000Y-91440000D03*
%TD*%
D11*
%TO.C,Q2*%
X127000000Y-93980000D03*
D12*
X127000000Y-91380000D03*
X127000000Y-88780000D03*
%TD*%
D23*
%TO.C,K1*%
X126570000Y-105350000D03*
D24*
X126570000Y-101600000D03*
D23*
X126570000Y-97850000D03*
D25*
X143903000Y-98000000D03*
X141363000Y-105200000D03*
%TD*%
D26*
%TO.C,C2*%
X117622323Y-72030000D03*
D21*
X122622323Y-72030000D03*
%TD*%
D27*
%TO.C,F1*%
X150380000Y-91178800D03*
X150380000Y-82441200D03*
%TD*%
D15*
%TO.C,D1*%
X121810000Y-101950000D03*
X121810000Y-104050000D03*
%TD*%
D28*
%TO.C,L1*%
X116580000Y-79020000D03*
X116580000Y-81720000D03*
%TD*%
D29*
%TO.C,C3*%
X123510000Y-81730000D03*
X131510000Y-81730000D03*
%TD*%
D30*
%TO.C,J3*%
X117605000Y-87620000D03*
D31*
X117605000Y-90160000D03*
X117605000Y-92700000D03*
X117605000Y-95240000D03*
%TD*%
M02*
