M48
; DRILL file {KiCad 6.0.10-86aedd382b~118~ubuntu20.04.1} date Sun 08 Jan 2023 11:34:35 CET
; FORMAT={-:-/ absolute / metric / decimal}
; #@! TF.CreationDate,2023-01-08T11:34:35+01:00
; #@! TF.GenerationSoftware,Kicad,Pcbnew,6.0.10-86aedd382b~118~ubuntu20.04.1
; #@! TF.FileFunction,Plated,1,2,PTH
FMAT,2
METRIC
; #@! TA.AperFunction,Plated,PTH,ViaDrill
T1C0.400
; #@! TA.AperFunction,Plated,PTH,ComponentDrill
T2C0.813
; #@! TA.AperFunction,Plated,PTH,ComponentDrill
T3C1.000
; #@! TA.AperFunction,Plated,PTH,ComponentDrill
T4C1.200
; #@! TA.AperFunction,Plated,PTH,ComponentDrill
T5C1.300
; #@! TA.AperFunction,Plated,PTH,ComponentDrill
T6C1.400
%
G90
G05
T1
X130.28Y-79.28
X130.28Y-81.12
T2
X149.55Y-100.13
X151.52Y-105.72
X151.52Y-108.32
X151.52Y-110.92
X152.15Y-100.13
X154.75Y-100.13
T3
X118.58Y-66.64
X118.58Y-71.64
X157.66Y-102.3
X157.66Y-104.84
X157.66Y-107.38
X157.66Y-109.92
T4
X124.99Y-99.67
X128.49Y-107.17
X145.99Y-99.67
X145.99Y-103.42
X145.99Y-107.17
T5
X117.09Y-99.04
X117.09Y-102.94
X159.04Y-66.92
X159.04Y-70.82
T6
X127.65Y-72.0G85X127.35Y-72.0
G05
X131.65Y-72.0G85X131.35Y-72.0
G05
X139.65Y-72.0G85X139.35Y-72.0
G05
X143.65Y-72.0G85X143.35Y-72.0
G05
X147.65Y-72.0G85X147.35Y-72.0
G05
X151.69Y-72.0G85X151.31Y-72.0
G05
T0
M30
