%TF.GenerationSoftware,KiCad,Pcbnew,6.0.10-86aedd382b~118~ubuntu20.04.1*%
%TF.CreationDate,2023-01-08T11:34:38+01:00*%
%TF.ProjectId,220AC-mini-C3-board,32323041-432d-46d6-996e-692d43332d62,rev?*%
%TF.SameCoordinates,Original*%
%TF.FileFunction,Soldermask,Top*%
%TF.FilePolarity,Negative*%
%FSLAX46Y46*%
G04 Gerber Fmt 4.6, Leading zero omitted, Abs format (unit mm)*
G04 Created by KiCad (PCBNEW 6.0.10-86aedd382b~118~ubuntu20.04.1) date 2023-01-08 11:34:38*
%MOMM*%
%LPD*%
G01*
G04 APERTURE LIST*
G04 Aperture macros list*
%AMRoundRect*
0 Rectangle with rounded corners*
0 $1 Rounding radius*
0 $2 $3 $4 $5 $6 $7 $8 $9 X,Y pos of 4 corners*
0 Add a 4 corners polygon primitive as box body*
4,1,4,$2,$3,$4,$5,$6,$7,$8,$9,$2,$3,0*
0 Add four circle primitives for the rounded corners*
1,1,$1+$1,$2,$3*
1,1,$1+$1,$4,$5*
1,1,$1+$1,$6,$7*
1,1,$1+$1,$8,$9*
0 Add four rect primitives between the rounded corners*
20,1,$1+$1,$2,$3,$4,$5,0*
20,1,$1+$1,$4,$5,$6,$7,0*
20,1,$1+$1,$6,$7,$8,$9,0*
20,1,$1+$1,$8,$9,$2,$3,0*%
G04 Aperture macros list end*
%ADD10R,1.950000X1.950000*%
%ADD11C,1.950000*%
%ADD12R,2.603500X2.895600*%
%ADD13C,2.200000*%
%ADD14RoundRect,0.250000X-1.000000X1.950000X-1.000000X-1.950000X1.000000X-1.950000X1.000000X1.950000X0*%
%ADD15R,1.800000X1.800000*%
%ADD16C,1.800000*%
%ADD17R,0.600000X0.450000*%
%ADD18R,1.117600X2.311400*%
%ADD19C,0.990600*%
%ADD20R,2.514600X1.905000*%
%ADD21O,2.514600X1.905000*%
%ADD22R,1.320800X1.320800*%
%ADD23C,1.320800*%
%ADD24R,2.000000X2.000000*%
%ADD25C,2.000000*%
%ADD26R,3.124200X2.057400*%
%ADD27RoundRect,0.250000X1.000000X-1.750000X1.000000X1.750000X-1.000000X1.750000X-1.000000X-1.750000X0*%
%ADD28R,7.594600X4.305300*%
%ADD29R,1.700000X1.700000*%
%ADD30O,1.700000X1.700000*%
G04 APERTURE END LIST*
D10*
%TO.C,J1*%
X159040000Y-70820000D03*
D11*
X159040000Y-66920000D03*
%TD*%
D12*
%TO.C,R1*%
X157448750Y-77850000D03*
X152051250Y-77850000D03*
%TD*%
D13*
%TO.C,H2*%
X153680000Y-61160000D03*
%TD*%
D14*
%TO.C,C1*%
X142000000Y-84682500D03*
X142000000Y-93082500D03*
%TD*%
D15*
%TO.C,K1*%
X145990000Y-99670000D03*
D16*
X145990000Y-103420000D03*
X145990000Y-107170000D03*
X128490000Y-107170000D03*
X124990000Y-99670000D03*
%TD*%
D17*
%TO.C,D2*%
X133630000Y-110640000D03*
X135730000Y-110640000D03*
%TD*%
D18*
%TO.C,CY1*%
X133202100Y-81100000D03*
X137697900Y-81100000D03*
%TD*%
D19*
%TO.C,U1*%
X132600000Y-73371600D03*
X132600000Y-70628400D03*
X138400000Y-70628400D03*
X138400000Y-73371600D03*
D20*
X151499999Y-72000000D03*
D21*
X147500000Y-72000000D03*
X143500000Y-72000000D03*
X139500000Y-72000000D03*
X131500001Y-72000000D03*
X127500002Y-72000000D03*
%TD*%
D22*
%TO.C,Q1*%
X154750000Y-100130000D03*
D23*
X152150000Y-100130000D03*
X149550000Y-100130000D03*
%TD*%
D24*
%TO.C,C2*%
X118580000Y-66640000D03*
D25*
X118580000Y-71640000D03*
%TD*%
D26*
%TO.C,F1*%
X161620000Y-76161200D03*
X161620000Y-84898800D03*
%TD*%
D14*
%TO.C,C11*%
X153750000Y-84682500D03*
X153750000Y-93082500D03*
%TD*%
D17*
%TO.C,D1*%
X133630000Y-96140000D03*
X135730000Y-96140000D03*
%TD*%
D22*
%TO.C,Q2*%
X151520000Y-105720000D03*
D23*
X151520000Y-108320000D03*
X151520000Y-110920000D03*
%TD*%
D10*
%TO.C,J2*%
X117090000Y-99040000D03*
D11*
X117090000Y-102940000D03*
%TD*%
D27*
%TO.C,C3*%
X130280000Y-92460000D03*
X130280000Y-84460000D03*
%TD*%
D28*
%TO.C,L1*%
X117840000Y-78473450D03*
X117840000Y-86766550D03*
%TD*%
D29*
%TO.C,J3*%
X157660000Y-102300000D03*
D30*
X157660000Y-104840000D03*
X157660000Y-107380000D03*
X157660000Y-109920000D03*
%TD*%
D13*
%TO.C,H4*%
X112930000Y-109500000D03*
%TD*%
M02*
