%TF.GenerationSoftware,KiCad,Pcbnew,7.0.1-3b83917a11~172~ubuntu20.04.1*%
%TF.CreationDate,2023-03-21T13:55:29+01:00*%
%TF.ProjectId,220AC-mini-C3-board,32323041-432d-46d6-996e-692d43332d62,rev?*%
%TF.SameCoordinates,Original*%
%TF.FileFunction,Copper,L2,Bot*%
%TF.FilePolarity,Positive*%
%FSLAX46Y46*%
G04 Gerber Fmt 4.6, Leading zero omitted, Abs format (unit mm)*
G04 Created by KiCad (PCBNEW 7.0.1-3b83917a11~172~ubuntu20.04.1) date 2023-03-21 13:55:29*
%MOMM*%
%LPD*%
G01*
G04 APERTURE LIST*
G04 Aperture macros list*
%AMRoundRect*
0 Rectangle with rounded corners*
0 $1 Rounding radius*
0 $2 $3 $4 $5 $6 $7 $8 $9 X,Y pos of 4 corners*
0 Add a 4 corners polygon primitive as box body*
4,1,4,$2,$3,$4,$5,$6,$7,$8,$9,$2,$3,0*
0 Add four circle primitives for the rounded corners*
1,1,$1+$1,$2,$3*
1,1,$1+$1,$4,$5*
1,1,$1+$1,$6,$7*
1,1,$1+$1,$8,$9*
0 Add four rect primitives between the rounded corners*
20,1,$1+$1,$2,$3,$4,$5,0*
20,1,$1+$1,$4,$5,$6,$7,0*
20,1,$1+$1,$6,$7,$8,$9,0*
20,1,$1+$1,$8,$9,$2,$3,0*%
G04 Aperture macros list end*
%TA.AperFunction,ComponentPad*%
%ADD10R,1.320800X1.320800*%
%TD*%
%TA.AperFunction,ComponentPad*%
%ADD11C,1.320800*%
%TD*%
%TA.AperFunction,ComponentPad*%
%ADD12RoundRect,0.476250X0.781050X0.476250X-0.781050X0.476250X-0.781050X-0.476250X0.781050X-0.476250X0*%
%TD*%
%TA.AperFunction,ComponentPad*%
%ADD13O,2.514600X1.905000*%
%TD*%
%TA.AperFunction,ComponentPad*%
%ADD14RoundRect,0.500000X0.024678X-0.706676X0.706676X0.024678X-0.024678X0.706676X-0.706676X-0.024678X0*%
%TD*%
%TA.AperFunction,ComponentPad*%
%ADD15C,2.000000*%
%TD*%
%TA.AperFunction,ComponentPad*%
%ADD16RoundRect,0.500000X0.500000X-0.500000X0.500000X0.500000X-0.500000X0.500000X-0.500000X-0.500000X0*%
%TD*%
%TA.AperFunction,ComponentPad*%
%ADD17C,1.803400*%
%TD*%
%TA.AperFunction,ComponentPad*%
%ADD18R,1.803400X1.803400*%
%TD*%
%TA.AperFunction,ComponentPad*%
%ADD19C,2.311400*%
%TD*%
%TA.AperFunction,ComponentPad*%
%ADD20R,2.000000X2.000000*%
%TD*%
%TA.AperFunction,ComponentPad*%
%ADD21R,1.700000X1.700000*%
%TD*%
%TA.AperFunction,ComponentPad*%
%ADD22O,1.700000X1.700000*%
%TD*%
G04 APERTURE END LIST*
D10*
%TO.P,Q1,1,C*%
%TO.N,Net-(D1-Pad2)*%
X132760000Y-94000000D03*
D11*
%TO.P,Q1,2,B*%
%TO.N,Net-(Q1-Pad2)*%
X132760000Y-91400000D03*
%TO.P,Q1,3,E*%
%TO.N,GND*%
X132760000Y-88800000D03*
%TD*%
D12*
%TO.P,U1,1,ACL*%
%TO.N,/AC (N)*%
X151249999Y-72920000D03*
D13*
%TO.P,U1,2,ACN*%
%TO.N,Net-(R1-Pad2)*%
X147250000Y-72920000D03*
%TO.P,U1,3,+VCAP*%
%TO.N,Net-(C1-Pad1)*%
X143250000Y-72920000D03*
%TO.P,U1,4,-VCAP*%
%TO.N,Net-(C1-Pad2)*%
X139250000Y-72920000D03*
%TO.P,U1,5,-VO*%
%TO.N,GND*%
X131250001Y-72920000D03*
%TO.P,U1,6,+VO*%
%TO.N,Net-(C2-Pad1)*%
X127250002Y-72920000D03*
%TD*%
D14*
%TO.P,J2,1,Pin_1*%
%TO.N,Net-(J2-Pad1)*%
X151137724Y-100587638D03*
D15*
%TO.P,J2,2,Pin_2*%
%TO.N,Net-(J2-Pad2)*%
X154602276Y-96872362D03*
%TD*%
D16*
%TO.P,J1,1,Pin_1*%
%TO.N,AC*%
X157700000Y-88840000D03*
D15*
%TO.P,J1,2,Pin_2*%
%TO.N,/AC (N)*%
X157700000Y-83760000D03*
%TD*%
D10*
%TO.P,Q2,1,C*%
%TO.N,Net-(D2-Pad2)*%
X127000000Y-93980000D03*
D11*
%TO.P,Q2,2,B*%
%TO.N,Net-(Q2-Pad2)*%
X127000000Y-91380000D03*
%TO.P,Q2,3,E*%
%TO.N,GND*%
X127000000Y-88780000D03*
%TD*%
D17*
%TO.P,K1,1*%
%TO.N,Net-(D1-Pad2)*%
X126570000Y-105350000D03*
D18*
%TO.P,K1,2*%
%TO.N,+3V3*%
X126570000Y-101600000D03*
D17*
%TO.P,K1,3*%
%TO.N,Net-(D2-Pad2)*%
X126570000Y-97850000D03*
D19*
%TO.P,K1,4*%
%TO.N,Net-(J2-Pad2)*%
X143903000Y-98000000D03*
%TO.P,K1,5*%
%TO.N,Net-(J2-Pad1)*%
X141363000Y-105200000D03*
%TD*%
D20*
%TO.P,C2,1*%
%TO.N,Net-(C2-Pad1)*%
X117622323Y-72030000D03*
D15*
%TO.P,C2,2*%
%TO.N,GND*%
X122622323Y-72030000D03*
%TD*%
D21*
%TO.P,J3,1,Pin_1*%
%TO.N,GND*%
X117605000Y-87620000D03*
D22*
%TO.P,J3,2,Pin_2*%
%TO.N,+3V3*%
X117605000Y-90160000D03*
%TO.P,J3,3,Pin_3*%
%TO.N,/IO_3*%
X117605000Y-92700000D03*
%TO.P,J3,4,Pin_4*%
%TO.N,/IO_2*%
X117605000Y-95240000D03*
%TD*%
%TA.AperFunction,Conductor*%
%TO.N,GND*%
G36*
X135161414Y-59043645D02*
G01*
X135211141Y-59090053D01*
X135229500Y-59155546D01*
X135229500Y-61879699D01*
X135229493Y-61881049D01*
X134868505Y-95566947D01*
X134854003Y-95624298D01*
X127331196Y-109912324D01*
X127291005Y-109957509D01*
X127234391Y-109978764D01*
X127174395Y-109971194D01*
X126778970Y-109818802D01*
X126776424Y-109817789D01*
X126350320Y-109642839D01*
X126348358Y-109642014D01*
X125837966Y-109422311D01*
X125835455Y-109421197D01*
X125741407Y-109378237D01*
X125416680Y-109229908D01*
X125414780Y-109229021D01*
X124913121Y-108989703D01*
X124910606Y-108988469D01*
X124499657Y-108781085D01*
X124497819Y-108780138D01*
X124005649Y-108521549D01*
X124003157Y-108520204D01*
X123600788Y-108297117D01*
X123599016Y-108296116D01*
X123117014Y-108018601D01*
X123114549Y-108017144D01*
X122978954Y-107934917D01*
X122721292Y-107778667D01*
X122719655Y-107777656D01*
X122502202Y-107641008D01*
X122248516Y-107481591D01*
X122246084Y-107480024D01*
X121862655Y-107226612D01*
X121861016Y-107225510D01*
X121401455Y-106911323D01*
X121399061Y-106909645D01*
X121025991Y-106641678D01*
X121024420Y-106640531D01*
X120577168Y-106308699D01*
X120574816Y-106306911D01*
X120212646Y-106024801D01*
X120211145Y-106023614D01*
X119776772Y-105674533D01*
X119774468Y-105672635D01*
X119423797Y-105376878D01*
X119422366Y-105375653D01*
X119392856Y-105350000D01*
X125154967Y-105350000D01*
X125174266Y-105582907D01*
X125174266Y-105582910D01*
X125174267Y-105582911D01*
X125231636Y-105809459D01*
X125325516Y-106023481D01*
X125453340Y-106219132D01*
X125611620Y-106391070D01*
X125611624Y-106391074D01*
X125759164Y-106505909D01*
X125796051Y-106534619D01*
X125991761Y-106640531D01*
X126001588Y-106645849D01*
X126222630Y-106721733D01*
X126337888Y-106740966D01*
X126453145Y-106760200D01*
X126453148Y-106760200D01*
X126686852Y-106760200D01*
X126686855Y-106760200D01*
X126785645Y-106743714D01*
X126917370Y-106721733D01*
X127138412Y-106645849D01*
X127343950Y-106534618D01*
X127528376Y-106391074D01*
X127686660Y-106219131D01*
X127814484Y-106023481D01*
X127908363Y-105809460D01*
X127965734Y-105582907D01*
X127985033Y-105350000D01*
X127965734Y-105117093D01*
X127908363Y-104890540D01*
X127814484Y-104676519D01*
X127686660Y-104480869D01*
X127686659Y-104480867D01*
X127528379Y-104308929D01*
X127528378Y-104308928D01*
X127528376Y-104308926D01*
X127417720Y-104222799D01*
X127343948Y-104165380D01*
X127138411Y-104054150D01*
X126997465Y-104005763D01*
X126917370Y-103978267D01*
X126917367Y-103978266D01*
X126917366Y-103978266D01*
X126686855Y-103939800D01*
X126686852Y-103939800D01*
X126453148Y-103939800D01*
X126453145Y-103939800D01*
X126222633Y-103978266D01*
X126001588Y-104054150D01*
X125796051Y-104165380D01*
X125611620Y-104308929D01*
X125453340Y-104480867D01*
X125325516Y-104676518D01*
X125231636Y-104890540D01*
X125174267Y-105117088D01*
X125174266Y-105117093D01*
X125154967Y-105350000D01*
X119392856Y-105350000D01*
X119001639Y-105009912D01*
X118999387Y-105007907D01*
X118660574Y-104698829D01*
X118659215Y-104697570D01*
X118252782Y-104315710D01*
X118250587Y-104313597D01*
X118170223Y-104234348D01*
X117924306Y-103991841D01*
X117923033Y-103990568D01*
X117531388Y-103593022D01*
X117529255Y-103590803D01*
X117215928Y-103256820D01*
X117214712Y-103255505D01*
X116838492Y-102842880D01*
X116836452Y-102840588D01*
X116584636Y-102550338D01*
X125159800Y-102550338D01*
X125166311Y-102610900D01*
X125217411Y-102747905D01*
X125305038Y-102864961D01*
X125422094Y-102952588D01*
X125422095Y-102952588D01*
X125422096Y-102952589D01*
X125559099Y-103003689D01*
X125619662Y-103010200D01*
X127520338Y-103010200D01*
X127580901Y-103003689D01*
X127717904Y-102952589D01*
X127834961Y-102864961D01*
X127922589Y-102747904D01*
X127973689Y-102610901D01*
X127980200Y-102550338D01*
X127980200Y-100649662D01*
X127973689Y-100589099D01*
X127922589Y-100452096D01*
X127911275Y-100436982D01*
X127834961Y-100335038D01*
X127717905Y-100247411D01*
X127649402Y-100221860D01*
X127580901Y-100196311D01*
X127520338Y-100189800D01*
X125619662Y-100189800D01*
X125559099Y-100196311D01*
X125422094Y-100247411D01*
X125305038Y-100335038D01*
X125217411Y-100452094D01*
X125166311Y-100589099D01*
X125159800Y-100649662D01*
X125159800Y-102550338D01*
X116584636Y-102550338D01*
X116536620Y-102494994D01*
X116535494Y-102493677D01*
X116175218Y-102066501D01*
X116173225Y-102064077D01*
X115887270Y-101707361D01*
X115886305Y-101706141D01*
X115542496Y-101264975D01*
X115540580Y-101262451D01*
X115269011Y-100895298D01*
X115268009Y-100893925D01*
X114941350Y-100439603D01*
X114939515Y-100436982D01*
X114682557Y-100059746D01*
X114681627Y-100058360D01*
X114372579Y-99591481D01*
X114370831Y-99588765D01*
X114141186Y-99221733D01*
X114128994Y-99202247D01*
X114128220Y-99200993D01*
X113837082Y-98721936D01*
X113835425Y-98719127D01*
X113609114Y-98324055D01*
X113608324Y-98322656D01*
X113552125Y-98221582D01*
X113345521Y-97850000D01*
X125154967Y-97850000D01*
X125174266Y-98082907D01*
X125174266Y-98082910D01*
X125174267Y-98082911D01*
X125231636Y-98309459D01*
X125325516Y-98523481D01*
X125453340Y-98719132D01*
X125611620Y-98891070D01*
X125611624Y-98891074D01*
X125759164Y-99005909D01*
X125796051Y-99034619D01*
X125855837Y-99066973D01*
X126001588Y-99145849D01*
X126222630Y-99221733D01*
X126337889Y-99240966D01*
X126453145Y-99260200D01*
X126453148Y-99260200D01*
X126686852Y-99260200D01*
X126686855Y-99260200D01*
X126785645Y-99243714D01*
X126917370Y-99221733D01*
X127138412Y-99145849D01*
X127343950Y-99034618D01*
X127528376Y-98891074D01*
X127686660Y-98719131D01*
X127814484Y-98523481D01*
X127908363Y-98309460D01*
X127965734Y-98082907D01*
X127985033Y-97850000D01*
X127965734Y-97617093D01*
X127908363Y-97390540D01*
X127814484Y-97176519D01*
X127686660Y-96980869D01*
X127686659Y-96980867D01*
X127528379Y-96808929D01*
X127528378Y-96808928D01*
X127528376Y-96808926D01*
X127417720Y-96722799D01*
X127343948Y-96665380D01*
X127138411Y-96554150D01*
X126946717Y-96488342D01*
X126917370Y-96478267D01*
X126917367Y-96478266D01*
X126917366Y-96478266D01*
X126686855Y-96439800D01*
X126686852Y-96439800D01*
X126453148Y-96439800D01*
X126453145Y-96439800D01*
X126222633Y-96478266D01*
X126001588Y-96554150D01*
X125796051Y-96665380D01*
X125611620Y-96808929D01*
X125453340Y-96980867D01*
X125325516Y-97176518D01*
X125231636Y-97390540D01*
X125174267Y-97617088D01*
X125174266Y-97617093D01*
X125154967Y-97850000D01*
X113345521Y-97850000D01*
X113335673Y-97832289D01*
X113334192Y-97829541D01*
X113123569Y-97426278D01*
X113122882Y-97424941D01*
X112869155Y-96923968D01*
X112867693Y-96920984D01*
X112673206Y-96510471D01*
X112672552Y-96509070D01*
X112438141Y-95998178D01*
X112436828Y-95995212D01*
X112258536Y-95577663D01*
X112258122Y-95576677D01*
X112119126Y-95240000D01*
X116241844Y-95240000D01*
X116260436Y-95464368D01*
X116260436Y-95464371D01*
X116260437Y-95464372D01*
X116315702Y-95682611D01*
X116406139Y-95888790D01*
X116529278Y-96077268D01*
X116681762Y-96242908D01*
X116799883Y-96334846D01*
X116859424Y-96381189D01*
X117057426Y-96488342D01*
X117270365Y-96561444D01*
X117492431Y-96598500D01*
X117717566Y-96598500D01*
X117717569Y-96598500D01*
X117939635Y-96561444D01*
X118152574Y-96488342D01*
X118350576Y-96381189D01*
X118528240Y-96242906D01*
X118680722Y-96077268D01*
X118803860Y-95888791D01*
X118894296Y-95682616D01*
X118949564Y-95464368D01*
X118968156Y-95240000D01*
X118949564Y-95015632D01*
X118894296Y-94797384D01*
X118846771Y-94689038D01*
X125831100Y-94689038D01*
X125837611Y-94749601D01*
X125845071Y-94769601D01*
X125888711Y-94886605D01*
X125976338Y-95003661D01*
X126093394Y-95091288D01*
X126093395Y-95091288D01*
X126093396Y-95091289D01*
X126230399Y-95142389D01*
X126290962Y-95148900D01*
X127709038Y-95148900D01*
X127769601Y-95142389D01*
X127906604Y-95091289D01*
X128023661Y-95003661D01*
X128111289Y-94886604D01*
X128162389Y-94749601D01*
X128166750Y-94709038D01*
X131591100Y-94709038D01*
X131597611Y-94769600D01*
X131648711Y-94906605D01*
X131736338Y-95023661D01*
X131853394Y-95111288D01*
X131853395Y-95111288D01*
X131853396Y-95111289D01*
X131990399Y-95162389D01*
X132050962Y-95168900D01*
X133469038Y-95168900D01*
X133529601Y-95162389D01*
X133666604Y-95111289D01*
X133783661Y-95023661D01*
X133871289Y-94906604D01*
X133922389Y-94769601D01*
X133928900Y-94709038D01*
X133928900Y-93290962D01*
X133922389Y-93230399D01*
X133871289Y-93093396D01*
X133871288Y-93093394D01*
X133783661Y-92976338D01*
X133666605Y-92888711D01*
X133598102Y-92863161D01*
X133529601Y-92837611D01*
X133469038Y-92831100D01*
X132050962Y-92831100D01*
X131990399Y-92837611D01*
X131853394Y-92888711D01*
X131736338Y-92976338D01*
X131648711Y-93093394D01*
X131597611Y-93230399D01*
X131591100Y-93290962D01*
X131591100Y-94709038D01*
X128166750Y-94709038D01*
X128168900Y-94689038D01*
X128168900Y-93270962D01*
X128162389Y-93210399D01*
X128111289Y-93073396D01*
X128087537Y-93041667D01*
X128023661Y-92956338D01*
X127906605Y-92868711D01*
X127838102Y-92843160D01*
X127769601Y-92817611D01*
X127709038Y-92811100D01*
X126290962Y-92811100D01*
X126230399Y-92817611D01*
X126093394Y-92868711D01*
X125976338Y-92956338D01*
X125888711Y-93073394D01*
X125862895Y-93142611D01*
X125837611Y-93210399D01*
X125831100Y-93270962D01*
X125831100Y-94689038D01*
X118846771Y-94689038D01*
X118803860Y-94591209D01*
X118680722Y-94402732D01*
X118528240Y-94237094D01*
X118528239Y-94237093D01*
X118528237Y-94237091D01*
X118350579Y-94098813D01*
X118350577Y-94098812D01*
X118350576Y-94098811D01*
X118317317Y-94080812D01*
X118269047Y-94034498D01*
X118251288Y-93970000D01*
X118269047Y-93905502D01*
X118317317Y-93859187D01*
X118350576Y-93841189D01*
X118528240Y-93702906D01*
X118680722Y-93537268D01*
X118803860Y-93348791D01*
X118894296Y-93142616D01*
X118949564Y-92924368D01*
X118968156Y-92700000D01*
X118949564Y-92475632D01*
X118894296Y-92257384D01*
X118803860Y-92051209D01*
X118680722Y-91862732D01*
X118528240Y-91697094D01*
X118528239Y-91697093D01*
X118528237Y-91697091D01*
X118350579Y-91558813D01*
X118350577Y-91558812D01*
X118350576Y-91558811D01*
X118317317Y-91540812D01*
X118269047Y-91494498D01*
X118251288Y-91430000D01*
X118265055Y-91379999D01*
X125826091Y-91379999D01*
X125846079Y-91595703D01*
X125905361Y-91804060D01*
X126001924Y-91997985D01*
X126050489Y-92062295D01*
X126132472Y-92170857D01*
X126292562Y-92316799D01*
X126292564Y-92316800D01*
X126292565Y-92316801D01*
X126476739Y-92430837D01*
X126476743Y-92430838D01*
X126476744Y-92430839D01*
X126678745Y-92509095D01*
X126891685Y-92548900D01*
X127108314Y-92548900D01*
X127108315Y-92548900D01*
X127321255Y-92509095D01*
X127523256Y-92430839D01*
X127523257Y-92430837D01*
X127523260Y-92430837D01*
X127675133Y-92336801D01*
X127707438Y-92316799D01*
X127867528Y-92170857D01*
X127998077Y-91997983D01*
X128094637Y-91804064D01*
X128153920Y-91595705D01*
X128172055Y-91400000D01*
X131586091Y-91400000D01*
X131606079Y-91615703D01*
X131665361Y-91824060D01*
X131761924Y-92017985D01*
X131787014Y-92051209D01*
X131892472Y-92190857D01*
X132052562Y-92336799D01*
X132052564Y-92336800D01*
X132052565Y-92336801D01*
X132236739Y-92450837D01*
X132236743Y-92450838D01*
X132236744Y-92450839D01*
X132438745Y-92529095D01*
X132651685Y-92568900D01*
X132868314Y-92568900D01*
X132868315Y-92568900D01*
X133081255Y-92529095D01*
X133283256Y-92450839D01*
X133283257Y-92450837D01*
X133283260Y-92450837D01*
X133375347Y-92393818D01*
X133467438Y-92336799D01*
X133627528Y-92190857D01*
X133758077Y-92017983D01*
X133854637Y-91824064D01*
X133913920Y-91615705D01*
X133933908Y-91400000D01*
X133913920Y-91184295D01*
X133870870Y-91032990D01*
X133854638Y-90975939D01*
X133854637Y-90975936D01*
X133758077Y-90782017D01*
X133742971Y-90762014D01*
X133705676Y-90712627D01*
X133627528Y-90609143D01*
X133467438Y-90463201D01*
X133467435Y-90463199D01*
X133467434Y-90463198D01*
X133283260Y-90349162D01*
X133164771Y-90303259D01*
X133081255Y-90270905D01*
X132868315Y-90231100D01*
X132651685Y-90231100D01*
X132545737Y-90250905D01*
X132438745Y-90270905D01*
X132236739Y-90349162D01*
X132052565Y-90463198D01*
X131892471Y-90609144D01*
X131761924Y-90782014D01*
X131665361Y-90975939D01*
X131606079Y-91184296D01*
X131586091Y-91400000D01*
X128172055Y-91400000D01*
X128173908Y-91380000D01*
X128153920Y-91164295D01*
X128100328Y-90975939D01*
X128094638Y-90955939D01*
X128094637Y-90955936D01*
X127998077Y-90762017D01*
X127867528Y-90589143D01*
X127707438Y-90443201D01*
X127707435Y-90443199D01*
X127707434Y-90443198D01*
X127523260Y-90329162D01*
X127404771Y-90283259D01*
X127321255Y-90250905D01*
X127108315Y-90211100D01*
X126891685Y-90211100D01*
X126678745Y-90250904D01*
X126678745Y-90250905D01*
X126476739Y-90329162D01*
X126292565Y-90443198D01*
X126292561Y-90443201D01*
X126292562Y-90443201D01*
X126146826Y-90576058D01*
X126132471Y-90589144D01*
X126001924Y-90762014D01*
X125905361Y-90955939D01*
X125846079Y-91164296D01*
X125826091Y-91379999D01*
X118265055Y-91379999D01*
X118269047Y-91365502D01*
X118317317Y-91319187D01*
X118350576Y-91301189D01*
X118528240Y-91162906D01*
X118680722Y-90997268D01*
X118803860Y-90808791D01*
X118894296Y-90602616D01*
X118949564Y-90384368D01*
X118968156Y-90160000D01*
X118949564Y-89935632D01*
X118906630Y-89766089D01*
X126373119Y-89766089D01*
X126476966Y-89830389D01*
X126678882Y-89908611D01*
X126891734Y-89948400D01*
X127108266Y-89948400D01*
X127321117Y-89908611D01*
X127523030Y-89830390D01*
X127594577Y-89786089D01*
X132133119Y-89786089D01*
X132236966Y-89850389D01*
X132438882Y-89928611D01*
X132651734Y-89968400D01*
X132868266Y-89968400D01*
X133081117Y-89928611D01*
X133283030Y-89850390D01*
X133386878Y-89786089D01*
X132760000Y-89159210D01*
X132133119Y-89786089D01*
X127594577Y-89786089D01*
X127626878Y-89766089D01*
X127000000Y-89139210D01*
X126373119Y-89766089D01*
X118906630Y-89766089D01*
X118894296Y-89717384D01*
X118803860Y-89511209D01*
X118680722Y-89322732D01*
X118537157Y-89166780D01*
X118507921Y-89113178D01*
X118507318Y-89052122D01*
X118535493Y-88997951D01*
X118585827Y-88963388D01*
X118700963Y-88920445D01*
X118817904Y-88832904D01*
X118857508Y-88779999D01*
X125826594Y-88779999D01*
X125846574Y-88995617D01*
X125905829Y-89203880D01*
X126002350Y-89397719D01*
X126011264Y-89409523D01*
X126011265Y-89409524D01*
X126640789Y-88780001D01*
X127359210Y-88780001D01*
X127988733Y-89409524D01*
X127988734Y-89409523D01*
X127997650Y-89397719D01*
X128094168Y-89203885D01*
X128153425Y-88995617D01*
X128171552Y-88800000D01*
X131586594Y-88800000D01*
X131606574Y-89015617D01*
X131665829Y-89223880D01*
X131762350Y-89417719D01*
X131771264Y-89429523D01*
X131771265Y-89429524D01*
X132400789Y-88800001D01*
X133119210Y-88800001D01*
X133748733Y-89429524D01*
X133748734Y-89429523D01*
X133757650Y-89417719D01*
X133854168Y-89223885D01*
X133913425Y-89015617D01*
X133933405Y-88800000D01*
X133913425Y-88584382D01*
X133854169Y-88376117D01*
X133757650Y-88182282D01*
X133748733Y-88170475D01*
X133119210Y-88800000D01*
X133119210Y-88800001D01*
X132400789Y-88800001D01*
X132400790Y-88800000D01*
X132400790Y-88799999D01*
X131771265Y-88170474D01*
X131762348Y-88182282D01*
X131665831Y-88376114D01*
X131606574Y-88584382D01*
X131586594Y-88800000D01*
X128171552Y-88800000D01*
X128173405Y-88779999D01*
X128153425Y-88564382D01*
X128094169Y-88356117D01*
X127997650Y-88162282D01*
X127988733Y-88150475D01*
X127359210Y-88780000D01*
X127359210Y-88780001D01*
X126640789Y-88780001D01*
X126640790Y-88780000D01*
X126640790Y-88779999D01*
X126011265Y-88150474D01*
X126002348Y-88162282D01*
X125905831Y-88356114D01*
X125846574Y-88564382D01*
X125826594Y-88779999D01*
X118857508Y-88779999D01*
X118905445Y-88715962D01*
X118956494Y-88579093D01*
X118963000Y-88518589D01*
X118963000Y-87874000D01*
X116247000Y-87874000D01*
X116247000Y-88518589D01*
X116253505Y-88579093D01*
X116304554Y-88715962D01*
X116392095Y-88832904D01*
X116509037Y-88920445D01*
X116624172Y-88963388D01*
X116674506Y-88997952D01*
X116702681Y-89052122D01*
X116702078Y-89113178D01*
X116672841Y-89166782D01*
X116529278Y-89322731D01*
X116406139Y-89511209D01*
X116315702Y-89717388D01*
X116262214Y-89928611D01*
X116260436Y-89935632D01*
X116241844Y-90160000D01*
X116260436Y-90384368D01*
X116260436Y-90384371D01*
X116260437Y-90384372D01*
X116315702Y-90602611D01*
X116315703Y-90602614D01*
X116315704Y-90602616D01*
X116338856Y-90655398D01*
X116406139Y-90808790D01*
X116406140Y-90808791D01*
X116529278Y-90997268D01*
X116677153Y-91157902D01*
X116681762Y-91162908D01*
X116783611Y-91242181D01*
X116859424Y-91301189D01*
X116892682Y-91319187D01*
X116940951Y-91365500D01*
X116958711Y-91429997D01*
X116940953Y-91494494D01*
X116892683Y-91540811D01*
X116859423Y-91558810D01*
X116681762Y-91697091D01*
X116529278Y-91862731D01*
X116406139Y-92051209D01*
X116315702Y-92257388D01*
X116271779Y-92430839D01*
X116260436Y-92475632D01*
X116241844Y-92700000D01*
X116260436Y-92924368D01*
X116260436Y-92924371D01*
X116260437Y-92924372D01*
X116315702Y-93142611D01*
X116406139Y-93348790D01*
X116406140Y-93348791D01*
X116529278Y-93537268D01*
X116648398Y-93666666D01*
X116681762Y-93702908D01*
X116859418Y-93841185D01*
X116859420Y-93841186D01*
X116859424Y-93841189D01*
X116892682Y-93859187D01*
X116940952Y-93905503D01*
X116958711Y-93970000D01*
X116940952Y-94034497D01*
X116892682Y-94080812D01*
X116867794Y-94094281D01*
X116859418Y-94098814D01*
X116681762Y-94237091D01*
X116529278Y-94402731D01*
X116406139Y-94591209D01*
X116315702Y-94797388D01*
X116273388Y-94964485D01*
X116260436Y-95015632D01*
X116241844Y-95240000D01*
X112119126Y-95240000D01*
X112043347Y-95056448D01*
X112042126Y-95053372D01*
X111880456Y-94629879D01*
X111879940Y-94628501D01*
X111866205Y-94591209D01*
X111685326Y-94100104D01*
X111684220Y-94096973D01*
X111539276Y-93667934D01*
X111538904Y-93666810D01*
X111364619Y-93130586D01*
X111363623Y-93127374D01*
X111235699Y-92693816D01*
X111235380Y-92692714D01*
X111081689Y-92149272D01*
X111080824Y-92146044D01*
X110970019Y-91708504D01*
X110969787Y-91707568D01*
X110837021Y-91157840D01*
X110836274Y-91154547D01*
X110742708Y-90713728D01*
X110742530Y-90712867D01*
X110630948Y-90157671D01*
X110630306Y-90154223D01*
X110598357Y-89968400D01*
X110554116Y-89711084D01*
X110553936Y-89710007D01*
X110463782Y-89150278D01*
X110463267Y-89146763D01*
X110458829Y-89113178D01*
X110404453Y-88701699D01*
X110404333Y-88700754D01*
X110335762Y-88137090D01*
X110335389Y-88133606D01*
X110303875Y-87793910D01*
X126373119Y-87793910D01*
X126999999Y-88420790D01*
X127000000Y-88420790D01*
X127606879Y-87813910D01*
X132133119Y-87813910D01*
X132759999Y-88440790D01*
X132760000Y-88440790D01*
X133386879Y-87813910D01*
X133283033Y-87749610D01*
X133081117Y-87671388D01*
X132868266Y-87631600D01*
X132651734Y-87631600D01*
X132438882Y-87671388D01*
X132236966Y-87749610D01*
X132133119Y-87813910D01*
X127606879Y-87813910D01*
X127626879Y-87793910D01*
X127523033Y-87729610D01*
X127321117Y-87651388D01*
X127108266Y-87611600D01*
X126891734Y-87611600D01*
X126678882Y-87651388D01*
X126476966Y-87729610D01*
X126373119Y-87793910D01*
X110303875Y-87793910D01*
X110294003Y-87687495D01*
X110293914Y-87686482D01*
X110267440Y-87366000D01*
X116247000Y-87366000D01*
X117351000Y-87366000D01*
X117351000Y-86262000D01*
X117859000Y-86262000D01*
X117859000Y-87366000D01*
X118963000Y-87366000D01*
X118963000Y-86721411D01*
X118956494Y-86660906D01*
X118905445Y-86524037D01*
X118817904Y-86407095D01*
X118700962Y-86319554D01*
X118564093Y-86268505D01*
X118503589Y-86262000D01*
X117859000Y-86262000D01*
X117351000Y-86262000D01*
X116706411Y-86262000D01*
X116645906Y-86268505D01*
X116509037Y-86319554D01*
X116392095Y-86407095D01*
X116304554Y-86524037D01*
X116253505Y-86660906D01*
X116247000Y-86721411D01*
X116247000Y-87366000D01*
X110267440Y-87366000D01*
X110247098Y-87119743D01*
X110246860Y-87116249D01*
X110222891Y-86669669D01*
X110222848Y-86668783D01*
X110197918Y-86099701D01*
X110197814Y-86096150D01*
X110191237Y-85649970D01*
X110191230Y-85649322D01*
X110188295Y-85078485D01*
X110188329Y-85074997D01*
X110199076Y-84629895D01*
X110199092Y-84629336D01*
X110218246Y-84057782D01*
X110218424Y-84054089D01*
X110246377Y-83611152D01*
X110246455Y-83610007D01*
X110287724Y-83038907D01*
X110288039Y-83035288D01*
X110333093Y-82594708D01*
X110333161Y-82594067D01*
X110396640Y-82023380D01*
X110397080Y-82019904D01*
X110459051Y-81582640D01*
X110459128Y-81582111D01*
X110544794Y-81013042D01*
X110545393Y-81009431D01*
X110624054Y-80576346D01*
X110624219Y-80575464D01*
X110654924Y-80414118D01*
X110731995Y-80009126D01*
X110732753Y-80005448D01*
X110827869Y-79577191D01*
X110828077Y-79576277D01*
X110957952Y-79013211D01*
X110958857Y-79009545D01*
X111070186Y-78586686D01*
X111070325Y-78586163D01*
X111222338Y-78026757D01*
X111223383Y-78023135D01*
X111350611Y-77606410D01*
X111350696Y-77606134D01*
X111524780Y-77051185D01*
X111525929Y-77047715D01*
X111668662Y-76637968D01*
X111668715Y-76637814D01*
X111864721Y-76088280D01*
X111866082Y-76084647D01*
X112023907Y-75682610D01*
X112241764Y-75139139D01*
X112243215Y-75135677D01*
X112415791Y-74741807D01*
X112655284Y-74205356D01*
X112656923Y-74201837D01*
X112843597Y-73817206D01*
X112843820Y-73816750D01*
X113104662Y-73288318D01*
X113106457Y-73284825D01*
X113216627Y-73078638D01*
X116113823Y-73078638D01*
X116120334Y-73139201D01*
X116145883Y-73207702D01*
X116171434Y-73276205D01*
X116259061Y-73393261D01*
X116376117Y-73480888D01*
X116376118Y-73480888D01*
X116376119Y-73480889D01*
X116513122Y-73531989D01*
X116573685Y-73538500D01*
X118670961Y-73538500D01*
X118731524Y-73531989D01*
X118868527Y-73480889D01*
X118985584Y-73393261D01*
X119073212Y-73276204D01*
X119078099Y-73263102D01*
X121748430Y-73263102D01*
X121935584Y-73377791D01*
X122154882Y-73468627D01*
X122385689Y-73524039D01*
X122622323Y-73542662D01*
X122858956Y-73524039D01*
X123089763Y-73468627D01*
X123309061Y-73377791D01*
X123496214Y-73263102D01*
X123496215Y-73263101D01*
X123274176Y-73041062D01*
X125484202Y-73041062D01*
X125524054Y-73279883D01*
X125524055Y-73279885D01*
X125602671Y-73508887D01*
X125717911Y-73721833D01*
X125866625Y-73912900D01*
X126018542Y-74052749D01*
X126044762Y-74076886D01*
X126247460Y-74209315D01*
X126469190Y-74306575D01*
X126703905Y-74366013D01*
X126884775Y-74381000D01*
X127615224Y-74381000D01*
X127615229Y-74381000D01*
X127796099Y-74366013D01*
X128030814Y-74306575D01*
X128252544Y-74209315D01*
X128455242Y-74076886D01*
X128633378Y-73912900D01*
X128707860Y-73817206D01*
X128782092Y-73721833D01*
X128836881Y-73620592D01*
X128897332Y-73508888D01*
X128975950Y-73279883D01*
X128993619Y-73174000D01*
X129506893Y-73174000D01*
X129524541Y-73279762D01*
X129603130Y-73508686D01*
X129718327Y-73721553D01*
X129866997Y-73912563D01*
X130045067Y-74076488D01*
X130247697Y-74208872D01*
X130469348Y-74306097D01*
X130703987Y-74365516D01*
X130884806Y-74380500D01*
X130996001Y-74380500D01*
X130996001Y-73174000D01*
X131504001Y-73174000D01*
X131504001Y-74380501D01*
X131504421Y-74380921D01*
X131559192Y-74393902D01*
X131603711Y-74431257D01*
X131626729Y-74484618D01*
X131630667Y-74506952D01*
X131699721Y-74667039D01*
X131803830Y-74806881D01*
X131937385Y-74918949D01*
X132015977Y-74958419D01*
X132093185Y-74997194D01*
X132262829Y-75037400D01*
X132393436Y-75037400D01*
X132523164Y-75022237D01*
X132686993Y-74962608D01*
X132832654Y-74866805D01*
X132952296Y-74739993D01*
X133039467Y-74589007D01*
X133089469Y-74421988D01*
X133099607Y-74247940D01*
X133069332Y-74076246D01*
X133000279Y-73916162D01*
X132926144Y-73816582D01*
X132896169Y-73776318D01*
X132896168Y-73776317D01*
X132875796Y-73759222D01*
X132841556Y-73713668D01*
X132830888Y-73657687D01*
X132845975Y-73602731D01*
X132896871Y-73508685D01*
X132975460Y-73279762D01*
X132993109Y-73174000D01*
X131504001Y-73174000D01*
X130996001Y-73174000D01*
X129506893Y-73174000D01*
X128993619Y-73174000D01*
X129015802Y-73041062D01*
X129015802Y-72798938D01*
X128993619Y-72666000D01*
X129506893Y-72666000D01*
X130996001Y-72666000D01*
X131504001Y-72666000D01*
X132993109Y-72666000D01*
X132975460Y-72560237D01*
X132896871Y-72331313D01*
X132845405Y-72236211D01*
X132830608Y-72186133D01*
X132837384Y-72134357D01*
X132864571Y-72089775D01*
X132920966Y-72030001D01*
X132952296Y-71996793D01*
X133039467Y-71845807D01*
X133089469Y-71678788D01*
X133099607Y-71504740D01*
X133069332Y-71333046D01*
X133000279Y-71172962D01*
X132984913Y-71152322D01*
X132896169Y-71033118D01*
X132762614Y-70921050D01*
X132606817Y-70842807D01*
X132606816Y-70842806D01*
X132606815Y-70842806D01*
X132437171Y-70802600D01*
X132306564Y-70802600D01*
X132176834Y-70817763D01*
X132013006Y-70877391D01*
X131867348Y-70973192D01*
X131747703Y-71100007D01*
X131660532Y-71250993D01*
X131660533Y-71250993D01*
X131625012Y-71369639D01*
X131599240Y-71416348D01*
X131556447Y-71448206D01*
X131504307Y-71459500D01*
X131504001Y-71459500D01*
X131504001Y-72666000D01*
X130996001Y-72666000D01*
X130996001Y-71459500D01*
X130884806Y-71459500D01*
X130703987Y-71474483D01*
X130469348Y-71533902D01*
X130247697Y-71631127D01*
X130045067Y-71763511D01*
X129866997Y-71927436D01*
X129718327Y-72118446D01*
X129603130Y-72331313D01*
X129524541Y-72560237D01*
X129506893Y-72666000D01*
X128993619Y-72666000D01*
X128975950Y-72560117D01*
X128897332Y-72331112D01*
X128785035Y-72123605D01*
X128782092Y-72118166D01*
X128633378Y-71927099D01*
X128455243Y-71763115D01*
X128455242Y-71763114D01*
X128252544Y-71630685D01*
X128097233Y-71562559D01*
X128030812Y-71533424D01*
X127796103Y-71473988D01*
X127796102Y-71473987D01*
X127796099Y-71473987D01*
X127615229Y-71459000D01*
X126884775Y-71459000D01*
X126703905Y-71473987D01*
X126703901Y-71473987D01*
X126703900Y-71473988D01*
X126469191Y-71533424D01*
X126247459Y-71630685D01*
X126044760Y-71763115D01*
X125866625Y-71927099D01*
X125717911Y-72118166D01*
X125602671Y-72331112D01*
X125545571Y-72497440D01*
X125524054Y-72560117D01*
X125484202Y-72798938D01*
X125484202Y-73041062D01*
X123274176Y-73041062D01*
X122622324Y-72389210D01*
X122622323Y-72389210D01*
X121748430Y-73263101D01*
X121748430Y-73263102D01*
X119078099Y-73263102D01*
X119124312Y-73139201D01*
X119130823Y-73078638D01*
X119130823Y-72030000D01*
X121109660Y-72030000D01*
X121128283Y-72266633D01*
X121183695Y-72497440D01*
X121274531Y-72716738D01*
X121389219Y-72903891D01*
X121389220Y-72903891D01*
X122263112Y-72030001D01*
X122981533Y-72030001D01*
X123855424Y-72903892D01*
X123855425Y-72903891D01*
X123970114Y-72716738D01*
X124060950Y-72497440D01*
X124116362Y-72266633D01*
X124134985Y-72030000D01*
X124116362Y-71793366D01*
X124060950Y-71562559D01*
X123970114Y-71343261D01*
X123855425Y-71156107D01*
X123855424Y-71156107D01*
X122981533Y-72030000D01*
X122981533Y-72030001D01*
X122263112Y-72030001D01*
X122263113Y-72030000D01*
X122263113Y-72029999D01*
X121389221Y-71156107D01*
X121389219Y-71156107D01*
X121274530Y-71343264D01*
X121183695Y-71562559D01*
X121128283Y-71793366D01*
X121109660Y-72030000D01*
X119130823Y-72030000D01*
X119130823Y-70981362D01*
X119124312Y-70920799D01*
X119078099Y-70796898D01*
X121748430Y-70796898D01*
X122622322Y-71670790D01*
X122622323Y-71670790D01*
X123496214Y-70796897D01*
X123496214Y-70796896D01*
X123309061Y-70682208D01*
X123089763Y-70591372D01*
X122858956Y-70535960D01*
X122622323Y-70517337D01*
X122385689Y-70535960D01*
X122154882Y-70591372D01*
X121935587Y-70682207D01*
X121748430Y-70796896D01*
X121748430Y-70796898D01*
X119078099Y-70796898D01*
X119073212Y-70783796D01*
X119073211Y-70783794D01*
X118985584Y-70666738D01*
X118868528Y-70579111D01*
X118800025Y-70553560D01*
X118731524Y-70528011D01*
X118670961Y-70521500D01*
X116573685Y-70521500D01*
X116513122Y-70528011D01*
X116376117Y-70579111D01*
X116259061Y-70666738D01*
X116171434Y-70783794D01*
X116136524Y-70877392D01*
X116120334Y-70920799D01*
X116113823Y-70981362D01*
X116113823Y-73078638D01*
X113216627Y-73078638D01*
X113306931Y-72909631D01*
X113307039Y-72909431D01*
X113589263Y-72389326D01*
X113591169Y-72385943D01*
X113804814Y-72020980D01*
X114108347Y-71509760D01*
X114110387Y-71506448D01*
X114336453Y-71152577D01*
X114661055Y-70651072D01*
X114663303Y-70647721D01*
X114901256Y-70305351D01*
X114901479Y-70305032D01*
X115246711Y-69814310D01*
X115249060Y-69811086D01*
X115498228Y-69480762D01*
X115864312Y-69000919D01*
X115866783Y-68997790D01*
X116126157Y-68680392D01*
X116512940Y-68212100D01*
X116515614Y-68208972D01*
X116784405Y-67904978D01*
X117191668Y-67448977D01*
X117194527Y-67445886D01*
X117471789Y-67155857D01*
X117899421Y-66712760D01*
X117902374Y-66709802D01*
X118187488Y-66433881D01*
X118635257Y-66004432D01*
X118638292Y-66001619D01*
X118929832Y-65740646D01*
X119397943Y-65325186D01*
X119401084Y-65322494D01*
X119697740Y-65077028D01*
X120186330Y-64676040D01*
X120189672Y-64673393D01*
X120490170Y-64443828D01*
X120999341Y-64057877D01*
X121002794Y-64055354D01*
X121305294Y-63842357D01*
X121835660Y-63471704D01*
X121839261Y-63469281D01*
X122142096Y-63273199D01*
X122694131Y-62918332D01*
X122697779Y-62916078D01*
X122998940Y-62737300D01*
X123573287Y-62398706D01*
X123577129Y-62396532D01*
X123874131Y-62235496D01*
X124471993Y-61913490D01*
X124475936Y-61911457D01*
X124765870Y-61768547D01*
X124765903Y-61768615D01*
X124766150Y-61768409D01*
X125388850Y-61463449D01*
X125392824Y-61461591D01*
X125671403Y-61337493D01*
X126322455Y-61049272D01*
X126326526Y-61047558D01*
X126589029Y-60942652D01*
X126589261Y-60942560D01*
X126589284Y-60942619D01*
X126589490Y-60942469D01*
X127271400Y-60671585D01*
X127275533Y-60670030D01*
X127515016Y-60584962D01*
X127515205Y-60584895D01*
X127515436Y-60584882D01*
X127515415Y-60584821D01*
X128234236Y-60330961D01*
X128238518Y-60329538D01*
X128445989Y-60264807D01*
X129209595Y-60027885D01*
X129213895Y-60026638D01*
X129374623Y-59983269D01*
X130195874Y-59762853D01*
X130200357Y-59761740D01*
X130292084Y-59740778D01*
X130292331Y-59740722D01*
X130292465Y-59740726D01*
X130292458Y-59740693D01*
X131191309Y-59536319D01*
X131195981Y-59535350D01*
X132192185Y-59348990D01*
X132196902Y-59348203D01*
X133199499Y-59200474D01*
X133204239Y-59199868D01*
X134211824Y-59090976D01*
X134216638Y-59090550D01*
X135094812Y-59029846D01*
X135161414Y-59043645D01*
G37*
%TD.AperFunction*%
%TD*%
M02*
