%TF.GenerationSoftware,KiCad,Pcbnew,6.0.10-86aedd382b~118~ubuntu20.04.1*%
%TF.CreationDate,2023-01-08T11:34:38+01:00*%
%TF.ProjectId,220AC-mini-C3-board,32323041-432d-46d6-996e-692d43332d62,rev?*%
%TF.SameCoordinates,Original*%
%TF.FileFunction,Copper,L2,Bot*%
%TF.FilePolarity,Positive*%
%FSLAX46Y46*%
G04 Gerber Fmt 4.6, Leading zero omitted, Abs format (unit mm)*
G04 Created by KiCad (PCBNEW 6.0.10-86aedd382b~118~ubuntu20.04.1) date 2023-01-08 11:34:38*
%MOMM*%
%LPD*%
G01*
G04 APERTURE LIST*
G04 Aperture macros list*
%AMRoundRect*
0 Rectangle with rounded corners*
0 $1 Rounding radius*
0 $2 $3 $4 $5 $6 $7 $8 $9 X,Y pos of 4 corners*
0 Add a 4 corners polygon primitive as box body*
4,1,4,$2,$3,$4,$5,$6,$7,$8,$9,$2,$3,0*
0 Add four circle primitives for the rounded corners*
1,1,$1+$1,$2,$3*
1,1,$1+$1,$4,$5*
1,1,$1+$1,$6,$7*
1,1,$1+$1,$8,$9*
0 Add four rect primitives between the rounded corners*
20,1,$1+$1,$2,$3,$4,$5,0*
20,1,$1+$1,$4,$5,$6,$7,0*
20,1,$1+$1,$6,$7,$8,$9,0*
20,1,$1+$1,$8,$9,$2,$3,0*%
G04 Aperture macros list end*
%TA.AperFunction,SMDPad,CuDef*%
%ADD10RoundRect,0.200000X0.275000X-0.200000X0.275000X0.200000X-0.275000X0.200000X-0.275000X-0.200000X0*%
%TD*%
%TA.AperFunction,ComponentPad*%
%ADD11R,1.950000X1.950000*%
%TD*%
%TA.AperFunction,ComponentPad*%
%ADD12C,1.950000*%
%TD*%
%TA.AperFunction,ComponentPad*%
%ADD13R,1.800000X1.800000*%
%TD*%
%TA.AperFunction,ComponentPad*%
%ADD14C,1.800000*%
%TD*%
%TA.AperFunction,ComponentPad*%
%ADD15R,2.514600X1.905000*%
%TD*%
%TA.AperFunction,ComponentPad*%
%ADD16O,2.514600X1.905000*%
%TD*%
%TA.AperFunction,ComponentPad*%
%ADD17R,1.320800X1.320800*%
%TD*%
%TA.AperFunction,ComponentPad*%
%ADD18C,1.320800*%
%TD*%
%TA.AperFunction,ComponentPad*%
%ADD19R,2.000000X2.000000*%
%TD*%
%TA.AperFunction,ComponentPad*%
%ADD20C,2.000000*%
%TD*%
%TA.AperFunction,ComponentPad*%
%ADD21R,1.700000X1.700000*%
%TD*%
%TA.AperFunction,ComponentPad*%
%ADD22O,1.700000X1.700000*%
%TD*%
%TA.AperFunction,ViaPad*%
%ADD23C,1.000000*%
%TD*%
%TA.AperFunction,Conductor*%
%ADD24C,0.400000*%
%TD*%
G04 APERTURE END LIST*
D10*
%TO.P,R3,1*%
%TO.N,/IO_2*%
X160980000Y-110645000D03*
%TO.P,R3,2*%
%TO.N,GND*%
X160980000Y-108995000D03*
%TD*%
%TO.P,R2,2*%
%TO.N,GND*%
X160980000Y-105375000D03*
%TO.P,R2,1*%
%TO.N,/IO_3*%
X160980000Y-107025000D03*
%TD*%
D11*
%TO.P,J1,1,Pin_1*%
%TO.N,AC*%
X159040000Y-70820000D03*
D12*
%TO.P,J1,2,Pin_2*%
%TO.N,/AC (N)*%
X159040000Y-66920000D03*
%TD*%
D13*
%TO.P,K1,1*%
%TO.N,Net-(D1-Pad2)*%
X145990000Y-99670000D03*
D14*
%TO.P,K1,2*%
%TO.N,+3V3*%
X145990000Y-103420000D03*
%TO.P,K1,3*%
%TO.N,Net-(D2-Pad2)*%
X145990000Y-107170000D03*
%TO.P,K1,4*%
%TO.N,Net-(J2-Pad2)*%
X128490000Y-107170000D03*
%TO.P,K1,5*%
%TO.N,Net-(J2-Pad1)*%
X124990000Y-99670000D03*
%TD*%
D15*
%TO.P,U1,1,ACL*%
%TO.N,Net-(R1-Pad2)*%
X151499999Y-72000000D03*
D16*
%TO.P,U1,2,ACN*%
%TO.N,/AC (N)*%
X147500000Y-72000000D03*
%TO.P,U1,3,+VCAP*%
%TO.N,Net-(C1-Pad1)*%
X143500000Y-72000000D03*
%TO.P,U1,4,-VCAP*%
%TO.N,Net-(C1-Pad2)*%
X139500000Y-72000000D03*
%TO.P,U1,5,-VO*%
%TO.N,GND*%
X131500001Y-72000000D03*
%TO.P,U1,6,+VO*%
%TO.N,Net-(C2-Pad1)*%
X127500002Y-72000000D03*
%TD*%
D17*
%TO.P,Q1,1,C*%
%TO.N,GND*%
X154750000Y-100130000D03*
D18*
%TO.P,Q1,2,B*%
%TO.N,/IO_3*%
X152150000Y-100130000D03*
%TO.P,Q1,3,E*%
%TO.N,Net-(D1-Pad2)*%
X149550000Y-100130000D03*
%TD*%
D19*
%TO.P,C2,1*%
%TO.N,Net-(C2-Pad1)*%
X118580000Y-66640000D03*
D20*
%TO.P,C2,2*%
%TO.N,GND*%
X118580000Y-71640000D03*
%TD*%
D17*
%TO.P,Q2,1,C*%
%TO.N,GND*%
X151520000Y-105720000D03*
D18*
%TO.P,Q2,2,B*%
%TO.N,/IO_2*%
X151520000Y-108320000D03*
%TO.P,Q2,3,E*%
%TO.N,Net-(D2-Pad2)*%
X151520000Y-110920000D03*
%TD*%
D11*
%TO.P,J2,1,Pin_1*%
%TO.N,Net-(J2-Pad1)*%
X117090000Y-99040000D03*
D12*
%TO.P,J2,2,Pin_2*%
%TO.N,Net-(J2-Pad2)*%
X117090000Y-102940000D03*
%TD*%
D21*
%TO.P,J3,1,Pin_1*%
%TO.N,GND*%
X157660000Y-102300000D03*
D22*
%TO.P,J3,2,Pin_2*%
%TO.N,+3V3*%
X157660000Y-104840000D03*
%TO.P,J3,3,Pin_3*%
%TO.N,/IO_3*%
X157660000Y-107380000D03*
%TO.P,J3,4,Pin_4*%
%TO.N,/IO_2*%
X157660000Y-109920000D03*
%TD*%
D23*
%TO.N,GND*%
X130280000Y-79280000D03*
X130280000Y-81120000D03*
%TD*%
D24*
%TO.N,/IO_2*%
X159540000Y-109970000D02*
X157710000Y-109970000D01*
X157710000Y-109970000D02*
X157660000Y-109920000D01*
X160980000Y-110645000D02*
X160215000Y-110645000D01*
X160215000Y-110645000D02*
X159540000Y-109970000D01*
%TO.N,/IO_3*%
X160280000Y-107430000D02*
X157710000Y-107430000D01*
X157710000Y-107430000D02*
X157660000Y-107380000D01*
X160980000Y-107025000D02*
X160685000Y-107025000D01*
X160685000Y-107025000D02*
X160280000Y-107430000D01*
%TD*%
%TA.AperFunction,Conductor*%
%TO.N,GND*%
G36*
X130809569Y-78223133D02*
G01*
X132691855Y-78245240D01*
X132759736Y-78266040D01*
X132805595Y-78320238D01*
X132806561Y-78322879D01*
X132806920Y-78325387D01*
X132809770Y-78331655D01*
X132817548Y-78348762D01*
X132823996Y-78366286D01*
X132831051Y-78390971D01*
X132835843Y-78398565D01*
X132835844Y-78398568D01*
X132846830Y-78415980D01*
X132854969Y-78431063D01*
X132867208Y-78457982D01*
X132873069Y-78464784D01*
X132883970Y-78477435D01*
X132895073Y-78492439D01*
X132908776Y-78514158D01*
X132915501Y-78520097D01*
X132915504Y-78520101D01*
X132930938Y-78533732D01*
X132942982Y-78545924D01*
X132956427Y-78561527D01*
X132956430Y-78561529D01*
X132962287Y-78568327D01*
X132969816Y-78573207D01*
X132969817Y-78573208D01*
X132983835Y-78582294D01*
X132998709Y-78593585D01*
X133011217Y-78604631D01*
X133017951Y-78610578D01*
X133044711Y-78623142D01*
X133059691Y-78631463D01*
X133076983Y-78642671D01*
X133076988Y-78642673D01*
X133084515Y-78647552D01*
X133093108Y-78650122D01*
X133093113Y-78650124D01*
X133109120Y-78654911D01*
X133126564Y-78661572D01*
X133141676Y-78668667D01*
X133141678Y-78668668D01*
X133149800Y-78672481D01*
X133158667Y-78673862D01*
X133158668Y-78673862D01*
X133161353Y-78674280D01*
X133179017Y-78677030D01*
X133195732Y-78680813D01*
X133215466Y-78686715D01*
X133215472Y-78686716D01*
X133224066Y-78689286D01*
X133233037Y-78689341D01*
X133233038Y-78689341D01*
X133243097Y-78689402D01*
X133258506Y-78689496D01*
X133259289Y-78689529D01*
X133260386Y-78689700D01*
X133291377Y-78689700D01*
X133292147Y-78689702D01*
X133365785Y-78690152D01*
X133365786Y-78690152D01*
X133369721Y-78690176D01*
X133371065Y-78689792D01*
X133372410Y-78689700D01*
X134680446Y-78689700D01*
X134748567Y-78709702D01*
X134795060Y-78763358D01*
X134806437Y-78814209D01*
X135020000Y-96870000D01*
X163366114Y-97007665D01*
X163434135Y-97027998D01*
X163480366Y-97081879D01*
X163491500Y-97133664D01*
X163491500Y-111365500D01*
X163471498Y-111433621D01*
X163417842Y-111480114D01*
X163365500Y-111491500D01*
X161912772Y-111491500D01*
X161844651Y-111471498D01*
X161798158Y-111417842D01*
X161788054Y-111347568D01*
X161813136Y-111288884D01*
X161816639Y-111285381D01*
X161905472Y-111138699D01*
X161908646Y-111128573D01*
X161938494Y-111033327D01*
X161956753Y-110975062D01*
X161963500Y-110901635D01*
X161963499Y-110388366D01*
X161956753Y-110314938D01*
X161952700Y-110302004D01*
X161907744Y-110158550D01*
X161907743Y-110158548D01*
X161905472Y-110151301D01*
X161816639Y-110004619D01*
X161720761Y-109908741D01*
X161686735Y-109846429D01*
X161691800Y-109775614D01*
X161720761Y-109730551D01*
X161810869Y-109640443D01*
X161820176Y-109628574D01*
X161901079Y-109494988D01*
X161907285Y-109481243D01*
X161954256Y-109331356D01*
X161956869Y-109318306D01*
X161961913Y-109263414D01*
X161958525Y-109251876D01*
X161957135Y-109250671D01*
X161949452Y-109249000D01*
X160015116Y-109249000D01*
X159999877Y-109253475D01*
X159979861Y-109276575D01*
X159969258Y-109295994D01*
X159906947Y-109330021D01*
X159834392Y-109324296D01*
X159829512Y-109322393D01*
X159817718Y-109317795D01*
X159811656Y-109315247D01*
X159753427Y-109288955D01*
X159745960Y-109287571D01*
X159743405Y-109286770D01*
X159727152Y-109282141D01*
X159724572Y-109281478D01*
X159717491Y-109278718D01*
X159709960Y-109277727D01*
X159709958Y-109277726D01*
X159680339Y-109273827D01*
X159654139Y-109270378D01*
X159647641Y-109269348D01*
X159584814Y-109257704D01*
X159577234Y-109258141D01*
X159577233Y-109258141D01*
X159522608Y-109261291D01*
X159515354Y-109261500D01*
X158920632Y-109261500D01*
X158852511Y-109241498D01*
X158814840Y-109203940D01*
X158742822Y-109092617D01*
X158742820Y-109092614D01*
X158740014Y-109088277D01*
X158589670Y-108923051D01*
X158585619Y-108919852D01*
X158585615Y-108919848D01*
X158418414Y-108787800D01*
X158418410Y-108787798D01*
X158414359Y-108784598D01*
X158373053Y-108761796D01*
X158323084Y-108711364D01*
X158308312Y-108641921D01*
X158333428Y-108575516D01*
X158360780Y-108548909D01*
X158424245Y-108503640D01*
X158539860Y-108421173D01*
X158698096Y-108263489D01*
X158708153Y-108249494D01*
X158750203Y-108190974D01*
X158806198Y-108147326D01*
X158852526Y-108138500D01*
X160055998Y-108138500D01*
X160124119Y-108158502D01*
X160170612Y-108212158D01*
X160180716Y-108282432D01*
X160153058Y-108342992D01*
X160153814Y-108343585D01*
X160151355Y-108346721D01*
X160151222Y-108347012D01*
X160150618Y-108347661D01*
X160139824Y-108361426D01*
X160058921Y-108495012D01*
X160052715Y-108508757D01*
X160005744Y-108658644D01*
X160003131Y-108671694D01*
X159998087Y-108726586D01*
X160001475Y-108738124D01*
X160002865Y-108739329D01*
X160010548Y-108741000D01*
X161944884Y-108741000D01*
X161960123Y-108736525D01*
X161961328Y-108735135D01*
X161962291Y-108730706D01*
X161956868Y-108671685D01*
X161954257Y-108658649D01*
X161907285Y-108508757D01*
X161901079Y-108495012D01*
X161820176Y-108361426D01*
X161810869Y-108349557D01*
X161700443Y-108239131D01*
X161688574Y-108229824D01*
X161554988Y-108148921D01*
X161541243Y-108142715D01*
X161502251Y-108130496D01*
X161443229Y-108091039D01*
X161414909Y-108025935D01*
X161426282Y-107955855D01*
X161473737Y-107903049D01*
X161502251Y-107890028D01*
X161541450Y-107877744D01*
X161541452Y-107877743D01*
X161548699Y-107875472D01*
X161695381Y-107786639D01*
X161816639Y-107665381D01*
X161905472Y-107518699D01*
X161956753Y-107355062D01*
X161963500Y-107281635D01*
X161963499Y-106768366D01*
X161956753Y-106694938D01*
X161947039Y-106663940D01*
X161907744Y-106538550D01*
X161907743Y-106538548D01*
X161905472Y-106531301D01*
X161816639Y-106384619D01*
X161720761Y-106288741D01*
X161686735Y-106226429D01*
X161691800Y-106155614D01*
X161720761Y-106110551D01*
X161810869Y-106020443D01*
X161820176Y-106008574D01*
X161901079Y-105874988D01*
X161907285Y-105861243D01*
X161954256Y-105711356D01*
X161956869Y-105698306D01*
X161961913Y-105643414D01*
X161958525Y-105631876D01*
X161957135Y-105630671D01*
X161949452Y-105629000D01*
X160015116Y-105629000D01*
X159999877Y-105633475D01*
X159998672Y-105634865D01*
X159997709Y-105639294D01*
X160003132Y-105698315D01*
X160005743Y-105711351D01*
X160052715Y-105861243D01*
X160058921Y-105874988D01*
X160139824Y-106008574D01*
X160149131Y-106020443D01*
X160239239Y-106110551D01*
X160273265Y-106172863D01*
X160268200Y-106243678D01*
X160239239Y-106288741D01*
X160143361Y-106384619D01*
X160054528Y-106531301D01*
X160052257Y-106538548D01*
X160022601Y-106633180D01*
X159983143Y-106692202D01*
X159918040Y-106720521D01*
X159902367Y-106721500D01*
X158920632Y-106721500D01*
X158852511Y-106701498D01*
X158814840Y-106663940D01*
X158742822Y-106552617D01*
X158742820Y-106552614D01*
X158740014Y-106548277D01*
X158589670Y-106383051D01*
X158585619Y-106379852D01*
X158585615Y-106379848D01*
X158418414Y-106247800D01*
X158418410Y-106247798D01*
X158414359Y-106244598D01*
X158373053Y-106221796D01*
X158323084Y-106171364D01*
X158308312Y-106101921D01*
X158333428Y-106035516D01*
X158360780Y-106008909D01*
X158412997Y-105971663D01*
X158539860Y-105881173D01*
X158698096Y-105723489D01*
X158706815Y-105711356D01*
X158825435Y-105546277D01*
X158828453Y-105542077D01*
X158866053Y-105466000D01*
X158925136Y-105346453D01*
X158925137Y-105346451D01*
X158927430Y-105341811D01*
X158992370Y-105128069D01*
X158995198Y-105106586D01*
X159998087Y-105106586D01*
X160001475Y-105118124D01*
X160002865Y-105119329D01*
X160010548Y-105121000D01*
X160707885Y-105121000D01*
X160723124Y-105116525D01*
X160724329Y-105115135D01*
X160726000Y-105107452D01*
X160726000Y-105102885D01*
X161234000Y-105102885D01*
X161238475Y-105118124D01*
X161239865Y-105119329D01*
X161247548Y-105121000D01*
X161944884Y-105121000D01*
X161960123Y-105116525D01*
X161961328Y-105115135D01*
X161962291Y-105110706D01*
X161956868Y-105051685D01*
X161954257Y-105038649D01*
X161907285Y-104888757D01*
X161901079Y-104875012D01*
X161820176Y-104741426D01*
X161810869Y-104729557D01*
X161700443Y-104619131D01*
X161688574Y-104609824D01*
X161554988Y-104528921D01*
X161541243Y-104522715D01*
X161391356Y-104475744D01*
X161378306Y-104473131D01*
X161314479Y-104467266D01*
X161308691Y-104467000D01*
X161252115Y-104467000D01*
X161236876Y-104471475D01*
X161235671Y-104472865D01*
X161234000Y-104480548D01*
X161234000Y-105102885D01*
X160726000Y-105102885D01*
X160726000Y-104485116D01*
X160721525Y-104469877D01*
X160720135Y-104468672D01*
X160712452Y-104467001D01*
X160651295Y-104467001D01*
X160645546Y-104467264D01*
X160581685Y-104473132D01*
X160568649Y-104475743D01*
X160418757Y-104522715D01*
X160405012Y-104528921D01*
X160271426Y-104609824D01*
X160259557Y-104619131D01*
X160149131Y-104729557D01*
X160139824Y-104741426D01*
X160058921Y-104875012D01*
X160052715Y-104888757D01*
X160005744Y-105038644D01*
X160003131Y-105051694D01*
X159998087Y-105106586D01*
X158995198Y-105106586D01*
X159021529Y-104906590D01*
X159023156Y-104840000D01*
X159004852Y-104617361D01*
X158950431Y-104400702D01*
X158861354Y-104195840D01*
X158740014Y-104008277D01*
X158736540Y-104004459D01*
X158736533Y-104004450D01*
X158592435Y-103846088D01*
X158561383Y-103782242D01*
X158569779Y-103711744D01*
X158614956Y-103656976D01*
X158641400Y-103643307D01*
X158748052Y-103603325D01*
X158763649Y-103594786D01*
X158865724Y-103518285D01*
X158878285Y-103505724D01*
X158954786Y-103403649D01*
X158963324Y-103388054D01*
X159008478Y-103267606D01*
X159012105Y-103252351D01*
X159017631Y-103201486D01*
X159018000Y-103194672D01*
X159018000Y-102572115D01*
X159013525Y-102556876D01*
X159012135Y-102555671D01*
X159004452Y-102554000D01*
X156320116Y-102554000D01*
X156304877Y-102558475D01*
X156303672Y-102559865D01*
X156302001Y-102567548D01*
X156302001Y-103194669D01*
X156302371Y-103201490D01*
X156307895Y-103252352D01*
X156311521Y-103267604D01*
X156356676Y-103388054D01*
X156365214Y-103403649D01*
X156441715Y-103505724D01*
X156454276Y-103518285D01*
X156556351Y-103594786D01*
X156571946Y-103603324D01*
X156680827Y-103644142D01*
X156737591Y-103686784D01*
X156762291Y-103753345D01*
X156747083Y-103822694D01*
X156727691Y-103849175D01*
X156640629Y-103940280D01*
X156600629Y-103982138D01*
X156474743Y-104166680D01*
X156380688Y-104369305D01*
X156320989Y-104584570D01*
X156297251Y-104806695D01*
X156297548Y-104811848D01*
X156297548Y-104811851D01*
X156309257Y-105014928D01*
X156310110Y-105029715D01*
X156311247Y-105034761D01*
X156311248Y-105034767D01*
X156329674Y-105116525D01*
X156359222Y-105247639D01*
X156443266Y-105454616D01*
X156445965Y-105459020D01*
X156552871Y-105633475D01*
X156559987Y-105645088D01*
X156706250Y-105813938D01*
X156878126Y-105956632D01*
X156945515Y-105996011D01*
X156951445Y-105999476D01*
X157000169Y-106051114D01*
X157013240Y-106120897D01*
X156986509Y-106186669D01*
X156946055Y-106220027D01*
X156933607Y-106226507D01*
X156929474Y-106229610D01*
X156929471Y-106229612D01*
X156759100Y-106357530D01*
X156754965Y-106360635D01*
X156751393Y-106364373D01*
X156648639Y-106471899D01*
X156600629Y-106522138D01*
X156597715Y-106526410D01*
X156597714Y-106526411D01*
X156512556Y-106651249D01*
X156474743Y-106706680D01*
X156444771Y-106771249D01*
X156384916Y-106900197D01*
X156380688Y-106909305D01*
X156320989Y-107124570D01*
X156297251Y-107346695D01*
X156297548Y-107351848D01*
X156297548Y-107351851D01*
X156306778Y-107511935D01*
X156310110Y-107569715D01*
X156311247Y-107574761D01*
X156311248Y-107574767D01*
X156332881Y-107670757D01*
X156359222Y-107787639D01*
X156443266Y-107994616D01*
X156484857Y-108062487D01*
X156556737Y-108179784D01*
X156559987Y-108185088D01*
X156706250Y-108353938D01*
X156878126Y-108496632D01*
X156932217Y-108528240D01*
X156951445Y-108539476D01*
X157000169Y-108591114D01*
X157013240Y-108660897D01*
X156986509Y-108726669D01*
X156946055Y-108760027D01*
X156933607Y-108766507D01*
X156929474Y-108769610D01*
X156929471Y-108769612D01*
X156885663Y-108802504D01*
X156754965Y-108900635D01*
X156600629Y-109062138D01*
X156597715Y-109066410D01*
X156597714Y-109066411D01*
X156582798Y-109088277D01*
X156474743Y-109246680D01*
X156438715Y-109324296D01*
X156386654Y-109436453D01*
X156380688Y-109449305D01*
X156320989Y-109664570D01*
X156297251Y-109886695D01*
X156310110Y-110109715D01*
X156311247Y-110114761D01*
X156311248Y-110114767D01*
X156335304Y-110221508D01*
X156359222Y-110327639D01*
X156443266Y-110534616D01*
X156445965Y-110539020D01*
X156529864Y-110675931D01*
X156559987Y-110725088D01*
X156706250Y-110893938D01*
X156878126Y-111036632D01*
X157071000Y-111149338D01*
X157279692Y-111229030D01*
X157343591Y-111242030D01*
X157406354Y-111275211D01*
X157441216Y-111337059D01*
X157437107Y-111407936D01*
X157395330Y-111465341D01*
X157329151Y-111491046D01*
X157318468Y-111491500D01*
X152736332Y-111491500D01*
X152668211Y-111471498D01*
X152621718Y-111417842D01*
X152611614Y-111347568D01*
X152617019Y-111324998D01*
X152621480Y-111311859D01*
X152661473Y-111194043D01*
X152662510Y-111186895D01*
X152684296Y-111036632D01*
X152692299Y-110981438D01*
X152693908Y-110920000D01*
X152674251Y-110706072D01*
X152667369Y-110681668D01*
X152656338Y-110642556D01*
X152615938Y-110499309D01*
X152562649Y-110391249D01*
X152523475Y-110311814D01*
X152520921Y-110306635D01*
X152392384Y-110134502D01*
X152258910Y-110011120D01*
X152238870Y-109992595D01*
X152238867Y-109992593D01*
X152234630Y-109988676D01*
X152052943Y-109874040D01*
X151853408Y-109794434D01*
X151847748Y-109793308D01*
X151847744Y-109793307D01*
X151648374Y-109753650D01*
X151648371Y-109753650D01*
X151642707Y-109752523D01*
X151636932Y-109752447D01*
X151636928Y-109752447D01*
X151529255Y-109751038D01*
X151427896Y-109749711D01*
X151422199Y-109750690D01*
X151422198Y-109750690D01*
X151221867Y-109785113D01*
X151216170Y-109786092D01*
X151014620Y-109860448D01*
X150829994Y-109970288D01*
X150825654Y-109974094D01*
X150825650Y-109974097D01*
X150796977Y-109999243D01*
X150668477Y-110111935D01*
X150535478Y-110280644D01*
X150532789Y-110285755D01*
X150532787Y-110285758D01*
X150481979Y-110382328D01*
X150435450Y-110470765D01*
X150371745Y-110675931D01*
X150346494Y-110889271D01*
X150360545Y-111103640D01*
X150413426Y-111311859D01*
X150415845Y-111317106D01*
X150417773Y-111322551D01*
X150415411Y-111323387D01*
X150424186Y-111383021D01*
X150394906Y-111447698D01*
X150335307Y-111486278D01*
X150299410Y-111491500D01*
X122786430Y-111491500D01*
X122718309Y-111471498D01*
X122671816Y-111417842D01*
X122660433Y-111364668D01*
X122660546Y-111347568D01*
X122688374Y-107135469D01*
X127077095Y-107135469D01*
X127077392Y-107140622D01*
X127077392Y-107140625D01*
X127085689Y-107284526D01*
X127090427Y-107366697D01*
X127091564Y-107371743D01*
X127091565Y-107371749D01*
X127122300Y-107508128D01*
X127141346Y-107592642D01*
X127143288Y-107597424D01*
X127143289Y-107597428D01*
X127222469Y-107792425D01*
X127228484Y-107807237D01*
X127349501Y-108004719D01*
X127501147Y-108179784D01*
X127624787Y-108282432D01*
X127665588Y-108316305D01*
X127679349Y-108327730D01*
X127879322Y-108444584D01*
X128095694Y-108527209D01*
X128100760Y-108528240D01*
X128100761Y-108528240D01*
X128153846Y-108539040D01*
X128322656Y-108573385D01*
X128453324Y-108578176D01*
X128548949Y-108581683D01*
X128548953Y-108581683D01*
X128554113Y-108581872D01*
X128559233Y-108581216D01*
X128559235Y-108581216D01*
X128632270Y-108571860D01*
X128783847Y-108552442D01*
X128788795Y-108550957D01*
X128788802Y-108550956D01*
X129000747Y-108487369D01*
X129005690Y-108485886D01*
X129086236Y-108446427D01*
X129209049Y-108386262D01*
X129209052Y-108386260D01*
X129213684Y-108383991D01*
X129402243Y-108249494D01*
X129566303Y-108086005D01*
X129569420Y-108081668D01*
X129628808Y-107999020D01*
X129701458Y-107897917D01*
X129714878Y-107870765D01*
X129801784Y-107694922D01*
X129801785Y-107694920D01*
X129804078Y-107690280D01*
X129871408Y-107468671D01*
X129901640Y-107239041D01*
X129902730Y-107194434D01*
X129903245Y-107173365D01*
X129903245Y-107173361D01*
X129903327Y-107170000D01*
X129900488Y-107135469D01*
X144577095Y-107135469D01*
X144577392Y-107140622D01*
X144577392Y-107140625D01*
X144585689Y-107284526D01*
X144590427Y-107366697D01*
X144591564Y-107371743D01*
X144591565Y-107371749D01*
X144622300Y-107508128D01*
X144641346Y-107592642D01*
X144643288Y-107597424D01*
X144643289Y-107597428D01*
X144722469Y-107792425D01*
X144728484Y-107807237D01*
X144849501Y-108004719D01*
X145001147Y-108179784D01*
X145124787Y-108282432D01*
X145165588Y-108316305D01*
X145179349Y-108327730D01*
X145379322Y-108444584D01*
X145595694Y-108527209D01*
X145600760Y-108528240D01*
X145600761Y-108528240D01*
X145653846Y-108539040D01*
X145822656Y-108573385D01*
X145953324Y-108578176D01*
X146048949Y-108581683D01*
X146048953Y-108581683D01*
X146054113Y-108581872D01*
X146059233Y-108581216D01*
X146059235Y-108581216D01*
X146132270Y-108571860D01*
X146283847Y-108552442D01*
X146288795Y-108550957D01*
X146288802Y-108550956D01*
X146500747Y-108487369D01*
X146505690Y-108485886D01*
X146586236Y-108446427D01*
X146709049Y-108386262D01*
X146709052Y-108386260D01*
X146713684Y-108383991D01*
X146846477Y-108289271D01*
X150346494Y-108289271D01*
X150360545Y-108503640D01*
X150413426Y-108711859D01*
X150503366Y-108906954D01*
X150627353Y-109082392D01*
X150781236Y-109232298D01*
X150786032Y-109235503D01*
X150786035Y-109235505D01*
X150955055Y-109348440D01*
X150955060Y-109348443D01*
X150959860Y-109351650D01*
X150965169Y-109353931D01*
X150965171Y-109353932D01*
X151151932Y-109434172D01*
X151151936Y-109434173D01*
X151157242Y-109436453D01*
X151162874Y-109437727D01*
X151162876Y-109437728D01*
X151361137Y-109482590D01*
X151361142Y-109482591D01*
X151366774Y-109483865D01*
X151372545Y-109484092D01*
X151372547Y-109484092D01*
X151432186Y-109486435D01*
X151581438Y-109492299D01*
X151706168Y-109474214D01*
X151788321Y-109462303D01*
X151788325Y-109462302D01*
X151794043Y-109461473D01*
X151799515Y-109459615D01*
X151799517Y-109459615D01*
X151992007Y-109394273D01*
X151992009Y-109394272D01*
X151997471Y-109392418D01*
X152184909Y-109287448D01*
X152247364Y-109235505D01*
X152345640Y-109153769D01*
X152350078Y-109150078D01*
X152487448Y-108984909D01*
X152592418Y-108797471D01*
X152597635Y-108782104D01*
X152659615Y-108599517D01*
X152659615Y-108599515D01*
X152661473Y-108594043D01*
X152664160Y-108575516D01*
X152687066Y-108417529D01*
X152692299Y-108381438D01*
X152693908Y-108320000D01*
X152674251Y-108106072D01*
X152669621Y-108089653D01*
X152646767Y-108008622D01*
X152615938Y-107899309D01*
X152611362Y-107890028D01*
X152523475Y-107711814D01*
X152520921Y-107706635D01*
X152392384Y-107534502D01*
X152382317Y-107525196D01*
X152238870Y-107392595D01*
X152238867Y-107392593D01*
X152234630Y-107388676D01*
X152052943Y-107274040D01*
X151853408Y-107194434D01*
X151847748Y-107193308D01*
X151847744Y-107193307D01*
X151648374Y-107153650D01*
X151648371Y-107153650D01*
X151642707Y-107152523D01*
X151636932Y-107152447D01*
X151636928Y-107152447D01*
X151529255Y-107151038D01*
X151427896Y-107149711D01*
X151422199Y-107150690D01*
X151422198Y-107150690D01*
X151309820Y-107170000D01*
X151216170Y-107186092D01*
X151014620Y-107260448D01*
X150829994Y-107370288D01*
X150825654Y-107374094D01*
X150825650Y-107374097D01*
X150723656Y-107463544D01*
X150668477Y-107511935D01*
X150535478Y-107680644D01*
X150532789Y-107685755D01*
X150532787Y-107685758D01*
X150482540Y-107781263D01*
X150435450Y-107870765D01*
X150371745Y-108075931D01*
X150346494Y-108289271D01*
X146846477Y-108289271D01*
X146902243Y-108249494D01*
X147066303Y-108086005D01*
X147069420Y-108081668D01*
X147128808Y-107999020D01*
X147201458Y-107897917D01*
X147214878Y-107870765D01*
X147301784Y-107694922D01*
X147301785Y-107694920D01*
X147304078Y-107690280D01*
X147371408Y-107468671D01*
X147401640Y-107239041D01*
X147402730Y-107194434D01*
X147403245Y-107173365D01*
X147403245Y-107173361D01*
X147403327Y-107170000D01*
X147397032Y-107093434D01*
X147384773Y-106944318D01*
X147384772Y-106944312D01*
X147384349Y-106939167D01*
X147340727Y-106765499D01*
X147329184Y-106719544D01*
X147329183Y-106719540D01*
X147327925Y-106714533D01*
X147325866Y-106709797D01*
X147237630Y-106506868D01*
X147237628Y-106506865D01*
X147235570Y-106502131D01*
X147185716Y-106425069D01*
X150351601Y-106425069D01*
X150351971Y-106431890D01*
X150357495Y-106482752D01*
X150361121Y-106498004D01*
X150406276Y-106618454D01*
X150414814Y-106634049D01*
X150491315Y-106736124D01*
X150503876Y-106748685D01*
X150605951Y-106825186D01*
X150621546Y-106833724D01*
X150741994Y-106878878D01*
X150757249Y-106882505D01*
X150808114Y-106888031D01*
X150814928Y-106888400D01*
X151247885Y-106888400D01*
X151263124Y-106883925D01*
X151264329Y-106882535D01*
X151266000Y-106874852D01*
X151266000Y-106870284D01*
X151774000Y-106870284D01*
X151778475Y-106885523D01*
X151779865Y-106886728D01*
X151787548Y-106888399D01*
X152225069Y-106888399D01*
X152231890Y-106888029D01*
X152282752Y-106882505D01*
X152298004Y-106878879D01*
X152418454Y-106833724D01*
X152434049Y-106825186D01*
X152536124Y-106748685D01*
X152548685Y-106736124D01*
X152625186Y-106634049D01*
X152633724Y-106618454D01*
X152678878Y-106498006D01*
X152682505Y-106482751D01*
X152688031Y-106431886D01*
X152688400Y-106425072D01*
X152688400Y-105992115D01*
X152683925Y-105976876D01*
X152682535Y-105975671D01*
X152674852Y-105974000D01*
X151792115Y-105974000D01*
X151776876Y-105978475D01*
X151775671Y-105979865D01*
X151774000Y-105987548D01*
X151774000Y-106870284D01*
X151266000Y-106870284D01*
X151266000Y-105992115D01*
X151261525Y-105976876D01*
X151260135Y-105975671D01*
X151252452Y-105974000D01*
X150369716Y-105974000D01*
X150354477Y-105978475D01*
X150353272Y-105979865D01*
X150351601Y-105987548D01*
X150351601Y-106425069D01*
X147185716Y-106425069D01*
X147109764Y-106307665D01*
X146953887Y-106136358D01*
X146949836Y-106133159D01*
X146949832Y-106133155D01*
X146776177Y-105996011D01*
X146776172Y-105996008D01*
X146772123Y-105992810D01*
X146767607Y-105990317D01*
X146767604Y-105990315D01*
X146573879Y-105883373D01*
X146573875Y-105883371D01*
X146569355Y-105880876D01*
X146564486Y-105879152D01*
X146564482Y-105879150D01*
X146355903Y-105805288D01*
X146355899Y-105805287D01*
X146351028Y-105803562D01*
X146345935Y-105802655D01*
X146345932Y-105802654D01*
X146128095Y-105763851D01*
X146128089Y-105763850D01*
X146123006Y-105762945D01*
X146050096Y-105762054D01*
X145896581Y-105760179D01*
X145896579Y-105760179D01*
X145891411Y-105760116D01*
X145662464Y-105795150D01*
X145442314Y-105867106D01*
X145437726Y-105869494D01*
X145437722Y-105869496D01*
X145265322Y-105959242D01*
X145236872Y-105974052D01*
X145232739Y-105977155D01*
X145232736Y-105977157D01*
X145055790Y-106110012D01*
X145051655Y-106113117D01*
X145032506Y-106133155D01*
X144908079Y-106263361D01*
X144891639Y-106280564D01*
X144888725Y-106284836D01*
X144888724Y-106284837D01*
X144873152Y-106307665D01*
X144761119Y-106471899D01*
X144663602Y-106681981D01*
X144601707Y-106905169D01*
X144577095Y-107135469D01*
X129900488Y-107135469D01*
X129897032Y-107093434D01*
X129884773Y-106944318D01*
X129884772Y-106944312D01*
X129884349Y-106939167D01*
X129840727Y-106765499D01*
X129829184Y-106719544D01*
X129829183Y-106719540D01*
X129827925Y-106714533D01*
X129825866Y-106709797D01*
X129737630Y-106506868D01*
X129737628Y-106506865D01*
X129735570Y-106502131D01*
X129609764Y-106307665D01*
X129453887Y-106136358D01*
X129449836Y-106133159D01*
X129449832Y-106133155D01*
X129276177Y-105996011D01*
X129276172Y-105996008D01*
X129272123Y-105992810D01*
X129267607Y-105990317D01*
X129267604Y-105990315D01*
X129073879Y-105883373D01*
X129073875Y-105883371D01*
X129069355Y-105880876D01*
X129064486Y-105879152D01*
X129064482Y-105879150D01*
X128855903Y-105805288D01*
X128855899Y-105805287D01*
X128851028Y-105803562D01*
X128845935Y-105802655D01*
X128845932Y-105802654D01*
X128628095Y-105763851D01*
X128628089Y-105763850D01*
X128623006Y-105762945D01*
X128550096Y-105762054D01*
X128396581Y-105760179D01*
X128396579Y-105760179D01*
X128391411Y-105760116D01*
X128162464Y-105795150D01*
X127942314Y-105867106D01*
X127937726Y-105869494D01*
X127937722Y-105869496D01*
X127765322Y-105959242D01*
X127736872Y-105974052D01*
X127732739Y-105977155D01*
X127732736Y-105977157D01*
X127555790Y-106110012D01*
X127551655Y-106113117D01*
X127532506Y-106133155D01*
X127408079Y-106263361D01*
X127391639Y-106280564D01*
X127388725Y-106284836D01*
X127388724Y-106284837D01*
X127373152Y-106307665D01*
X127261119Y-106471899D01*
X127163602Y-106681981D01*
X127101707Y-106905169D01*
X127077095Y-107135469D01*
X122688374Y-107135469D01*
X122699523Y-105447885D01*
X150351600Y-105447885D01*
X150356075Y-105463124D01*
X150357465Y-105464329D01*
X150365148Y-105466000D01*
X151247885Y-105466000D01*
X151263124Y-105461525D01*
X151264329Y-105460135D01*
X151266000Y-105452452D01*
X151266000Y-105447885D01*
X151774000Y-105447885D01*
X151778475Y-105463124D01*
X151779865Y-105464329D01*
X151787548Y-105466000D01*
X152670284Y-105466000D01*
X152685523Y-105461525D01*
X152686728Y-105460135D01*
X152688399Y-105452452D01*
X152688399Y-105014931D01*
X152688029Y-105008110D01*
X152682505Y-104957248D01*
X152678879Y-104941996D01*
X152633724Y-104821546D01*
X152625186Y-104805951D01*
X152548685Y-104703876D01*
X152536124Y-104691315D01*
X152434049Y-104614814D01*
X152418454Y-104606276D01*
X152298006Y-104561122D01*
X152282751Y-104557495D01*
X152231886Y-104551969D01*
X152225072Y-104551600D01*
X151792115Y-104551600D01*
X151776876Y-104556075D01*
X151775671Y-104557465D01*
X151774000Y-104565148D01*
X151774000Y-105447885D01*
X151266000Y-105447885D01*
X151266000Y-104569716D01*
X151261525Y-104554477D01*
X151260135Y-104553272D01*
X151252452Y-104551601D01*
X150814931Y-104551601D01*
X150808110Y-104551971D01*
X150757248Y-104557495D01*
X150741996Y-104561121D01*
X150621546Y-104606276D01*
X150605951Y-104614814D01*
X150503876Y-104691315D01*
X150491315Y-104703876D01*
X150414814Y-104805951D01*
X150406276Y-104821546D01*
X150361122Y-104941994D01*
X150357495Y-104957249D01*
X150351969Y-105008114D01*
X150351600Y-105014928D01*
X150351600Y-105447885D01*
X122699523Y-105447885D01*
X122713149Y-103385469D01*
X144577095Y-103385469D01*
X144577392Y-103390622D01*
X144577392Y-103390625D01*
X144584503Y-103513955D01*
X144590427Y-103616697D01*
X144591564Y-103621743D01*
X144591565Y-103621749D01*
X144621222Y-103753345D01*
X144641346Y-103842642D01*
X144643288Y-103847424D01*
X144643289Y-103847428D01*
X144726540Y-104052450D01*
X144728484Y-104057237D01*
X144849501Y-104254719D01*
X145001147Y-104429784D01*
X145005123Y-104433085D01*
X145159345Y-104561122D01*
X145179349Y-104577730D01*
X145379322Y-104694584D01*
X145595694Y-104777209D01*
X145600760Y-104778240D01*
X145600761Y-104778240D01*
X145653846Y-104789040D01*
X145822656Y-104823385D01*
X145953324Y-104828176D01*
X146048949Y-104831683D01*
X146048953Y-104831683D01*
X146054113Y-104831872D01*
X146059233Y-104831216D01*
X146059235Y-104831216D01*
X146134719Y-104821546D01*
X146283847Y-104802442D01*
X146288795Y-104800957D01*
X146288802Y-104800956D01*
X146500747Y-104737369D01*
X146505690Y-104735886D01*
X146586236Y-104696427D01*
X146709049Y-104636262D01*
X146709052Y-104636260D01*
X146713684Y-104633991D01*
X146902243Y-104499494D01*
X147066303Y-104336005D01*
X147201458Y-104147917D01*
X147248641Y-104052450D01*
X147301784Y-103944922D01*
X147301785Y-103944920D01*
X147304078Y-103940280D01*
X147371408Y-103718671D01*
X147401640Y-103489041D01*
X147403327Y-103420000D01*
X147389544Y-103252351D01*
X147384773Y-103194318D01*
X147384772Y-103194312D01*
X147384349Y-103189167D01*
X147327925Y-102964533D01*
X147325866Y-102959797D01*
X147237630Y-102756868D01*
X147237628Y-102756865D01*
X147235570Y-102752131D01*
X147109764Y-102557665D01*
X146953887Y-102386358D01*
X146949836Y-102383159D01*
X146949832Y-102383155D01*
X146776177Y-102246011D01*
X146776172Y-102246008D01*
X146772123Y-102242810D01*
X146767607Y-102240317D01*
X146767604Y-102240315D01*
X146573879Y-102133373D01*
X146573875Y-102133371D01*
X146569355Y-102130876D01*
X146564486Y-102129152D01*
X146564482Y-102129150D01*
X146355903Y-102055288D01*
X146355899Y-102055287D01*
X146351028Y-102053562D01*
X146345935Y-102052655D01*
X146345932Y-102052654D01*
X146206881Y-102027885D01*
X156302000Y-102027885D01*
X156306475Y-102043124D01*
X156307865Y-102044329D01*
X156315548Y-102046000D01*
X157387885Y-102046000D01*
X157403124Y-102041525D01*
X157404329Y-102040135D01*
X157406000Y-102032452D01*
X157406000Y-102027885D01*
X157914000Y-102027885D01*
X157918475Y-102043124D01*
X157919865Y-102044329D01*
X157927548Y-102046000D01*
X158999884Y-102046000D01*
X159015123Y-102041525D01*
X159016328Y-102040135D01*
X159017999Y-102032452D01*
X159017999Y-101405331D01*
X159017629Y-101398510D01*
X159012105Y-101347648D01*
X159008479Y-101332396D01*
X158963324Y-101211946D01*
X158954786Y-101196351D01*
X158878285Y-101094276D01*
X158865724Y-101081715D01*
X158763649Y-101005214D01*
X158748054Y-100996676D01*
X158627606Y-100951522D01*
X158612351Y-100947895D01*
X158561486Y-100942369D01*
X158554672Y-100942000D01*
X157932115Y-100942000D01*
X157916876Y-100946475D01*
X157915671Y-100947865D01*
X157914000Y-100955548D01*
X157914000Y-102027885D01*
X157406000Y-102027885D01*
X157406000Y-100960116D01*
X157401525Y-100944877D01*
X157400135Y-100943672D01*
X157392452Y-100942001D01*
X156765331Y-100942001D01*
X156758510Y-100942371D01*
X156707648Y-100947895D01*
X156692396Y-100951521D01*
X156571946Y-100996676D01*
X156556351Y-101005214D01*
X156454276Y-101081715D01*
X156441715Y-101094276D01*
X156365214Y-101196351D01*
X156356676Y-101211946D01*
X156311522Y-101332394D01*
X156307895Y-101347649D01*
X156302369Y-101398514D01*
X156302000Y-101405328D01*
X156302000Y-102027885D01*
X146206881Y-102027885D01*
X146128095Y-102013851D01*
X146128089Y-102013850D01*
X146123006Y-102012945D01*
X146050096Y-102012054D01*
X145896581Y-102010179D01*
X145896579Y-102010179D01*
X145891411Y-102010116D01*
X145662464Y-102045150D01*
X145442314Y-102117106D01*
X145437726Y-102119494D01*
X145437722Y-102119496D01*
X145411065Y-102133373D01*
X145236872Y-102224052D01*
X145232739Y-102227155D01*
X145232736Y-102227157D01*
X145207625Y-102246011D01*
X145051655Y-102363117D01*
X144891639Y-102530564D01*
X144888725Y-102534836D01*
X144888724Y-102534837D01*
X144875652Y-102554000D01*
X144761119Y-102721899D01*
X144663602Y-102931981D01*
X144601707Y-103155169D01*
X144577095Y-103385469D01*
X122713149Y-103385469D01*
X122737923Y-99635469D01*
X123577095Y-99635469D01*
X123577392Y-99640622D01*
X123577392Y-99640625D01*
X123583067Y-99739041D01*
X123590427Y-99866697D01*
X123591564Y-99871743D01*
X123591565Y-99871749D01*
X123623741Y-100014523D01*
X123641346Y-100092642D01*
X123643288Y-100097424D01*
X123643289Y-100097428D01*
X123726540Y-100302450D01*
X123728484Y-100307237D01*
X123849501Y-100504719D01*
X124001147Y-100679784D01*
X124179349Y-100827730D01*
X124379322Y-100944584D01*
X124384147Y-100946426D01*
X124384148Y-100946427D01*
X124419896Y-100960078D01*
X124595694Y-101027209D01*
X124600760Y-101028240D01*
X124600761Y-101028240D01*
X124601813Y-101028454D01*
X124822656Y-101073385D01*
X124952089Y-101078131D01*
X125048949Y-101081683D01*
X125048953Y-101081683D01*
X125054113Y-101081872D01*
X125059233Y-101081216D01*
X125059235Y-101081216D01*
X125133166Y-101071745D01*
X125283847Y-101052442D01*
X125288795Y-101050957D01*
X125288802Y-101050956D01*
X125500747Y-100987369D01*
X125505690Y-100985886D01*
X125550837Y-100963769D01*
X125709049Y-100886262D01*
X125709052Y-100886260D01*
X125713684Y-100883991D01*
X125902243Y-100749494D01*
X126034062Y-100618134D01*
X144581500Y-100618134D01*
X144588255Y-100680316D01*
X144639385Y-100816705D01*
X144726739Y-100933261D01*
X144843295Y-101020615D01*
X144979684Y-101071745D01*
X145041866Y-101078500D01*
X146938134Y-101078500D01*
X147000316Y-101071745D01*
X147136705Y-101020615D01*
X147253261Y-100933261D01*
X147340615Y-100816705D01*
X147391745Y-100680316D01*
X147398500Y-100618134D01*
X147398500Y-100099271D01*
X148376494Y-100099271D01*
X148390545Y-100313640D01*
X148443426Y-100521859D01*
X148533366Y-100716954D01*
X148657353Y-100892392D01*
X148811236Y-101042298D01*
X148816032Y-101045503D01*
X148816035Y-101045505D01*
X148985055Y-101158440D01*
X148985060Y-101158443D01*
X148989860Y-101161650D01*
X148995169Y-101163931D01*
X148995171Y-101163932D01*
X149181932Y-101244172D01*
X149181936Y-101244173D01*
X149187242Y-101246453D01*
X149192874Y-101247727D01*
X149192876Y-101247728D01*
X149391137Y-101292590D01*
X149391142Y-101292591D01*
X149396774Y-101293865D01*
X149402545Y-101294092D01*
X149402547Y-101294092D01*
X149468614Y-101296688D01*
X149611438Y-101302299D01*
X149736168Y-101284214D01*
X149818321Y-101272303D01*
X149818325Y-101272302D01*
X149824043Y-101271473D01*
X149829515Y-101269615D01*
X149829517Y-101269615D01*
X150022007Y-101204273D01*
X150022009Y-101204272D01*
X150027471Y-101202418D01*
X150214909Y-101097448D01*
X150277364Y-101045505D01*
X150375640Y-100963769D01*
X150380078Y-100960078D01*
X150517448Y-100794909D01*
X150622418Y-100607471D01*
X150628467Y-100589653D01*
X150689615Y-100409517D01*
X150689615Y-100409515D01*
X150691473Y-100404043D01*
X150692362Y-100397917D01*
X150721766Y-100195112D01*
X150722299Y-100191438D01*
X150723908Y-100130000D01*
X150721084Y-100099271D01*
X150976494Y-100099271D01*
X150990545Y-100313640D01*
X151043426Y-100521859D01*
X151133366Y-100716954D01*
X151257353Y-100892392D01*
X151411236Y-101042298D01*
X151416032Y-101045503D01*
X151416035Y-101045505D01*
X151585055Y-101158440D01*
X151585060Y-101158443D01*
X151589860Y-101161650D01*
X151595169Y-101163931D01*
X151595171Y-101163932D01*
X151781932Y-101244172D01*
X151781936Y-101244173D01*
X151787242Y-101246453D01*
X151792874Y-101247727D01*
X151792876Y-101247728D01*
X151991137Y-101292590D01*
X151991142Y-101292591D01*
X151996774Y-101293865D01*
X152002545Y-101294092D01*
X152002547Y-101294092D01*
X152068614Y-101296688D01*
X152211438Y-101302299D01*
X152336168Y-101284214D01*
X152418321Y-101272303D01*
X152418325Y-101272302D01*
X152424043Y-101271473D01*
X152429515Y-101269615D01*
X152429517Y-101269615D01*
X152622007Y-101204273D01*
X152622009Y-101204272D01*
X152627471Y-101202418D01*
X152814909Y-101097448D01*
X152877364Y-101045505D01*
X152975640Y-100963769D01*
X152980078Y-100960078D01*
X153084047Y-100835069D01*
X153581601Y-100835069D01*
X153581971Y-100841890D01*
X153587495Y-100892752D01*
X153591121Y-100908004D01*
X153636276Y-101028454D01*
X153644814Y-101044049D01*
X153721315Y-101146124D01*
X153733876Y-101158685D01*
X153835951Y-101235186D01*
X153851546Y-101243724D01*
X153971994Y-101288878D01*
X153987249Y-101292505D01*
X154038114Y-101298031D01*
X154044928Y-101298400D01*
X154477885Y-101298400D01*
X154493124Y-101293925D01*
X154494329Y-101292535D01*
X154496000Y-101284852D01*
X154496000Y-101280284D01*
X155004000Y-101280284D01*
X155008475Y-101295523D01*
X155009865Y-101296728D01*
X155017548Y-101298399D01*
X155455069Y-101298399D01*
X155461890Y-101298029D01*
X155512752Y-101292505D01*
X155528004Y-101288879D01*
X155648454Y-101243724D01*
X155664049Y-101235186D01*
X155766124Y-101158685D01*
X155778685Y-101146124D01*
X155855186Y-101044049D01*
X155863724Y-101028454D01*
X155908878Y-100908006D01*
X155912505Y-100892751D01*
X155918031Y-100841886D01*
X155918400Y-100835072D01*
X155918400Y-100402115D01*
X155913925Y-100386876D01*
X155912535Y-100385671D01*
X155904852Y-100384000D01*
X155022115Y-100384000D01*
X155006876Y-100388475D01*
X155005671Y-100389865D01*
X155004000Y-100397548D01*
X155004000Y-101280284D01*
X154496000Y-101280284D01*
X154496000Y-100402115D01*
X154491525Y-100386876D01*
X154490135Y-100385671D01*
X154482452Y-100384000D01*
X153599716Y-100384000D01*
X153584477Y-100388475D01*
X153583272Y-100389865D01*
X153581601Y-100397548D01*
X153581601Y-100835069D01*
X153084047Y-100835069D01*
X153117448Y-100794909D01*
X153222418Y-100607471D01*
X153228467Y-100589653D01*
X153289615Y-100409517D01*
X153289615Y-100409515D01*
X153291473Y-100404043D01*
X153292362Y-100397917D01*
X153321766Y-100195112D01*
X153322299Y-100191438D01*
X153323908Y-100130000D01*
X153304251Y-99916072D01*
X153297369Y-99891668D01*
X153287841Y-99857885D01*
X153581600Y-99857885D01*
X153586075Y-99873124D01*
X153587465Y-99874329D01*
X153595148Y-99876000D01*
X154477885Y-99876000D01*
X154493124Y-99871525D01*
X154494329Y-99870135D01*
X154496000Y-99862452D01*
X154496000Y-99857885D01*
X155004000Y-99857885D01*
X155008475Y-99873124D01*
X155009865Y-99874329D01*
X155017548Y-99876000D01*
X155900284Y-99876000D01*
X155915523Y-99871525D01*
X155916728Y-99870135D01*
X155918399Y-99862452D01*
X155918399Y-99424931D01*
X155918029Y-99418110D01*
X155912505Y-99367248D01*
X155908879Y-99351996D01*
X155863724Y-99231546D01*
X155855186Y-99215951D01*
X155778685Y-99113876D01*
X155766124Y-99101315D01*
X155664049Y-99024814D01*
X155648454Y-99016276D01*
X155528006Y-98971122D01*
X155512751Y-98967495D01*
X155461886Y-98961969D01*
X155455072Y-98961600D01*
X155022115Y-98961600D01*
X155006876Y-98966075D01*
X155005671Y-98967465D01*
X155004000Y-98975148D01*
X155004000Y-99857885D01*
X154496000Y-99857885D01*
X154496000Y-98979716D01*
X154491525Y-98964477D01*
X154490135Y-98963272D01*
X154482452Y-98961601D01*
X154044931Y-98961601D01*
X154038110Y-98961971D01*
X153987248Y-98967495D01*
X153971996Y-98971121D01*
X153851546Y-99016276D01*
X153835951Y-99024814D01*
X153733876Y-99101315D01*
X153721315Y-99113876D01*
X153644814Y-99215951D01*
X153636276Y-99231546D01*
X153591122Y-99351994D01*
X153587495Y-99367249D01*
X153581969Y-99418114D01*
X153581600Y-99424928D01*
X153581600Y-99857885D01*
X153287841Y-99857885D01*
X153247507Y-99714874D01*
X153245938Y-99709309D01*
X153228213Y-99673365D01*
X153153475Y-99521814D01*
X153150921Y-99516635D01*
X153022384Y-99344502D01*
X152864630Y-99198676D01*
X152682943Y-99084040D01*
X152483408Y-99004434D01*
X152477748Y-99003308D01*
X152477744Y-99003307D01*
X152278374Y-98963650D01*
X152278371Y-98963650D01*
X152272707Y-98962523D01*
X152266932Y-98962447D01*
X152266928Y-98962447D01*
X152159255Y-98961038D01*
X152057896Y-98959711D01*
X152052199Y-98960690D01*
X152052198Y-98960690D01*
X151941473Y-98979716D01*
X151846170Y-98996092D01*
X151644620Y-99070448D01*
X151459994Y-99180288D01*
X151455654Y-99184094D01*
X151455650Y-99184097D01*
X151302818Y-99318128D01*
X151298477Y-99321935D01*
X151165478Y-99490644D01*
X151162789Y-99495755D01*
X151162787Y-99495758D01*
X151111979Y-99592328D01*
X151065450Y-99680765D01*
X151001745Y-99885931D01*
X150976494Y-100099271D01*
X150721084Y-100099271D01*
X150704251Y-99916072D01*
X150697369Y-99891668D01*
X150647507Y-99714874D01*
X150645938Y-99709309D01*
X150628213Y-99673365D01*
X150553475Y-99521814D01*
X150550921Y-99516635D01*
X150422384Y-99344502D01*
X150264630Y-99198676D01*
X150082943Y-99084040D01*
X149883408Y-99004434D01*
X149877748Y-99003308D01*
X149877744Y-99003307D01*
X149678374Y-98963650D01*
X149678371Y-98963650D01*
X149672707Y-98962523D01*
X149666932Y-98962447D01*
X149666928Y-98962447D01*
X149559255Y-98961038D01*
X149457896Y-98959711D01*
X149452199Y-98960690D01*
X149452198Y-98960690D01*
X149341473Y-98979716D01*
X149246170Y-98996092D01*
X149044620Y-99070448D01*
X148859994Y-99180288D01*
X148855654Y-99184094D01*
X148855650Y-99184097D01*
X148702818Y-99318128D01*
X148698477Y-99321935D01*
X148565478Y-99490644D01*
X148562789Y-99495755D01*
X148562787Y-99495758D01*
X148511979Y-99592328D01*
X148465450Y-99680765D01*
X148401745Y-99885931D01*
X148376494Y-100099271D01*
X147398500Y-100099271D01*
X147398500Y-98721866D01*
X147391745Y-98659684D01*
X147340615Y-98523295D01*
X147253261Y-98406739D01*
X147136705Y-98319385D01*
X147000316Y-98268255D01*
X146938134Y-98261500D01*
X145041866Y-98261500D01*
X144979684Y-98268255D01*
X144843295Y-98319385D01*
X144726739Y-98406739D01*
X144639385Y-98523295D01*
X144588255Y-98659684D01*
X144581500Y-98721866D01*
X144581500Y-100618134D01*
X126034062Y-100618134D01*
X126066303Y-100586005D01*
X126201458Y-100397917D01*
X126206125Y-100388475D01*
X126301784Y-100194922D01*
X126301785Y-100194920D01*
X126304078Y-100190280D01*
X126371408Y-99968671D01*
X126401640Y-99739041D01*
X126402231Y-99714874D01*
X126403245Y-99673365D01*
X126403245Y-99673361D01*
X126403327Y-99670000D01*
X126389002Y-99495758D01*
X126384773Y-99444318D01*
X126384772Y-99444312D01*
X126384349Y-99439167D01*
X126353946Y-99318128D01*
X126329184Y-99219544D01*
X126329183Y-99219540D01*
X126327925Y-99214533D01*
X126319690Y-99195594D01*
X126237630Y-99006868D01*
X126237628Y-99006865D01*
X126235570Y-99002131D01*
X126109764Y-98807665D01*
X125953887Y-98636358D01*
X125949836Y-98633159D01*
X125949832Y-98633155D01*
X125776177Y-98496011D01*
X125776172Y-98496008D01*
X125772123Y-98492810D01*
X125767607Y-98490317D01*
X125767604Y-98490315D01*
X125573879Y-98383373D01*
X125573875Y-98383371D01*
X125569355Y-98380876D01*
X125564486Y-98379152D01*
X125564482Y-98379150D01*
X125355903Y-98305288D01*
X125355899Y-98305287D01*
X125351028Y-98303562D01*
X125345935Y-98302655D01*
X125345932Y-98302654D01*
X125128095Y-98263851D01*
X125128089Y-98263850D01*
X125123006Y-98262945D01*
X125050096Y-98262054D01*
X124896581Y-98260179D01*
X124896579Y-98260179D01*
X124891411Y-98260116D01*
X124662464Y-98295150D01*
X124442314Y-98367106D01*
X124437726Y-98369494D01*
X124437722Y-98369496D01*
X124241461Y-98471663D01*
X124236872Y-98474052D01*
X124232739Y-98477155D01*
X124232736Y-98477157D01*
X124160088Y-98531703D01*
X124051655Y-98613117D01*
X123891639Y-98780564D01*
X123888725Y-98784836D01*
X123888724Y-98784837D01*
X123873152Y-98807665D01*
X123761119Y-98971899D01*
X123663602Y-99181981D01*
X123601707Y-99405169D01*
X123577095Y-99635469D01*
X122737923Y-99635469D01*
X122755264Y-97010744D01*
X122879163Y-78256645D01*
X122899614Y-78188658D01*
X122953576Y-78142521D01*
X123006638Y-78131487D01*
X130809569Y-78223133D01*
G37*
%TD.AperFunction*%
%TD*%
M02*
