%TF.GenerationSoftware,KiCad,Pcbnew,6.0.10-86aedd382b~118~ubuntu20.04.1*%
%TF.CreationDate,2023-01-08T11:34:38+01:00*%
%TF.ProjectId,220AC-mini-C3-board,32323041-432d-46d6-996e-692d43332d62,rev?*%
%TF.SameCoordinates,Original*%
%TF.FileFunction,Legend,Bot*%
%TF.FilePolarity,Positive*%
%FSLAX46Y46*%
G04 Gerber Fmt 4.6, Leading zero omitted, Abs format (unit mm)*
G04 Created by KiCad (PCBNEW 6.0.10-86aedd382b~118~ubuntu20.04.1) date 2023-01-08 11:34:38*
%MOMM*%
%LPD*%
G01*
G04 APERTURE LIST*
%ADD10C,0.130000*%
%ADD11C,0.120000*%
G04 APERTURE END LIST*
D10*
X162932642Y-97703904D02*
X162780261Y-97703904D01*
X162704071Y-97742000D01*
X162627880Y-97818190D01*
X162589785Y-97970571D01*
X162589785Y-98237238D01*
X162627880Y-98389619D01*
X162704071Y-98465809D01*
X162780261Y-98503904D01*
X162932642Y-98503904D01*
X163008833Y-98465809D01*
X163085023Y-98389619D01*
X163123119Y-98237238D01*
X163123119Y-97970571D01*
X163085023Y-97818190D01*
X163008833Y-97742000D01*
X162932642Y-97703904D01*
X162246928Y-97970571D02*
X162246928Y-98770571D01*
X162246928Y-98008666D02*
X162170738Y-97970571D01*
X162018357Y-97970571D01*
X161942166Y-98008666D01*
X161904071Y-98046761D01*
X161865976Y-98122952D01*
X161865976Y-98351523D01*
X161904071Y-98427714D01*
X161942166Y-98465809D01*
X162018357Y-98503904D01*
X162170738Y-98503904D01*
X162246928Y-98465809D01*
X161637404Y-97970571D02*
X161332642Y-97970571D01*
X161523119Y-97703904D02*
X161523119Y-98389619D01*
X161485023Y-98465809D01*
X161408833Y-98503904D01*
X161332642Y-98503904D01*
X161065976Y-98503904D02*
X161065976Y-97970571D01*
X161065976Y-97703904D02*
X161104071Y-97742000D01*
X161065976Y-97780095D01*
X161027880Y-97742000D01*
X161065976Y-97703904D01*
X161065976Y-97780095D01*
X160570738Y-98503904D02*
X160646928Y-98465809D01*
X160685023Y-98427714D01*
X160723119Y-98351523D01*
X160723119Y-98122952D01*
X160685023Y-98046761D01*
X160646928Y-98008666D01*
X160570738Y-97970571D01*
X160456452Y-97970571D01*
X160380261Y-98008666D01*
X160342166Y-98046761D01*
X160304071Y-98122952D01*
X160304071Y-98351523D01*
X160342166Y-98427714D01*
X160380261Y-98465809D01*
X160456452Y-98503904D01*
X160570738Y-98503904D01*
X159961214Y-97970571D02*
X159961214Y-98503904D01*
X159961214Y-98046761D02*
X159923119Y-98008666D01*
X159846928Y-97970571D01*
X159732642Y-97970571D01*
X159656452Y-98008666D01*
X159618357Y-98084857D01*
X159618357Y-98503904D01*
X158894547Y-98503904D02*
X158894547Y-98084857D01*
X158932642Y-98008666D01*
X159008833Y-97970571D01*
X159161214Y-97970571D01*
X159237404Y-98008666D01*
X158894547Y-98465809D02*
X158970738Y-98503904D01*
X159161214Y-98503904D01*
X159237404Y-98465809D01*
X159275500Y-98389619D01*
X159275500Y-98313428D01*
X159237404Y-98237238D01*
X159161214Y-98199142D01*
X158970738Y-98199142D01*
X158894547Y-98161047D01*
X158399309Y-98503904D02*
X158475500Y-98465809D01*
X158513595Y-98389619D01*
X158513595Y-97703904D01*
X163085023Y-99258571D02*
X163085023Y-100058571D01*
X163085023Y-99296666D02*
X163008833Y-99258571D01*
X162856452Y-99258571D01*
X162780261Y-99296666D01*
X162742166Y-99334761D01*
X162704071Y-99410952D01*
X162704071Y-99639523D01*
X162742166Y-99715714D01*
X162780261Y-99753809D01*
X162856452Y-99791904D01*
X163008833Y-99791904D01*
X163085023Y-99753809D01*
X162018357Y-99258571D02*
X162018357Y-99791904D01*
X162361214Y-99258571D02*
X162361214Y-99677619D01*
X162323119Y-99753809D01*
X162246928Y-99791904D01*
X162132642Y-99791904D01*
X162056452Y-99753809D01*
X162018357Y-99715714D01*
X161523119Y-99791904D02*
X161599309Y-99753809D01*
X161637404Y-99677619D01*
X161637404Y-98991904D01*
X161104071Y-99791904D02*
X161180261Y-99753809D01*
X161218357Y-99677619D01*
X161218357Y-98991904D01*
X160456452Y-99791904D02*
X160456452Y-98991904D01*
X160456452Y-99753809D02*
X160532642Y-99791904D01*
X160685023Y-99791904D01*
X160761214Y-99753809D01*
X160799309Y-99715714D01*
X160837404Y-99639523D01*
X160837404Y-99410952D01*
X160799309Y-99334761D01*
X160761214Y-99296666D01*
X160685023Y-99258571D01*
X160532642Y-99258571D01*
X160456452Y-99296666D01*
X159961214Y-99791904D02*
X160037404Y-99753809D01*
X160075500Y-99715714D01*
X160113595Y-99639523D01*
X160113595Y-99410952D01*
X160075500Y-99334761D01*
X160037404Y-99296666D01*
X159961214Y-99258571D01*
X159846928Y-99258571D01*
X159770738Y-99296666D01*
X159732642Y-99334761D01*
X159694547Y-99410952D01*
X159694547Y-99639523D01*
X159732642Y-99715714D01*
X159770738Y-99753809D01*
X159846928Y-99791904D01*
X159961214Y-99791904D01*
X159427880Y-99258571D02*
X159275500Y-99791904D01*
X159123119Y-99410952D01*
X158970738Y-99791904D01*
X158818357Y-99258571D01*
X158513595Y-99258571D02*
X158513595Y-99791904D01*
X158513595Y-99334761D02*
X158475500Y-99296666D01*
X158399309Y-99258571D01*
X158285023Y-99258571D01*
X158208833Y-99296666D01*
X158170738Y-99372857D01*
X158170738Y-99791904D01*
X157827880Y-99753809D02*
X157751690Y-99791904D01*
X157599309Y-99791904D01*
X157523119Y-99753809D01*
X157485023Y-99677619D01*
X157485023Y-99639523D01*
X157523119Y-99563333D01*
X157599309Y-99525238D01*
X157713595Y-99525238D01*
X157789785Y-99487142D01*
X157827880Y-99410952D01*
X157827880Y-99372857D01*
X157789785Y-99296666D01*
X157713595Y-99258571D01*
X157599309Y-99258571D01*
X157523119Y-99296666D01*
X160951690Y-100470380D02*
X160951690Y-101079904D01*
X160799309Y-100927523D02*
X160951690Y-101079904D01*
X161104071Y-100927523D01*
%TO.C,R3*%
X162703333Y-110291904D02*
X162970000Y-109910952D01*
X163160476Y-110291904D02*
X163160476Y-109491904D01*
X162855714Y-109491904D01*
X162779523Y-109530000D01*
X162741428Y-109568095D01*
X162703333Y-109644285D01*
X162703333Y-109758571D01*
X162741428Y-109834761D01*
X162779523Y-109872857D01*
X162855714Y-109910952D01*
X163160476Y-109910952D01*
X162436666Y-109491904D02*
X161941428Y-109491904D01*
X162208095Y-109796666D01*
X162093809Y-109796666D01*
X162017619Y-109834761D01*
X161979523Y-109872857D01*
X161941428Y-109949047D01*
X161941428Y-110139523D01*
X161979523Y-110215714D01*
X162017619Y-110253809D01*
X162093809Y-110291904D01*
X162322380Y-110291904D01*
X162398571Y-110253809D01*
X162436666Y-110215714D01*
%TO.C,R2*%
X162703333Y-106561904D02*
X162970000Y-106180952D01*
X163160476Y-106561904D02*
X163160476Y-105761904D01*
X162855714Y-105761904D01*
X162779523Y-105800000D01*
X162741428Y-105838095D01*
X162703333Y-105914285D01*
X162703333Y-106028571D01*
X162741428Y-106104761D01*
X162779523Y-106142857D01*
X162855714Y-106180952D01*
X163160476Y-106180952D01*
X162398571Y-105838095D02*
X162360476Y-105800000D01*
X162284285Y-105761904D01*
X162093809Y-105761904D01*
X162017619Y-105800000D01*
X161979523Y-105838095D01*
X161941428Y-105914285D01*
X161941428Y-105990476D01*
X161979523Y-106104761D01*
X162436666Y-106561904D01*
X161941428Y-106561904D01*
D11*
%TO.C,R3*%
X160457500Y-110057258D02*
X160457500Y-109582742D01*
X161502500Y-110057258D02*
X161502500Y-109582742D01*
%TO.C,R2*%
X161502500Y-106437258D02*
X161502500Y-105962742D01*
X160457500Y-106437258D02*
X160457500Y-105962742D01*
%TD*%
M02*
